%TF.GenerationSoftware,KiCad,Pcbnew,(6.0.5-0)*%
%TF.CreationDate,2022-06-29T18:32:03+01:00*%
%TF.ProjectId,revised_minh_design,72657669-7365-4645-9f6d-696e685f6465,rev?*%
%TF.SameCoordinates,Original*%
%TF.FileFunction,Legend,Bot*%
%TF.FilePolarity,Positive*%
%FSLAX46Y46*%
G04 Gerber Fmt 4.6, Leading zero omitted, Abs format (unit mm)*
G04 Created by KiCad (PCBNEW (6.0.5-0)) date 2022-06-29 18:32:03*
%MOMM*%
%LPD*%
G01*
G04 APERTURE LIST*
%ADD10C,0.200000*%
%ADD11C,0.600000*%
%ADD12C,0.300000*%
%ADD13C,0.150000*%
%ADD14C,0.120000*%
G04 APERTURE END LIST*
D10*
X49530000Y-65786000D02*
X59690000Y-65786000D01*
X59690000Y-65786000D02*
X59690000Y-58166000D01*
X59690000Y-58166000D02*
X49530000Y-58166000D01*
X49530000Y-58166000D02*
X49530000Y-65786000D01*
D11*
X93120285Y-63333142D02*
X93120285Y-60333142D01*
X92120285Y-62476000D01*
X91120285Y-60333142D01*
X91120285Y-63333142D01*
X87977428Y-63047428D02*
X88120285Y-63190285D01*
X88548857Y-63333142D01*
X88834571Y-63333142D01*
X89263142Y-63190285D01*
X89548857Y-62904571D01*
X89691714Y-62618857D01*
X89834571Y-62047428D01*
X89834571Y-61618857D01*
X89691714Y-61047428D01*
X89548857Y-60761714D01*
X89263142Y-60476000D01*
X88834571Y-60333142D01*
X88548857Y-60333142D01*
X88120285Y-60476000D01*
X87977428Y-60618857D01*
X86691714Y-60333142D02*
X86691714Y-62761714D01*
X86548857Y-63047428D01*
X86406000Y-63190285D01*
X86120285Y-63333142D01*
X85548857Y-63333142D01*
X85263142Y-63190285D01*
X85120285Y-63047428D01*
X84977428Y-62761714D01*
X84977428Y-60333142D01*
X81691714Y-60333142D02*
X79977428Y-60333142D01*
X80834571Y-63333142D02*
X80834571Y-60333142D01*
X78977428Y-63333142D02*
X78977428Y-60333142D01*
X78977428Y-61761714D02*
X77263142Y-61761714D01*
X77263142Y-63333142D02*
X77263142Y-60333142D01*
X75834571Y-63333142D02*
X75834571Y-60333142D01*
X74548857Y-63190285D02*
X74120285Y-63333142D01*
X73406000Y-63333142D01*
X73120285Y-63190285D01*
X72977428Y-63047428D01*
X72834571Y-62761714D01*
X72834571Y-62476000D01*
X72977428Y-62190285D01*
X73120285Y-62047428D01*
X73406000Y-61904571D01*
X73977428Y-61761714D01*
X74263142Y-61618857D01*
X74406000Y-61476000D01*
X74548857Y-61190285D01*
X74548857Y-60904571D01*
X74406000Y-60618857D01*
X74263142Y-60476000D01*
X73977428Y-60333142D01*
X73263142Y-60333142D01*
X72834571Y-60476000D01*
X69548857Y-60333142D02*
X68834571Y-63333142D01*
X68263142Y-61190285D01*
X67691714Y-63333142D01*
X66977428Y-60333142D01*
X65977428Y-62476000D02*
X64548857Y-62476000D01*
X66263142Y-63333142D02*
X65263142Y-60333142D01*
X64263142Y-63333142D01*
X62691714Y-61904571D02*
X62691714Y-63333142D01*
X63691714Y-60333142D02*
X62691714Y-61904571D01*
X61691714Y-60333142D01*
X58406000Y-60333142D02*
X58406000Y-62761714D01*
X58263142Y-63047428D01*
X58120285Y-63190285D01*
X57834571Y-63333142D01*
X57263142Y-63333142D01*
X56977428Y-63190285D01*
X56834571Y-63047428D01*
X56691714Y-62761714D01*
X56691714Y-60333142D01*
X55263142Y-63333142D02*
X55263142Y-60333142D01*
X54120285Y-60333142D01*
X53834571Y-60476000D01*
X53691714Y-60618857D01*
X53548857Y-60904571D01*
X53548857Y-61333142D01*
X53691714Y-61618857D01*
X53834571Y-61761714D01*
X54120285Y-61904571D01*
X55263142Y-61904571D01*
D12*
X98943857Y-47136857D02*
X98443857Y-47136857D01*
X98229571Y-47922571D02*
X98943857Y-47922571D01*
X98943857Y-46422571D01*
X98229571Y-46422571D01*
X97658142Y-47851142D02*
X97443857Y-47922571D01*
X97086714Y-47922571D01*
X96943857Y-47851142D01*
X96872428Y-47779714D01*
X96801000Y-47636857D01*
X96801000Y-47494000D01*
X96872428Y-47351142D01*
X96943857Y-47279714D01*
X97086714Y-47208285D01*
X97372428Y-47136857D01*
X97515285Y-47065428D01*
X97586714Y-46994000D01*
X97658142Y-46851142D01*
X97658142Y-46708285D01*
X97586714Y-46565428D01*
X97515285Y-46494000D01*
X97372428Y-46422571D01*
X97015285Y-46422571D01*
X96801000Y-46494000D01*
X96158142Y-47922571D02*
X96158142Y-46422571D01*
X95586714Y-46422571D01*
X95443857Y-46494000D01*
X95372428Y-46565428D01*
X95301000Y-46708285D01*
X95301000Y-46922571D01*
X95372428Y-47065428D01*
X95443857Y-47136857D01*
X95586714Y-47208285D01*
X96158142Y-47208285D01*
X94801000Y-46422571D02*
X93872428Y-46422571D01*
X94372428Y-46994000D01*
X94158142Y-46994000D01*
X94015285Y-47065428D01*
X93943857Y-47136857D01*
X93872428Y-47279714D01*
X93872428Y-47636857D01*
X93943857Y-47779714D01*
X94015285Y-47851142D01*
X94158142Y-47922571D01*
X94586714Y-47922571D01*
X94729571Y-47851142D01*
X94801000Y-47779714D01*
X93301000Y-46565428D02*
X93229571Y-46494000D01*
X93086714Y-46422571D01*
X92729571Y-46422571D01*
X92586714Y-46494000D01*
X92515285Y-46565428D01*
X92443857Y-46708285D01*
X92443857Y-46851142D01*
X92515285Y-47065428D01*
X93372428Y-47922571D01*
X92443857Y-47922571D01*
X91801000Y-47351142D02*
X90658142Y-47351142D01*
X89943857Y-47922571D02*
X89943857Y-46422571D01*
X89586714Y-46422571D01*
X89372428Y-46494000D01*
X89229571Y-46636857D01*
X89158142Y-46779714D01*
X89086714Y-47065428D01*
X89086714Y-47279714D01*
X89158142Y-47565428D01*
X89229571Y-47708285D01*
X89372428Y-47851142D01*
X89586714Y-47922571D01*
X89943857Y-47922571D01*
X87872428Y-47851142D02*
X88015285Y-47922571D01*
X88301000Y-47922571D01*
X88443857Y-47851142D01*
X88515285Y-47708285D01*
X88515285Y-47136857D01*
X88443857Y-46994000D01*
X88301000Y-46922571D01*
X88015285Y-46922571D01*
X87872428Y-46994000D01*
X87801000Y-47136857D01*
X87801000Y-47279714D01*
X88515285Y-47422571D01*
X87301000Y-46922571D02*
X86943857Y-47922571D01*
X86586714Y-46922571D01*
X86015285Y-47922571D02*
X86015285Y-46422571D01*
X85158142Y-47922571D02*
X85801000Y-47065428D01*
X85158142Y-46422571D02*
X86015285Y-47279714D01*
X84515285Y-47922571D02*
X84515285Y-46922571D01*
X84515285Y-46422571D02*
X84586714Y-46494000D01*
X84515285Y-46565428D01*
X84443857Y-46494000D01*
X84515285Y-46422571D01*
X84515285Y-46565428D01*
X84015285Y-46922571D02*
X83443857Y-46922571D01*
X83801000Y-46422571D02*
X83801000Y-47708285D01*
X83729571Y-47851142D01*
X83586714Y-47922571D01*
X83443857Y-47922571D01*
X82086714Y-47779714D02*
X82158142Y-47851142D01*
X82372428Y-47922571D01*
X82515285Y-47922571D01*
X82729571Y-47851142D01*
X82872428Y-47708285D01*
X82943857Y-47565428D01*
X83015285Y-47279714D01*
X83015285Y-47065428D01*
X82943857Y-46779714D01*
X82872428Y-46636857D01*
X82729571Y-46494000D01*
X82515285Y-46422571D01*
X82372428Y-46422571D01*
X82158142Y-46494000D01*
X82086714Y-46565428D01*
D13*
X66935952Y-72429666D02*
X66459761Y-72429666D01*
X67031190Y-72715380D02*
X66697857Y-71715380D01*
X66364523Y-72715380D01*
X66031190Y-72048714D02*
X66031190Y-72715380D01*
X66031190Y-72143952D02*
X65983571Y-72096333D01*
X65888333Y-72048714D01*
X65745476Y-72048714D01*
X65650238Y-72096333D01*
X65602619Y-72191571D01*
X65602619Y-72715380D01*
X65269285Y-72048714D02*
X64888333Y-72048714D01*
X65126428Y-71715380D02*
X65126428Y-72572523D01*
X65078809Y-72667761D01*
X64983571Y-72715380D01*
X64888333Y-72715380D01*
X64174047Y-72667761D02*
X64269285Y-72715380D01*
X64459761Y-72715380D01*
X64555000Y-72667761D01*
X64602619Y-72572523D01*
X64602619Y-72191571D01*
X64555000Y-72096333D01*
X64459761Y-72048714D01*
X64269285Y-72048714D01*
X64174047Y-72096333D01*
X64126428Y-72191571D01*
X64126428Y-72286809D01*
X64602619Y-72382047D01*
X63697857Y-72048714D02*
X63697857Y-72715380D01*
X63697857Y-72143952D02*
X63650238Y-72096333D01*
X63555000Y-72048714D01*
X63412142Y-72048714D01*
X63316904Y-72096333D01*
X63269285Y-72191571D01*
X63269285Y-72715380D01*
X62793095Y-72048714D02*
X62793095Y-72715380D01*
X62793095Y-72143952D02*
X62745476Y-72096333D01*
X62650238Y-72048714D01*
X62507380Y-72048714D01*
X62412142Y-72096333D01*
X62364523Y-72191571D01*
X62364523Y-72715380D01*
X61459761Y-72715380D02*
X61459761Y-72191571D01*
X61507380Y-72096333D01*
X61602619Y-72048714D01*
X61793095Y-72048714D01*
X61888333Y-72096333D01*
X61459761Y-72667761D02*
X61555000Y-72715380D01*
X61793095Y-72715380D01*
X61888333Y-72667761D01*
X61935952Y-72572523D01*
X61935952Y-72477285D01*
X61888333Y-72382047D01*
X61793095Y-72334428D01*
X61555000Y-72334428D01*
X61459761Y-72286809D01*
X60364523Y-72048714D02*
X59983571Y-72048714D01*
X60221666Y-71715380D02*
X60221666Y-72572523D01*
X60174047Y-72667761D01*
X60078809Y-72715380D01*
X59983571Y-72715380D01*
X59650238Y-72715380D02*
X59650238Y-71715380D01*
X59221666Y-72715380D02*
X59221666Y-72191571D01*
X59269285Y-72096333D01*
X59364523Y-72048714D01*
X59507380Y-72048714D01*
X59602619Y-72096333D01*
X59650238Y-72143952D01*
X58745476Y-72715380D02*
X58745476Y-72048714D01*
X58745476Y-71715380D02*
X58793095Y-71763000D01*
X58745476Y-71810619D01*
X58697857Y-71763000D01*
X58745476Y-71715380D01*
X58745476Y-71810619D01*
X58316904Y-72667761D02*
X58221666Y-72715380D01*
X58031190Y-72715380D01*
X57935952Y-72667761D01*
X57888333Y-72572523D01*
X57888333Y-72524904D01*
X57935952Y-72429666D01*
X58031190Y-72382047D01*
X58174047Y-72382047D01*
X58269285Y-72334428D01*
X58316904Y-72239190D01*
X58316904Y-72191571D01*
X58269285Y-72096333D01*
X58174047Y-72048714D01*
X58031190Y-72048714D01*
X57935952Y-72096333D01*
X56793095Y-72048714D02*
X56602619Y-72715380D01*
X56412142Y-72239190D01*
X56221666Y-72715380D01*
X56031190Y-72048714D01*
X55221666Y-72715380D02*
X55221666Y-72191571D01*
X55269285Y-72096333D01*
X55364523Y-72048714D01*
X55555000Y-72048714D01*
X55650238Y-72096333D01*
X55221666Y-72667761D02*
X55316904Y-72715380D01*
X55555000Y-72715380D01*
X55650238Y-72667761D01*
X55697857Y-72572523D01*
X55697857Y-72477285D01*
X55650238Y-72382047D01*
X55555000Y-72334428D01*
X55316904Y-72334428D01*
X55221666Y-72286809D01*
X54840714Y-72048714D02*
X54602619Y-72715380D01*
X54364523Y-72048714D02*
X54602619Y-72715380D01*
X54697857Y-72953476D01*
X54745476Y-73001095D01*
X54840714Y-73048714D01*
X53221666Y-72334428D02*
X52459761Y-72334428D01*
X51983571Y-72048714D02*
X51221666Y-72334428D01*
X51983571Y-72620142D01*
D12*
X94982571Y-52066000D02*
X94268285Y-52066000D01*
X95125428Y-52494571D02*
X94625428Y-50994571D01*
X94125428Y-52494571D01*
X92768285Y-52494571D02*
X93268285Y-51780285D01*
X93625428Y-52494571D02*
X93625428Y-50994571D01*
X93054000Y-50994571D01*
X92911142Y-51066000D01*
X92839714Y-51137428D01*
X92768285Y-51280285D01*
X92768285Y-51494571D01*
X92839714Y-51637428D01*
X92911142Y-51708857D01*
X93054000Y-51780285D01*
X93625428Y-51780285D01*
X92125428Y-52494571D02*
X92125428Y-50994571D01*
X91768285Y-50994571D01*
X91554000Y-51066000D01*
X91411142Y-51208857D01*
X91339714Y-51351714D01*
X91268285Y-51637428D01*
X91268285Y-51851714D01*
X91339714Y-52137428D01*
X91411142Y-52280285D01*
X91554000Y-52423142D01*
X91768285Y-52494571D01*
X92125428Y-52494571D01*
X90625428Y-50994571D02*
X90625428Y-52208857D01*
X90554000Y-52351714D01*
X90482571Y-52423142D01*
X90339714Y-52494571D01*
X90054000Y-52494571D01*
X89911142Y-52423142D01*
X89839714Y-52351714D01*
X89768285Y-52208857D01*
X89768285Y-50994571D01*
X89054000Y-52494571D02*
X89054000Y-50994571D01*
X88339714Y-52494571D02*
X88339714Y-50994571D01*
X87482571Y-52494571D01*
X87482571Y-50994571D01*
X86482571Y-50994571D02*
X86196857Y-50994571D01*
X86054000Y-51066000D01*
X85911142Y-51208857D01*
X85839714Y-51494571D01*
X85839714Y-51994571D01*
X85911142Y-52280285D01*
X86054000Y-52423142D01*
X86196857Y-52494571D01*
X86482571Y-52494571D01*
X86625428Y-52423142D01*
X86768285Y-52280285D01*
X86839714Y-51994571D01*
X86839714Y-51494571D01*
X86768285Y-51208857D01*
X86625428Y-51066000D01*
X86482571Y-50994571D01*
X84054000Y-52494571D02*
X84054000Y-50994571D01*
X83196857Y-52494571D01*
X83196857Y-50994571D01*
X82554000Y-52066000D02*
X81839714Y-52066000D01*
X82696857Y-52494571D02*
X82196857Y-50994571D01*
X81696857Y-52494571D01*
X81196857Y-52494571D02*
X81196857Y-50994571D01*
X80339714Y-52494571D01*
X80339714Y-50994571D01*
X79339714Y-50994571D02*
X79054000Y-50994571D01*
X78911142Y-51066000D01*
X78768285Y-51208857D01*
X78696857Y-51494571D01*
X78696857Y-51994571D01*
X78768285Y-52280285D01*
X78911142Y-52423142D01*
X79054000Y-52494571D01*
X79339714Y-52494571D01*
X79482571Y-52423142D01*
X79625428Y-52280285D01*
X79696857Y-51994571D01*
X79696857Y-51494571D01*
X79625428Y-51208857D01*
X79482571Y-51066000D01*
X79339714Y-50994571D01*
X78196857Y-50994571D02*
X77268285Y-50994571D01*
X77768285Y-51566000D01*
X77554000Y-51566000D01*
X77411142Y-51637428D01*
X77339714Y-51708857D01*
X77268285Y-51851714D01*
X77268285Y-52208857D01*
X77339714Y-52351714D01*
X77411142Y-52423142D01*
X77554000Y-52494571D01*
X77982571Y-52494571D01*
X78125428Y-52423142D01*
X78196857Y-52351714D01*
X76768285Y-50994571D02*
X75839714Y-50994571D01*
X76339714Y-51566000D01*
X76125428Y-51566000D01*
X75982571Y-51637428D01*
X75911142Y-51708857D01*
X75839714Y-51851714D01*
X75839714Y-52208857D01*
X75911142Y-52351714D01*
X75982571Y-52423142D01*
X76125428Y-52494571D01*
X76554000Y-52494571D01*
X76696857Y-52423142D01*
X76768285Y-52351714D01*
X73554000Y-51708857D02*
X73339714Y-51780285D01*
X73268285Y-51851714D01*
X73196857Y-51994571D01*
X73196857Y-52208857D01*
X73268285Y-52351714D01*
X73339714Y-52423142D01*
X73482571Y-52494571D01*
X74054000Y-52494571D01*
X74054000Y-50994571D01*
X73554000Y-50994571D01*
X73411142Y-51066000D01*
X73339714Y-51137428D01*
X73268285Y-51280285D01*
X73268285Y-51423142D01*
X73339714Y-51566000D01*
X73411142Y-51637428D01*
X73554000Y-51708857D01*
X74054000Y-51708857D01*
X71839714Y-52494571D02*
X72554000Y-52494571D01*
X72554000Y-50994571D01*
X71339714Y-51708857D02*
X70839714Y-51708857D01*
X70625428Y-52494571D02*
X71339714Y-52494571D01*
X71339714Y-50994571D01*
X70625428Y-50994571D01*
D13*
%TO.C,U1*%
X102234904Y-48728380D02*
X102234904Y-49537904D01*
X102187285Y-49633142D01*
X102139666Y-49680761D01*
X102044428Y-49728380D01*
X101853952Y-49728380D01*
X101758714Y-49680761D01*
X101711095Y-49633142D01*
X101663476Y-49537904D01*
X101663476Y-48728380D01*
X100663476Y-49728380D02*
X101234904Y-49728380D01*
X100949190Y-49728380D02*
X100949190Y-48728380D01*
X101044428Y-48871238D01*
X101139666Y-48966476D01*
X101234904Y-49014095D01*
%TO.C,A1*%
X97869285Y-53760666D02*
X97393095Y-53760666D01*
X97964523Y-54046380D02*
X97631190Y-53046380D01*
X97297857Y-54046380D01*
X96440714Y-54046380D02*
X97012142Y-54046380D01*
X96726428Y-54046380D02*
X96726428Y-53046380D01*
X96821666Y-53189238D01*
X96916904Y-53284476D01*
X97012142Y-53332095D01*
D14*
%TO.C,U1*%
X99055000Y-48514000D02*
X99055000Y-76454000D01*
X44455000Y-48514000D02*
X44455000Y-76454000D01*
X99055000Y-76454000D02*
X44455000Y-76454000D01*
X99055000Y-48514000D02*
X44455000Y-48514000D01*
%TO.C,J4*%
X143189000Y-75505000D02*
X141859000Y-75505000D01*
X143189000Y-80705000D02*
X143189000Y-78105000D01*
X140589000Y-75505000D02*
X122749000Y-75505000D01*
X143189000Y-80705000D02*
X122749000Y-80705000D01*
X143189000Y-76835000D02*
X143189000Y-75505000D01*
X140589000Y-78105000D02*
X140589000Y-75505000D01*
X122749000Y-80705000D02*
X122749000Y-75505000D01*
X143189000Y-78105000D02*
X140589000Y-78105000D01*
%TO.C,A1*%
X90170000Y-68326000D02*
X92710000Y-68326000D01*
X54610000Y-55626000D02*
X54610000Y-52956000D01*
X92710000Y-55626000D02*
X54610000Y-55626000D01*
X92710000Y-68326000D02*
X92710000Y-70996000D01*
X90170000Y-68326000D02*
X90170000Y-70996000D01*
X90170000Y-68326000D02*
X54610000Y-68326000D01*
X54610000Y-68326000D02*
X54610000Y-70996000D01*
X95380000Y-52956000D02*
X95380000Y-70996000D01*
X92710000Y-55626000D02*
X92710000Y-52956000D01*
X95380000Y-70996000D02*
X92710000Y-70996000D01*
X51940000Y-52956000D02*
X95380000Y-52956000D01*
X90170000Y-70996000D02*
X51940000Y-70996000D01*
X51940000Y-70996000D02*
X51940000Y-52956000D01*
%TD*%
M02*
