%TF.GenerationSoftware,KiCad,Pcbnew,(6.0.5-0)*%
%TF.CreationDate,2022-06-29T07:05:30+01:00*%
%TF.ProjectId,revised_minh_design,72657669-7365-4645-9f6d-696e685f6465,rev?*%
%TF.SameCoordinates,Original*%
%TF.FileFunction,Copper,L2,Bot*%
%TF.FilePolarity,Positive*%
%FSLAX46Y46*%
G04 Gerber Fmt 4.6, Leading zero omitted, Abs format (unit mm)*
G04 Created by KiCad (PCBNEW (6.0.5-0)) date 2022-06-29 07:05:30*
%MOMM*%
%LPD*%
G01*
G04 APERTURE LIST*
G04 Aperture macros list*
%AMRoundRect*
0 Rectangle with rounded corners*
0 $1 Rounding radius*
0 $2 $3 $4 $5 $6 $7 $8 $9 X,Y pos of 4 corners*
0 Add a 4 corners polygon primitive as box body*
4,1,4,$2,$3,$4,$5,$6,$7,$8,$9,$2,$3,0*
0 Add four circle primitives for the rounded corners*
1,1,$1+$1,$2,$3*
1,1,$1+$1,$4,$5*
1,1,$1+$1,$6,$7*
1,1,$1+$1,$8,$9*
0 Add four rect primitives between the rounded corners*
20,1,$1+$1,$2,$3,$4,$5,0*
20,1,$1+$1,$4,$5,$6,$7,0*
20,1,$1+$1,$6,$7,$8,$9,0*
20,1,$1+$1,$8,$9,$2,$3,0*%
G04 Aperture macros list end*
%TA.AperFunction,ComponentPad*%
%ADD10C,1.600000*%
%TD*%
%TA.AperFunction,ComponentPad*%
%ADD11O,1.600000X1.600000*%
%TD*%
%TA.AperFunction,ComponentPad*%
%ADD12R,1.600000X1.600000*%
%TD*%
%TA.AperFunction,ComponentPad*%
%ADD13C,5.600000*%
%TD*%
%TA.AperFunction,ComponentPad*%
%ADD14R,1.800000X1.800000*%
%TD*%
%TA.AperFunction,ComponentPad*%
%ADD15C,1.800000*%
%TD*%
%TA.AperFunction,ComponentPad*%
%ADD16C,1.524000*%
%TD*%
%TA.AperFunction,ComponentPad*%
%ADD17R,2.000000X1.905000*%
%TD*%
%TA.AperFunction,ComponentPad*%
%ADD18O,2.000000X1.905000*%
%TD*%
%TA.AperFunction,ComponentPad*%
%ADD19R,1.700000X1.700000*%
%TD*%
%TA.AperFunction,ComponentPad*%
%ADD20O,1.700000X1.700000*%
%TD*%
%TA.AperFunction,ComponentPad*%
%ADD21RoundRect,0.249999X1.025001X-1.025001X1.025001X1.025001X-1.025001X1.025001X-1.025001X-1.025001X0*%
%TD*%
%TA.AperFunction,Conductor*%
%ADD22C,2.000000*%
%TD*%
G04 APERTURE END LIST*
D10*
%TO.P,R4,1*%
%TO.N,SGND*%
X188264800Y-41605200D03*
D11*
%TO.P,R4,2*%
%TO.N,Net-(D2-Pad1)*%
X188264800Y-33985200D03*
%TD*%
D10*
%TO.P,R1,1*%
%TO.N,Net-(R1-Pad1)*%
X181483000Y-49149000D03*
D11*
%TO.P,R1,2*%
%TO.N,SGND*%
X181483000Y-38989000D03*
%TD*%
D12*
%TO.P,D1,1,K*%
%TO.N,VMON*%
X155448000Y-31750000D03*
D11*
%TO.P,D1,2,A*%
%TO.N,SGND*%
X163068000Y-31750000D03*
%TD*%
D10*
%TO.P,C1,1*%
%TO.N,+12V*%
X178054000Y-76922000D03*
%TO.P,C1,2*%
%TO.N,SGND*%
X178054000Y-71922000D03*
%TD*%
%TO.P,R7,1*%
%TO.N,IMON_3V3*%
X180721000Y-56896000D03*
D11*
%TO.P,R7,2*%
%TO.N,IMON*%
X170561000Y-56896000D03*
%TD*%
D10*
%TO.P,R5,1*%
%TO.N,VMON_3V3*%
X171450000Y-36703000D03*
D11*
%TO.P,R5,2*%
%TO.N,VMON*%
X171450000Y-26543000D03*
%TD*%
D13*
%TO.P, ,1*%
%TO.N,SGND*%
X148463000Y-67310000D03*
%TD*%
D14*
%TO.P,D2,1,K*%
%TO.N,Net-(D2-Pad1)*%
X185267600Y-33939400D03*
D15*
%TO.P,D2,2,A*%
%TO.N,Net-(D2-Pad2)*%
X185267600Y-31399400D03*
%TD*%
D13*
%TO.P, ,1*%
%TO.N,SGND*%
X148463000Y-39370000D03*
%TD*%
D16*
%TO.P,U4,1,DC_INPUT_POWER_GROUND*%
%TO.N,SGND*%
X166243000Y-68584000D03*
%TO.P,U4,2,DC_INPUT_POWER*%
%TO.N,+12V*%
X166243000Y-63480000D03*
%TO.P,U4,2-1,HV_RTN*%
%TO.N,Net-(J2-Pad1)*%
X120523000Y-41910000D03*
%TO.P,U4,2-2,Vmon*%
%TO.N,VMON*%
X117983000Y-41910000D03*
%TO.P,U4,3,Imon*%
%TO.N,IMON*%
X166243000Y-58380000D03*
%TO.P,U4,4,HV_ENABLE*%
%TO.N,ENABLE*%
X166243000Y-53280000D03*
%TO.P,U4,5,SIGNAL_GROUND_RET*%
%TO.N,SGND*%
X166243000Y-48180000D03*
%TO.P,U4,6,Vprog*%
%TO.N,VPGM*%
X166243000Y-43080000D03*
%TO.P,U4,7,5VDC_REF*%
%TO.N,Net-(D2-Pad2)*%
X166243000Y-37980000D03*
%TD*%
D17*
%TO.P,U1,1,VI*%
%TO.N,+12V*%
X174935000Y-74168000D03*
D18*
%TO.P,U1,2,GND*%
%TO.N,SGND*%
X174935000Y-71628000D03*
%TO.P,U1,3,VO*%
%TO.N,+5V*%
X174935000Y-69088000D03*
%TD*%
D10*
%TO.P,C2,1*%
%TO.N,+5V*%
X175423200Y-64770000D03*
%TO.P,C2,2*%
%TO.N,SGND*%
X170423200Y-64770000D03*
%TD*%
%TO.P,C3,1*%
%TO.N,+5V*%
X171109000Y-50927000D03*
%TO.P,C3,2*%
%TO.N,SGND*%
X176109000Y-50927000D03*
%TD*%
%TO.P,R6,1*%
%TO.N,SGND*%
X174752000Y-26543000D03*
D11*
%TO.P,R6,2*%
%TO.N,VMON_3V3*%
X174752000Y-36703000D03*
%TD*%
D10*
%TO.P,R8,1*%
%TO.N,SGND*%
X180289200Y-69799200D03*
D11*
%TO.P,R8,2*%
%TO.N,IMON_3V3*%
X180289200Y-59639200D03*
%TD*%
D10*
%TO.P,R3,1*%
%TO.N,SGND*%
X170561000Y-53721000D03*
D11*
%TO.P,R3,2*%
%TO.N,VPGM*%
X180721000Y-53721000D03*
%TD*%
D19*
%TO.P,J3,1,Pin_1*%
%TO.N,+12V*%
X181711600Y-77927200D03*
D20*
%TO.P,J3,2,Pin_2*%
%TO.N,SGND*%
X184251600Y-77927200D03*
%TD*%
D10*
%TO.P,R2,1*%
%TO.N,Net-(R1-Pad1)*%
X184531000Y-43942000D03*
D11*
%TO.P,R2,2*%
%TO.N,VPGM*%
X184531000Y-51562000D03*
%TD*%
D12*
%TO.P,U2,1*%
%TO.N,VPGM*%
X178806000Y-48123000D03*
D11*
%TO.P,U2,2,-*%
%TO.N,Net-(R1-Pad1)*%
X178806000Y-45583000D03*
%TO.P,U2,3,+*%
%TO.N,DAC_SIG*%
X178806000Y-43043000D03*
%TO.P,U2,4,V-*%
%TO.N,SGND*%
X178806000Y-40503000D03*
%TO.P,U2,5,+*%
%TO.N,unconnected-(U2-Pad5)*%
X171186000Y-40503000D03*
%TO.P,U2,6,-*%
%TO.N,unconnected-(U2-Pad6)*%
X171186000Y-43043000D03*
%TO.P,U2,7*%
%TO.N,unconnected-(U2-Pad7)*%
X171186000Y-45583000D03*
%TO.P,U2,8,V+*%
%TO.N,+5V*%
X171186000Y-48123000D03*
%TD*%
D21*
%TO.P,J2,1,Pin_1*%
%TO.N,Net-(J2-Pad1)*%
X117704000Y-76200000D03*
%TD*%
D19*
%TO.P,J1,1,Pin_1*%
%TO.N,SGND*%
X188132400Y-64435200D03*
D20*
%TO.P,J1,2,Pin_2*%
%TO.N,ENABLE*%
X185592400Y-64435200D03*
%TO.P,J1,3,Pin_3*%
%TO.N,SGND*%
X188132400Y-61895200D03*
%TO.P,J1,4,Pin_4*%
%TO.N,VMON_3V3*%
X185592400Y-61895200D03*
%TO.P,J1,5,Pin_5*%
%TO.N,SGND*%
X188132400Y-59355200D03*
%TO.P,J1,6,Pin_6*%
%TO.N,IMON_3V3*%
X185592400Y-59355200D03*
%TO.P,J1,7,Pin_7*%
%TO.N,SGND*%
X188132400Y-56815200D03*
%TO.P,J1,8,Pin_8*%
%TO.N,VPGM*%
X185592400Y-56815200D03*
%TO.P,J1,9,Pin_9*%
%TO.N,SGND*%
X188132400Y-54275200D03*
%TO.P,J1,10,Pin_10*%
%TO.N,DAC_SIG*%
X185592400Y-54275200D03*
%TD*%
D22*
%TO.N,Net-(J2-Pad1)*%
X117704000Y-76200000D02*
X120523000Y-73381000D01*
X120523000Y-73381000D02*
X120523000Y-41910000D01*
%TD*%
%TA.AperFunction,Conductor*%
%TO.N,SGND*%
G36*
X189098248Y-23719269D02*
G01*
X189120981Y-23722869D01*
X189131217Y-23721248D01*
X189146407Y-23720714D01*
X189276089Y-23732005D01*
X189286760Y-23733877D01*
X189374853Y-23757368D01*
X189431947Y-23772593D01*
X189442144Y-23776286D01*
X189578447Y-23839515D01*
X189587852Y-23844916D01*
X189711162Y-23930750D01*
X189719492Y-23937694D01*
X189826118Y-24043561D01*
X189833122Y-24051842D01*
X189919834Y-24174538D01*
X189925300Y-24183901D01*
X189989506Y-24319763D01*
X189993265Y-24329917D01*
X190013624Y-24404134D01*
X190033014Y-24474817D01*
X190034965Y-24485486D01*
X190047155Y-24614806D01*
X190046729Y-24630010D01*
X190045140Y-24640525D01*
X190045944Y-24645376D01*
X190048659Y-24661762D01*
X190049500Y-24671979D01*
X190049500Y-78698468D01*
X190048731Y-78708244D01*
X190045131Y-78730977D01*
X190045901Y-78735837D01*
X190045901Y-78735838D01*
X190046576Y-78740101D01*
X190047048Y-78755980D01*
X190032595Y-78903356D01*
X190030224Y-78915327D01*
X189981917Y-79075268D01*
X189977265Y-79086549D01*
X189898798Y-79234059D01*
X189892048Y-79244212D01*
X189802542Y-79353897D01*
X189786414Y-79373661D01*
X189777813Y-79382317D01*
X189649041Y-79488769D01*
X189638921Y-79495589D01*
X189491917Y-79574990D01*
X189480672Y-79579711D01*
X189437361Y-79593094D01*
X189321036Y-79629035D01*
X189309081Y-79631482D01*
X189161701Y-79646881D01*
X189145822Y-79646510D01*
X189141655Y-79645877D01*
X189141651Y-79645877D01*
X189136786Y-79645138D01*
X189121169Y-79647713D01*
X189115383Y-79648667D01*
X189105215Y-79649500D01*
X139738899Y-79649500D01*
X139694705Y-79631194D01*
X139676399Y-79587240D01*
X139673417Y-78810418D01*
X180511100Y-78810418D01*
X180521242Y-78879312D01*
X180572668Y-78984055D01*
X180576320Y-78987701D01*
X180576321Y-78987702D01*
X180651595Y-79062845D01*
X180651597Y-79062847D01*
X180655250Y-79066493D01*
X180659890Y-79068761D01*
X180755338Y-79115417D01*
X180760082Y-79117736D01*
X180764885Y-79118437D01*
X180764886Y-79118437D01*
X180784848Y-79121349D01*
X180828382Y-79127700D01*
X182594818Y-79127700D01*
X182597065Y-79127369D01*
X182597068Y-79127369D01*
X182621262Y-79123807D01*
X182663712Y-79117558D01*
X182768455Y-79066132D01*
X182792765Y-79041780D01*
X182847245Y-78987205D01*
X182847247Y-78987203D01*
X182850893Y-78983550D01*
X182892303Y-78898835D01*
X182900005Y-78883078D01*
X182900005Y-78883077D01*
X182902136Y-78878718D01*
X182912100Y-78810418D01*
X182912100Y-78558194D01*
X182930406Y-78514000D01*
X182974600Y-78495694D01*
X183018794Y-78514000D01*
X183032508Y-78534679D01*
X183034349Y-78539212D01*
X183036657Y-78543782D01*
X183150651Y-78729802D01*
X183153672Y-78733931D01*
X183296517Y-78898835D01*
X183300180Y-78902422D01*
X183468037Y-79041780D01*
X183472231Y-79044717D01*
X183660599Y-79154790D01*
X183665215Y-79157002D01*
X183869042Y-79234835D01*
X183873943Y-79236259D01*
X183985417Y-79258938D01*
X183994758Y-79257123D01*
X183997600Y-79252909D01*
X183997600Y-79251401D01*
X184505600Y-79251401D01*
X184509241Y-79260191D01*
X184515095Y-79262616D01*
X184532362Y-79260404D01*
X184537372Y-79259339D01*
X184746349Y-79196643D01*
X184751099Y-79194781D01*
X184947036Y-79098792D01*
X184951424Y-79096176D01*
X185129049Y-78969478D01*
X185132952Y-78966180D01*
X185287497Y-78812173D01*
X185290810Y-78808280D01*
X185418122Y-78631106D01*
X185420761Y-78626715D01*
X185517425Y-78431130D01*
X185519310Y-78426370D01*
X185582736Y-78217613D01*
X185583815Y-78212620D01*
X185586328Y-78193526D01*
X185583866Y-78184335D01*
X185578435Y-78181200D01*
X184518031Y-78181200D01*
X184509241Y-78184841D01*
X184505600Y-78193631D01*
X184505600Y-79251401D01*
X183997600Y-79251401D01*
X183997600Y-77660769D01*
X184505600Y-77660769D01*
X184509241Y-77669559D01*
X184518031Y-77673200D01*
X185575628Y-77673200D01*
X185584418Y-77669559D01*
X185586115Y-77665461D01*
X185542180Y-77490550D01*
X185540532Y-77485710D01*
X185453537Y-77285635D01*
X185451114Y-77281117D01*
X185332613Y-77097941D01*
X185329489Y-77093884D01*
X185182657Y-76932518D01*
X185178914Y-76929027D01*
X185007691Y-76793805D01*
X185003434Y-76790977D01*
X184812431Y-76685537D01*
X184807766Y-76683440D01*
X184602103Y-76610611D01*
X184597155Y-76609303D01*
X184517839Y-76595175D01*
X184508547Y-76597218D01*
X184505600Y-76601826D01*
X184505600Y-77660769D01*
X183997600Y-77660769D01*
X183997600Y-76604618D01*
X183993959Y-76595828D01*
X183988522Y-76593576D01*
X183938345Y-76601255D01*
X183933366Y-76602441D01*
X183725994Y-76670220D01*
X183721269Y-76672206D01*
X183527753Y-76772944D01*
X183523419Y-76775674D01*
X183348948Y-76906671D01*
X183345127Y-76910063D01*
X183194393Y-77067798D01*
X183191172Y-77071775D01*
X183068229Y-77252002D01*
X183065696Y-77256461D01*
X183031290Y-77330583D01*
X182996079Y-77362961D01*
X182948285Y-77360958D01*
X182915907Y-77325747D01*
X182912100Y-77304268D01*
X182912100Y-77043982D01*
X182901958Y-76975088D01*
X182850532Y-76870345D01*
X182846879Y-76866698D01*
X182771605Y-76791555D01*
X182771603Y-76791553D01*
X182767950Y-76787907D01*
X182736925Y-76772742D01*
X182667478Y-76738795D01*
X182667477Y-76738795D01*
X182663118Y-76736664D01*
X182658315Y-76735963D01*
X182658314Y-76735963D01*
X182638352Y-76733051D01*
X182594818Y-76726700D01*
X180828382Y-76726700D01*
X180826135Y-76727031D01*
X180826132Y-76727031D01*
X180801938Y-76730593D01*
X180759488Y-76736842D01*
X180654745Y-76788268D01*
X180651099Y-76791920D01*
X180651098Y-76791921D01*
X180575955Y-76867195D01*
X180575953Y-76867197D01*
X180572307Y-76870850D01*
X180570039Y-76875490D01*
X180523486Y-76970728D01*
X180521064Y-76975682D01*
X180511100Y-77043982D01*
X180511100Y-78810418D01*
X139673417Y-78810418D01*
X139663280Y-76169285D01*
X165049759Y-76169285D01*
X165064938Y-76445087D01*
X165118825Y-76715999D01*
X165119553Y-76718071D01*
X165119554Y-76718076D01*
X165191167Y-76922000D01*
X165210347Y-76976616D01*
X165271263Y-77093884D01*
X165322091Y-77191730D01*
X165337678Y-77221737D01*
X165498275Y-77446471D01*
X165688936Y-77646335D01*
X165905856Y-77817341D01*
X166144707Y-77956077D01*
X166400723Y-78059774D01*
X166668796Y-78126364D01*
X166764105Y-78136129D01*
X166902785Y-78150338D01*
X166902793Y-78150338D01*
X166904370Y-78150500D01*
X167075362Y-78150500D01*
X167101985Y-78148615D01*
X167278331Y-78136129D01*
X167278335Y-78136128D01*
X167280530Y-78135973D01*
X167282684Y-78135509D01*
X167282686Y-78135509D01*
X167346799Y-78121706D01*
X167550562Y-78077837D01*
X167809709Y-77982233D01*
X168052800Y-77851068D01*
X168054576Y-77849756D01*
X168054581Y-77849753D01*
X168207487Y-77736814D01*
X168274984Y-77686960D01*
X168296824Y-77665461D01*
X168436622Y-77527841D01*
X168471829Y-77493183D01*
X168599612Y-77325747D01*
X168638071Y-77275354D01*
X168638074Y-77275349D01*
X168639406Y-77273604D01*
X168774373Y-77032604D01*
X168828864Y-76891754D01*
X176898967Y-76891754D01*
X176901069Y-76923827D01*
X176909094Y-77046259D01*
X176912796Y-77102749D01*
X176913502Y-77105529D01*
X176959244Y-77285635D01*
X176964845Y-77307690D01*
X177053369Y-77499714D01*
X177175405Y-77672391D01*
X177326865Y-77819937D01*
X177502677Y-77937411D01*
X177696953Y-78020878D01*
X177800069Y-78044211D01*
X177900396Y-78066913D01*
X177900399Y-78066913D01*
X177903186Y-78067544D01*
X177996911Y-78071227D01*
X178111610Y-78075734D01*
X178111614Y-78075734D01*
X178114470Y-78075846D01*
X178323730Y-78045504D01*
X178493575Y-77987849D01*
X178521242Y-77978458D01*
X178521243Y-77978458D01*
X178523955Y-77977537D01*
X178708442Y-77874219D01*
X178736279Y-77851068D01*
X178868814Y-77740840D01*
X178871012Y-77739012D01*
X178936086Y-77660769D01*
X179004388Y-77578644D01*
X179004390Y-77578641D01*
X179006219Y-77576442D01*
X179109537Y-77391955D01*
X179177504Y-77191730D01*
X179207846Y-76982470D01*
X179207914Y-76979893D01*
X179209381Y-76923827D01*
X179209429Y-76922000D01*
X179208021Y-76906671D01*
X179197443Y-76791555D01*
X179190081Y-76711440D01*
X179159955Y-76604618D01*
X179133466Y-76510696D01*
X179133465Y-76510694D01*
X179132686Y-76507931D01*
X179039165Y-76318290D01*
X178912651Y-76148867D01*
X178757381Y-76005337D01*
X178578554Y-75892505D01*
X178382160Y-75814152D01*
X178379354Y-75813594D01*
X178379351Y-75813593D01*
X178177581Y-75773459D01*
X178177579Y-75773459D01*
X178174775Y-75772901D01*
X178075145Y-75771597D01*
X177966208Y-75770170D01*
X177966203Y-75770170D01*
X177963346Y-75770133D01*
X177960525Y-75770618D01*
X177960521Y-75770618D01*
X177838580Y-75791571D01*
X177754953Y-75805941D01*
X177752265Y-75806933D01*
X177752260Y-75806934D01*
X177559263Y-75878135D01*
X177559260Y-75878136D01*
X177556575Y-75879127D01*
X177554115Y-75880590D01*
X177554114Y-75880591D01*
X177531520Y-75894033D01*
X177374856Y-75987238D01*
X177215881Y-76126655D01*
X177084976Y-76292708D01*
X176986523Y-76479836D01*
X176985676Y-76482563D01*
X176985675Y-76482566D01*
X176950075Y-76597218D01*
X176923820Y-76681773D01*
X176898967Y-76891754D01*
X168828864Y-76891754D01*
X168874036Y-76774991D01*
X168912441Y-76609303D01*
X168935908Y-76508059D01*
X168935909Y-76508055D01*
X168936407Y-76505905D01*
X168941675Y-76445087D01*
X168960051Y-76232910D01*
X168960051Y-76232908D01*
X168960241Y-76230715D01*
X168945062Y-75954913D01*
X168932649Y-75892505D01*
X168916952Y-75813593D01*
X168891175Y-75684001D01*
X168816260Y-75470672D01*
X168800382Y-75425459D01*
X168800380Y-75425455D01*
X168799653Y-75423384D01*
X168725681Y-75280983D01*
X168673342Y-75180226D01*
X168673340Y-75180223D01*
X168672322Y-75178263D01*
X168511725Y-74953529D01*
X168321064Y-74753665D01*
X168104144Y-74582659D01*
X167865293Y-74443923D01*
X167609277Y-74340226D01*
X167341204Y-74273636D01*
X167243285Y-74263604D01*
X167107215Y-74249662D01*
X167107207Y-74249662D01*
X167105630Y-74249500D01*
X166934638Y-74249500D01*
X166908015Y-74251385D01*
X166731669Y-74263871D01*
X166731665Y-74263872D01*
X166729470Y-74264027D01*
X166727316Y-74264491D01*
X166727314Y-74264491D01*
X166685878Y-74273412D01*
X166459438Y-74322163D01*
X166200291Y-74417767D01*
X165957200Y-74548932D01*
X165955424Y-74550244D01*
X165955419Y-74550247D01*
X165913032Y-74581555D01*
X165735016Y-74713040D01*
X165733443Y-74714588D01*
X165733440Y-74714591D01*
X165693748Y-74753665D01*
X165538171Y-74906817D01*
X165502522Y-74953529D01*
X165371929Y-75124646D01*
X165371926Y-75124651D01*
X165370594Y-75126396D01*
X165369519Y-75128315D01*
X165369518Y-75128317D01*
X165271008Y-75304219D01*
X165235627Y-75367396D01*
X165135964Y-75625009D01*
X165073593Y-75894095D01*
X165073402Y-75896297D01*
X165073402Y-75896299D01*
X165068134Y-75957121D01*
X165049759Y-76169285D01*
X139663280Y-76169285D01*
X139646860Y-71891078D01*
X173450178Y-71891078D01*
X173461504Y-71965091D01*
X173462690Y-71970070D01*
X173535706Y-72193462D01*
X173537692Y-72198187D01*
X173646213Y-72406654D01*
X173648943Y-72410988D01*
X173790058Y-72598936D01*
X173793455Y-72602762D01*
X173955185Y-72757315D01*
X173974489Y-72801082D01*
X173957190Y-72845680D01*
X173912005Y-72865000D01*
X173901782Y-72865000D01*
X173899535Y-72865331D01*
X173899532Y-72865331D01*
X173875338Y-72868893D01*
X173832888Y-72875142D01*
X173728145Y-72926568D01*
X173724499Y-72930220D01*
X173724498Y-72930221D01*
X173649355Y-73005495D01*
X173649353Y-73005497D01*
X173645707Y-73009150D01*
X173643439Y-73013790D01*
X173596886Y-73109028D01*
X173594464Y-73113982D01*
X173584500Y-73182282D01*
X173584500Y-75153718D01*
X173594642Y-75222612D01*
X173646068Y-75327355D01*
X173649720Y-75331001D01*
X173649721Y-75331002D01*
X173724995Y-75406145D01*
X173724997Y-75406147D01*
X173728650Y-75409793D01*
X173733290Y-75412061D01*
X173828738Y-75458717D01*
X173833482Y-75461036D01*
X173838285Y-75461737D01*
X173838286Y-75461737D01*
X173858248Y-75464649D01*
X173901782Y-75471000D01*
X175968218Y-75471000D01*
X175970465Y-75470669D01*
X175970468Y-75470669D01*
X175994662Y-75467107D01*
X176037112Y-75460858D01*
X176141855Y-75409432D01*
X176145502Y-75405779D01*
X176220645Y-75330505D01*
X176220647Y-75330503D01*
X176224293Y-75326850D01*
X176239458Y-75295825D01*
X176273405Y-75226378D01*
X176273405Y-75226377D01*
X176275536Y-75222018D01*
X176285500Y-75153718D01*
X176285500Y-73182282D01*
X176275358Y-73113388D01*
X176224155Y-73009099D01*
X177331260Y-73009099D01*
X177333364Y-73014178D01*
X177395270Y-73057525D01*
X177399973Y-73060240D01*
X177602456Y-73154660D01*
X177607566Y-73156520D01*
X177823365Y-73214343D01*
X177828719Y-73215287D01*
X178051280Y-73234758D01*
X178056720Y-73234758D01*
X178279281Y-73215287D01*
X178284635Y-73214343D01*
X178500434Y-73156520D01*
X178505544Y-73154660D01*
X178708027Y-73060240D01*
X178712730Y-73057525D01*
X178771706Y-73016229D01*
X178776818Y-73008205D01*
X178775629Y-73002839D01*
X178062790Y-72290000D01*
X178054000Y-72286359D01*
X178045210Y-72290000D01*
X177334901Y-73000309D01*
X177331260Y-73009099D01*
X176224155Y-73009099D01*
X176223932Y-73008645D01*
X176218116Y-73002839D01*
X176145005Y-72929855D01*
X176145003Y-72929853D01*
X176141350Y-72926207D01*
X176110325Y-72911042D01*
X176040878Y-72877095D01*
X176040877Y-72877095D01*
X176036518Y-72874964D01*
X176031715Y-72874263D01*
X176031714Y-72874263D01*
X176011752Y-72871351D01*
X175968218Y-72865000D01*
X175954815Y-72865000D01*
X175910621Y-72846694D01*
X175892315Y-72802500D01*
X175912752Y-72756273D01*
X176052403Y-72629201D01*
X176055894Y-72625458D01*
X176201562Y-72441008D01*
X176204390Y-72436751D01*
X176317976Y-72230992D01*
X176320073Y-72226327D01*
X176398528Y-72004776D01*
X176399836Y-71999828D01*
X176413215Y-71924720D01*
X176741242Y-71924720D01*
X176760713Y-72147281D01*
X176761657Y-72152635D01*
X176819480Y-72368434D01*
X176821340Y-72373544D01*
X176915760Y-72576027D01*
X176918475Y-72580730D01*
X176959771Y-72639706D01*
X176967795Y-72644818D01*
X176973161Y-72643629D01*
X177686000Y-71930790D01*
X177689641Y-71922000D01*
X178418359Y-71922000D01*
X178422000Y-71930790D01*
X179132309Y-72641099D01*
X179141099Y-72644740D01*
X179146178Y-72642636D01*
X179189525Y-72580730D01*
X179192240Y-72576027D01*
X179286660Y-72373544D01*
X179288520Y-72368434D01*
X179346343Y-72152635D01*
X179347287Y-72147281D01*
X179366758Y-71924720D01*
X179366758Y-71919280D01*
X179347287Y-71696719D01*
X179346343Y-71691365D01*
X179288520Y-71475566D01*
X179286660Y-71470456D01*
X179192240Y-71267973D01*
X179189525Y-71263270D01*
X179148229Y-71204294D01*
X179140205Y-71199182D01*
X179134839Y-71200371D01*
X178422000Y-71913210D01*
X178418359Y-71922000D01*
X177689641Y-71922000D01*
X177686000Y-71913210D01*
X176975691Y-71202901D01*
X176966901Y-71199260D01*
X176961822Y-71201364D01*
X176918475Y-71263270D01*
X176915760Y-71267973D01*
X176821340Y-71470456D01*
X176819480Y-71475566D01*
X176761657Y-71691365D01*
X176760713Y-71696719D01*
X176741242Y-71919280D01*
X176741242Y-71924720D01*
X176413215Y-71924720D01*
X176418644Y-71894239D01*
X176416601Y-71884947D01*
X176411993Y-71882000D01*
X173461220Y-71882000D01*
X173452430Y-71885641D01*
X173450178Y-71891078D01*
X139646860Y-71891078D01*
X139644828Y-71361761D01*
X173451356Y-71361761D01*
X173453399Y-71371053D01*
X173458007Y-71374000D01*
X176408780Y-71374000D01*
X176417570Y-71370359D01*
X176419822Y-71364922D01*
X176408496Y-71290909D01*
X176407310Y-71285930D01*
X176334294Y-71062538D01*
X176332308Y-71057813D01*
X176223787Y-70849346D01*
X176221057Y-70845012D01*
X176214137Y-70835795D01*
X177331182Y-70835795D01*
X177332371Y-70841161D01*
X178045210Y-71554000D01*
X178054000Y-71557641D01*
X178062790Y-71554000D01*
X178730491Y-70886299D01*
X179566460Y-70886299D01*
X179568564Y-70891378D01*
X179630470Y-70934725D01*
X179635173Y-70937440D01*
X179837656Y-71031860D01*
X179842766Y-71033720D01*
X180058565Y-71091543D01*
X180063919Y-71092487D01*
X180286480Y-71111958D01*
X180291920Y-71111958D01*
X180514481Y-71092487D01*
X180519835Y-71091543D01*
X180735634Y-71033720D01*
X180740744Y-71031860D01*
X180943227Y-70937440D01*
X180947930Y-70934725D01*
X181006906Y-70893429D01*
X181012018Y-70885405D01*
X181010829Y-70880039D01*
X180297990Y-70167200D01*
X180289200Y-70163559D01*
X180280410Y-70167200D01*
X179570101Y-70877509D01*
X179566460Y-70886299D01*
X178730491Y-70886299D01*
X178773099Y-70843691D01*
X178776740Y-70834901D01*
X178774636Y-70829822D01*
X178712730Y-70786475D01*
X178708027Y-70783760D01*
X178505544Y-70689340D01*
X178500434Y-70687480D01*
X178284635Y-70629657D01*
X178279281Y-70628713D01*
X178056720Y-70609242D01*
X178051280Y-70609242D01*
X177828719Y-70628713D01*
X177823365Y-70629657D01*
X177607566Y-70687480D01*
X177602456Y-70689340D01*
X177399973Y-70783760D01*
X177395270Y-70786475D01*
X177336294Y-70827771D01*
X177331182Y-70835795D01*
X176214137Y-70835795D01*
X176079942Y-70657064D01*
X176076551Y-70653244D01*
X175906622Y-70490857D01*
X175902655Y-70487645D01*
X175708500Y-70355201D01*
X175704041Y-70352668D01*
X175648505Y-70326889D01*
X175616127Y-70291678D01*
X175618130Y-70243884D01*
X175638972Y-70219002D01*
X175821013Y-70091536D01*
X175823251Y-70089969D01*
X175984469Y-69928751D01*
X176073277Y-69801920D01*
X178976442Y-69801920D01*
X178995913Y-70024481D01*
X178996857Y-70029835D01*
X179054680Y-70245634D01*
X179056540Y-70250744D01*
X179150960Y-70453227D01*
X179153675Y-70457930D01*
X179194971Y-70516906D01*
X179202995Y-70522018D01*
X179208361Y-70520829D01*
X179921200Y-69807990D01*
X179924841Y-69799200D01*
X180653559Y-69799200D01*
X180657200Y-69807990D01*
X181367509Y-70518299D01*
X181376299Y-70521940D01*
X181381378Y-70519836D01*
X181424725Y-70457930D01*
X181427440Y-70453227D01*
X181521860Y-70250744D01*
X181523720Y-70245634D01*
X181581543Y-70029835D01*
X181582487Y-70024481D01*
X181601958Y-69801920D01*
X181601958Y-69796480D01*
X181582487Y-69573919D01*
X181581543Y-69568565D01*
X181523720Y-69352766D01*
X181521860Y-69347656D01*
X181427440Y-69145173D01*
X181424725Y-69140470D01*
X181383429Y-69081494D01*
X181375405Y-69076382D01*
X181370039Y-69077571D01*
X180657200Y-69790410D01*
X180653559Y-69799200D01*
X179924841Y-69799200D01*
X179921200Y-69790410D01*
X179210891Y-69080101D01*
X179202101Y-69076460D01*
X179197022Y-69078564D01*
X179153675Y-69140470D01*
X179150960Y-69145173D01*
X179056540Y-69347656D01*
X179054680Y-69352766D01*
X178996857Y-69568565D01*
X178995913Y-69573919D01*
X178976442Y-69796480D01*
X178976442Y-69801920D01*
X176073277Y-69801920D01*
X176081336Y-69790410D01*
X176113675Y-69744226D01*
X176113677Y-69744223D01*
X176115241Y-69741989D01*
X176141123Y-69686486D01*
X176210443Y-69537827D01*
X176210444Y-69537825D01*
X176211596Y-69535354D01*
X176233444Y-69453820D01*
X176269900Y-69317764D01*
X176269901Y-69317760D01*
X176270606Y-69315128D01*
X176271727Y-69302322D01*
X176290239Y-69090720D01*
X176290477Y-69088000D01*
X176270606Y-68860872D01*
X176256442Y-68808012D01*
X176230982Y-68712995D01*
X179566382Y-68712995D01*
X179567571Y-68718361D01*
X180280410Y-69431200D01*
X180289200Y-69434841D01*
X180297990Y-69431200D01*
X181008299Y-68720891D01*
X181011940Y-68712101D01*
X181009836Y-68707022D01*
X180947930Y-68663675D01*
X180943227Y-68660960D01*
X180740744Y-68566540D01*
X180735634Y-68564680D01*
X180519835Y-68506857D01*
X180514481Y-68505913D01*
X180291920Y-68486442D01*
X180286480Y-68486442D01*
X180063919Y-68505913D01*
X180058565Y-68506857D01*
X179842766Y-68564680D01*
X179837656Y-68566540D01*
X179635173Y-68660960D01*
X179630470Y-68663675D01*
X179571494Y-68704971D01*
X179566382Y-68712995D01*
X176230982Y-68712995D01*
X176212303Y-68643283D01*
X176212301Y-68643279D01*
X176211596Y-68640646D01*
X176210443Y-68638173D01*
X176116395Y-68436486D01*
X176116393Y-68436483D01*
X176115241Y-68434012D01*
X175984469Y-68247249D01*
X175823251Y-68086031D01*
X175636488Y-67955259D01*
X175634017Y-67954107D01*
X175634014Y-67954105D01*
X175432327Y-67860057D01*
X175432325Y-67860056D01*
X175429854Y-67858904D01*
X175427221Y-67858199D01*
X175427217Y-67858197D01*
X175212264Y-67800600D01*
X175212260Y-67800599D01*
X175209628Y-67799894D01*
X175206912Y-67799656D01*
X175206910Y-67799656D01*
X175040740Y-67785118D01*
X175040734Y-67785118D01*
X175039388Y-67785000D01*
X174830612Y-67785000D01*
X174829266Y-67785118D01*
X174829260Y-67785118D01*
X174663090Y-67799656D01*
X174663088Y-67799656D01*
X174660372Y-67799894D01*
X174657740Y-67800599D01*
X174657736Y-67800600D01*
X174442783Y-67858197D01*
X174442779Y-67858199D01*
X174440146Y-67858904D01*
X174437675Y-67860056D01*
X174437673Y-67860057D01*
X174235986Y-67954105D01*
X174235983Y-67954107D01*
X174233512Y-67955259D01*
X174046749Y-68086031D01*
X173885531Y-68247249D01*
X173797432Y-68373068D01*
X173756325Y-68431774D01*
X173756323Y-68431777D01*
X173754759Y-68434011D01*
X173753607Y-68436482D01*
X173753605Y-68436485D01*
X173659557Y-68638173D01*
X173658404Y-68640646D01*
X173657699Y-68643279D01*
X173657697Y-68643283D01*
X173613558Y-68808012D01*
X173599394Y-68860872D01*
X173579523Y-69088000D01*
X173579761Y-69090720D01*
X173598274Y-69302322D01*
X173599394Y-69315128D01*
X173600099Y-69317760D01*
X173600100Y-69317764D01*
X173636557Y-69453820D01*
X173658404Y-69535354D01*
X173659556Y-69537825D01*
X173659557Y-69537827D01*
X173673891Y-69568565D01*
X173754759Y-69741988D01*
X173885531Y-69928751D01*
X174046749Y-70089969D01*
X174048987Y-70091536D01*
X174229270Y-70217771D01*
X174254972Y-70258115D01*
X174244619Y-70304816D01*
X174218343Y-70326285D01*
X174197319Y-70335426D01*
X174192823Y-70337837D01*
X173995485Y-70465501D01*
X173991429Y-70468625D01*
X173817597Y-70626799D01*
X173814106Y-70630542D01*
X173668438Y-70814992D01*
X173665610Y-70819249D01*
X173552024Y-71025008D01*
X173549927Y-71029673D01*
X173471472Y-71251224D01*
X173470164Y-71256172D01*
X173451356Y-71361761D01*
X139644828Y-71361761D01*
X139642783Y-70828919D01*
X139642783Y-70828509D01*
X139645518Y-69824872D01*
X146312267Y-69824872D01*
X146315109Y-69831522D01*
X146590013Y-70042464D01*
X146592780Y-70044358D01*
X146896061Y-70228756D01*
X146899042Y-70230353D01*
X147220445Y-70380909D01*
X147223586Y-70382179D01*
X147559369Y-70497143D01*
X147562627Y-70498065D01*
X147908873Y-70576095D01*
X147912198Y-70576657D01*
X148264840Y-70616836D01*
X148268222Y-70617037D01*
X148623148Y-70618895D01*
X148626505Y-70618731D01*
X148979555Y-70582247D01*
X148982912Y-70581715D01*
X149329933Y-70507320D01*
X149333206Y-70506432D01*
X149670177Y-70394989D01*
X149673325Y-70393755D01*
X149996295Y-70246569D01*
X149999288Y-70245004D01*
X150304483Y-70063793D01*
X150307279Y-70061921D01*
X150591112Y-69848813D01*
X150593696Y-69846645D01*
X150608763Y-69832546D01*
X150612442Y-69824435D01*
X150608667Y-69814878D01*
X150437604Y-69643815D01*
X165547544Y-69643815D01*
X165549648Y-69648893D01*
X165603337Y-69686486D01*
X165608048Y-69689207D01*
X165804502Y-69780815D01*
X165809612Y-69782675D01*
X166018988Y-69838777D01*
X166024342Y-69839721D01*
X166240280Y-69858613D01*
X166245720Y-69858613D01*
X166461658Y-69839721D01*
X166467012Y-69838777D01*
X166676388Y-69782675D01*
X166681498Y-69780815D01*
X166877952Y-69689207D01*
X166882663Y-69686486D01*
X166933421Y-69650946D01*
X166938533Y-69642921D01*
X166937343Y-69637553D01*
X166251790Y-68952000D01*
X166243000Y-68948359D01*
X166234210Y-68952000D01*
X165551185Y-69635025D01*
X165547544Y-69643815D01*
X150437604Y-69643815D01*
X148471790Y-67678000D01*
X148463000Y-67674359D01*
X148454210Y-67678000D01*
X146315752Y-69816459D01*
X146312267Y-69824872D01*
X139645518Y-69824872D01*
X139652399Y-67300133D01*
X145150247Y-67300133D01*
X145168204Y-67654602D01*
X145168557Y-67657959D01*
X145224692Y-68008421D01*
X145225404Y-68011714D01*
X145319061Y-68354067D01*
X145320130Y-68357280D01*
X145450211Y-68687511D01*
X145451612Y-68690571D01*
X145616605Y-69004836D01*
X145618325Y-69007722D01*
X145816288Y-69302322D01*
X145818322Y-69305021D01*
X145943088Y-69453186D01*
X145951535Y-69457564D01*
X145958404Y-69455385D01*
X148095000Y-67318790D01*
X148098641Y-67310000D01*
X148827359Y-67310000D01*
X148831000Y-67318790D01*
X150966031Y-69453820D01*
X150973542Y-69456931D01*
X150983725Y-69452258D01*
X151086633Y-69332616D01*
X151088707Y-69329923D01*
X151289731Y-69037430D01*
X151291496Y-69034540D01*
X151459766Y-68722029D01*
X151461199Y-68718984D01*
X151514906Y-68586720D01*
X164968387Y-68586720D01*
X164987279Y-68802658D01*
X164988223Y-68808012D01*
X165044325Y-69017388D01*
X165046185Y-69022497D01*
X165137793Y-69218951D01*
X165140514Y-69223662D01*
X165176053Y-69274420D01*
X165184079Y-69279533D01*
X165189447Y-69278343D01*
X165875000Y-68592790D01*
X165878641Y-68584000D01*
X166607359Y-68584000D01*
X166611000Y-68592790D01*
X167294025Y-69275815D01*
X167302815Y-69279456D01*
X167307893Y-69277352D01*
X167345486Y-69223662D01*
X167348207Y-69218951D01*
X167439815Y-69022497D01*
X167441675Y-69017388D01*
X167497777Y-68808012D01*
X167498721Y-68802658D01*
X167517613Y-68586720D01*
X167517613Y-68581280D01*
X167498721Y-68365342D01*
X167497777Y-68359988D01*
X167441675Y-68150612D01*
X167439815Y-68145503D01*
X167348207Y-67949049D01*
X167345486Y-67944338D01*
X167309947Y-67893580D01*
X167301921Y-67888467D01*
X167296553Y-67889657D01*
X166611000Y-68575210D01*
X166607359Y-68584000D01*
X165878641Y-68584000D01*
X165875000Y-68575210D01*
X165191975Y-67892185D01*
X165183185Y-67888544D01*
X165178107Y-67890648D01*
X165140514Y-67944338D01*
X165137793Y-67949049D01*
X165046185Y-68145503D01*
X165044325Y-68150612D01*
X164988223Y-68359988D01*
X164987279Y-68365342D01*
X164968387Y-68581280D01*
X164968387Y-68586720D01*
X151514906Y-68586720D01*
X151594733Y-68390130D01*
X151595834Y-68386933D01*
X151693067Y-68045592D01*
X151693819Y-68042282D01*
X151753617Y-67692448D01*
X151754008Y-67689072D01*
X151764038Y-67525079D01*
X165547467Y-67525079D01*
X165548657Y-67530447D01*
X166234210Y-68216000D01*
X166243000Y-68219641D01*
X166251790Y-68216000D01*
X166934815Y-67532975D01*
X166938456Y-67524185D01*
X166936352Y-67519107D01*
X166882663Y-67481514D01*
X166877952Y-67478793D01*
X166681498Y-67387185D01*
X166676388Y-67385325D01*
X166467012Y-67329223D01*
X166461658Y-67328279D01*
X166245720Y-67309387D01*
X166240280Y-67309387D01*
X166024342Y-67328279D01*
X166018988Y-67329223D01*
X165809612Y-67385325D01*
X165804503Y-67387185D01*
X165608049Y-67478793D01*
X165603338Y-67481514D01*
X165552580Y-67517053D01*
X165547467Y-67525079D01*
X151764038Y-67525079D01*
X151775722Y-67334036D01*
X151775781Y-67332233D01*
X151775856Y-67310885D01*
X151775811Y-67309117D01*
X151756573Y-66953889D01*
X151756209Y-66950547D01*
X151698851Y-66600277D01*
X151698129Y-66596993D01*
X151603273Y-66254955D01*
X151602200Y-66251768D01*
X151470964Y-65921984D01*
X151469547Y-65918919D01*
X151436815Y-65857099D01*
X169700460Y-65857099D01*
X169702564Y-65862178D01*
X169764470Y-65905525D01*
X169769173Y-65908240D01*
X169971656Y-66002660D01*
X169976766Y-66004520D01*
X170192565Y-66062343D01*
X170197919Y-66063287D01*
X170420480Y-66082758D01*
X170425920Y-66082758D01*
X170648481Y-66063287D01*
X170653835Y-66062343D01*
X170869634Y-66004520D01*
X170874744Y-66002660D01*
X171077227Y-65908240D01*
X171081930Y-65905525D01*
X171140906Y-65864229D01*
X171146018Y-65856205D01*
X171144829Y-65850839D01*
X170431990Y-65138000D01*
X170423200Y-65134359D01*
X170414410Y-65138000D01*
X169704101Y-65848309D01*
X169700460Y-65857099D01*
X151436815Y-65857099D01*
X151303468Y-65605250D01*
X151301725Y-65602349D01*
X151102736Y-65308444D01*
X151100703Y-65305765D01*
X150982888Y-65166844D01*
X150974426Y-65162495D01*
X150967489Y-65164722D01*
X148831000Y-67301210D01*
X148827359Y-67310000D01*
X148098641Y-67310000D01*
X148095000Y-67301210D01*
X145959970Y-65166181D01*
X145952519Y-65163095D01*
X145942274Y-65167818D01*
X145832313Y-65296564D01*
X145830262Y-65299248D01*
X145630256Y-65592447D01*
X145628500Y-65595346D01*
X145461329Y-65908429D01*
X145459899Y-65911495D01*
X145327515Y-66240810D01*
X145326426Y-66244010D01*
X145230380Y-66585702D01*
X145229648Y-66588980D01*
X145171066Y-66939049D01*
X145170689Y-66942413D01*
X145150259Y-67296735D01*
X145150247Y-67300133D01*
X139652399Y-67300133D01*
X139659226Y-64795233D01*
X146313159Y-64795233D01*
X146316922Y-64804711D01*
X148454210Y-66942000D01*
X148463000Y-66945641D01*
X148471790Y-66942000D01*
X150609820Y-64803969D01*
X150613277Y-64795622D01*
X150609422Y-64786649D01*
X150608778Y-64786101D01*
X150591213Y-64772720D01*
X169110442Y-64772720D01*
X169129913Y-64995281D01*
X169130857Y-65000635D01*
X169188680Y-65216434D01*
X169190540Y-65221544D01*
X169284960Y-65424027D01*
X169287675Y-65428730D01*
X169328971Y-65487706D01*
X169336995Y-65492818D01*
X169342361Y-65491629D01*
X170055200Y-64778790D01*
X170058841Y-64770000D01*
X170787559Y-64770000D01*
X170791200Y-64778790D01*
X171501509Y-65489099D01*
X171510299Y-65492740D01*
X171515378Y-65490636D01*
X171558725Y-65428730D01*
X171561440Y-65424027D01*
X171655860Y-65221544D01*
X171657720Y-65216434D01*
X171715543Y-65000635D01*
X171716487Y-64995281D01*
X171735958Y-64772720D01*
X171735958Y-64767280D01*
X171733550Y-64739754D01*
X174268167Y-64739754D01*
X174281996Y-64950749D01*
X174282702Y-64953529D01*
X174328628Y-65134359D01*
X174334045Y-65155690D01*
X174422569Y-65347714D01*
X174424220Y-65350049D01*
X174424221Y-65350052D01*
X174458867Y-65399075D01*
X174544605Y-65520391D01*
X174696065Y-65667937D01*
X174871877Y-65785411D01*
X175066153Y-65868878D01*
X175169269Y-65892211D01*
X175269596Y-65914913D01*
X175269599Y-65914913D01*
X175272386Y-65915544D01*
X175366111Y-65919227D01*
X175480810Y-65923734D01*
X175480814Y-65923734D01*
X175483670Y-65923846D01*
X175692930Y-65893504D01*
X175893155Y-65825537D01*
X176077642Y-65722219D01*
X176163549Y-65650772D01*
X176238014Y-65588840D01*
X176240212Y-65587012D01*
X176319541Y-65491629D01*
X176373588Y-65426644D01*
X176373590Y-65426641D01*
X176375419Y-65424442D01*
X176478737Y-65239955D01*
X176546704Y-65039730D01*
X176577046Y-64830470D01*
X176578629Y-64770000D01*
X176577822Y-64761210D01*
X176561878Y-64587708D01*
X176559281Y-64559440D01*
X176555130Y-64544719D01*
X176515342Y-64403640D01*
X184387170Y-64403640D01*
X184387358Y-64406504D01*
X184399242Y-64587820D01*
X184401600Y-64623804D01*
X184402306Y-64626584D01*
X184454548Y-64832284D01*
X184455911Y-64837652D01*
X184548283Y-65038021D01*
X184549934Y-65040356D01*
X184549935Y-65040359D01*
X184603099Y-65115584D01*
X184675622Y-65218202D01*
X184833664Y-65372161D01*
X185017117Y-65494740D01*
X185219836Y-65581835D01*
X185222622Y-65582465D01*
X185222627Y-65582467D01*
X185432242Y-65629898D01*
X185432245Y-65629898D01*
X185435032Y-65630529D01*
X185532429Y-65634356D01*
X185652638Y-65639079D01*
X185652642Y-65639079D01*
X185655498Y-65639191D01*
X185873852Y-65607531D01*
X186082779Y-65536610D01*
X186275284Y-65428802D01*
X186444918Y-65287718D01*
X186586002Y-65118084D01*
X186657370Y-64990647D01*
X186694936Y-64961033D01*
X186742440Y-64966655D01*
X186772054Y-65004221D01*
X186774401Y-65021186D01*
X186774401Y-65331596D01*
X186774583Y-65334966D01*
X186780725Y-65391510D01*
X186782524Y-65399078D01*
X186830664Y-65527491D01*
X186834899Y-65535226D01*
X186916828Y-65644544D01*
X186923056Y-65650772D01*
X187032374Y-65732701D01*
X187040109Y-65736936D01*
X187168525Y-65785077D01*
X187176089Y-65786875D01*
X187232630Y-65793017D01*
X187235998Y-65793200D01*
X187865969Y-65793200D01*
X187874759Y-65789559D01*
X187878400Y-65780769D01*
X187878400Y-65780768D01*
X188386400Y-65780768D01*
X188390041Y-65789558D01*
X188398831Y-65793199D01*
X189028796Y-65793199D01*
X189032166Y-65793017D01*
X189088710Y-65786875D01*
X189096278Y-65785076D01*
X189224691Y-65736936D01*
X189232426Y-65732701D01*
X189341744Y-65650772D01*
X189347972Y-65644544D01*
X189429901Y-65535226D01*
X189434136Y-65527491D01*
X189482277Y-65399075D01*
X189484075Y-65391511D01*
X189490217Y-65334970D01*
X189490400Y-65331602D01*
X189490400Y-64701631D01*
X189486759Y-64692841D01*
X189477969Y-64689200D01*
X188398831Y-64689200D01*
X188390041Y-64692841D01*
X188386400Y-64701631D01*
X188386400Y-65780768D01*
X187878400Y-65780768D01*
X187878400Y-64168769D01*
X188386400Y-64168769D01*
X188390041Y-64177559D01*
X188398831Y-64181200D01*
X189477968Y-64181200D01*
X189486758Y-64177559D01*
X189490399Y-64168769D01*
X189490399Y-63538804D01*
X189490217Y-63535434D01*
X189484075Y-63478890D01*
X189482276Y-63471322D01*
X189434136Y-63342909D01*
X189429901Y-63335174D01*
X189347972Y-63225856D01*
X189341744Y-63219628D01*
X189232426Y-63137699D01*
X189224691Y-63133464D01*
X189096275Y-63085323D01*
X189088711Y-63083525D01*
X189032170Y-63077383D01*
X189028802Y-63077200D01*
X189009216Y-63077200D01*
X188965022Y-63058894D01*
X188946716Y-63014700D01*
X188965022Y-62970506D01*
X188972922Y-62963818D01*
X189009849Y-62937478D01*
X189013752Y-62934180D01*
X189168297Y-62780173D01*
X189171610Y-62776280D01*
X189298922Y-62599106D01*
X189301561Y-62594715D01*
X189398225Y-62399130D01*
X189400110Y-62394370D01*
X189463536Y-62185613D01*
X189464615Y-62180620D01*
X189467128Y-62161526D01*
X189464666Y-62152335D01*
X189459235Y-62149200D01*
X188398831Y-62149200D01*
X188390041Y-62152841D01*
X188386400Y-62161631D01*
X188386400Y-64168769D01*
X187878400Y-64168769D01*
X187878400Y-61628769D01*
X188386400Y-61628769D01*
X188390041Y-61637559D01*
X188398831Y-61641200D01*
X189456428Y-61641200D01*
X189465218Y-61637559D01*
X189466915Y-61633461D01*
X189422980Y-61458550D01*
X189421332Y-61453710D01*
X189334337Y-61253635D01*
X189331914Y-61249117D01*
X189213413Y-61065941D01*
X189210289Y-61061884D01*
X189063457Y-60900518D01*
X189059714Y-60897027D01*
X188888491Y-60761805D01*
X188884234Y-60758977D01*
X188739984Y-60679346D01*
X188710140Y-60641962D01*
X188715473Y-60594425D01*
X188742693Y-60568503D01*
X188827836Y-60526792D01*
X188832224Y-60524176D01*
X189009849Y-60397478D01*
X189013752Y-60394180D01*
X189168297Y-60240173D01*
X189171610Y-60236280D01*
X189298922Y-60059106D01*
X189301561Y-60054715D01*
X189398225Y-59859130D01*
X189400110Y-59854370D01*
X189463536Y-59645613D01*
X189464615Y-59640620D01*
X189467128Y-59621526D01*
X189464666Y-59612335D01*
X189459235Y-59609200D01*
X188398831Y-59609200D01*
X188390041Y-59612841D01*
X188386400Y-59621631D01*
X188386400Y-61628769D01*
X187878400Y-61628769D01*
X187878400Y-59088769D01*
X188386400Y-59088769D01*
X188390041Y-59097559D01*
X188398831Y-59101200D01*
X189456428Y-59101200D01*
X189465218Y-59097559D01*
X189466915Y-59093461D01*
X189422980Y-58918550D01*
X189421332Y-58913710D01*
X189334337Y-58713635D01*
X189331914Y-58709117D01*
X189213413Y-58525941D01*
X189210289Y-58521884D01*
X189063457Y-58360518D01*
X189059714Y-58357027D01*
X188888491Y-58221805D01*
X188884234Y-58218977D01*
X188739984Y-58139346D01*
X188710140Y-58101962D01*
X188715473Y-58054425D01*
X188742693Y-58028503D01*
X188827836Y-57986792D01*
X188832224Y-57984176D01*
X189009849Y-57857478D01*
X189013752Y-57854180D01*
X189168297Y-57700173D01*
X189171610Y-57696280D01*
X189298922Y-57519106D01*
X189301561Y-57514715D01*
X189398225Y-57319130D01*
X189400110Y-57314370D01*
X189463536Y-57105613D01*
X189464615Y-57100620D01*
X189467128Y-57081526D01*
X189464666Y-57072335D01*
X189459235Y-57069200D01*
X188398831Y-57069200D01*
X188390041Y-57072841D01*
X188386400Y-57081631D01*
X188386400Y-59088769D01*
X187878400Y-59088769D01*
X187878400Y-56548769D01*
X188386400Y-56548769D01*
X188390041Y-56557559D01*
X188398831Y-56561200D01*
X189456428Y-56561200D01*
X189465218Y-56557559D01*
X189466915Y-56553461D01*
X189422980Y-56378550D01*
X189421332Y-56373710D01*
X189334337Y-56173635D01*
X189331914Y-56169117D01*
X189213413Y-55985941D01*
X189210289Y-55981884D01*
X189063457Y-55820518D01*
X189059714Y-55817027D01*
X188888491Y-55681805D01*
X188884234Y-55678977D01*
X188739984Y-55599346D01*
X188710140Y-55561962D01*
X188715473Y-55514425D01*
X188742693Y-55488503D01*
X188827836Y-55446792D01*
X188832224Y-55444176D01*
X189009849Y-55317478D01*
X189013752Y-55314180D01*
X189168297Y-55160173D01*
X189171610Y-55156280D01*
X189298922Y-54979106D01*
X189301561Y-54974715D01*
X189398225Y-54779130D01*
X189400110Y-54774370D01*
X189463536Y-54565613D01*
X189464615Y-54560620D01*
X189467128Y-54541526D01*
X189464666Y-54532335D01*
X189459235Y-54529200D01*
X188398831Y-54529200D01*
X188390041Y-54532841D01*
X188386400Y-54541631D01*
X188386400Y-56548769D01*
X187878400Y-56548769D01*
X187878400Y-54008769D01*
X188386400Y-54008769D01*
X188390041Y-54017559D01*
X188398831Y-54021200D01*
X189456428Y-54021200D01*
X189465218Y-54017559D01*
X189466915Y-54013461D01*
X189422980Y-53838550D01*
X189421332Y-53833710D01*
X189334337Y-53633635D01*
X189331914Y-53629117D01*
X189213413Y-53445941D01*
X189210289Y-53441884D01*
X189063457Y-53280518D01*
X189059714Y-53277027D01*
X188888491Y-53141805D01*
X188884234Y-53138977D01*
X188693231Y-53033537D01*
X188688566Y-53031440D01*
X188482903Y-52958611D01*
X188477955Y-52957303D01*
X188398639Y-52943175D01*
X188389347Y-52945218D01*
X188386400Y-52949826D01*
X188386400Y-54008769D01*
X187878400Y-54008769D01*
X187878400Y-52952618D01*
X187874759Y-52943828D01*
X187869322Y-52941576D01*
X187819145Y-52949255D01*
X187814166Y-52950441D01*
X187606794Y-53018220D01*
X187602069Y-53020206D01*
X187408553Y-53120944D01*
X187404219Y-53123674D01*
X187229748Y-53254671D01*
X187225927Y-53258063D01*
X187075193Y-53415798D01*
X187071972Y-53419775D01*
X186949029Y-53600002D01*
X186946496Y-53604461D01*
X186854640Y-53802349D01*
X186852872Y-53807153D01*
X186840676Y-53851133D01*
X186811226Y-53888828D01*
X186763747Y-53894658D01*
X186726052Y-53865208D01*
X186720296Y-53851399D01*
X186718743Y-53845894D01*
X186718742Y-53845892D01*
X186717965Y-53843136D01*
X186715745Y-53838633D01*
X186621648Y-53647824D01*
X186621647Y-53647823D01*
X186620380Y-53645253D01*
X186618662Y-53642952D01*
X186490084Y-53470766D01*
X186490083Y-53470764D01*
X186488367Y-53468467D01*
X186326349Y-53318699D01*
X186139750Y-53200964D01*
X185934821Y-53119206D01*
X185932015Y-53118648D01*
X185932012Y-53118647D01*
X185721230Y-53076720D01*
X185721228Y-53076720D01*
X185718424Y-53076162D01*
X185614527Y-53074802D01*
X185500668Y-53073311D01*
X185500663Y-53073311D01*
X185497806Y-53073274D01*
X185494985Y-53073759D01*
X185494981Y-53073759D01*
X185375766Y-53094244D01*
X185280357Y-53110638D01*
X185277669Y-53111630D01*
X185277664Y-53111631D01*
X185076045Y-53186012D01*
X185076042Y-53186014D01*
X185073357Y-53187004D01*
X185070897Y-53188467D01*
X185070896Y-53188468D01*
X184886206Y-53298347D01*
X184886202Y-53298350D01*
X184883741Y-53299814D01*
X184717857Y-53445290D01*
X184581263Y-53618560D01*
X184544778Y-53687906D01*
X184496513Y-53779643D01*
X184478531Y-53813820D01*
X184477684Y-53816547D01*
X184477683Y-53816550D01*
X184455240Y-53888828D01*
X184413103Y-54024533D01*
X184412767Y-54027373D01*
X184392079Y-54202168D01*
X184387170Y-54243640D01*
X184393374Y-54338298D01*
X184397139Y-54395735D01*
X184401600Y-54463804D01*
X184402306Y-54466584D01*
X184455141Y-54674619D01*
X184455911Y-54677652D01*
X184548283Y-54878021D01*
X184549934Y-54880356D01*
X184549935Y-54880359D01*
X184643919Y-55013343D01*
X184675622Y-55058202D01*
X184833664Y-55212161D01*
X185017117Y-55334740D01*
X185219836Y-55421835D01*
X185222622Y-55422465D01*
X185222627Y-55422467D01*
X185432242Y-55469898D01*
X185432245Y-55469898D01*
X185435032Y-55470529D01*
X185532429Y-55474356D01*
X185652638Y-55479079D01*
X185652642Y-55479079D01*
X185655498Y-55479191D01*
X185873852Y-55447531D01*
X186082779Y-55376610D01*
X186275284Y-55268802D01*
X186444918Y-55127718D01*
X186586002Y-54958084D01*
X186693810Y-54765579D01*
X186718155Y-54693860D01*
X186749694Y-54657895D01*
X186797427Y-54654766D01*
X186835246Y-54690435D01*
X186915147Y-54887208D01*
X186917457Y-54891782D01*
X187031451Y-55077802D01*
X187034472Y-55081931D01*
X187177317Y-55246835D01*
X187180980Y-55250422D01*
X187348837Y-55389780D01*
X187353031Y-55392717D01*
X187524195Y-55492737D01*
X187553116Y-55530839D01*
X187546624Y-55578232D01*
X187521521Y-55602137D01*
X187408553Y-55660944D01*
X187404219Y-55663674D01*
X187229748Y-55794671D01*
X187225927Y-55798063D01*
X187075193Y-55955798D01*
X187071972Y-55959775D01*
X186949029Y-56140002D01*
X186946496Y-56144461D01*
X186854640Y-56342349D01*
X186852872Y-56347153D01*
X186840676Y-56391133D01*
X186811226Y-56428828D01*
X186763747Y-56434658D01*
X186726052Y-56405208D01*
X186720296Y-56391399D01*
X186718743Y-56385894D01*
X186718742Y-56385892D01*
X186717965Y-56383136D01*
X186715704Y-56378550D01*
X186621648Y-56187824D01*
X186621647Y-56187823D01*
X186620380Y-56185253D01*
X186618662Y-56182952D01*
X186490084Y-56010766D01*
X186490083Y-56010764D01*
X186488367Y-56008467D01*
X186326349Y-55858699D01*
X186139750Y-55740964D01*
X185934821Y-55659206D01*
X185932015Y-55658648D01*
X185932012Y-55658647D01*
X185721230Y-55616720D01*
X185721228Y-55616720D01*
X185718424Y-55616162D01*
X185614527Y-55614802D01*
X185500668Y-55613311D01*
X185500663Y-55613311D01*
X185497806Y-55613274D01*
X185494985Y-55613759D01*
X185494981Y-55613759D01*
X185367524Y-55635660D01*
X185280357Y-55650638D01*
X185277669Y-55651630D01*
X185277664Y-55651631D01*
X185076045Y-55726012D01*
X185076042Y-55726014D01*
X185073357Y-55727004D01*
X185070897Y-55728467D01*
X185070896Y-55728468D01*
X184886206Y-55838347D01*
X184886202Y-55838350D01*
X184883741Y-55839814D01*
X184784505Y-55926842D01*
X184722423Y-55981286D01*
X184717857Y-55985290D01*
X184649560Y-56071925D01*
X184607589Y-56125166D01*
X184581263Y-56158560D01*
X184478531Y-56353820D01*
X184477684Y-56356547D01*
X184477683Y-56356550D01*
X184437893Y-56484696D01*
X184413103Y-56564533D01*
X184387170Y-56783640D01*
X184387358Y-56786504D01*
X184398617Y-56958284D01*
X184401600Y-57003804D01*
X184402306Y-57006584D01*
X184450099Y-57194766D01*
X184455911Y-57217652D01*
X184548283Y-57418021D01*
X184549934Y-57420356D01*
X184549935Y-57420359D01*
X184640102Y-57547942D01*
X184675622Y-57598202D01*
X184833664Y-57752161D01*
X185017117Y-57874740D01*
X185219836Y-57961835D01*
X185222622Y-57962465D01*
X185222627Y-57962467D01*
X185432242Y-58009898D01*
X185432245Y-58009898D01*
X185435032Y-58010529D01*
X185532429Y-58014356D01*
X185652638Y-58019079D01*
X185652642Y-58019079D01*
X185655498Y-58019191D01*
X185659699Y-58018582D01*
X185719590Y-58009898D01*
X185873852Y-57987531D01*
X186082779Y-57916610D01*
X186275284Y-57808802D01*
X186444918Y-57667718D01*
X186586002Y-57498084D01*
X186693810Y-57305579D01*
X186718155Y-57233860D01*
X186749694Y-57197895D01*
X186797427Y-57194766D01*
X186835246Y-57230435D01*
X186915147Y-57427208D01*
X186917457Y-57431782D01*
X187031451Y-57617802D01*
X187034472Y-57621931D01*
X187177317Y-57786835D01*
X187180980Y-57790422D01*
X187348837Y-57929780D01*
X187353031Y-57932717D01*
X187524195Y-58032737D01*
X187553116Y-58070839D01*
X187546624Y-58118232D01*
X187521521Y-58142137D01*
X187408553Y-58200944D01*
X187404219Y-58203674D01*
X187229748Y-58334671D01*
X187225927Y-58338063D01*
X187075193Y-58495798D01*
X187071972Y-58499775D01*
X186949029Y-58680002D01*
X186946496Y-58684461D01*
X186854640Y-58882349D01*
X186852872Y-58887153D01*
X186840676Y-58931133D01*
X186811226Y-58968828D01*
X186763747Y-58974658D01*
X186726052Y-58945208D01*
X186720296Y-58931399D01*
X186718743Y-58925894D01*
X186718742Y-58925892D01*
X186717965Y-58923136D01*
X186715704Y-58918550D01*
X186621648Y-58727824D01*
X186621647Y-58727823D01*
X186620380Y-58725253D01*
X186617209Y-58721006D01*
X186490084Y-58550766D01*
X186490083Y-58550764D01*
X186488367Y-58548467D01*
X186326349Y-58398699D01*
X186139750Y-58280964D01*
X185934821Y-58199206D01*
X185932015Y-58198648D01*
X185932012Y-58198647D01*
X185721230Y-58156720D01*
X185721228Y-58156720D01*
X185718424Y-58156162D01*
X185614527Y-58154802D01*
X185500668Y-58153311D01*
X185500663Y-58153311D01*
X185497806Y-58153274D01*
X185494985Y-58153759D01*
X185494981Y-58153759D01*
X185379333Y-58173631D01*
X185280357Y-58190638D01*
X185277669Y-58191630D01*
X185277664Y-58191631D01*
X185076045Y-58266012D01*
X185076042Y-58266014D01*
X185073357Y-58267004D01*
X185070897Y-58268467D01*
X185070896Y-58268468D01*
X184886206Y-58378347D01*
X184886202Y-58378350D01*
X184883741Y-58379814D01*
X184818939Y-58436644D01*
X184720862Y-58522655D01*
X184717857Y-58525290D01*
X184581263Y-58698560D01*
X184552646Y-58752951D01*
X184494157Y-58864121D01*
X184478531Y-58893820D01*
X184477684Y-58896547D01*
X184477683Y-58896550D01*
X184455240Y-58968828D01*
X184413103Y-59104533D01*
X184387170Y-59323640D01*
X184392127Y-59399273D01*
X184398423Y-59495324D01*
X184401600Y-59543804D01*
X184402306Y-59546584D01*
X184450099Y-59734766D01*
X184455911Y-59757652D01*
X184548283Y-59958021D01*
X184549934Y-59960356D01*
X184549935Y-59960359D01*
X184653176Y-60106442D01*
X184675622Y-60138202D01*
X184833664Y-60292161D01*
X185017117Y-60414740D01*
X185219836Y-60501835D01*
X185222622Y-60502465D01*
X185222627Y-60502467D01*
X185432242Y-60549898D01*
X185432245Y-60549898D01*
X185435032Y-60550529D01*
X185532429Y-60554356D01*
X185652638Y-60559079D01*
X185652642Y-60559079D01*
X185655498Y-60559191D01*
X185873852Y-60527531D01*
X186043981Y-60469780D01*
X186080066Y-60457531D01*
X186080067Y-60457531D01*
X186082779Y-60456610D01*
X186275284Y-60348802D01*
X186444918Y-60207718D01*
X186586002Y-60038084D01*
X186693810Y-59845579D01*
X186718155Y-59773860D01*
X186749694Y-59737895D01*
X186797427Y-59734766D01*
X186835246Y-59770435D01*
X186915147Y-59967208D01*
X186917457Y-59971782D01*
X187031451Y-60157802D01*
X187034472Y-60161931D01*
X187177317Y-60326835D01*
X187180980Y-60330422D01*
X187348837Y-60469780D01*
X187353031Y-60472717D01*
X187524195Y-60572737D01*
X187553116Y-60610839D01*
X187546624Y-60658232D01*
X187521521Y-60682137D01*
X187408553Y-60740944D01*
X187404219Y-60743674D01*
X187229748Y-60874671D01*
X187225927Y-60878063D01*
X187075193Y-61035798D01*
X187071972Y-61039775D01*
X186949029Y-61220002D01*
X186946496Y-61224461D01*
X186854640Y-61422349D01*
X186852872Y-61427153D01*
X186840676Y-61471133D01*
X186811226Y-61508828D01*
X186763747Y-61514658D01*
X186726052Y-61485208D01*
X186720296Y-61471399D01*
X186718743Y-61465894D01*
X186718742Y-61465892D01*
X186717965Y-61463136D01*
X186715704Y-61458550D01*
X186621648Y-61267824D01*
X186621647Y-61267823D01*
X186620380Y-61265253D01*
X186618662Y-61262952D01*
X186490084Y-61090766D01*
X186490083Y-61090764D01*
X186488367Y-61088467D01*
X186326349Y-60938699D01*
X186139750Y-60820964D01*
X185994750Y-60763115D01*
X185937478Y-60740266D01*
X185934821Y-60739206D01*
X185932015Y-60738648D01*
X185932012Y-60738647D01*
X185721230Y-60696720D01*
X185721228Y-60696720D01*
X185718424Y-60696162D01*
X185614527Y-60694802D01*
X185500668Y-60693311D01*
X185500663Y-60693311D01*
X185497806Y-60693274D01*
X185494985Y-60693759D01*
X185494981Y-60693759D01*
X185367524Y-60715660D01*
X185280357Y-60730638D01*
X185277669Y-60731630D01*
X185277664Y-60731631D01*
X185076045Y-60806012D01*
X185076042Y-60806014D01*
X185073357Y-60807004D01*
X185070897Y-60808467D01*
X185070896Y-60808468D01*
X184886206Y-60918347D01*
X184886202Y-60918350D01*
X184883741Y-60919814D01*
X184717857Y-61065290D01*
X184581263Y-61238560D01*
X184478531Y-61433820D01*
X184477684Y-61436547D01*
X184477683Y-61436550D01*
X184455240Y-61508828D01*
X184413103Y-61644533D01*
X184387170Y-61863640D01*
X184401600Y-62083804D01*
X184402306Y-62086584D01*
X184450099Y-62274766D01*
X184455911Y-62297652D01*
X184548283Y-62498021D01*
X184549934Y-62500356D01*
X184549935Y-62500359D01*
X184661382Y-62658053D01*
X184675622Y-62678202D01*
X184833664Y-62832161D01*
X185017117Y-62954740D01*
X185219836Y-63041835D01*
X185222622Y-63042465D01*
X185222627Y-63042467D01*
X185432242Y-63089898D01*
X185432245Y-63089898D01*
X185435032Y-63090529D01*
X185532429Y-63094356D01*
X185652638Y-63099079D01*
X185652642Y-63099079D01*
X185655498Y-63099191D01*
X185873852Y-63067531D01*
X185978315Y-63032071D01*
X186080066Y-62997531D01*
X186080067Y-62997531D01*
X186082779Y-62996610D01*
X186275284Y-62888802D01*
X186444918Y-62747718D01*
X186586002Y-62578084D01*
X186693810Y-62385579D01*
X186718155Y-62313860D01*
X186749694Y-62277895D01*
X186797427Y-62274766D01*
X186835246Y-62310435D01*
X186915147Y-62507208D01*
X186917457Y-62511782D01*
X187031451Y-62697802D01*
X187034472Y-62701931D01*
X187177317Y-62866835D01*
X187180974Y-62870416D01*
X187296844Y-62966613D01*
X187319154Y-63008928D01*
X187305009Y-63054624D01*
X187262694Y-63076934D01*
X187256921Y-63077201D01*
X187236004Y-63077201D01*
X187232634Y-63077383D01*
X187176090Y-63083525D01*
X187168522Y-63085324D01*
X187040109Y-63133464D01*
X187032374Y-63137699D01*
X186923056Y-63219628D01*
X186916828Y-63225856D01*
X186834899Y-63335174D01*
X186830664Y-63342909D01*
X186782523Y-63471325D01*
X186780725Y-63478889D01*
X186774583Y-63535430D01*
X186774400Y-63538798D01*
X186774400Y-63849526D01*
X186756094Y-63893720D01*
X186711900Y-63912026D01*
X186667706Y-63893720D01*
X186655845Y-63877169D01*
X186621648Y-63807824D01*
X186621647Y-63807823D01*
X186620380Y-63805253D01*
X186602341Y-63781096D01*
X186490084Y-63630766D01*
X186490083Y-63630764D01*
X186488367Y-63628467D01*
X186326349Y-63478699D01*
X186139750Y-63360964D01*
X185934821Y-63279206D01*
X185932015Y-63278648D01*
X185932012Y-63278647D01*
X185721230Y-63236720D01*
X185721228Y-63236720D01*
X185718424Y-63236162D01*
X185614527Y-63234802D01*
X185500668Y-63233311D01*
X185500663Y-63233311D01*
X185497806Y-63233274D01*
X185494985Y-63233759D01*
X185494981Y-63233759D01*
X185367524Y-63255660D01*
X185280357Y-63270638D01*
X185277669Y-63271630D01*
X185277664Y-63271631D01*
X185076045Y-63346012D01*
X185076042Y-63346014D01*
X185073357Y-63347004D01*
X185070897Y-63348467D01*
X185070896Y-63348468D01*
X184886206Y-63458347D01*
X184886202Y-63458350D01*
X184883741Y-63459814D01*
X184717857Y-63605290D01*
X184696990Y-63631760D01*
X184612099Y-63739445D01*
X184581263Y-63778560D01*
X184478531Y-63973820D01*
X184477684Y-63976547D01*
X184477683Y-63976550D01*
X184419481Y-64163991D01*
X184413103Y-64184533D01*
X184387170Y-64403640D01*
X176515342Y-64403640D01*
X176502666Y-64358696D01*
X176502665Y-64358694D01*
X176501886Y-64355931D01*
X176408365Y-64166290D01*
X176311097Y-64036032D01*
X176283568Y-63999166D01*
X176283566Y-63999164D01*
X176281851Y-63996867D01*
X176126581Y-63853337D01*
X175947754Y-63740505D01*
X175751360Y-63662152D01*
X175748554Y-63661594D01*
X175748551Y-63661593D01*
X175546781Y-63621459D01*
X175546779Y-63621459D01*
X175543975Y-63620901D01*
X175444345Y-63619597D01*
X175335408Y-63618170D01*
X175335403Y-63618170D01*
X175332546Y-63618133D01*
X175329725Y-63618618D01*
X175329721Y-63618618D01*
X175207780Y-63639571D01*
X175124153Y-63653941D01*
X175121465Y-63654933D01*
X175121460Y-63654934D01*
X174928463Y-63726135D01*
X174928460Y-63726136D01*
X174925775Y-63727127D01*
X174923315Y-63728590D01*
X174923314Y-63728591D01*
X174902757Y-63740821D01*
X174744056Y-63835238D01*
X174741899Y-63837130D01*
X174630946Y-63934433D01*
X174585081Y-63974655D01*
X174454176Y-64140708D01*
X174387295Y-64267828D01*
X174357970Y-64323566D01*
X174355723Y-64327836D01*
X174354876Y-64330563D01*
X174354875Y-64330566D01*
X174332642Y-64402168D01*
X174293020Y-64529773D01*
X174268167Y-64739754D01*
X171733550Y-64739754D01*
X171716487Y-64544719D01*
X171715543Y-64539365D01*
X171657720Y-64323566D01*
X171655860Y-64318456D01*
X171561440Y-64115973D01*
X171558725Y-64111270D01*
X171517429Y-64052294D01*
X171509405Y-64047182D01*
X171504039Y-64048371D01*
X170791200Y-64761210D01*
X170787559Y-64770000D01*
X170058841Y-64770000D01*
X170055200Y-64761210D01*
X169344891Y-64050901D01*
X169336101Y-64047260D01*
X169331022Y-64049364D01*
X169287675Y-64111270D01*
X169284960Y-64115973D01*
X169190540Y-64318456D01*
X169188680Y-64323566D01*
X169130857Y-64539365D01*
X169129913Y-64544719D01*
X169110442Y-64767280D01*
X169110442Y-64772720D01*
X150591213Y-64772720D01*
X150326447Y-64571023D01*
X150323659Y-64569128D01*
X150019736Y-64385790D01*
X150016762Y-64384208D01*
X149694824Y-64234770D01*
X149691689Y-64233515D01*
X149355481Y-64119716D01*
X149352257Y-64118815D01*
X149005722Y-64041991D01*
X149002400Y-64041441D01*
X148649609Y-64002492D01*
X148646236Y-64002304D01*
X148291304Y-64001684D01*
X148287940Y-64001860D01*
X147935012Y-64039578D01*
X147931686Y-64040117D01*
X147584911Y-64115726D01*
X147581641Y-64116626D01*
X147245056Y-64229246D01*
X147241925Y-64230486D01*
X146919463Y-64378801D01*
X146916471Y-64380379D01*
X146611936Y-64562640D01*
X146609117Y-64564540D01*
X146326035Y-64778633D01*
X146323458Y-64780812D01*
X146316836Y-64787052D01*
X146313159Y-64795233D01*
X139659226Y-64795233D01*
X139662890Y-63450753D01*
X165126117Y-63450753D01*
X165128154Y-63481827D01*
X165137269Y-63620901D01*
X165139489Y-63654779D01*
X165140195Y-63657559D01*
X165170354Y-63776307D01*
X165189819Y-63852951D01*
X165275419Y-64038633D01*
X165277069Y-64040968D01*
X165277071Y-64040971D01*
X165349351Y-64143244D01*
X165393424Y-64205606D01*
X165539882Y-64348279D01*
X165709887Y-64461872D01*
X165897746Y-64542583D01*
X165900532Y-64543214D01*
X165900537Y-64543215D01*
X166094378Y-64587077D01*
X166094381Y-64587077D01*
X166097168Y-64587708D01*
X166187429Y-64591254D01*
X166298613Y-64595623D01*
X166298617Y-64595623D01*
X166301473Y-64595735D01*
X166503821Y-64566396D01*
X166697433Y-64500673D01*
X166875826Y-64400768D01*
X166895738Y-64384208D01*
X167030828Y-64271854D01*
X167033026Y-64270026D01*
X167117241Y-64168769D01*
X167161937Y-64115028D01*
X167161939Y-64115025D01*
X167163768Y-64112826D01*
X167263673Y-63934433D01*
X167329396Y-63740821D01*
X167337664Y-63683795D01*
X169700382Y-63683795D01*
X169701571Y-63689161D01*
X170414410Y-64402000D01*
X170423200Y-64405641D01*
X170431990Y-64402000D01*
X171142299Y-63691691D01*
X171145940Y-63682901D01*
X171143836Y-63677822D01*
X171081930Y-63634475D01*
X171077227Y-63631760D01*
X170874744Y-63537340D01*
X170869634Y-63535480D01*
X170653835Y-63477657D01*
X170648481Y-63476713D01*
X170425920Y-63457242D01*
X170420480Y-63457242D01*
X170197919Y-63476713D01*
X170192565Y-63477657D01*
X169976766Y-63535480D01*
X169971656Y-63537340D01*
X169769173Y-63631760D01*
X169764470Y-63634475D01*
X169705494Y-63675771D01*
X169700382Y-63683795D01*
X167337664Y-63683795D01*
X167358735Y-63538473D01*
X167360266Y-63480000D01*
X167358277Y-63458347D01*
X167346958Y-63335174D01*
X167341557Y-63276394D01*
X167339797Y-63270152D01*
X167286836Y-63082365D01*
X167286834Y-63082361D01*
X167286058Y-63079608D01*
X167195626Y-62896230D01*
X167086095Y-62749551D01*
X167075007Y-62734702D01*
X167075006Y-62734700D01*
X167073290Y-62732403D01*
X166923148Y-62593613D01*
X166750228Y-62484509D01*
X166560321Y-62408743D01*
X166557515Y-62408185D01*
X166557512Y-62408184D01*
X166362592Y-62369413D01*
X166362591Y-62369413D01*
X166359786Y-62368855D01*
X166263365Y-62367592D01*
X166158202Y-62366215D01*
X166158197Y-62366215D01*
X166155340Y-62366178D01*
X166152520Y-62366663D01*
X166152515Y-62366663D01*
X166035263Y-62386811D01*
X165953830Y-62400804D01*
X165951142Y-62401796D01*
X165951137Y-62401797D01*
X165764693Y-62470580D01*
X165764690Y-62470582D01*
X165762005Y-62471572D01*
X165759545Y-62473035D01*
X165759544Y-62473036D01*
X165588753Y-62574646D01*
X165588749Y-62574649D01*
X165586288Y-62576113D01*
X165494353Y-62656738D01*
X165442820Y-62701931D01*
X165432564Y-62710925D01*
X165305982Y-62871493D01*
X165296139Y-62890202D01*
X165216029Y-63042467D01*
X165210781Y-63052441D01*
X165209934Y-63055168D01*
X165209933Y-63055171D01*
X165196392Y-63098780D01*
X165150149Y-63247707D01*
X165126117Y-63450753D01*
X139662890Y-63450753D01*
X139673361Y-59608954D01*
X179134167Y-59608954D01*
X179147996Y-59819949D01*
X179148702Y-59822729D01*
X179170595Y-59908930D01*
X179200045Y-60024890D01*
X179288569Y-60216914D01*
X179290220Y-60219249D01*
X179290221Y-60219252D01*
X179305007Y-60240173D01*
X179410605Y-60389591D01*
X179562065Y-60537137D01*
X179737877Y-60654611D01*
X179932153Y-60738078D01*
X180024513Y-60758977D01*
X180135596Y-60784113D01*
X180135599Y-60784113D01*
X180138386Y-60784744D01*
X180232111Y-60788427D01*
X180346810Y-60792934D01*
X180346814Y-60792934D01*
X180349670Y-60793046D01*
X180558930Y-60762704D01*
X180759155Y-60694737D01*
X180943642Y-60591419D01*
X180982393Y-60559191D01*
X181104014Y-60458040D01*
X181106212Y-60456212D01*
X181241419Y-60293642D01*
X181344737Y-60109155D01*
X181412704Y-59908930D01*
X181443046Y-59699670D01*
X181444629Y-59639200D01*
X181442161Y-59612335D01*
X181430719Y-59487820D01*
X181425281Y-59428640D01*
X181422365Y-59418298D01*
X181368666Y-59227896D01*
X181368665Y-59227894D01*
X181367886Y-59225131D01*
X181274365Y-59035490D01*
X181163597Y-58887153D01*
X181149568Y-58868366D01*
X181149566Y-58868364D01*
X181147851Y-58866067D01*
X180992581Y-58722537D01*
X180813754Y-58609705D01*
X180617360Y-58531352D01*
X180614554Y-58530794D01*
X180614551Y-58530793D01*
X180412781Y-58490659D01*
X180412779Y-58490659D01*
X180409975Y-58490101D01*
X180310345Y-58488797D01*
X180201408Y-58487370D01*
X180201403Y-58487370D01*
X180198546Y-58487333D01*
X180195725Y-58487818D01*
X180195721Y-58487818D01*
X180073780Y-58508771D01*
X179990153Y-58523141D01*
X179987465Y-58524133D01*
X179987460Y-58524134D01*
X179794463Y-58595335D01*
X179794460Y-58595336D01*
X179791775Y-58596327D01*
X179789315Y-58597790D01*
X179789314Y-58597791D01*
X179766720Y-58611233D01*
X179610056Y-58704438D01*
X179451081Y-58843855D01*
X179320176Y-59009908D01*
X179221723Y-59197036D01*
X179220876Y-59199763D01*
X179220875Y-59199766D01*
X179190082Y-59298937D01*
X179159020Y-59398973D01*
X179134167Y-59608954D01*
X139673361Y-59608954D01*
X139676790Y-58350753D01*
X165126117Y-58350753D01*
X165129387Y-58400648D01*
X165138948Y-58546521D01*
X165139489Y-58554779D01*
X165140195Y-58557559D01*
X165182785Y-58725253D01*
X165189819Y-58752951D01*
X165275419Y-58938633D01*
X165277069Y-58940968D01*
X165277071Y-58940971D01*
X165327853Y-59012826D01*
X165393424Y-59105606D01*
X165539882Y-59248279D01*
X165709887Y-59361872D01*
X165897746Y-59442583D01*
X165900532Y-59443214D01*
X165900537Y-59443215D01*
X166094378Y-59487077D01*
X166094381Y-59487077D01*
X166097168Y-59487708D01*
X166187429Y-59491254D01*
X166298613Y-59495623D01*
X166298617Y-59495623D01*
X166301473Y-59495735D01*
X166503821Y-59466396D01*
X166697433Y-59400673D01*
X166875826Y-59300768D01*
X166941340Y-59246281D01*
X167030828Y-59171854D01*
X167033026Y-59170026D01*
X167163768Y-59012826D01*
X167263673Y-58834433D01*
X167329396Y-58640821D01*
X167345349Y-58530793D01*
X167358472Y-58440289D01*
X167358472Y-58440284D01*
X167358735Y-58438473D01*
X167360266Y-58380000D01*
X167356413Y-58338063D01*
X167351068Y-58279904D01*
X167341557Y-58176394D01*
X167340778Y-58173631D01*
X167286836Y-57982365D01*
X167286834Y-57982361D01*
X167286058Y-57979608D01*
X167201826Y-57808802D01*
X167196894Y-57798801D01*
X167196893Y-57798800D01*
X167195626Y-57796230D01*
X167191289Y-57790422D01*
X167075007Y-57634702D01*
X167075006Y-57634700D01*
X167073290Y-57632403D01*
X166923148Y-57493613D01*
X166750228Y-57384509D01*
X166560321Y-57308743D01*
X166557515Y-57308185D01*
X166557512Y-57308184D01*
X166362592Y-57269413D01*
X166362591Y-57269413D01*
X166359786Y-57268855D01*
X166263365Y-57267592D01*
X166158202Y-57266215D01*
X166158197Y-57266215D01*
X166155340Y-57266178D01*
X166152520Y-57266663D01*
X166152515Y-57266663D01*
X166049906Y-57284295D01*
X165953830Y-57300804D01*
X165951142Y-57301796D01*
X165951137Y-57301797D01*
X165764693Y-57370580D01*
X165764690Y-57370582D01*
X165762005Y-57371572D01*
X165759545Y-57373035D01*
X165759544Y-57373036D01*
X165588753Y-57474646D01*
X165588749Y-57474649D01*
X165586288Y-57476113D01*
X165432564Y-57610925D01*
X165430787Y-57613178D01*
X165430787Y-57613179D01*
X165423888Y-57621931D01*
X165305982Y-57771493D01*
X165210781Y-57952441D01*
X165209934Y-57955168D01*
X165209933Y-57955171D01*
X165190182Y-58018780D01*
X165150149Y-58147707D01*
X165149813Y-58150547D01*
X165134503Y-58279904D01*
X165126117Y-58350753D01*
X139676790Y-58350753D01*
X139680837Y-56865754D01*
X169405967Y-56865754D01*
X169408069Y-56897827D01*
X169419507Y-57072335D01*
X169419796Y-57076749D01*
X169420502Y-57079529D01*
X169468029Y-57266663D01*
X169471845Y-57281690D01*
X169560369Y-57473714D01*
X169562020Y-57476049D01*
X169562021Y-57476052D01*
X169592449Y-57519106D01*
X169682405Y-57646391D01*
X169833865Y-57793937D01*
X170009677Y-57911411D01*
X170203953Y-57994878D01*
X170307069Y-58018211D01*
X170407396Y-58040913D01*
X170407399Y-58040913D01*
X170410186Y-58041544D01*
X170503911Y-58045227D01*
X170618610Y-58049734D01*
X170618614Y-58049734D01*
X170621470Y-58049846D01*
X170830730Y-58019504D01*
X171030955Y-57951537D01*
X171215442Y-57848219D01*
X171265042Y-57806968D01*
X171375814Y-57714840D01*
X171378012Y-57713012D01*
X171513219Y-57550442D01*
X171616537Y-57365955D01*
X171684504Y-57165730D01*
X171714846Y-56956470D01*
X171716429Y-56896000D01*
X171714803Y-56878298D01*
X171713650Y-56865754D01*
X179565967Y-56865754D01*
X179568069Y-56897827D01*
X179579507Y-57072335D01*
X179579796Y-57076749D01*
X179580502Y-57079529D01*
X179628029Y-57266663D01*
X179631845Y-57281690D01*
X179720369Y-57473714D01*
X179722020Y-57476049D01*
X179722021Y-57476052D01*
X179752449Y-57519106D01*
X179842405Y-57646391D01*
X179993865Y-57793937D01*
X180169677Y-57911411D01*
X180363953Y-57994878D01*
X180467069Y-58018211D01*
X180567396Y-58040913D01*
X180567399Y-58040913D01*
X180570186Y-58041544D01*
X180663911Y-58045227D01*
X180778610Y-58049734D01*
X180778614Y-58049734D01*
X180781470Y-58049846D01*
X180990730Y-58019504D01*
X181190955Y-57951537D01*
X181375442Y-57848219D01*
X181425042Y-57806968D01*
X181535814Y-57714840D01*
X181538012Y-57713012D01*
X181673219Y-57550442D01*
X181776537Y-57365955D01*
X181844504Y-57165730D01*
X181874846Y-56956470D01*
X181876429Y-56896000D01*
X181874803Y-56878298D01*
X181857343Y-56688295D01*
X181857081Y-56685440D01*
X181831713Y-56595489D01*
X181800466Y-56484696D01*
X181800465Y-56484694D01*
X181799686Y-56481931D01*
X181706165Y-56292290D01*
X181617561Y-56173635D01*
X181581368Y-56125166D01*
X181581366Y-56125164D01*
X181579651Y-56122867D01*
X181424381Y-55979337D01*
X181245554Y-55866505D01*
X181049160Y-55788152D01*
X181046354Y-55787594D01*
X181046351Y-55787593D01*
X180844581Y-55747459D01*
X180844579Y-55747459D01*
X180841775Y-55746901D01*
X180742145Y-55745597D01*
X180633208Y-55744170D01*
X180633203Y-55744170D01*
X180630346Y-55744133D01*
X180627525Y-55744618D01*
X180627521Y-55744618D01*
X180505580Y-55765571D01*
X180421953Y-55779941D01*
X180419265Y-55780933D01*
X180419260Y-55780934D01*
X180226263Y-55852135D01*
X180226260Y-55852136D01*
X180223575Y-55853127D01*
X180221115Y-55854590D01*
X180221114Y-55854591D01*
X180198520Y-55868033D01*
X180041856Y-55961238D01*
X179882881Y-56100655D01*
X179751976Y-56266708D01*
X179653523Y-56453836D01*
X179652676Y-56456563D01*
X179652675Y-56456566D01*
X179622589Y-56553461D01*
X179590820Y-56655773D01*
X179565967Y-56865754D01*
X171713650Y-56865754D01*
X171697343Y-56688295D01*
X171697081Y-56685440D01*
X171671713Y-56595489D01*
X171640466Y-56484696D01*
X171640465Y-56484694D01*
X171639686Y-56481931D01*
X171546165Y-56292290D01*
X171457561Y-56173635D01*
X171421368Y-56125166D01*
X171421366Y-56125164D01*
X171419651Y-56122867D01*
X171264381Y-55979337D01*
X171085554Y-55866505D01*
X170889160Y-55788152D01*
X170886354Y-55787594D01*
X170886351Y-55787593D01*
X170684581Y-55747459D01*
X170684579Y-55747459D01*
X170681775Y-55746901D01*
X170582145Y-55745597D01*
X170473208Y-55744170D01*
X170473203Y-55744170D01*
X170470346Y-55744133D01*
X170467525Y-55744618D01*
X170467521Y-55744618D01*
X170345580Y-55765571D01*
X170261953Y-55779941D01*
X170259265Y-55780933D01*
X170259260Y-55780934D01*
X170066263Y-55852135D01*
X170066260Y-55852136D01*
X170063575Y-55853127D01*
X170061115Y-55854590D01*
X170061114Y-55854591D01*
X170038520Y-55868033D01*
X169881856Y-55961238D01*
X169722881Y-56100655D01*
X169591976Y-56266708D01*
X169493523Y-56453836D01*
X169492676Y-56456563D01*
X169492675Y-56456566D01*
X169462589Y-56553461D01*
X169430820Y-56655773D01*
X169405967Y-56865754D01*
X139680837Y-56865754D01*
X139686446Y-54808099D01*
X169838260Y-54808099D01*
X169840364Y-54813178D01*
X169902270Y-54856525D01*
X169906973Y-54859240D01*
X170109456Y-54953660D01*
X170114566Y-54955520D01*
X170330365Y-55013343D01*
X170335719Y-55014287D01*
X170558280Y-55033758D01*
X170563720Y-55033758D01*
X170786281Y-55014287D01*
X170791635Y-55013343D01*
X171007434Y-54955520D01*
X171012544Y-54953660D01*
X171215027Y-54859240D01*
X171219730Y-54856525D01*
X171278706Y-54815229D01*
X171283818Y-54807205D01*
X171282629Y-54801839D01*
X170569790Y-54089000D01*
X170561000Y-54085359D01*
X170552210Y-54089000D01*
X169841901Y-54799309D01*
X169838260Y-54808099D01*
X139686446Y-54808099D01*
X139686957Y-54620528D01*
X139690690Y-53250753D01*
X165126117Y-53250753D01*
X165129630Y-53304354D01*
X165139015Y-53447543D01*
X165139489Y-53454779D01*
X165140195Y-53457559D01*
X165187280Y-53642952D01*
X165189819Y-53652951D01*
X165275419Y-53838633D01*
X165277069Y-53840968D01*
X165277071Y-53840971D01*
X165327853Y-53912826D01*
X165393424Y-54005606D01*
X165539882Y-54148279D01*
X165709887Y-54261872D01*
X165897746Y-54342583D01*
X165900532Y-54343214D01*
X165900537Y-54343215D01*
X166094378Y-54387077D01*
X166094381Y-54387077D01*
X166097168Y-54387708D01*
X166187429Y-54391254D01*
X166298613Y-54395623D01*
X166298617Y-54395623D01*
X166301473Y-54395735D01*
X166503821Y-54366396D01*
X166697433Y-54300673D01*
X166875826Y-54200768D01*
X166884621Y-54193454D01*
X167030828Y-54071854D01*
X167033026Y-54070026D01*
X167098976Y-53990730D01*
X167161937Y-53915028D01*
X167161939Y-53915025D01*
X167163768Y-53912826D01*
X167263673Y-53734433D01*
X167267310Y-53723720D01*
X169248242Y-53723720D01*
X169267713Y-53946281D01*
X169268657Y-53951635D01*
X169326480Y-54167434D01*
X169328340Y-54172544D01*
X169422760Y-54375027D01*
X169425475Y-54379730D01*
X169466771Y-54438706D01*
X169474795Y-54443818D01*
X169480161Y-54442629D01*
X170193000Y-53729790D01*
X170196641Y-53721000D01*
X170925359Y-53721000D01*
X170929000Y-53729790D01*
X171639309Y-54440099D01*
X171648099Y-54443740D01*
X171653178Y-54441636D01*
X171696525Y-54379730D01*
X171699240Y-54375027D01*
X171793660Y-54172544D01*
X171795520Y-54167434D01*
X171853343Y-53951635D01*
X171854287Y-53946281D01*
X171873758Y-53723720D01*
X171873758Y-53718280D01*
X171871350Y-53690754D01*
X179565967Y-53690754D01*
X179568652Y-53731719D01*
X179576479Y-53851133D01*
X179579796Y-53901749D01*
X179580502Y-53904529D01*
X179626428Y-54085359D01*
X179631845Y-54106690D01*
X179720369Y-54298714D01*
X179722020Y-54301049D01*
X179722021Y-54301052D01*
X179751819Y-54343215D01*
X179842405Y-54471391D01*
X179993865Y-54618937D01*
X180169677Y-54736411D01*
X180363953Y-54819878D01*
X180467070Y-54843211D01*
X180567396Y-54865913D01*
X180567399Y-54865913D01*
X180570186Y-54866544D01*
X180663911Y-54870227D01*
X180778610Y-54874734D01*
X180778614Y-54874734D01*
X180781470Y-54874846D01*
X180990730Y-54844504D01*
X181190955Y-54776537D01*
X181375442Y-54673219D01*
X181393868Y-54657895D01*
X181535814Y-54539840D01*
X181538012Y-54538012D01*
X181617341Y-54442629D01*
X181671388Y-54377644D01*
X181671390Y-54377641D01*
X181673219Y-54375442D01*
X181776537Y-54190955D01*
X181844504Y-53990730D01*
X181874846Y-53781470D01*
X181876429Y-53721000D01*
X181875622Y-53712210D01*
X181860122Y-53543534D01*
X181857081Y-53510440D01*
X181852930Y-53495719D01*
X181800466Y-53309696D01*
X181800465Y-53309694D01*
X181799686Y-53306931D01*
X181706165Y-53117290D01*
X181579651Y-52947867D01*
X181424381Y-52804337D01*
X181245554Y-52691505D01*
X181049160Y-52613152D01*
X181046354Y-52612594D01*
X181046351Y-52612593D01*
X180844581Y-52572459D01*
X180844579Y-52572459D01*
X180841775Y-52571901D01*
X180742145Y-52570597D01*
X180633208Y-52569170D01*
X180633203Y-52569170D01*
X180630346Y-52569133D01*
X180627525Y-52569618D01*
X180627521Y-52569618D01*
X180505580Y-52590571D01*
X180421953Y-52604941D01*
X180419265Y-52605933D01*
X180419260Y-52605934D01*
X180226263Y-52677135D01*
X180226260Y-52677136D01*
X180223575Y-52678127D01*
X180221115Y-52679590D01*
X180221114Y-52679591D01*
X180198520Y-52693033D01*
X180041856Y-52786238D01*
X179882881Y-52925655D01*
X179868555Y-52943828D01*
X179763792Y-53076720D01*
X179751976Y-53091708D01*
X179736951Y-53120266D01*
X179655770Y-53274566D01*
X179653523Y-53278836D01*
X179652676Y-53281563D01*
X179652675Y-53281566D01*
X179629364Y-53356641D01*
X179590820Y-53480773D01*
X179575503Y-53610189D01*
X179572728Y-53633635D01*
X179565967Y-53690754D01*
X171871350Y-53690754D01*
X171854287Y-53495719D01*
X171853343Y-53490365D01*
X171795520Y-53274566D01*
X171793660Y-53269456D01*
X171699240Y-53066973D01*
X171696525Y-53062270D01*
X171655229Y-53003294D01*
X171647205Y-52998182D01*
X171641839Y-52999371D01*
X170929000Y-53712210D01*
X170925359Y-53721000D01*
X170196641Y-53721000D01*
X170193000Y-53712210D01*
X169482691Y-53001901D01*
X169473901Y-52998260D01*
X169468822Y-53000364D01*
X169425475Y-53062270D01*
X169422760Y-53066973D01*
X169328340Y-53269456D01*
X169326480Y-53274566D01*
X169268657Y-53490365D01*
X169267713Y-53495719D01*
X169248242Y-53718280D01*
X169248242Y-53723720D01*
X167267310Y-53723720D01*
X167329396Y-53540821D01*
X167343247Y-53445290D01*
X167358472Y-53340289D01*
X167358472Y-53340284D01*
X167358735Y-53338473D01*
X167360266Y-53280000D01*
X167358251Y-53258063D01*
X167351129Y-53180565D01*
X167341557Y-53076394D01*
X167337574Y-53062270D01*
X167286836Y-52882365D01*
X167286834Y-52882361D01*
X167286058Y-52879608D01*
X167201261Y-52707656D01*
X167196894Y-52698801D01*
X167196893Y-52698800D01*
X167195626Y-52696230D01*
X167191306Y-52690445D01*
X167149750Y-52634795D01*
X169838182Y-52634795D01*
X169839371Y-52640161D01*
X170552210Y-53353000D01*
X170561000Y-53356641D01*
X170569790Y-53353000D01*
X171280099Y-52642691D01*
X171283740Y-52633901D01*
X171281636Y-52628822D01*
X171219730Y-52585475D01*
X171215027Y-52582760D01*
X171012544Y-52488340D01*
X171007434Y-52486480D01*
X170791635Y-52428657D01*
X170786281Y-52427713D01*
X170563720Y-52408242D01*
X170558280Y-52408242D01*
X170335719Y-52427713D01*
X170330365Y-52428657D01*
X170114566Y-52486480D01*
X170109456Y-52488340D01*
X169906973Y-52582760D01*
X169902270Y-52585475D01*
X169843294Y-52626771D01*
X169838182Y-52634795D01*
X167149750Y-52634795D01*
X167075007Y-52534702D01*
X167075006Y-52534700D01*
X167073290Y-52532403D01*
X166923148Y-52393613D01*
X166750228Y-52284509D01*
X166585138Y-52218644D01*
X166562978Y-52209803D01*
X166560321Y-52208743D01*
X166557515Y-52208185D01*
X166557512Y-52208184D01*
X166362592Y-52169413D01*
X166362591Y-52169413D01*
X166359786Y-52168855D01*
X166263365Y-52167592D01*
X166158202Y-52166215D01*
X166158197Y-52166215D01*
X166155340Y-52166178D01*
X166152520Y-52166663D01*
X166152515Y-52166663D01*
X166035263Y-52186811D01*
X165953830Y-52200804D01*
X165951142Y-52201796D01*
X165951137Y-52201797D01*
X165764693Y-52270580D01*
X165764690Y-52270582D01*
X165762005Y-52271572D01*
X165759545Y-52273035D01*
X165759544Y-52273036D01*
X165588753Y-52374646D01*
X165588749Y-52374649D01*
X165586288Y-52376113D01*
X165432564Y-52510925D01*
X165430787Y-52513178D01*
X165430787Y-52513179D01*
X165347792Y-52618458D01*
X165305982Y-52671493D01*
X165210781Y-52852441D01*
X165209934Y-52855168D01*
X165209933Y-52855171D01*
X165188047Y-52925655D01*
X165150149Y-53047707D01*
X165126117Y-53250753D01*
X139690690Y-53250753D01*
X139697106Y-50896754D01*
X169953967Y-50896754D01*
X169967796Y-51107749D01*
X169968502Y-51110529D01*
X170014428Y-51291359D01*
X170019845Y-51312690D01*
X170108369Y-51504714D01*
X170230405Y-51677391D01*
X170381865Y-51824937D01*
X170557677Y-51942411D01*
X170751953Y-52025878D01*
X170855070Y-52049211D01*
X170955396Y-52071913D01*
X170955399Y-52071913D01*
X170958186Y-52072544D01*
X171051911Y-52076227D01*
X171166610Y-52080734D01*
X171166614Y-52080734D01*
X171169470Y-52080846D01*
X171378730Y-52050504D01*
X171485976Y-52014099D01*
X175386260Y-52014099D01*
X175388364Y-52019178D01*
X175450270Y-52062525D01*
X175454973Y-52065240D01*
X175657456Y-52159660D01*
X175662566Y-52161520D01*
X175878365Y-52219343D01*
X175883719Y-52220287D01*
X176106280Y-52239758D01*
X176111720Y-52239758D01*
X176334281Y-52220287D01*
X176339635Y-52219343D01*
X176555434Y-52161520D01*
X176560544Y-52159660D01*
X176763027Y-52065240D01*
X176767730Y-52062525D01*
X176826706Y-52021229D01*
X176831818Y-52013205D01*
X176830629Y-52007839D01*
X176117790Y-51295000D01*
X176109000Y-51291359D01*
X176100210Y-51295000D01*
X175389901Y-52005309D01*
X175386260Y-52014099D01*
X171485976Y-52014099D01*
X171578955Y-51982537D01*
X171763442Y-51879219D01*
X171817278Y-51834445D01*
X171923814Y-51745840D01*
X171926012Y-51744012D01*
X172005341Y-51648629D01*
X172059388Y-51583644D01*
X172059390Y-51583641D01*
X172061219Y-51581442D01*
X172164537Y-51396955D01*
X172232504Y-51196730D01*
X172262846Y-50987470D01*
X172263543Y-50960864D01*
X172264213Y-50935244D01*
X172264358Y-50929720D01*
X174796242Y-50929720D01*
X174815713Y-51152281D01*
X174816657Y-51157635D01*
X174874480Y-51373434D01*
X174876340Y-51378544D01*
X174970760Y-51581027D01*
X174973475Y-51585730D01*
X175014771Y-51644706D01*
X175022795Y-51649818D01*
X175028161Y-51648629D01*
X175741000Y-50935790D01*
X175744641Y-50927000D01*
X176473359Y-50927000D01*
X176477000Y-50935790D01*
X177187309Y-51646099D01*
X177196099Y-51649740D01*
X177201178Y-51647636D01*
X177244525Y-51585730D01*
X177247240Y-51581027D01*
X177270217Y-51531754D01*
X183375967Y-51531754D01*
X183389796Y-51742749D01*
X183441845Y-51947690D01*
X183530369Y-52139714D01*
X183532020Y-52142049D01*
X183532021Y-52142052D01*
X183573543Y-52200804D01*
X183652405Y-52312391D01*
X183803865Y-52459937D01*
X183979677Y-52577411D01*
X184173953Y-52660878D01*
X184256652Y-52679591D01*
X184377396Y-52706913D01*
X184377399Y-52706913D01*
X184380186Y-52707544D01*
X184473911Y-52711227D01*
X184588610Y-52715734D01*
X184588614Y-52715734D01*
X184591470Y-52715846D01*
X184800730Y-52685504D01*
X185000955Y-52617537D01*
X185185442Y-52514219D01*
X185191677Y-52509034D01*
X185345814Y-52380840D01*
X185348012Y-52379012D01*
X185438193Y-52270580D01*
X185481388Y-52218644D01*
X185481390Y-52218641D01*
X185483219Y-52216442D01*
X185586537Y-52031955D01*
X185654504Y-51831730D01*
X185684846Y-51622470D01*
X185686429Y-51562000D01*
X185667081Y-51351440D01*
X185656153Y-51312690D01*
X185610466Y-51150696D01*
X185610465Y-51150694D01*
X185609686Y-51147931D01*
X185516165Y-50958290D01*
X185389651Y-50788867D01*
X185234381Y-50645337D01*
X185055554Y-50532505D01*
X184859160Y-50454152D01*
X184856354Y-50453594D01*
X184856351Y-50453593D01*
X184654581Y-50413459D01*
X184654579Y-50413459D01*
X184651775Y-50412901D01*
X184552145Y-50411597D01*
X184443208Y-50410170D01*
X184443203Y-50410170D01*
X184440346Y-50410133D01*
X184437525Y-50410618D01*
X184437521Y-50410618D01*
X184315580Y-50431571D01*
X184231953Y-50445941D01*
X184229265Y-50446933D01*
X184229260Y-50446934D01*
X184036263Y-50518135D01*
X184036260Y-50518136D01*
X184033575Y-50519127D01*
X184031115Y-50520590D01*
X184031114Y-50520591D01*
X184008520Y-50534033D01*
X183851856Y-50627238D01*
X183692881Y-50766655D01*
X183691105Y-50768908D01*
X183564332Y-50929720D01*
X183561976Y-50932708D01*
X183463523Y-51119836D01*
X183462676Y-51122563D01*
X183462675Y-51122566D01*
X183451786Y-51157635D01*
X183400820Y-51321773D01*
X183375967Y-51531754D01*
X177270217Y-51531754D01*
X177341660Y-51378544D01*
X177343520Y-51373434D01*
X177401343Y-51157635D01*
X177402287Y-51152281D01*
X177421758Y-50929720D01*
X177421758Y-50924280D01*
X177402287Y-50701719D01*
X177401343Y-50696365D01*
X177343520Y-50480566D01*
X177341660Y-50475456D01*
X177247240Y-50272973D01*
X177244525Y-50268270D01*
X177203229Y-50209294D01*
X177195205Y-50204182D01*
X177189839Y-50205371D01*
X176477000Y-50918210D01*
X176473359Y-50927000D01*
X175744641Y-50927000D01*
X175741000Y-50918210D01*
X175030691Y-50207901D01*
X175021901Y-50204260D01*
X175016822Y-50206364D01*
X174973475Y-50268270D01*
X174970760Y-50272973D01*
X174876340Y-50475456D01*
X174874480Y-50480566D01*
X174816657Y-50696365D01*
X174815713Y-50701719D01*
X174796242Y-50924280D01*
X174796242Y-50929720D01*
X172264358Y-50929720D01*
X172264429Y-50927000D01*
X172263622Y-50918210D01*
X172245343Y-50719295D01*
X172245081Y-50716440D01*
X172240930Y-50701719D01*
X172188466Y-50515696D01*
X172188465Y-50515694D01*
X172187686Y-50512931D01*
X172094165Y-50323290D01*
X171967651Y-50153867D01*
X171812381Y-50010337D01*
X171633554Y-49897505D01*
X171491409Y-49840795D01*
X175386182Y-49840795D01*
X175387371Y-49846161D01*
X176100210Y-50559000D01*
X176109000Y-50562641D01*
X176117790Y-50559000D01*
X176828099Y-49848691D01*
X176831740Y-49839901D01*
X176829636Y-49834822D01*
X176767730Y-49791475D01*
X176763027Y-49788760D01*
X176560544Y-49694340D01*
X176555434Y-49692480D01*
X176339635Y-49634657D01*
X176334281Y-49633713D01*
X176111720Y-49614242D01*
X176106280Y-49614242D01*
X175883719Y-49633713D01*
X175878365Y-49634657D01*
X175662566Y-49692480D01*
X175657456Y-49694340D01*
X175454973Y-49788760D01*
X175450270Y-49791475D01*
X175391294Y-49832771D01*
X175386182Y-49840795D01*
X171491409Y-49840795D01*
X171437160Y-49819152D01*
X171434354Y-49818594D01*
X171434351Y-49818593D01*
X171232581Y-49778459D01*
X171232579Y-49778459D01*
X171229775Y-49777901D01*
X171130145Y-49776597D01*
X171021208Y-49775170D01*
X171021203Y-49775170D01*
X171018346Y-49775133D01*
X171015525Y-49775618D01*
X171015521Y-49775618D01*
X170893580Y-49796571D01*
X170809953Y-49810941D01*
X170807265Y-49811933D01*
X170807260Y-49811934D01*
X170614263Y-49883135D01*
X170614260Y-49883136D01*
X170611575Y-49884127D01*
X170609115Y-49885590D01*
X170609114Y-49885591D01*
X170586520Y-49899033D01*
X170429856Y-49992238D01*
X170334760Y-50075634D01*
X170307675Y-50099388D01*
X170270881Y-50131655D01*
X170139976Y-50297708D01*
X170080826Y-50410133D01*
X170043770Y-50480566D01*
X170041523Y-50484836D01*
X170040676Y-50487563D01*
X170040675Y-50487566D01*
X170017364Y-50562641D01*
X169978820Y-50686773D01*
X169953967Y-50896754D01*
X139697106Y-50896754D01*
X139700000Y-49834800D01*
X138415671Y-49239815D01*
X165547544Y-49239815D01*
X165549648Y-49244893D01*
X165603337Y-49282486D01*
X165608048Y-49285207D01*
X165804502Y-49376815D01*
X165809612Y-49378675D01*
X166018988Y-49434777D01*
X166024342Y-49435721D01*
X166240280Y-49454613D01*
X166245720Y-49454613D01*
X166461658Y-49435721D01*
X166467012Y-49434777D01*
X166676388Y-49378675D01*
X166681498Y-49376815D01*
X166877952Y-49285207D01*
X166882663Y-49282486D01*
X166933421Y-49246946D01*
X166938533Y-49238921D01*
X166937343Y-49233553D01*
X166251790Y-48548000D01*
X166243000Y-48544359D01*
X166234210Y-48548000D01*
X165551185Y-49231025D01*
X165547544Y-49239815D01*
X138415671Y-49239815D01*
X136133836Y-48182720D01*
X164968387Y-48182720D01*
X164987279Y-48398658D01*
X164988223Y-48404012D01*
X165044325Y-48613388D01*
X165046185Y-48618497D01*
X165137793Y-48814951D01*
X165140514Y-48819662D01*
X165176053Y-48870420D01*
X165184079Y-48875533D01*
X165189447Y-48874343D01*
X165875000Y-48188790D01*
X165878641Y-48180000D01*
X166607359Y-48180000D01*
X166611000Y-48188790D01*
X167294025Y-48871815D01*
X167302815Y-48875456D01*
X167307893Y-48873352D01*
X167345486Y-48819662D01*
X167348207Y-48814951D01*
X167439815Y-48618497D01*
X167441675Y-48613388D01*
X167497777Y-48404012D01*
X167498721Y-48398658D01*
X167517613Y-48182720D01*
X167517613Y-48177280D01*
X167510218Y-48092754D01*
X170030967Y-48092754D01*
X170033069Y-48124827D01*
X170040116Y-48232337D01*
X170044796Y-48303749D01*
X170045502Y-48306529D01*
X170067395Y-48392730D01*
X170096845Y-48508690D01*
X170185369Y-48700714D01*
X170187020Y-48703049D01*
X170187021Y-48703052D01*
X170191625Y-48709566D01*
X170307405Y-48873391D01*
X170458865Y-49020937D01*
X170634677Y-49138411D01*
X170828953Y-49221878D01*
X170904272Y-49238921D01*
X171032396Y-49267913D01*
X171032399Y-49267913D01*
X171035186Y-49268544D01*
X171128911Y-49272227D01*
X171243610Y-49276734D01*
X171243614Y-49276734D01*
X171246470Y-49276846D01*
X171455730Y-49246504D01*
X171655955Y-49178537D01*
X171840442Y-49075219D01*
X171896162Y-49028878D01*
X171983526Y-48956218D01*
X177655500Y-48956218D01*
X177665642Y-49025112D01*
X177717068Y-49129855D01*
X177720720Y-49133501D01*
X177720721Y-49133502D01*
X177795995Y-49208645D01*
X177795997Y-49208647D01*
X177799650Y-49212293D01*
X177804290Y-49214561D01*
X177899738Y-49261217D01*
X177904482Y-49263536D01*
X177909285Y-49264237D01*
X177909286Y-49264237D01*
X177929248Y-49267149D01*
X177972782Y-49273500D01*
X179639218Y-49273500D01*
X179641465Y-49273169D01*
X179641468Y-49273169D01*
X179672123Y-49268656D01*
X179708112Y-49263358D01*
X179812855Y-49211932D01*
X179817137Y-49207643D01*
X179891645Y-49133005D01*
X179891647Y-49133003D01*
X179895293Y-49129350D01*
X179900472Y-49118754D01*
X180327967Y-49118754D01*
X180330069Y-49150827D01*
X180338877Y-49285207D01*
X180341796Y-49329749D01*
X180342502Y-49332529D01*
X180364395Y-49418730D01*
X180393845Y-49534690D01*
X180482369Y-49726714D01*
X180484020Y-49729049D01*
X180484021Y-49729052D01*
X180547303Y-49818593D01*
X180604405Y-49899391D01*
X180755865Y-50046937D01*
X180931677Y-50164411D01*
X181125953Y-50247878D01*
X181216072Y-50268270D01*
X181329396Y-50293913D01*
X181329399Y-50293913D01*
X181332186Y-50294544D01*
X181425911Y-50298227D01*
X181540610Y-50302734D01*
X181540614Y-50302734D01*
X181543470Y-50302846D01*
X181752730Y-50272504D01*
X181952955Y-50204537D01*
X182137442Y-50101219D01*
X182248558Y-50008806D01*
X182297814Y-49967840D01*
X182300012Y-49966012D01*
X182355420Y-49899391D01*
X182433388Y-49805644D01*
X182433390Y-49805641D01*
X182435219Y-49803442D01*
X182538537Y-49618955D01*
X182606504Y-49418730D01*
X182636846Y-49209470D01*
X182638429Y-49149000D01*
X182636960Y-49133005D01*
X182627045Y-49025112D01*
X182619081Y-48938440D01*
X182600736Y-48873391D01*
X182562466Y-48737696D01*
X182562465Y-48737694D01*
X182561686Y-48734931D01*
X182468165Y-48545290D01*
X182341651Y-48375867D01*
X182186381Y-48232337D01*
X182007554Y-48119505D01*
X181811160Y-48041152D01*
X181808354Y-48040594D01*
X181808351Y-48040593D01*
X181606581Y-48000459D01*
X181606579Y-48000459D01*
X181603775Y-47999901D01*
X181504145Y-47998597D01*
X181395208Y-47997170D01*
X181395203Y-47997170D01*
X181392346Y-47997133D01*
X181389525Y-47997618D01*
X181389521Y-47997618D01*
X181267580Y-48018571D01*
X181183953Y-48032941D01*
X181181265Y-48033933D01*
X181181260Y-48033934D01*
X180988263Y-48105135D01*
X180988260Y-48105136D01*
X180985575Y-48106127D01*
X180983115Y-48107590D01*
X180983114Y-48107591D01*
X180960520Y-48121033D01*
X180803856Y-48214238D01*
X180644881Y-48353655D01*
X180513976Y-48519708D01*
X180415523Y-48706836D01*
X180414676Y-48709563D01*
X180414675Y-48709566D01*
X180381952Y-48814951D01*
X180352820Y-48908773D01*
X180327967Y-49118754D01*
X179900472Y-49118754D01*
X179910458Y-49098325D01*
X179944405Y-49028878D01*
X179944405Y-49028877D01*
X179946536Y-49024518D01*
X179956500Y-48956218D01*
X179956500Y-47289782D01*
X179946358Y-47220888D01*
X179894932Y-47116145D01*
X179891279Y-47112498D01*
X179816005Y-47037355D01*
X179816003Y-47037353D01*
X179812350Y-47033707D01*
X179757593Y-47006941D01*
X179711878Y-46984595D01*
X179711877Y-46984595D01*
X179707518Y-46982464D01*
X179702715Y-46981763D01*
X179702714Y-46981763D01*
X179682752Y-46978851D01*
X179639218Y-46972500D01*
X177972782Y-46972500D01*
X177970535Y-46972831D01*
X177970532Y-46972831D01*
X177946338Y-46976393D01*
X177903888Y-46982642D01*
X177799145Y-47034068D01*
X177795499Y-47037720D01*
X177795498Y-47037721D01*
X177720355Y-47112995D01*
X177720353Y-47112997D01*
X177716707Y-47116650D01*
X177714439Y-47121290D01*
X177667886Y-47216528D01*
X177665464Y-47221482D01*
X177655500Y-47289782D01*
X177655500Y-48956218D01*
X171983526Y-48956218D01*
X172000814Y-48941840D01*
X172003012Y-48940012D01*
X172058452Y-48873352D01*
X172136388Y-48779644D01*
X172136390Y-48779641D01*
X172138219Y-48777442D01*
X172241537Y-48592955D01*
X172309504Y-48392730D01*
X172339846Y-48183470D01*
X172341429Y-48123000D01*
X172341249Y-48121033D01*
X172329863Y-47997133D01*
X172322081Y-47912440D01*
X172264686Y-47708931D01*
X172171165Y-47519290D01*
X172044651Y-47349867D01*
X171889381Y-47206337D01*
X171710554Y-47093505D01*
X171569812Y-47037355D01*
X171516817Y-47016212D01*
X171514160Y-47015152D01*
X171511354Y-47014594D01*
X171511351Y-47014593D01*
X171309581Y-46974459D01*
X171309579Y-46974459D01*
X171306775Y-46973901D01*
X171207145Y-46972597D01*
X171098208Y-46971170D01*
X171098203Y-46971170D01*
X171095346Y-46971133D01*
X171092525Y-46971618D01*
X171092521Y-46971618D01*
X170970580Y-46992571D01*
X170886953Y-47006941D01*
X170884265Y-47007933D01*
X170884260Y-47007934D01*
X170691263Y-47079135D01*
X170691260Y-47079136D01*
X170688575Y-47080127D01*
X170686115Y-47081590D01*
X170686114Y-47081591D01*
X170663520Y-47095033D01*
X170506856Y-47188238D01*
X170411760Y-47271634D01*
X170388471Y-47292059D01*
X170347881Y-47327655D01*
X170216976Y-47493708D01*
X170118523Y-47680836D01*
X170117676Y-47683563D01*
X170117675Y-47683566D01*
X170076665Y-47815641D01*
X170055820Y-47882773D01*
X170055484Y-47885613D01*
X170037075Y-48041152D01*
X170030967Y-48092754D01*
X167510218Y-48092754D01*
X167498721Y-47961342D01*
X167497777Y-47955988D01*
X167441675Y-47746612D01*
X167439815Y-47741503D01*
X167348207Y-47545049D01*
X167345486Y-47540338D01*
X167309947Y-47489580D01*
X167301921Y-47484467D01*
X167296553Y-47485657D01*
X166611000Y-48171210D01*
X166607359Y-48180000D01*
X165878641Y-48180000D01*
X165875000Y-48171210D01*
X165191975Y-47488185D01*
X165183185Y-47484544D01*
X165178107Y-47486648D01*
X165140514Y-47540338D01*
X165137793Y-47545049D01*
X165046185Y-47741503D01*
X165044325Y-47746612D01*
X164988223Y-47955988D01*
X164987279Y-47961342D01*
X164968387Y-48177280D01*
X164968387Y-48182720D01*
X136133836Y-48182720D01*
X133842188Y-47121079D01*
X165547467Y-47121079D01*
X165548657Y-47126447D01*
X166234210Y-47812000D01*
X166243000Y-47815641D01*
X166251790Y-47812000D01*
X166934815Y-47128975D01*
X166938456Y-47120185D01*
X166936352Y-47115107D01*
X166882663Y-47077514D01*
X166877952Y-47074793D01*
X166681498Y-46983185D01*
X166676388Y-46981325D01*
X166467012Y-46925223D01*
X166461658Y-46924279D01*
X166245720Y-46905387D01*
X166240280Y-46905387D01*
X166024342Y-46924279D01*
X166018988Y-46925223D01*
X165809612Y-46981325D01*
X165804503Y-46983185D01*
X165608049Y-47074793D01*
X165603338Y-47077514D01*
X165552580Y-47113053D01*
X165547467Y-47121079D01*
X133842188Y-47121079D01*
X130456817Y-45552754D01*
X170030967Y-45552754D01*
X170044796Y-45763749D01*
X170045502Y-45766529D01*
X170067395Y-45852730D01*
X170096845Y-45968690D01*
X170185369Y-46160714D01*
X170307405Y-46333391D01*
X170458865Y-46480937D01*
X170634677Y-46598411D01*
X170828953Y-46681878D01*
X170932069Y-46705211D01*
X171032396Y-46727913D01*
X171032399Y-46727913D01*
X171035186Y-46728544D01*
X171128911Y-46732227D01*
X171243610Y-46736734D01*
X171243614Y-46736734D01*
X171246470Y-46736846D01*
X171455730Y-46706504D01*
X171655955Y-46638537D01*
X171840442Y-46535219D01*
X172003012Y-46400012D01*
X172138219Y-46237442D01*
X172241537Y-46052955D01*
X172309504Y-45852730D01*
X172339846Y-45643470D01*
X172341429Y-45583000D01*
X172338650Y-45552754D01*
X177650967Y-45552754D01*
X177664796Y-45763749D01*
X177665502Y-45766529D01*
X177687395Y-45852730D01*
X177716845Y-45968690D01*
X177805369Y-46160714D01*
X177927405Y-46333391D01*
X178078865Y-46480937D01*
X178254677Y-46598411D01*
X178448953Y-46681878D01*
X178552069Y-46705211D01*
X178652396Y-46727913D01*
X178652399Y-46727913D01*
X178655186Y-46728544D01*
X178748911Y-46732227D01*
X178863610Y-46736734D01*
X178863614Y-46736734D01*
X178866470Y-46736846D01*
X179075730Y-46706504D01*
X179275955Y-46638537D01*
X179460442Y-46535219D01*
X179623012Y-46400012D01*
X179758219Y-46237442D01*
X179861537Y-46052955D01*
X179929504Y-45852730D01*
X179959846Y-45643470D01*
X179961429Y-45583000D01*
X179942081Y-45372440D01*
X179884686Y-45168931D01*
X179791165Y-44979290D01*
X179726272Y-44892388D01*
X179666368Y-44812166D01*
X179666366Y-44812164D01*
X179664651Y-44809867D01*
X179509381Y-44666337D01*
X179330554Y-44553505D01*
X179134160Y-44475152D01*
X179131354Y-44474594D01*
X179131351Y-44474593D01*
X178929581Y-44434459D01*
X178929579Y-44434459D01*
X178926775Y-44433901D01*
X178827145Y-44432597D01*
X178718208Y-44431170D01*
X178718203Y-44431170D01*
X178715346Y-44431133D01*
X178712525Y-44431618D01*
X178712521Y-44431618D01*
X178590580Y-44452571D01*
X178506953Y-44466941D01*
X178504265Y-44467933D01*
X178504260Y-44467934D01*
X178311263Y-44539135D01*
X178311260Y-44539136D01*
X178308575Y-44540127D01*
X178306115Y-44541590D01*
X178306114Y-44541591D01*
X178283520Y-44555033D01*
X178126856Y-44648238D01*
X178124699Y-44650130D01*
X178003049Y-44756814D01*
X177967881Y-44787655D01*
X177836976Y-44953708D01*
X177738523Y-45140836D01*
X177737676Y-45143563D01*
X177737675Y-45143566D01*
X177677318Y-45337947D01*
X177675820Y-45342773D01*
X177650967Y-45552754D01*
X172338650Y-45552754D01*
X172322081Y-45372440D01*
X172264686Y-45168931D01*
X172171165Y-44979290D01*
X172106272Y-44892388D01*
X172046368Y-44812166D01*
X172046366Y-44812164D01*
X172044651Y-44809867D01*
X171889381Y-44666337D01*
X171710554Y-44553505D01*
X171514160Y-44475152D01*
X171511354Y-44474594D01*
X171511351Y-44474593D01*
X171309581Y-44434459D01*
X171309579Y-44434459D01*
X171306775Y-44433901D01*
X171207145Y-44432597D01*
X171098208Y-44431170D01*
X171098203Y-44431170D01*
X171095346Y-44431133D01*
X171092525Y-44431618D01*
X171092521Y-44431618D01*
X170970580Y-44452571D01*
X170886953Y-44466941D01*
X170884265Y-44467933D01*
X170884260Y-44467934D01*
X170691263Y-44539135D01*
X170691260Y-44539136D01*
X170688575Y-44540127D01*
X170686115Y-44541590D01*
X170686114Y-44541591D01*
X170663520Y-44555033D01*
X170506856Y-44648238D01*
X170504699Y-44650130D01*
X170383049Y-44756814D01*
X170347881Y-44787655D01*
X170216976Y-44953708D01*
X170118523Y-45140836D01*
X170117676Y-45143563D01*
X170117675Y-45143566D01*
X170057318Y-45337947D01*
X170055820Y-45342773D01*
X170030967Y-45552754D01*
X130456817Y-45552754D01*
X125056021Y-43050753D01*
X165126117Y-43050753D01*
X165126305Y-43053617D01*
X165137268Y-43220886D01*
X165139489Y-43254779D01*
X165140195Y-43257559D01*
X165182952Y-43425911D01*
X165189819Y-43452951D01*
X165275419Y-43638633D01*
X165277069Y-43640968D01*
X165277071Y-43640971D01*
X165343026Y-43734295D01*
X165393424Y-43805606D01*
X165539882Y-43948279D01*
X165709887Y-44061872D01*
X165897746Y-44142583D01*
X165900532Y-44143214D01*
X165900537Y-44143215D01*
X166094378Y-44187077D01*
X166094381Y-44187077D01*
X166097168Y-44187708D01*
X166187429Y-44191254D01*
X166298613Y-44195623D01*
X166298617Y-44195623D01*
X166301473Y-44195735D01*
X166503821Y-44166396D01*
X166697433Y-44100673D01*
X166875826Y-44000768D01*
X166884700Y-43993388D01*
X167030828Y-43871854D01*
X167033026Y-43870026D01*
X167098708Y-43791052D01*
X167161937Y-43715028D01*
X167161939Y-43715025D01*
X167163768Y-43712826D01*
X167263673Y-43534433D01*
X167329396Y-43340821D01*
X167358735Y-43138473D01*
X167360266Y-43080000D01*
X167355103Y-43023806D01*
X167354087Y-43012754D01*
X170030967Y-43012754D01*
X170035494Y-43081827D01*
X170041350Y-43171166D01*
X170044796Y-43223749D01*
X170045502Y-43226529D01*
X170073809Y-43337985D01*
X170096845Y-43428690D01*
X170185369Y-43620714D01*
X170187020Y-43623049D01*
X170187021Y-43623052D01*
X170261670Y-43728677D01*
X170307405Y-43793391D01*
X170458865Y-43940937D01*
X170634677Y-44058411D01*
X170828953Y-44141878D01*
X170932069Y-44165211D01*
X171032396Y-44187913D01*
X171032399Y-44187913D01*
X171035186Y-44188544D01*
X171128911Y-44192227D01*
X171243610Y-44196734D01*
X171243614Y-44196734D01*
X171246470Y-44196846D01*
X171455730Y-44166504D01*
X171655955Y-44098537D01*
X171840442Y-43995219D01*
X171904432Y-43942000D01*
X172000814Y-43861840D01*
X172003012Y-43860012D01*
X172107569Y-43734295D01*
X172136388Y-43699644D01*
X172136390Y-43699641D01*
X172138219Y-43697442D01*
X172241537Y-43512955D01*
X172309504Y-43312730D01*
X172339846Y-43103470D01*
X172341429Y-43043000D01*
X172339666Y-43023806D01*
X172328150Y-42898487D01*
X172322081Y-42832440D01*
X172311088Y-42793459D01*
X172265466Y-42631696D01*
X172265465Y-42631694D01*
X172264686Y-42628931D01*
X172171165Y-42439290D01*
X172088016Y-42327940D01*
X172046368Y-42272166D01*
X172046366Y-42272164D01*
X172044651Y-42269867D01*
X171889381Y-42126337D01*
X171710554Y-42013505D01*
X171514160Y-41935152D01*
X171511354Y-41934594D01*
X171511351Y-41934593D01*
X171309581Y-41894459D01*
X171309579Y-41894459D01*
X171306775Y-41893901D01*
X171207145Y-41892597D01*
X171098208Y-41891170D01*
X171098203Y-41891170D01*
X171095346Y-41891133D01*
X171092525Y-41891618D01*
X171092521Y-41891618D01*
X171005070Y-41906645D01*
X170886953Y-41926941D01*
X170884265Y-41927933D01*
X170884260Y-41927934D01*
X170691263Y-41999135D01*
X170691260Y-41999136D01*
X170688575Y-42000127D01*
X170686115Y-42001590D01*
X170686114Y-42001591D01*
X170663520Y-42015033D01*
X170506856Y-42108238D01*
X170347881Y-42247655D01*
X170216976Y-42413708D01*
X170118523Y-42600836D01*
X170117676Y-42603563D01*
X170117675Y-42603566D01*
X170090123Y-42692299D01*
X170055820Y-42802773D01*
X170030967Y-43012754D01*
X167354087Y-43012754D01*
X167350396Y-42972583D01*
X167341557Y-42876394D01*
X167340778Y-42873631D01*
X167286836Y-42682365D01*
X167286834Y-42682361D01*
X167286058Y-42679608D01*
X167195626Y-42496230D01*
X167164830Y-42454989D01*
X167075007Y-42334702D01*
X167075006Y-42334700D01*
X167073290Y-42332403D01*
X166923148Y-42193613D01*
X166750228Y-42084509D01*
X166560321Y-42008743D01*
X166557515Y-42008185D01*
X166557512Y-42008184D01*
X166362592Y-41969413D01*
X166362591Y-41969413D01*
X166359786Y-41968855D01*
X166263365Y-41967592D01*
X166158202Y-41966215D01*
X166158197Y-41966215D01*
X166155340Y-41966178D01*
X166152520Y-41966663D01*
X166152515Y-41966663D01*
X166035263Y-41986811D01*
X165953830Y-42000804D01*
X165951142Y-42001796D01*
X165951137Y-42001797D01*
X165764693Y-42070580D01*
X165764690Y-42070582D01*
X165762005Y-42071572D01*
X165759545Y-42073035D01*
X165759544Y-42073036D01*
X165588753Y-42174646D01*
X165588749Y-42174649D01*
X165586288Y-42176113D01*
X165584131Y-42178005D01*
X165439316Y-42305004D01*
X165432564Y-42310925D01*
X165430787Y-42313178D01*
X165430787Y-42313179D01*
X165319966Y-42453755D01*
X165305982Y-42471493D01*
X165210781Y-42652441D01*
X165209934Y-42655168D01*
X165209933Y-42655171D01*
X165196191Y-42699429D01*
X165150149Y-42847707D01*
X165126117Y-43050753D01*
X125056021Y-43050753D01*
X122539362Y-41884872D01*
X146312267Y-41884872D01*
X146315109Y-41891522D01*
X146590013Y-42102464D01*
X146592780Y-42104358D01*
X146896061Y-42288756D01*
X146899042Y-42290353D01*
X147220445Y-42440909D01*
X147223586Y-42442179D01*
X147559369Y-42557143D01*
X147562627Y-42558065D01*
X147908873Y-42636095D01*
X147912198Y-42636657D01*
X148264840Y-42676836D01*
X148268222Y-42677037D01*
X148623148Y-42678895D01*
X148626505Y-42678731D01*
X148979555Y-42642247D01*
X148982912Y-42641715D01*
X149329933Y-42567320D01*
X149333206Y-42566432D01*
X149670177Y-42454989D01*
X149673325Y-42453755D01*
X149996295Y-42306569D01*
X149999288Y-42305004D01*
X150304483Y-42123793D01*
X150307279Y-42121921D01*
X150591112Y-41908813D01*
X150593696Y-41906645D01*
X150608763Y-41892546D01*
X150612442Y-41884435D01*
X150608667Y-41874878D01*
X148471790Y-39738000D01*
X148463000Y-39734359D01*
X148454210Y-39738000D01*
X146315752Y-41876459D01*
X146312267Y-41884872D01*
X122539362Y-41884872D01*
X121852367Y-41566611D01*
X121819962Y-41531424D01*
X121818269Y-41526077D01*
X121797610Y-41448974D01*
X121797608Y-41448970D01*
X121796903Y-41446337D01*
X121729361Y-41301493D01*
X121698189Y-41234645D01*
X121698187Y-41234642D01*
X121697035Y-41232171D01*
X121561495Y-41038599D01*
X121394401Y-40871505D01*
X121200830Y-40735965D01*
X120986663Y-40636097D01*
X120984030Y-40635392D01*
X120984026Y-40635390D01*
X120761044Y-40575643D01*
X120761041Y-40575642D01*
X120758408Y-40574937D01*
X120755692Y-40574699D01*
X120755690Y-40574699D01*
X120525720Y-40554579D01*
X120523000Y-40554341D01*
X120520280Y-40554579D01*
X120290310Y-40574699D01*
X120290308Y-40574699D01*
X120287592Y-40574937D01*
X120284959Y-40575642D01*
X120284956Y-40575643D01*
X120061974Y-40635390D01*
X120061970Y-40635392D01*
X120059337Y-40636097D01*
X120056866Y-40637249D01*
X120056864Y-40637250D01*
X119978234Y-40673916D01*
X119930444Y-40676003D01*
X119925548Y-40673982D01*
X117089486Y-39360133D01*
X145150247Y-39360133D01*
X145168204Y-39714602D01*
X145168557Y-39717959D01*
X145224692Y-40068421D01*
X145225404Y-40071714D01*
X145319061Y-40414067D01*
X145320130Y-40417280D01*
X145450211Y-40747511D01*
X145451612Y-40750571D01*
X145616605Y-41064836D01*
X145618325Y-41067722D01*
X145816288Y-41362322D01*
X145818322Y-41365021D01*
X145943088Y-41513186D01*
X145951535Y-41517564D01*
X145958404Y-41515385D01*
X148095000Y-39378790D01*
X148098641Y-39370000D01*
X148827359Y-39370000D01*
X148831000Y-39378790D01*
X150966031Y-41513820D01*
X150973542Y-41516931D01*
X150983725Y-41512258D01*
X151086633Y-41392616D01*
X151088707Y-41389923D01*
X151289731Y-41097430D01*
X151291496Y-41094540D01*
X151459766Y-40782029D01*
X151461199Y-40778984D01*
X151585546Y-40472754D01*
X170030967Y-40472754D01*
X170034515Y-40526891D01*
X170044152Y-40673916D01*
X170044796Y-40683749D01*
X170045502Y-40686529D01*
X170092972Y-40873439D01*
X170096845Y-40888690D01*
X170185369Y-41080714D01*
X170187020Y-41083049D01*
X170187021Y-41083052D01*
X170227922Y-41140925D01*
X170307405Y-41253391D01*
X170458865Y-41400937D01*
X170634677Y-41518411D01*
X170828953Y-41601878D01*
X170932070Y-41625211D01*
X171032396Y-41647913D01*
X171032399Y-41647913D01*
X171035186Y-41648544D01*
X171128911Y-41652227D01*
X171243610Y-41656734D01*
X171243614Y-41656734D01*
X171246470Y-41656846D01*
X171455730Y-41626504D01*
X171655955Y-41558537D01*
X171840442Y-41455219D01*
X172003012Y-41320012D01*
X172068857Y-41240841D01*
X172136388Y-41159644D01*
X172136390Y-41159641D01*
X172138219Y-41157442D01*
X172241537Y-40972955D01*
X172309504Y-40772730D01*
X172310690Y-40764548D01*
X177521941Y-40764548D01*
X177571480Y-40949434D01*
X177573340Y-40954544D01*
X177667760Y-41157027D01*
X177670475Y-41161730D01*
X177798620Y-41344740D01*
X177802121Y-41348912D01*
X177960088Y-41506879D01*
X177964260Y-41510380D01*
X178147270Y-41638525D01*
X178151973Y-41641240D01*
X178354456Y-41735660D01*
X178359566Y-41737520D01*
X178572720Y-41794634D01*
X178610671Y-41823754D01*
X178616914Y-41871180D01*
X178587794Y-41909131D01*
X178567128Y-41916601D01*
X178544628Y-41920467D01*
X178506953Y-41926941D01*
X178504265Y-41927933D01*
X178504260Y-41927934D01*
X178311263Y-41999135D01*
X178311260Y-41999136D01*
X178308575Y-42000127D01*
X178306115Y-42001590D01*
X178306114Y-42001591D01*
X178283520Y-42015033D01*
X178126856Y-42108238D01*
X177967881Y-42247655D01*
X177836976Y-42413708D01*
X177738523Y-42600836D01*
X177737676Y-42603563D01*
X177737675Y-42603566D01*
X177710123Y-42692299D01*
X177675820Y-42802773D01*
X177650967Y-43012754D01*
X177655494Y-43081827D01*
X177661350Y-43171166D01*
X177664796Y-43223749D01*
X177665502Y-43226529D01*
X177693809Y-43337985D01*
X177716845Y-43428690D01*
X177805369Y-43620714D01*
X177807020Y-43623049D01*
X177807021Y-43623052D01*
X177881670Y-43728677D01*
X177927405Y-43793391D01*
X178078865Y-43940937D01*
X178254677Y-44058411D01*
X178448953Y-44141878D01*
X178552069Y-44165211D01*
X178652396Y-44187913D01*
X178652399Y-44187913D01*
X178655186Y-44188544D01*
X178748911Y-44192227D01*
X178863610Y-44196734D01*
X178863614Y-44196734D01*
X178866470Y-44196846D01*
X179075730Y-44166504D01*
X179275955Y-44098537D01*
X179460442Y-43995219D01*
X179524432Y-43942000D01*
X179560799Y-43911754D01*
X183375967Y-43911754D01*
X183377984Y-43942528D01*
X183385702Y-44060279D01*
X183389796Y-44122749D01*
X183390502Y-44125529D01*
X183412395Y-44211730D01*
X183441845Y-44327690D01*
X183530369Y-44519714D01*
X183652405Y-44692391D01*
X183803865Y-44839937D01*
X183979677Y-44957411D01*
X184173953Y-45040878D01*
X184277069Y-45064211D01*
X184377396Y-45086913D01*
X184377399Y-45086913D01*
X184380186Y-45087544D01*
X184473911Y-45091227D01*
X184588610Y-45095734D01*
X184588614Y-45095734D01*
X184591470Y-45095846D01*
X184800730Y-45065504D01*
X185000955Y-44997537D01*
X185185442Y-44894219D01*
X185348012Y-44759012D01*
X185405365Y-44690052D01*
X185481388Y-44598644D01*
X185481390Y-44598641D01*
X185483219Y-44596442D01*
X185586537Y-44411955D01*
X185654504Y-44211730D01*
X185684846Y-44002470D01*
X185684939Y-43998937D01*
X185686223Y-43949870D01*
X185686429Y-43942000D01*
X185679984Y-43871854D01*
X185676979Y-43839158D01*
X185667081Y-43731440D01*
X185662453Y-43715028D01*
X185610466Y-43530696D01*
X185610465Y-43530694D01*
X185609686Y-43527931D01*
X185516165Y-43338290D01*
X185389651Y-43168867D01*
X185234381Y-43025337D01*
X185055554Y-42912505D01*
X184859160Y-42834152D01*
X184856354Y-42833594D01*
X184856351Y-42833593D01*
X184654581Y-42793459D01*
X184654579Y-42793459D01*
X184651775Y-42792901D01*
X184552145Y-42791597D01*
X184443208Y-42790170D01*
X184443203Y-42790170D01*
X184440346Y-42790133D01*
X184437525Y-42790618D01*
X184437521Y-42790618D01*
X184315580Y-42811571D01*
X184231953Y-42825941D01*
X184229265Y-42826933D01*
X184229260Y-42826934D01*
X184036263Y-42898135D01*
X184036260Y-42898136D01*
X184033575Y-42899127D01*
X184031115Y-42900590D01*
X184031114Y-42900591D01*
X184008520Y-42914033D01*
X183851856Y-43007238D01*
X183692881Y-43146655D01*
X183561976Y-43312708D01*
X183463523Y-43499836D01*
X183462676Y-43502563D01*
X183462675Y-43502566D01*
X183453623Y-43531719D01*
X183400820Y-43701773D01*
X183375967Y-43911754D01*
X179560799Y-43911754D01*
X179620814Y-43861840D01*
X179623012Y-43860012D01*
X179727569Y-43734295D01*
X179756388Y-43699644D01*
X179756390Y-43699641D01*
X179758219Y-43697442D01*
X179861537Y-43512955D01*
X179929504Y-43312730D01*
X179959846Y-43103470D01*
X179961429Y-43043000D01*
X179959666Y-43023806D01*
X179948150Y-42898487D01*
X179942081Y-42832440D01*
X179931088Y-42793459D01*
X179902558Y-42692299D01*
X187542060Y-42692299D01*
X187544164Y-42697378D01*
X187606070Y-42740725D01*
X187610773Y-42743440D01*
X187813256Y-42837860D01*
X187818366Y-42839720D01*
X188034165Y-42897543D01*
X188039519Y-42898487D01*
X188262080Y-42917958D01*
X188267520Y-42917958D01*
X188490081Y-42898487D01*
X188495435Y-42897543D01*
X188711234Y-42839720D01*
X188716344Y-42837860D01*
X188918827Y-42743440D01*
X188923530Y-42740725D01*
X188982506Y-42699429D01*
X188987618Y-42691405D01*
X188986429Y-42686039D01*
X188273590Y-41973200D01*
X188264800Y-41969559D01*
X188256010Y-41973200D01*
X187545701Y-42683509D01*
X187542060Y-42692299D01*
X179902558Y-42692299D01*
X179885466Y-42631696D01*
X179885465Y-42631694D01*
X179884686Y-42628931D01*
X179791165Y-42439290D01*
X179708016Y-42327940D01*
X179666368Y-42272166D01*
X179666366Y-42272164D01*
X179664651Y-42269867D01*
X179509381Y-42126337D01*
X179330554Y-42013505D01*
X179134160Y-41935152D01*
X179131354Y-41934594D01*
X179131351Y-41934593D01*
X179041616Y-41916744D01*
X179001842Y-41890168D01*
X178992510Y-41843252D01*
X179019086Y-41803478D01*
X179037633Y-41795075D01*
X179252434Y-41737520D01*
X179257544Y-41735660D01*
X179460027Y-41641240D01*
X179464730Y-41638525D01*
X179508438Y-41607920D01*
X186952042Y-41607920D01*
X186971513Y-41830481D01*
X186972457Y-41835835D01*
X187030280Y-42051634D01*
X187032140Y-42056744D01*
X187126560Y-42259227D01*
X187129275Y-42263930D01*
X187170571Y-42322906D01*
X187178595Y-42328018D01*
X187183961Y-42326829D01*
X187896800Y-41613990D01*
X187900441Y-41605200D01*
X188629159Y-41605200D01*
X188632800Y-41613990D01*
X189343109Y-42324299D01*
X189351899Y-42327940D01*
X189356978Y-42325836D01*
X189400325Y-42263930D01*
X189403040Y-42259227D01*
X189497460Y-42056744D01*
X189499320Y-42051634D01*
X189557143Y-41835835D01*
X189558087Y-41830481D01*
X189577558Y-41607920D01*
X189577558Y-41602480D01*
X189558087Y-41379919D01*
X189557143Y-41374565D01*
X189499320Y-41158766D01*
X189497460Y-41153656D01*
X189403040Y-40951173D01*
X189400325Y-40946470D01*
X189359029Y-40887494D01*
X189351005Y-40882382D01*
X189345639Y-40883571D01*
X188632800Y-41596410D01*
X188629159Y-41605200D01*
X187900441Y-41605200D01*
X187896800Y-41596410D01*
X187186491Y-40886101D01*
X187177701Y-40882460D01*
X187172622Y-40884564D01*
X187129275Y-40946470D01*
X187126560Y-40951173D01*
X187032140Y-41153656D01*
X187030280Y-41158766D01*
X186972457Y-41374565D01*
X186971513Y-41379919D01*
X186952042Y-41602480D01*
X186952042Y-41607920D01*
X179508438Y-41607920D01*
X179647740Y-41510380D01*
X179651912Y-41506879D01*
X179809879Y-41348912D01*
X179813380Y-41344740D01*
X179941525Y-41161730D01*
X179944240Y-41157027D01*
X180038660Y-40954544D01*
X180040520Y-40949434D01*
X180088865Y-40769008D01*
X180087623Y-40759575D01*
X180084267Y-40757000D01*
X177532349Y-40757000D01*
X177523559Y-40760641D01*
X177521941Y-40764548D01*
X172310690Y-40764548D01*
X172339846Y-40563470D01*
X172341010Y-40518995D01*
X187541982Y-40518995D01*
X187543171Y-40524361D01*
X188256010Y-41237200D01*
X188264800Y-41240841D01*
X188273590Y-41237200D01*
X188983899Y-40526891D01*
X188987540Y-40518101D01*
X188985436Y-40513022D01*
X188923530Y-40469675D01*
X188918827Y-40466960D01*
X188716344Y-40372540D01*
X188711234Y-40370680D01*
X188495435Y-40312857D01*
X188490081Y-40311913D01*
X188267520Y-40292442D01*
X188262080Y-40292442D01*
X188039519Y-40311913D01*
X188034165Y-40312857D01*
X187818366Y-40370680D01*
X187813256Y-40372540D01*
X187610773Y-40466960D01*
X187606070Y-40469675D01*
X187547094Y-40510971D01*
X187541982Y-40518995D01*
X172341010Y-40518995D01*
X172341429Y-40503000D01*
X172338118Y-40466960D01*
X172322343Y-40295295D01*
X172322081Y-40292440D01*
X172316279Y-40271865D01*
X172306444Y-40236992D01*
X177523135Y-40236992D01*
X177524377Y-40246425D01*
X177527733Y-40249000D01*
X178539569Y-40249000D01*
X178548359Y-40245359D01*
X178552000Y-40236569D01*
X179060000Y-40236569D01*
X179063641Y-40245359D01*
X179072431Y-40249000D01*
X180079651Y-40249000D01*
X180088441Y-40245359D01*
X180090059Y-40241452D01*
X180040520Y-40056566D01*
X180038660Y-40051456D01*
X179944240Y-39848973D01*
X179941525Y-39844270D01*
X179813380Y-39661260D01*
X179809879Y-39657088D01*
X179651912Y-39499121D01*
X179647740Y-39495620D01*
X179464730Y-39367475D01*
X179460027Y-39364760D01*
X179257544Y-39270340D01*
X179252434Y-39268480D01*
X179185511Y-39250548D01*
X180198941Y-39250548D01*
X180248480Y-39435434D01*
X180250340Y-39440544D01*
X180344760Y-39643027D01*
X180347475Y-39647730D01*
X180475620Y-39830740D01*
X180479121Y-39834912D01*
X180637088Y-39992879D01*
X180641260Y-39996380D01*
X180824270Y-40124525D01*
X180828973Y-40127240D01*
X181031456Y-40221660D01*
X181036566Y-40223520D01*
X181216992Y-40271865D01*
X181226425Y-40270623D01*
X181229000Y-40267267D01*
X181229000Y-40262651D01*
X181737000Y-40262651D01*
X181740641Y-40271441D01*
X181744548Y-40273059D01*
X181929434Y-40223520D01*
X181934544Y-40221660D01*
X182137027Y-40127240D01*
X182141730Y-40124525D01*
X182324740Y-39996380D01*
X182328912Y-39992879D01*
X182486879Y-39834912D01*
X182490380Y-39830740D01*
X182618525Y-39647730D01*
X182621240Y-39643027D01*
X182715660Y-39440544D01*
X182717520Y-39435434D01*
X182765865Y-39255008D01*
X182764623Y-39245575D01*
X182761267Y-39243000D01*
X181749431Y-39243000D01*
X181740641Y-39246641D01*
X181737000Y-39255431D01*
X181737000Y-40262651D01*
X181229000Y-40262651D01*
X181229000Y-39255431D01*
X181225359Y-39246641D01*
X181216569Y-39243000D01*
X180209349Y-39243000D01*
X180200559Y-39246641D01*
X180198941Y-39250548D01*
X179185511Y-39250548D01*
X179072008Y-39220135D01*
X179062575Y-39221377D01*
X179060000Y-39224733D01*
X179060000Y-40236569D01*
X178552000Y-40236569D01*
X178552000Y-39229349D01*
X178548359Y-39220559D01*
X178544452Y-39218941D01*
X178359566Y-39268480D01*
X178354456Y-39270340D01*
X178151973Y-39364760D01*
X178147270Y-39367475D01*
X177964260Y-39495620D01*
X177960088Y-39499121D01*
X177802121Y-39657088D01*
X177798620Y-39661260D01*
X177670475Y-39844270D01*
X177667760Y-39848973D01*
X177573340Y-40051456D01*
X177571480Y-40056566D01*
X177523135Y-40236992D01*
X172306444Y-40236992D01*
X172265466Y-40091696D01*
X172265465Y-40091694D01*
X172264686Y-40088931D01*
X172171165Y-39899290D01*
X172050724Y-39738000D01*
X172046368Y-39732166D01*
X172046366Y-39732164D01*
X172044651Y-39729867D01*
X171889381Y-39586337D01*
X171710554Y-39473505D01*
X171514160Y-39395152D01*
X171511354Y-39394594D01*
X171511351Y-39394593D01*
X171309581Y-39354459D01*
X171309579Y-39354459D01*
X171306775Y-39353901D01*
X171207145Y-39352597D01*
X171098208Y-39351170D01*
X171098203Y-39351170D01*
X171095346Y-39351133D01*
X171092525Y-39351618D01*
X171092521Y-39351618D01*
X170970580Y-39372571D01*
X170886953Y-39386941D01*
X170884265Y-39387933D01*
X170884260Y-39387934D01*
X170691263Y-39459135D01*
X170691260Y-39459136D01*
X170688575Y-39460127D01*
X170686115Y-39461590D01*
X170686114Y-39461591D01*
X170663520Y-39475033D01*
X170506856Y-39568238D01*
X170347881Y-39707655D01*
X170216976Y-39873708D01*
X170154277Y-39992879D01*
X170120770Y-40056566D01*
X170118523Y-40060836D01*
X170117676Y-40063563D01*
X170117675Y-40063566D01*
X170104626Y-40105592D01*
X170055820Y-40262773D01*
X170030967Y-40472754D01*
X151585546Y-40472754D01*
X151594733Y-40450130D01*
X151595834Y-40446933D01*
X151693067Y-40105592D01*
X151693819Y-40102282D01*
X151753617Y-39752448D01*
X151754008Y-39749072D01*
X151775722Y-39394036D01*
X151775781Y-39392233D01*
X151775856Y-39370885D01*
X151775811Y-39369117D01*
X151756573Y-39013889D01*
X151756209Y-39010547D01*
X151698851Y-38660277D01*
X151698129Y-38656993D01*
X151603273Y-38314955D01*
X151602200Y-38311768D01*
X151470964Y-37981984D01*
X151469547Y-37978919D01*
X151454634Y-37950753D01*
X165126117Y-37950753D01*
X165127915Y-37978179D01*
X165138723Y-38143088D01*
X165139489Y-38154779D01*
X165140195Y-38157559D01*
X165184059Y-38330270D01*
X165189819Y-38352951D01*
X165275419Y-38538633D01*
X165277069Y-38540968D01*
X165277071Y-38540971D01*
X165327853Y-38612826D01*
X165393424Y-38705606D01*
X165539882Y-38848279D01*
X165709887Y-38961872D01*
X165897746Y-39042583D01*
X165900532Y-39043214D01*
X165900537Y-39043215D01*
X166094378Y-39087077D01*
X166094381Y-39087077D01*
X166097168Y-39087708D01*
X166187429Y-39091254D01*
X166298613Y-39095623D01*
X166298617Y-39095623D01*
X166301473Y-39095735D01*
X166503821Y-39066396D01*
X166697433Y-39000673D01*
X166875826Y-38900768D01*
X166941340Y-38846281D01*
X167030828Y-38771854D01*
X167033026Y-38770026D01*
X167065185Y-38731359D01*
X167072144Y-38722992D01*
X180200135Y-38722992D01*
X180201377Y-38732425D01*
X180204733Y-38735000D01*
X181216569Y-38735000D01*
X181225359Y-38731359D01*
X181229000Y-38722569D01*
X181737000Y-38722569D01*
X181740641Y-38731359D01*
X181749431Y-38735000D01*
X182756651Y-38735000D01*
X182765441Y-38731359D01*
X182767059Y-38727452D01*
X182717520Y-38542566D01*
X182715660Y-38537456D01*
X182621240Y-38334973D01*
X182618525Y-38330270D01*
X182490380Y-38147260D01*
X182486879Y-38143088D01*
X182328912Y-37985121D01*
X182324740Y-37981620D01*
X182141730Y-37853475D01*
X182137027Y-37850760D01*
X181934544Y-37756340D01*
X181929434Y-37754480D01*
X181749008Y-37706135D01*
X181739575Y-37707377D01*
X181737000Y-37710733D01*
X181737000Y-38722569D01*
X181229000Y-38722569D01*
X181229000Y-37715349D01*
X181225359Y-37706559D01*
X181221452Y-37704941D01*
X181036566Y-37754480D01*
X181031456Y-37756340D01*
X180828973Y-37850760D01*
X180824270Y-37853475D01*
X180641260Y-37981620D01*
X180637088Y-37985121D01*
X180479121Y-38143088D01*
X180475620Y-38147260D01*
X180347475Y-38330270D01*
X180344760Y-38334973D01*
X180250340Y-38537456D01*
X180248480Y-38542566D01*
X180200135Y-38722992D01*
X167072144Y-38722992D01*
X167161937Y-38615028D01*
X167161939Y-38615025D01*
X167163768Y-38612826D01*
X167263673Y-38434433D01*
X167329396Y-38240821D01*
X167358735Y-38038473D01*
X167360266Y-37980000D01*
X167359485Y-37971495D01*
X167346199Y-37826915D01*
X167341557Y-37776394D01*
X167335377Y-37754480D01*
X167286836Y-37582365D01*
X167286834Y-37582361D01*
X167286058Y-37579608D01*
X167249631Y-37505741D01*
X167196894Y-37398801D01*
X167196893Y-37398800D01*
X167195626Y-37396230D01*
X167168010Y-37359248D01*
X167075007Y-37234702D01*
X167075006Y-37234700D01*
X167073290Y-37232403D01*
X166923148Y-37093613D01*
X166750228Y-36984509D01*
X166560321Y-36908743D01*
X166557515Y-36908185D01*
X166557512Y-36908184D01*
X166362592Y-36869413D01*
X166362591Y-36869413D01*
X166359786Y-36868855D01*
X166263365Y-36867592D01*
X166158202Y-36866215D01*
X166158197Y-36866215D01*
X166155340Y-36866178D01*
X166152520Y-36866663D01*
X166152515Y-36866663D01*
X166036905Y-36886529D01*
X165953830Y-36900804D01*
X165951142Y-36901796D01*
X165951137Y-36901797D01*
X165764693Y-36970580D01*
X165764690Y-36970582D01*
X165762005Y-36971572D01*
X165759545Y-36973035D01*
X165759544Y-36973036D01*
X165588753Y-37074646D01*
X165588749Y-37074649D01*
X165586288Y-37076113D01*
X165432564Y-37210925D01*
X165430787Y-37213178D01*
X165430787Y-37213179D01*
X165310498Y-37365765D01*
X165305982Y-37371493D01*
X165210781Y-37552441D01*
X165209934Y-37555168D01*
X165209933Y-37555171D01*
X165195228Y-37602528D01*
X165150149Y-37747707D01*
X165126117Y-37950753D01*
X151454634Y-37950753D01*
X151303468Y-37665250D01*
X151301725Y-37662349D01*
X151102736Y-37368444D01*
X151100703Y-37365765D01*
X150982888Y-37226844D01*
X150974426Y-37222495D01*
X150967489Y-37224722D01*
X148831000Y-39361210D01*
X148827359Y-39370000D01*
X148098641Y-39370000D01*
X148095000Y-39361210D01*
X145959970Y-37226181D01*
X145952519Y-37223095D01*
X145942274Y-37227818D01*
X145832313Y-37356564D01*
X145830262Y-37359248D01*
X145630256Y-37652447D01*
X145628500Y-37655346D01*
X145461329Y-37968429D01*
X145459899Y-37971495D01*
X145327515Y-38300810D01*
X145326426Y-38304010D01*
X145230380Y-38645702D01*
X145229648Y-38648980D01*
X145171066Y-38999049D01*
X145170689Y-39002413D01*
X145150259Y-39356735D01*
X145150247Y-39360133D01*
X117089486Y-39360133D01*
X114844228Y-38319983D01*
X114811823Y-38284796D01*
X114808000Y-38263273D01*
X114808000Y-36855233D01*
X146313159Y-36855233D01*
X146316922Y-36864711D01*
X148454210Y-39002000D01*
X148463000Y-39005641D01*
X148471790Y-39002000D01*
X150609820Y-36863969D01*
X150613277Y-36855622D01*
X150609422Y-36846649D01*
X150608778Y-36846101D01*
X150381227Y-36672754D01*
X170294967Y-36672754D01*
X170297069Y-36704827D01*
X170307647Y-36866215D01*
X170308796Y-36883749D01*
X170309502Y-36886529D01*
X170331395Y-36972730D01*
X170360845Y-37088690D01*
X170449369Y-37280714D01*
X170451020Y-37283049D01*
X170451021Y-37283052D01*
X170529381Y-37393929D01*
X170571405Y-37453391D01*
X170722865Y-37600937D01*
X170898677Y-37718411D01*
X171092953Y-37801878D01*
X171196070Y-37825211D01*
X171296396Y-37847913D01*
X171296399Y-37847913D01*
X171299186Y-37848544D01*
X171392911Y-37852227D01*
X171507610Y-37856734D01*
X171507614Y-37856734D01*
X171510470Y-37856846D01*
X171719730Y-37826504D01*
X171919955Y-37758537D01*
X172104442Y-37655219D01*
X172267012Y-37520012D01*
X172324365Y-37451052D01*
X172400388Y-37359644D01*
X172400390Y-37359641D01*
X172402219Y-37357442D01*
X172505537Y-37172955D01*
X172573504Y-36972730D01*
X172603846Y-36763470D01*
X172605429Y-36703000D01*
X172602650Y-36672754D01*
X173596967Y-36672754D01*
X173599069Y-36704827D01*
X173609647Y-36866215D01*
X173610796Y-36883749D01*
X173611502Y-36886529D01*
X173633395Y-36972730D01*
X173662845Y-37088690D01*
X173751369Y-37280714D01*
X173753020Y-37283049D01*
X173753021Y-37283052D01*
X173831381Y-37393929D01*
X173873405Y-37453391D01*
X174024865Y-37600937D01*
X174200677Y-37718411D01*
X174394953Y-37801878D01*
X174498070Y-37825211D01*
X174598396Y-37847913D01*
X174598399Y-37847913D01*
X174601186Y-37848544D01*
X174694911Y-37852227D01*
X174809610Y-37856734D01*
X174809614Y-37856734D01*
X174812470Y-37856846D01*
X175021730Y-37826504D01*
X175221955Y-37758537D01*
X175406442Y-37655219D01*
X175569012Y-37520012D01*
X175626365Y-37451052D01*
X175702388Y-37359644D01*
X175702390Y-37359641D01*
X175704219Y-37357442D01*
X175807537Y-37172955D01*
X175875504Y-36972730D01*
X175905846Y-36763470D01*
X175907429Y-36703000D01*
X175900220Y-36624540D01*
X175888343Y-36495295D01*
X175888081Y-36492440D01*
X175874925Y-36445790D01*
X175831466Y-36291696D01*
X175831465Y-36291694D01*
X175830686Y-36288931D01*
X175737165Y-36099290D01*
X175610651Y-35929867D01*
X175455381Y-35786337D01*
X175276554Y-35673505D01*
X175080160Y-35595152D01*
X175077354Y-35594594D01*
X175077351Y-35594593D01*
X174875581Y-35554459D01*
X174875579Y-35554459D01*
X174872775Y-35553901D01*
X174773145Y-35552597D01*
X174664208Y-35551170D01*
X174664203Y-35551170D01*
X174661346Y-35551133D01*
X174658525Y-35551618D01*
X174658521Y-35551618D01*
X174536580Y-35572571D01*
X174452953Y-35586941D01*
X174450265Y-35587933D01*
X174450260Y-35587934D01*
X174257263Y-35659135D01*
X174257260Y-35659136D01*
X174254575Y-35660127D01*
X174252115Y-35661590D01*
X174252114Y-35661591D01*
X174229520Y-35675033D01*
X174072856Y-35768238D01*
X173913881Y-35907655D01*
X173782976Y-36073708D01*
X173684523Y-36260836D01*
X173683676Y-36263563D01*
X173683675Y-36263566D01*
X173627585Y-36444208D01*
X173621820Y-36462773D01*
X173621484Y-36465613D01*
X173602131Y-36629128D01*
X173596967Y-36672754D01*
X172602650Y-36672754D01*
X172598220Y-36624540D01*
X172586343Y-36495295D01*
X172586081Y-36492440D01*
X172572925Y-36445790D01*
X172529466Y-36291696D01*
X172529465Y-36291694D01*
X172528686Y-36288931D01*
X172435165Y-36099290D01*
X172308651Y-35929867D01*
X172153381Y-35786337D01*
X171974554Y-35673505D01*
X171778160Y-35595152D01*
X171775354Y-35594594D01*
X171775351Y-35594593D01*
X171573581Y-35554459D01*
X171573579Y-35554459D01*
X171570775Y-35553901D01*
X171471145Y-35552597D01*
X171362208Y-35551170D01*
X171362203Y-35551170D01*
X171359346Y-35551133D01*
X171356525Y-35551618D01*
X171356521Y-35551618D01*
X171234580Y-35572571D01*
X171150953Y-35586941D01*
X171148265Y-35587933D01*
X171148260Y-35587934D01*
X170955263Y-35659135D01*
X170955260Y-35659136D01*
X170952575Y-35660127D01*
X170950115Y-35661590D01*
X170950114Y-35661591D01*
X170927520Y-35675033D01*
X170770856Y-35768238D01*
X170611881Y-35907655D01*
X170480976Y-36073708D01*
X170382523Y-36260836D01*
X170381676Y-36263563D01*
X170381675Y-36263566D01*
X170325585Y-36444208D01*
X170319820Y-36462773D01*
X170319484Y-36465613D01*
X170300131Y-36629128D01*
X170294967Y-36672754D01*
X150381227Y-36672754D01*
X150326447Y-36631023D01*
X150323659Y-36629128D01*
X150019736Y-36445790D01*
X150016762Y-36444208D01*
X149694824Y-36294770D01*
X149691689Y-36293515D01*
X149355481Y-36179716D01*
X149352257Y-36178815D01*
X149005722Y-36101991D01*
X149002400Y-36101441D01*
X148649609Y-36062492D01*
X148646236Y-36062304D01*
X148291304Y-36061684D01*
X148287940Y-36061860D01*
X147935012Y-36099578D01*
X147931686Y-36100117D01*
X147584911Y-36175726D01*
X147581641Y-36176626D01*
X147245056Y-36289246D01*
X147241925Y-36290486D01*
X146919463Y-36438801D01*
X146916471Y-36440379D01*
X146611936Y-36622640D01*
X146609117Y-36624540D01*
X146326035Y-36838633D01*
X146323458Y-36840812D01*
X146316836Y-36847052D01*
X146313159Y-36855233D01*
X114808000Y-36855233D01*
X114808000Y-32583218D01*
X154297500Y-32583218D01*
X154297831Y-32585464D01*
X154297831Y-32585468D01*
X154299369Y-32595912D01*
X154307642Y-32652112D01*
X154359068Y-32756855D01*
X154362720Y-32760501D01*
X154362721Y-32760502D01*
X154437995Y-32835645D01*
X154437997Y-32835647D01*
X154441650Y-32839293D01*
X154446290Y-32841561D01*
X154541785Y-32888240D01*
X154546482Y-32890536D01*
X154551285Y-32891237D01*
X154551286Y-32891237D01*
X154571248Y-32894149D01*
X154614782Y-32900500D01*
X156281218Y-32900500D01*
X156283465Y-32900169D01*
X156283468Y-32900169D01*
X156307662Y-32896607D01*
X156350112Y-32890358D01*
X156454855Y-32838932D01*
X156459960Y-32833818D01*
X156533645Y-32760005D01*
X156533647Y-32760003D01*
X156537293Y-32756350D01*
X156565651Y-32698335D01*
X156586405Y-32655878D01*
X156586405Y-32655877D01*
X156588536Y-32651518D01*
X156598500Y-32583218D01*
X156598500Y-32011548D01*
X161783941Y-32011548D01*
X161833480Y-32196434D01*
X161835340Y-32201544D01*
X161929760Y-32404027D01*
X161932475Y-32408730D01*
X162060620Y-32591740D01*
X162064121Y-32595912D01*
X162222088Y-32753879D01*
X162226260Y-32757380D01*
X162409270Y-32885525D01*
X162413973Y-32888240D01*
X162616456Y-32982660D01*
X162621566Y-32984520D01*
X162801992Y-33032865D01*
X162811425Y-33031623D01*
X162814000Y-33028267D01*
X162814000Y-33023651D01*
X163322000Y-33023651D01*
X163325641Y-33032441D01*
X163329548Y-33034059D01*
X163514434Y-32984520D01*
X163519544Y-32982660D01*
X163722027Y-32888240D01*
X163726730Y-32885525D01*
X163909740Y-32757380D01*
X163913912Y-32753879D01*
X164071879Y-32595912D01*
X164075380Y-32591740D01*
X164203525Y-32408730D01*
X164206240Y-32404027D01*
X164300660Y-32201544D01*
X164302520Y-32196434D01*
X164350865Y-32016008D01*
X164349623Y-32006575D01*
X164346267Y-32004000D01*
X163334431Y-32004000D01*
X163325641Y-32007641D01*
X163322000Y-32016431D01*
X163322000Y-33023651D01*
X162814000Y-33023651D01*
X162814000Y-32016431D01*
X162810359Y-32007641D01*
X162801569Y-32004000D01*
X161794349Y-32004000D01*
X161785559Y-32007641D01*
X161783941Y-32011548D01*
X156598500Y-32011548D01*
X156598500Y-31483992D01*
X161785135Y-31483992D01*
X161786377Y-31493425D01*
X161789733Y-31496000D01*
X162801569Y-31496000D01*
X162810359Y-31492359D01*
X162814000Y-31483569D01*
X163322000Y-31483569D01*
X163325641Y-31492359D01*
X163334431Y-31496000D01*
X164341651Y-31496000D01*
X164350441Y-31492359D01*
X164352059Y-31488452D01*
X164328198Y-31399400D01*
X184012323Y-31399400D01*
X184031393Y-31617377D01*
X184088025Y-31828730D01*
X184089177Y-31831201D01*
X184089178Y-31831203D01*
X184175355Y-32016008D01*
X184180498Y-32027038D01*
X184306002Y-32206277D01*
X184460723Y-32360998D01*
X184639961Y-32486502D01*
X184818500Y-32569756D01*
X184850817Y-32605024D01*
X184848730Y-32652814D01*
X184813462Y-32685131D01*
X184792086Y-32688900D01*
X184334382Y-32688900D01*
X184332135Y-32689231D01*
X184332132Y-32689231D01*
X184307938Y-32692793D01*
X184265488Y-32699042D01*
X184160745Y-32750468D01*
X184157099Y-32754120D01*
X184157098Y-32754121D01*
X184081955Y-32829395D01*
X184081953Y-32829397D01*
X184078307Y-32833050D01*
X184076039Y-32837690D01*
X184029486Y-32932928D01*
X184027064Y-32937882D01*
X184026363Y-32942685D01*
X184026363Y-32942686D01*
X184024464Y-32955705D01*
X184017100Y-33006182D01*
X184017100Y-34872618D01*
X184017431Y-34874864D01*
X184017431Y-34874868D01*
X184018883Y-34884728D01*
X184027242Y-34941512D01*
X184078668Y-35046255D01*
X184082320Y-35049901D01*
X184082321Y-35049902D01*
X184157595Y-35125045D01*
X184157597Y-35125047D01*
X184161250Y-35128693D01*
X184165890Y-35130961D01*
X184261338Y-35177617D01*
X184266082Y-35179936D01*
X184270885Y-35180637D01*
X184270886Y-35180637D01*
X184290848Y-35183549D01*
X184334382Y-35189900D01*
X186200818Y-35189900D01*
X186203065Y-35189569D01*
X186203068Y-35189569D01*
X186227262Y-35186007D01*
X186269712Y-35179758D01*
X186374455Y-35128332D01*
X186378102Y-35124679D01*
X186453245Y-35049405D01*
X186453247Y-35049403D01*
X186456893Y-35045750D01*
X186479736Y-34999018D01*
X186506005Y-34945278D01*
X186506005Y-34945277D01*
X186508136Y-34940918D01*
X186518100Y-34872618D01*
X186518100Y-33954954D01*
X187109767Y-33954954D01*
X187123596Y-34165949D01*
X187124302Y-34168729D01*
X187146195Y-34254930D01*
X187175645Y-34370890D01*
X187264169Y-34562914D01*
X187386205Y-34735591D01*
X187537665Y-34883137D01*
X187713477Y-35000611D01*
X187907753Y-35084078D01*
X188010869Y-35107411D01*
X188111196Y-35130113D01*
X188111199Y-35130113D01*
X188113986Y-35130744D01*
X188207711Y-35134427D01*
X188322410Y-35138934D01*
X188322414Y-35138934D01*
X188325270Y-35139046D01*
X188534530Y-35108704D01*
X188709220Y-35049405D01*
X188732042Y-35041658D01*
X188732043Y-35041658D01*
X188734755Y-35040737D01*
X188919242Y-34937419D01*
X188997158Y-34872618D01*
X189079614Y-34804040D01*
X189081812Y-34802212D01*
X189217019Y-34639642D01*
X189320337Y-34455155D01*
X189388304Y-34254930D01*
X189418646Y-34045670D01*
X189420229Y-33985200D01*
X189400881Y-33774640D01*
X189343486Y-33571131D01*
X189249965Y-33381490D01*
X189123451Y-33212067D01*
X188968181Y-33068537D01*
X188789354Y-32955705D01*
X188592960Y-32877352D01*
X188590154Y-32876794D01*
X188590151Y-32876793D01*
X188388381Y-32836659D01*
X188388379Y-32836659D01*
X188385575Y-32836101D01*
X188285945Y-32834797D01*
X188177008Y-32833370D01*
X188177003Y-32833370D01*
X188174146Y-32833333D01*
X188171325Y-32833818D01*
X188171321Y-32833818D01*
X188049380Y-32854771D01*
X187965753Y-32869141D01*
X187963065Y-32870133D01*
X187963060Y-32870134D01*
X187770063Y-32941335D01*
X187770060Y-32941336D01*
X187767375Y-32942327D01*
X187764915Y-32943790D01*
X187764914Y-32943791D01*
X187742320Y-32957233D01*
X187585656Y-33050438D01*
X187426681Y-33189855D01*
X187295776Y-33355908D01*
X187197323Y-33543036D01*
X187196476Y-33545763D01*
X187196475Y-33545766D01*
X187136118Y-33740147D01*
X187134620Y-33744973D01*
X187109767Y-33954954D01*
X186518100Y-33954954D01*
X186518100Y-33006182D01*
X186507958Y-32937288D01*
X186456532Y-32832545D01*
X186452879Y-32828898D01*
X186377605Y-32753755D01*
X186377603Y-32753753D01*
X186373950Y-32750107D01*
X186342925Y-32734942D01*
X186273478Y-32700995D01*
X186273477Y-32700995D01*
X186269118Y-32698864D01*
X186264315Y-32698163D01*
X186264314Y-32698163D01*
X186244352Y-32695251D01*
X186200818Y-32688900D01*
X185743114Y-32688900D01*
X185698920Y-32670594D01*
X185680614Y-32626400D01*
X185698920Y-32582206D01*
X185716700Y-32569756D01*
X185895239Y-32486502D01*
X186074477Y-32360998D01*
X186229198Y-32206277D01*
X186354702Y-32027038D01*
X186359846Y-32016008D01*
X186446022Y-31831203D01*
X186446023Y-31831201D01*
X186447175Y-31828730D01*
X186503807Y-31617377D01*
X186522877Y-31399400D01*
X186513087Y-31287500D01*
X186504045Y-31184141D01*
X186504045Y-31184139D01*
X186503807Y-31181423D01*
X186487349Y-31120000D01*
X186447882Y-30972707D01*
X186447880Y-30972703D01*
X186447175Y-30970070D01*
X186440355Y-30955445D01*
X186355856Y-30774236D01*
X186355854Y-30774233D01*
X186354702Y-30771762D01*
X186229198Y-30592523D01*
X186074477Y-30437802D01*
X185895239Y-30312298D01*
X185696930Y-30219825D01*
X185694297Y-30219120D01*
X185694293Y-30219118D01*
X185488213Y-30163899D01*
X185488210Y-30163898D01*
X185485577Y-30163193D01*
X185482861Y-30162955D01*
X185482859Y-30162955D01*
X185270320Y-30144361D01*
X185267600Y-30144123D01*
X185264880Y-30144361D01*
X185052341Y-30162955D01*
X185052339Y-30162955D01*
X185049623Y-30163193D01*
X185046990Y-30163898D01*
X185046987Y-30163899D01*
X184840907Y-30219118D01*
X184840903Y-30219120D01*
X184838270Y-30219825D01*
X184835799Y-30220977D01*
X184835797Y-30220978D01*
X184642436Y-30311144D01*
X184642433Y-30311146D01*
X184639962Y-30312298D01*
X184460723Y-30437802D01*
X184306002Y-30592523D01*
X184180498Y-30771762D01*
X184179346Y-30774233D01*
X184179344Y-30774236D01*
X184094845Y-30955445D01*
X184088025Y-30970070D01*
X184087320Y-30972703D01*
X184087318Y-30972707D01*
X184047851Y-31120000D01*
X184031393Y-31181423D01*
X184031155Y-31184139D01*
X184031155Y-31184141D01*
X184022113Y-31287500D01*
X184012323Y-31399400D01*
X164328198Y-31399400D01*
X164302520Y-31303566D01*
X164300660Y-31298456D01*
X164206240Y-31095973D01*
X164203525Y-31091270D01*
X164075380Y-30908260D01*
X164071879Y-30904088D01*
X163913912Y-30746121D01*
X163909740Y-30742620D01*
X163726730Y-30614475D01*
X163722027Y-30611760D01*
X163519544Y-30517340D01*
X163514434Y-30515480D01*
X163334008Y-30467135D01*
X163324575Y-30468377D01*
X163322000Y-30471733D01*
X163322000Y-31483569D01*
X162814000Y-31483569D01*
X162814000Y-30476349D01*
X162810359Y-30467559D01*
X162806452Y-30465941D01*
X162621566Y-30515480D01*
X162616456Y-30517340D01*
X162413973Y-30611760D01*
X162409270Y-30614475D01*
X162226260Y-30742620D01*
X162222088Y-30746121D01*
X162064121Y-30904088D01*
X162060620Y-30908260D01*
X161932475Y-31091270D01*
X161929760Y-31095973D01*
X161835340Y-31298456D01*
X161833480Y-31303566D01*
X161785135Y-31483992D01*
X156598500Y-31483992D01*
X156598500Y-30916782D01*
X156597246Y-30908260D01*
X156594607Y-30890338D01*
X156588358Y-30847888D01*
X156536932Y-30743145D01*
X156533279Y-30739498D01*
X156458005Y-30664355D01*
X156458003Y-30664353D01*
X156454350Y-30660707D01*
X156423325Y-30645542D01*
X156353878Y-30611595D01*
X156353877Y-30611595D01*
X156349518Y-30609464D01*
X156344715Y-30608763D01*
X156344714Y-30608763D01*
X156324752Y-30605851D01*
X156281218Y-30599500D01*
X154614782Y-30599500D01*
X154612535Y-30599831D01*
X154612532Y-30599831D01*
X154588338Y-30603393D01*
X154545888Y-30609642D01*
X154441145Y-30661068D01*
X154437499Y-30664720D01*
X154437498Y-30664721D01*
X154362355Y-30739995D01*
X154362353Y-30739997D01*
X154358707Y-30743650D01*
X154356439Y-30748290D01*
X154309886Y-30843528D01*
X154307464Y-30848482D01*
X154297500Y-30916782D01*
X154297500Y-32583218D01*
X114808000Y-32583218D01*
X114808000Y-29306285D01*
X165049759Y-29306285D01*
X165064938Y-29582087D01*
X165118825Y-29852999D01*
X165210347Y-30113616D01*
X165284319Y-30256017D01*
X165314367Y-30313861D01*
X165337678Y-30358737D01*
X165498275Y-30583471D01*
X165688936Y-30783335D01*
X165905856Y-30954341D01*
X166144707Y-31093077D01*
X166146754Y-31093906D01*
X166369534Y-31184141D01*
X166400723Y-31196774D01*
X166668796Y-31263364D01*
X166764105Y-31273129D01*
X166902785Y-31287338D01*
X166902793Y-31287338D01*
X166904370Y-31287500D01*
X167075362Y-31287500D01*
X167101985Y-31285615D01*
X167278331Y-31273129D01*
X167278335Y-31273128D01*
X167280530Y-31272973D01*
X167282684Y-31272509D01*
X167282686Y-31272509D01*
X167346799Y-31258706D01*
X167550562Y-31214837D01*
X167809709Y-31119233D01*
X168052800Y-30988068D01*
X168054576Y-30986756D01*
X168054581Y-30986753D01*
X168166500Y-30904088D01*
X168274984Y-30823960D01*
X168314860Y-30784706D01*
X168440455Y-30661068D01*
X168471829Y-30630183D01*
X168595315Y-30468377D01*
X168638071Y-30412354D01*
X168638074Y-30412349D01*
X168639406Y-30410604D01*
X168695107Y-30311144D01*
X168773296Y-30171527D01*
X168774373Y-30169604D01*
X168874036Y-29911991D01*
X168936407Y-29642905D01*
X168941675Y-29582087D01*
X168960051Y-29369910D01*
X168960051Y-29369908D01*
X168960241Y-29367715D01*
X168945062Y-29091913D01*
X168891175Y-28821001D01*
X168799653Y-28560384D01*
X168672322Y-28315263D01*
X168511725Y-28090529D01*
X168321064Y-27890665D01*
X168104144Y-27719659D01*
X167865293Y-27580923D01*
X167609277Y-27477226D01*
X167341204Y-27410636D01*
X167243285Y-27400604D01*
X167107215Y-27386662D01*
X167107207Y-27386662D01*
X167105630Y-27386500D01*
X166934638Y-27386500D01*
X166908015Y-27388385D01*
X166731669Y-27400871D01*
X166731665Y-27400872D01*
X166729470Y-27401027D01*
X166727316Y-27401491D01*
X166727314Y-27401491D01*
X166685878Y-27410412D01*
X166459438Y-27459163D01*
X166200291Y-27554767D01*
X165957200Y-27685932D01*
X165955424Y-27687244D01*
X165955419Y-27687247D01*
X165913032Y-27718555D01*
X165735016Y-27850040D01*
X165733443Y-27851588D01*
X165733440Y-27851591D01*
X165693748Y-27890665D01*
X165538171Y-28043817D01*
X165502522Y-28090529D01*
X165371929Y-28261646D01*
X165371926Y-28261651D01*
X165370594Y-28263396D01*
X165235627Y-28504396D01*
X165135964Y-28762009D01*
X165073593Y-29031095D01*
X165073402Y-29033297D01*
X165073402Y-29033299D01*
X165068134Y-29094121D01*
X165049759Y-29306285D01*
X114808000Y-29306285D01*
X114808000Y-26512754D01*
X170294967Y-26512754D01*
X170308796Y-26723749D01*
X170309502Y-26726529D01*
X170355428Y-26907359D01*
X170360845Y-26928690D01*
X170449369Y-27120714D01*
X170571405Y-27293391D01*
X170722865Y-27440937D01*
X170898677Y-27558411D01*
X171092953Y-27641878D01*
X171196069Y-27665211D01*
X171296396Y-27687913D01*
X171296399Y-27687913D01*
X171299186Y-27688544D01*
X171392911Y-27692227D01*
X171507610Y-27696734D01*
X171507614Y-27696734D01*
X171510470Y-27696846D01*
X171719730Y-27666504D01*
X171826976Y-27630099D01*
X174029260Y-27630099D01*
X174031364Y-27635178D01*
X174093270Y-27678525D01*
X174097973Y-27681240D01*
X174300456Y-27775660D01*
X174305566Y-27777520D01*
X174521365Y-27835343D01*
X174526719Y-27836287D01*
X174749280Y-27855758D01*
X174754720Y-27855758D01*
X174977281Y-27836287D01*
X174982635Y-27835343D01*
X175198434Y-27777520D01*
X175203544Y-27775660D01*
X175406027Y-27681240D01*
X175410730Y-27678525D01*
X175469706Y-27637229D01*
X175474818Y-27629205D01*
X175473629Y-27623839D01*
X174760790Y-26911000D01*
X174752000Y-26907359D01*
X174743210Y-26911000D01*
X174032901Y-27621309D01*
X174029260Y-27630099D01*
X171826976Y-27630099D01*
X171919955Y-27598537D01*
X172104442Y-27495219D01*
X172126077Y-27477226D01*
X172264814Y-27361840D01*
X172267012Y-27360012D01*
X172346341Y-27264629D01*
X172400388Y-27199644D01*
X172400390Y-27199641D01*
X172402219Y-27197442D01*
X172505537Y-27012955D01*
X172573504Y-26812730D01*
X172603846Y-26603470D01*
X172605358Y-26545720D01*
X173439242Y-26545720D01*
X173458713Y-26768281D01*
X173459657Y-26773635D01*
X173517480Y-26989434D01*
X173519340Y-26994544D01*
X173613760Y-27197027D01*
X173616475Y-27201730D01*
X173657771Y-27260706D01*
X173665795Y-27265818D01*
X173671161Y-27264629D01*
X174384000Y-26551790D01*
X174387641Y-26543000D01*
X175116359Y-26543000D01*
X175120000Y-26551790D01*
X175830309Y-27262099D01*
X175839099Y-27265740D01*
X175844178Y-27263636D01*
X175887525Y-27201730D01*
X175890240Y-27197027D01*
X175984660Y-26994544D01*
X175986520Y-26989434D01*
X176044343Y-26773635D01*
X176045287Y-26768281D01*
X176064758Y-26545720D01*
X176064758Y-26540280D01*
X176045287Y-26317719D01*
X176044343Y-26312365D01*
X175986520Y-26096566D01*
X175984660Y-26091456D01*
X175890240Y-25888973D01*
X175887525Y-25884270D01*
X175846229Y-25825294D01*
X175838205Y-25820182D01*
X175832839Y-25821371D01*
X175120000Y-26534210D01*
X175116359Y-26543000D01*
X174387641Y-26543000D01*
X174384000Y-26534210D01*
X173673691Y-25823901D01*
X173664901Y-25820260D01*
X173659822Y-25822364D01*
X173616475Y-25884270D01*
X173613760Y-25888973D01*
X173519340Y-26091456D01*
X173517480Y-26096566D01*
X173459657Y-26312365D01*
X173458713Y-26317719D01*
X173439242Y-26540280D01*
X173439242Y-26545720D01*
X172605358Y-26545720D01*
X172605429Y-26543000D01*
X172604622Y-26534210D01*
X172586343Y-26335295D01*
X172586081Y-26332440D01*
X172581930Y-26317719D01*
X172529466Y-26131696D01*
X172529465Y-26131694D01*
X172528686Y-26128931D01*
X172435165Y-25939290D01*
X172308651Y-25769867D01*
X172153381Y-25626337D01*
X171974554Y-25513505D01*
X171832409Y-25456795D01*
X174029182Y-25456795D01*
X174030371Y-25462161D01*
X174743210Y-26175000D01*
X174752000Y-26178641D01*
X174760790Y-26175000D01*
X175471099Y-25464691D01*
X175474740Y-25455901D01*
X175472636Y-25450822D01*
X175410730Y-25407475D01*
X175406027Y-25404760D01*
X175203544Y-25310340D01*
X175198434Y-25308480D01*
X174982635Y-25250657D01*
X174977281Y-25249713D01*
X174754720Y-25230242D01*
X174749280Y-25230242D01*
X174526719Y-25249713D01*
X174521365Y-25250657D01*
X174305566Y-25308480D01*
X174300456Y-25310340D01*
X174097973Y-25404760D01*
X174093270Y-25407475D01*
X174034294Y-25448771D01*
X174029182Y-25456795D01*
X171832409Y-25456795D01*
X171778160Y-25435152D01*
X171775354Y-25434594D01*
X171775351Y-25434593D01*
X171573581Y-25394459D01*
X171573579Y-25394459D01*
X171570775Y-25393901D01*
X171471145Y-25392597D01*
X171362208Y-25391170D01*
X171362203Y-25391170D01*
X171359346Y-25391133D01*
X171356525Y-25391618D01*
X171356521Y-25391618D01*
X171234580Y-25412571D01*
X171150953Y-25426941D01*
X171148265Y-25427933D01*
X171148260Y-25427934D01*
X170955263Y-25499135D01*
X170955260Y-25499136D01*
X170952575Y-25500127D01*
X170950115Y-25501590D01*
X170950114Y-25501591D01*
X170927520Y-25515033D01*
X170770856Y-25608238D01*
X170611881Y-25747655D01*
X170480976Y-25913708D01*
X170410709Y-26047263D01*
X170384770Y-26096566D01*
X170382523Y-26100836D01*
X170381676Y-26103563D01*
X170381675Y-26103566D01*
X170358364Y-26178641D01*
X170319820Y-26302773D01*
X170294967Y-26512754D01*
X114808000Y-26512754D01*
X114808000Y-23781000D01*
X114826306Y-23736806D01*
X114870500Y-23718500D01*
X189088474Y-23718500D01*
X189098248Y-23719269D01*
G37*
%TD.AperFunction*%
%TD*%
M02*
