%TF.GenerationSoftware,KiCad,Pcbnew,(6.0.5-0)*%
%TF.CreationDate,2022-06-25T14:04:27+01:00*%
%TF.ProjectId,revised_minh_design,72657669-7365-4645-9f6d-696e685f6465,rev?*%
%TF.SameCoordinates,Original*%
%TF.FileFunction,Copper,L2,Bot*%
%TF.FilePolarity,Positive*%
%FSLAX46Y46*%
G04 Gerber Fmt 4.6, Leading zero omitted, Abs format (unit mm)*
G04 Created by KiCad (PCBNEW (6.0.5-0)) date 2022-06-25 14:04:27*
%MOMM*%
%LPD*%
G01*
G04 APERTURE LIST*
G04 Aperture macros list*
%AMRoundRect*
0 Rectangle with rounded corners*
0 $1 Rounding radius*
0 $2 $3 $4 $5 $6 $7 $8 $9 X,Y pos of 4 corners*
0 Add a 4 corners polygon primitive as box body*
4,1,4,$2,$3,$4,$5,$6,$7,$8,$9,$2,$3,0*
0 Add four circle primitives for the rounded corners*
1,1,$1+$1,$2,$3*
1,1,$1+$1,$4,$5*
1,1,$1+$1,$6,$7*
1,1,$1+$1,$8,$9*
0 Add four rect primitives between the rounded corners*
20,1,$1+$1,$2,$3,$4,$5,0*
20,1,$1+$1,$4,$5,$6,$7,0*
20,1,$1+$1,$6,$7,$8,$9,0*
20,1,$1+$1,$8,$9,$2,$3,0*%
G04 Aperture macros list end*
%TA.AperFunction,ComponentPad*%
%ADD10C,1.600000*%
%TD*%
%TA.AperFunction,ComponentPad*%
%ADD11O,1.600000X1.600000*%
%TD*%
%TA.AperFunction,ComponentPad*%
%ADD12R,1.600000X1.600000*%
%TD*%
%TA.AperFunction,ComponentPad*%
%ADD13R,1.800000X1.800000*%
%TD*%
%TA.AperFunction,ComponentPad*%
%ADD14C,1.800000*%
%TD*%
%TA.AperFunction,ComponentPad*%
%ADD15O,2.000000X1.905000*%
%TD*%
%TA.AperFunction,ComponentPad*%
%ADD16R,2.000000X1.905000*%
%TD*%
%TA.AperFunction,ComponentPad*%
%ADD17R,1.700000X1.700000*%
%TD*%
%TA.AperFunction,ComponentPad*%
%ADD18O,1.700000X1.700000*%
%TD*%
%TA.AperFunction,ComponentPad*%
%ADD19RoundRect,0.249999X1.025001X-1.025001X1.025001X1.025001X-1.025001X1.025001X-1.025001X-1.025001X0*%
%TD*%
%TA.AperFunction,ComponentPad*%
%ADD20C,2.640000*%
%TD*%
%TA.AperFunction,ComponentPad*%
%ADD21C,2.200000*%
%TD*%
%TA.AperFunction,Conductor*%
%ADD22C,2.000000*%
%TD*%
%TA.AperFunction,Conductor*%
%ADD23C,0.500000*%
%TD*%
G04 APERTURE END LIST*
D10*
%TO.P,R1,1*%
%TO.N,Net-(R1-Pad1)*%
X181229000Y-34544000D03*
D11*
%TO.P,R1,2*%
%TO.N,Earth*%
X181229000Y-24384000D03*
%TD*%
D12*
%TO.P,D1,1,K*%
%TO.N,VMON*%
X148336000Y-28702000D03*
D11*
%TO.P,D1,2,A*%
%TO.N,Earth*%
X155956000Y-28702000D03*
%TD*%
D10*
%TO.P,C1,1*%
%TO.N,+12V*%
X184745000Y-60579000D03*
%TO.P,C1,2*%
%TO.N,Earth*%
X179745000Y-60579000D03*
%TD*%
%TO.P,R7,1*%
%TO.N,IMON_3V3*%
X180975000Y-40640000D03*
D11*
%TO.P,R7,2*%
%TO.N,IMON*%
X170815000Y-40640000D03*
%TD*%
D10*
%TO.P,R5,1*%
%TO.N,VMON_3V3*%
X163322000Y-31877000D03*
D11*
%TO.P,R5,2*%
%TO.N,VMON*%
X148082000Y-31877000D03*
%TD*%
D10*
%TO.P,R4,1*%
%TO.N,Earth*%
X151765000Y-25654000D03*
D11*
%TO.P,R4,2*%
%TO.N,Net-(D2-Pad1)*%
X141605000Y-25654000D03*
%TD*%
D13*
%TO.P,D2,1,K*%
%TO.N,Net-(D2-Pad1)*%
X144526000Y-28697000D03*
D14*
%TO.P,D2,2,A*%
%TO.N,Net-(D2-Pad2)*%
X144526000Y-31237000D03*
%TD*%
D15*
%TO.P,U1,3,VO*%
%TO.N,+5V*%
X173030000Y-57785000D03*
%TO.P,U1,2,GND*%
%TO.N,Earth*%
X173030000Y-60325000D03*
D16*
%TO.P,U1,1,VI*%
%TO.N,+12V*%
X173030000Y-62865000D03*
%TD*%
D10*
%TO.P,C2,1*%
%TO.N,+5V*%
X176530000Y-56134000D03*
%TO.P,C2,2*%
%TO.N,Earth*%
X176530000Y-61134000D03*
%TD*%
%TO.P,C3,1*%
%TO.N,+5V*%
X177546000Y-53594000D03*
%TO.P,C3,2*%
%TO.N,Earth*%
X177546000Y-48594000D03*
%TD*%
%TO.P,R6,1*%
%TO.N,Earth*%
X153924000Y-25654000D03*
D11*
%TO.P,R6,2*%
%TO.N,VMON_3V3*%
X164084000Y-25654000D03*
%TD*%
D10*
%TO.P,R8,1*%
%TO.N,Earth*%
X180975000Y-54229000D03*
D11*
%TO.P,R8,2*%
%TO.N,IMON_3V3*%
X180975000Y-44069000D03*
%TD*%
D17*
%TO.P,J1,1,Pin_1*%
%TO.N,+12V*%
X184252000Y-54864000D03*
D18*
%TO.P,J1,2,Pin_2*%
%TO.N,Earth*%
X184252000Y-52324000D03*
%TO.P,J1,3,Pin_3*%
%TO.N,DAC_SIG*%
X184252000Y-49784000D03*
%TO.P,J1,4,Pin_4*%
%TO.N,VMON_3V3*%
X184252000Y-47244000D03*
%TO.P,J1,5,Pin_5*%
%TO.N,IMON_3V3*%
X184252000Y-44704000D03*
%TO.P,J1,6,Pin_6*%
%TO.N,VPGM*%
X184252000Y-42164000D03*
%TO.P,J1,7,Pin_7*%
%TO.N,Earth*%
X184252000Y-39624000D03*
%TD*%
D10*
%TO.P,R3,1*%
%TO.N,Earth*%
X170815000Y-37211000D03*
D11*
%TO.P,R3,2*%
%TO.N,VPGM*%
X180975000Y-37211000D03*
%TD*%
D10*
%TO.P,R2,1*%
%TO.N,Net-(R1-Pad1)*%
X184277000Y-28829000D03*
D11*
%TO.P,R2,2*%
%TO.N,VPGM*%
X184277000Y-36449000D03*
%TD*%
D12*
%TO.P,U2,1*%
%TO.N,VPGM*%
X178552000Y-33518000D03*
D11*
%TO.P,U2,2,-*%
%TO.N,Net-(R1-Pad1)*%
X178552000Y-30978000D03*
%TO.P,U2,3,+*%
%TO.N,DAC_SIG*%
X178552000Y-28438000D03*
%TO.P,U2,4,V-*%
%TO.N,Earth*%
X178552000Y-25898000D03*
%TO.P,U2,5,+*%
%TO.N,unconnected-(U2-Pad5)*%
X170932000Y-25898000D03*
%TO.P,U2,6,-*%
%TO.N,unconnected-(U2-Pad6)*%
X170932000Y-28438000D03*
%TO.P,U2,7*%
%TO.N,unconnected-(U2-Pad7)*%
X170932000Y-30978000D03*
%TO.P,U2,8,V+*%
%TO.N,+5V*%
X170932000Y-33518000D03*
%TD*%
D19*
%TO.P,J2,1,Pin_1*%
%TO.N,Net-(J2-Pad1)*%
X104053000Y-60579000D03*
%TD*%
D20*
%TO.P,U3,*%
%TO.N,*%
X172800000Y-49364000D03*
X90173800Y-49364000D03*
D10*
%TO.P,U3,1,VIN*%
%TO.N,+12V*%
X165948800Y-59464400D03*
%TO.P,U3,2,SGND*%
%TO.N,Earth*%
X165948800Y-51844400D03*
%TO.P,U3,3,CGND*%
X165948800Y-44224400D03*
%TO.P,U3,4,VPGM*%
%TO.N,VPGM*%
X165948800Y-39102400D03*
%TO.P,U3,5,VREF*%
%TO.N,Net-(D2-Pad2)*%
X155788800Y-39144400D03*
%TO.P,U3,6,IMON*%
%TO.N,IMON*%
X155788800Y-44224400D03*
%TO.P,U3,7,VMON*%
%TO.N,VMON*%
X155788800Y-51844400D03*
%TO.P,U3,8,HV_RTIN*%
%TO.N,Net-(J2-Pad1)*%
X155788800Y-59464400D03*
D21*
%TO.P,U3,9,HV_OUT*%
%TO.N,unconnected-(U3-Pad9)*%
X148212800Y-44182400D03*
%TD*%
D22*
%TO.N,Net-(J2-Pad1)*%
X104013000Y-60579000D02*
X105127600Y-59464400D01*
X105127600Y-59464400D02*
X155788800Y-59464400D01*
D23*
X104053000Y-60579000D02*
X104013000Y-60579000D01*
%TD*%
%TA.AperFunction,Conductor*%
%TO.N,Earth*%
G36*
X180042198Y-23736806D02*
G01*
X180060504Y-23781000D01*
X180054648Y-23807414D01*
X179996340Y-23932456D01*
X179994480Y-23937566D01*
X179946135Y-24117992D01*
X179947377Y-24127425D01*
X179950733Y-24130000D01*
X182502651Y-24130000D01*
X182511441Y-24126359D01*
X182513059Y-24122452D01*
X182463520Y-23937566D01*
X182461660Y-23932456D01*
X182403352Y-23807414D01*
X182401265Y-23759624D01*
X182433582Y-23724356D01*
X182459996Y-23718500D01*
X185895500Y-23718500D01*
X185905265Y-23719268D01*
X185928000Y-23722869D01*
X185932856Y-23722100D01*
X185932858Y-23722100D01*
X185938192Y-23721255D01*
X185953415Y-23720724D01*
X186082223Y-23731993D01*
X186092952Y-23733885D01*
X186189012Y-23759624D01*
X186237205Y-23772538D01*
X186247442Y-23776263D01*
X186382796Y-23839380D01*
X186392230Y-23844827D01*
X186514563Y-23930485D01*
X186522909Y-23937488D01*
X186628512Y-24043091D01*
X186635515Y-24051437D01*
X186721173Y-24173770D01*
X186726620Y-24183204D01*
X186789737Y-24318558D01*
X186793463Y-24328796D01*
X186832115Y-24473048D01*
X186834007Y-24483777D01*
X186845276Y-24612585D01*
X186844745Y-24627808D01*
X186843131Y-24638000D01*
X186846732Y-24660735D01*
X186847500Y-24670500D01*
X186847500Y-64347474D01*
X186846731Y-64357248D01*
X186843131Y-64379981D01*
X186843901Y-64384841D01*
X186843901Y-64384842D01*
X186844745Y-64390172D01*
X186845277Y-64405396D01*
X186834011Y-64534202D01*
X186832121Y-64544927D01*
X186807083Y-64638376D01*
X186793467Y-64689192D01*
X186789741Y-64699428D01*
X186726626Y-64834786D01*
X186721178Y-64844222D01*
X186635524Y-64966552D01*
X186628522Y-64974898D01*
X186548545Y-65054877D01*
X186522916Y-65080506D01*
X186514570Y-65087509D01*
X186392228Y-65173175D01*
X186382802Y-65178617D01*
X186323698Y-65206178D01*
X186247445Y-65241736D01*
X186237208Y-65245461D01*
X186092949Y-65284116D01*
X186082232Y-65286006D01*
X185953522Y-65297267D01*
X185938298Y-65296736D01*
X185932855Y-65295874D01*
X185928000Y-65295105D01*
X185923144Y-65295874D01*
X185923143Y-65295874D01*
X185905343Y-65298693D01*
X185895544Y-65299462D01*
X102125262Y-65268645D01*
X102081075Y-65250323D01*
X102062786Y-65206178D01*
X102061041Y-61643362D01*
X102427500Y-61643362D01*
X102427767Y-61645387D01*
X102427767Y-61645393D01*
X102439266Y-61732734D01*
X102442956Y-61760763D01*
X102444524Y-61764548D01*
X102444524Y-61764549D01*
X102501894Y-61903053D01*
X102501896Y-61903056D01*
X102503464Y-61906842D01*
X102599718Y-62032282D01*
X102602963Y-62034772D01*
X102602964Y-62034773D01*
X102662439Y-62080409D01*
X102725159Y-62128536D01*
X102728942Y-62130103D01*
X102867451Y-62187476D01*
X102867453Y-62187476D01*
X102871237Y-62189044D01*
X102875299Y-62189579D01*
X102875300Y-62189579D01*
X102986607Y-62204233D01*
X102986613Y-62204233D01*
X102988638Y-62204500D01*
X105117362Y-62204500D01*
X105119387Y-62204233D01*
X105119393Y-62204233D01*
X105230700Y-62189579D01*
X105230701Y-62189579D01*
X105234763Y-62189044D01*
X105238548Y-62187476D01*
X105238549Y-62187476D01*
X105377053Y-62130106D01*
X105377056Y-62130104D01*
X105380842Y-62128536D01*
X105506282Y-62032282D01*
X105508775Y-62029034D01*
X105600045Y-61910087D01*
X105602536Y-61906841D01*
X105641962Y-61811660D01*
X105661476Y-61764549D01*
X105661476Y-61764547D01*
X105663044Y-61760763D01*
X105666734Y-61732734D01*
X105678233Y-61645393D01*
X105678233Y-61645387D01*
X105678500Y-61643362D01*
X105678500Y-60877400D01*
X105696806Y-60833206D01*
X105741000Y-60814900D01*
X155847766Y-60814900D01*
X155849111Y-60814782D01*
X155849118Y-60814782D01*
X156021490Y-60799701D01*
X156021492Y-60799701D01*
X156024208Y-60799463D01*
X156026841Y-60798758D01*
X156026844Y-60798757D01*
X156249826Y-60739010D01*
X156249830Y-60739008D01*
X156252463Y-60738303D01*
X156361268Y-60687566D01*
X156464155Y-60639589D01*
X156464158Y-60639587D01*
X156466629Y-60638435D01*
X156660201Y-60502895D01*
X156827295Y-60335801D01*
X156962835Y-60142230D01*
X157041753Y-59972991D01*
X157061550Y-59930536D01*
X157061551Y-59930534D01*
X157062703Y-59928063D01*
X157064792Y-59920270D01*
X157123157Y-59702444D01*
X157123158Y-59702441D01*
X157123863Y-59699808D01*
X157127142Y-59662337D01*
X157144221Y-59467120D01*
X157144459Y-59464400D01*
X157141813Y-59434154D01*
X164793767Y-59434154D01*
X164807596Y-59645149D01*
X164808302Y-59647929D01*
X164857264Y-59840713D01*
X164859645Y-59850090D01*
X164948169Y-60042114D01*
X164949820Y-60044449D01*
X164949821Y-60044452D01*
X165055518Y-60194010D01*
X165070205Y-60214791D01*
X165221665Y-60362337D01*
X165397477Y-60479811D01*
X165591753Y-60563278D01*
X165674258Y-60581947D01*
X165795196Y-60609313D01*
X165795199Y-60609313D01*
X165797986Y-60609944D01*
X165891711Y-60613627D01*
X166006410Y-60618134D01*
X166006414Y-60618134D01*
X166009270Y-60618246D01*
X166217330Y-60588078D01*
X171545178Y-60588078D01*
X171556504Y-60662091D01*
X171557690Y-60667070D01*
X171630706Y-60890462D01*
X171632692Y-60895187D01*
X171741213Y-61103654D01*
X171743943Y-61107988D01*
X171885058Y-61295936D01*
X171888455Y-61299762D01*
X172050185Y-61454315D01*
X172069489Y-61498082D01*
X172052190Y-61542680D01*
X172007005Y-61562000D01*
X171996782Y-61562000D01*
X171994535Y-61562331D01*
X171994532Y-61562331D01*
X171970338Y-61565893D01*
X171927888Y-61572142D01*
X171823145Y-61623568D01*
X171819499Y-61627220D01*
X171819498Y-61627221D01*
X171744355Y-61702495D01*
X171744353Y-61702497D01*
X171740707Y-61706150D01*
X171738439Y-61710790D01*
X171691886Y-61806028D01*
X171689464Y-61810982D01*
X171679500Y-61879282D01*
X171679500Y-63850718D01*
X171689642Y-63919612D01*
X171741068Y-64024355D01*
X171744720Y-64028001D01*
X171744721Y-64028002D01*
X171819995Y-64103145D01*
X171819997Y-64103147D01*
X171823650Y-64106793D01*
X171828290Y-64109061D01*
X171923738Y-64155717D01*
X171928482Y-64158036D01*
X171933285Y-64158737D01*
X171933286Y-64158737D01*
X171953248Y-64161649D01*
X171996782Y-64168000D01*
X174063218Y-64168000D01*
X174065465Y-64167669D01*
X174065468Y-64167669D01*
X174089662Y-64164107D01*
X174132112Y-64157858D01*
X174236855Y-64106432D01*
X174240502Y-64102779D01*
X174315645Y-64027505D01*
X174315647Y-64027503D01*
X174319293Y-64023850D01*
X174334458Y-63992825D01*
X174368405Y-63923378D01*
X174368405Y-63923377D01*
X174370536Y-63919018D01*
X174380500Y-63850718D01*
X174380500Y-62221099D01*
X175807260Y-62221099D01*
X175809364Y-62226178D01*
X175871270Y-62269525D01*
X175875973Y-62272240D01*
X176078456Y-62366660D01*
X176083566Y-62368520D01*
X176299365Y-62426343D01*
X176304719Y-62427287D01*
X176527280Y-62446758D01*
X176532720Y-62446758D01*
X176755281Y-62427287D01*
X176760635Y-62426343D01*
X176976434Y-62368520D01*
X176981544Y-62366660D01*
X177184027Y-62272240D01*
X177188730Y-62269525D01*
X177247706Y-62228229D01*
X177252818Y-62220205D01*
X177251629Y-62214839D01*
X176538790Y-61502000D01*
X176530000Y-61498359D01*
X176521210Y-61502000D01*
X175810901Y-62212309D01*
X175807260Y-62221099D01*
X174380500Y-62221099D01*
X174380500Y-61879282D01*
X174370358Y-61810388D01*
X174318932Y-61705645D01*
X174291749Y-61678509D01*
X174240005Y-61626855D01*
X174240003Y-61626853D01*
X174236350Y-61623207D01*
X174205325Y-61608042D01*
X174135878Y-61574095D01*
X174135877Y-61574095D01*
X174131518Y-61571964D01*
X174126715Y-61571263D01*
X174126714Y-61571263D01*
X174106752Y-61568351D01*
X174063218Y-61562000D01*
X174049815Y-61562000D01*
X174005621Y-61543694D01*
X173987315Y-61499500D01*
X174007752Y-61453273D01*
X174147403Y-61326201D01*
X174150894Y-61322458D01*
X174296562Y-61138008D01*
X174297418Y-61136720D01*
X175217242Y-61136720D01*
X175236713Y-61359281D01*
X175237657Y-61364635D01*
X175295480Y-61580434D01*
X175297340Y-61585544D01*
X175391760Y-61788027D01*
X175394475Y-61792730D01*
X175435771Y-61851706D01*
X175443795Y-61856818D01*
X175449161Y-61855629D01*
X176162000Y-61142790D01*
X176165641Y-61134000D01*
X176894359Y-61134000D01*
X176898000Y-61142790D01*
X177608309Y-61853099D01*
X177617099Y-61856740D01*
X177622178Y-61854636D01*
X177665525Y-61792730D01*
X177668240Y-61788027D01*
X177725096Y-61666099D01*
X179022260Y-61666099D01*
X179024364Y-61671178D01*
X179086270Y-61714525D01*
X179090973Y-61717240D01*
X179293456Y-61811660D01*
X179298566Y-61813520D01*
X179514365Y-61871343D01*
X179519719Y-61872287D01*
X179742280Y-61891758D01*
X179747720Y-61891758D01*
X179970281Y-61872287D01*
X179975635Y-61871343D01*
X180191434Y-61813520D01*
X180196544Y-61811660D01*
X180399027Y-61717240D01*
X180403730Y-61714525D01*
X180462706Y-61673229D01*
X180467818Y-61665205D01*
X180466629Y-61659839D01*
X179753790Y-60947000D01*
X179745000Y-60943359D01*
X179736210Y-60947000D01*
X179025901Y-61657309D01*
X179022260Y-61666099D01*
X177725096Y-61666099D01*
X177762660Y-61585544D01*
X177764520Y-61580434D01*
X177822343Y-61364635D01*
X177823287Y-61359281D01*
X177842758Y-61136720D01*
X177842758Y-61131280D01*
X177823287Y-60908719D01*
X177822343Y-60903365D01*
X177764520Y-60687566D01*
X177762660Y-60682456D01*
X177715686Y-60581720D01*
X178432242Y-60581720D01*
X178451713Y-60804281D01*
X178452657Y-60809635D01*
X178510480Y-61025434D01*
X178512340Y-61030544D01*
X178606760Y-61233027D01*
X178609475Y-61237730D01*
X178650771Y-61296706D01*
X178658795Y-61301818D01*
X178664161Y-61300629D01*
X179377000Y-60587790D01*
X179380641Y-60579000D01*
X180109359Y-60579000D01*
X180113000Y-60587790D01*
X180823309Y-61298099D01*
X180832099Y-61301740D01*
X180837178Y-61299636D01*
X180880525Y-61237730D01*
X180883240Y-61233027D01*
X180977660Y-61030544D01*
X180979520Y-61025434D01*
X181037343Y-60809635D01*
X181038287Y-60804281D01*
X181057758Y-60581720D01*
X181057758Y-60576280D01*
X181055350Y-60548754D01*
X183589967Y-60548754D01*
X183596032Y-60641284D01*
X183602437Y-60739010D01*
X183603796Y-60759749D01*
X183604502Y-60762529D01*
X183650428Y-60943359D01*
X183655845Y-60964690D01*
X183744369Y-61156714D01*
X183866405Y-61329391D01*
X184017865Y-61476937D01*
X184193677Y-61594411D01*
X184387953Y-61677878D01*
X184491069Y-61701211D01*
X184591396Y-61723913D01*
X184591399Y-61723913D01*
X184594186Y-61724544D01*
X184687911Y-61728227D01*
X184802610Y-61732734D01*
X184802614Y-61732734D01*
X184805470Y-61732846D01*
X185014730Y-61702504D01*
X185214955Y-61634537D01*
X185399442Y-61531219D01*
X185434575Y-61502000D01*
X185559814Y-61397840D01*
X185562012Y-61396012D01*
X185642062Y-61299762D01*
X185695388Y-61235644D01*
X185695390Y-61235641D01*
X185697219Y-61233442D01*
X185800537Y-61048955D01*
X185868504Y-60848730D01*
X185898846Y-60639470D01*
X185900429Y-60579000D01*
X185899622Y-60570210D01*
X185885118Y-60412371D01*
X185881081Y-60368440D01*
X185879809Y-60363928D01*
X185824466Y-60167696D01*
X185824465Y-60167694D01*
X185823686Y-60164931D01*
X185730165Y-59975290D01*
X185603651Y-59805867D01*
X185448381Y-59662337D01*
X185269554Y-59549505D01*
X185073160Y-59471152D01*
X185070354Y-59470594D01*
X185070351Y-59470593D01*
X184868581Y-59430459D01*
X184868579Y-59430459D01*
X184865775Y-59429901D01*
X184766145Y-59428597D01*
X184657208Y-59427170D01*
X184657203Y-59427170D01*
X184654346Y-59427133D01*
X184651525Y-59427618D01*
X184651521Y-59427618D01*
X184529580Y-59448571D01*
X184445953Y-59462941D01*
X184443265Y-59463933D01*
X184443260Y-59463934D01*
X184250263Y-59535135D01*
X184250260Y-59535136D01*
X184247575Y-59536127D01*
X184245115Y-59537590D01*
X184245114Y-59537591D01*
X184222520Y-59551033D01*
X184065856Y-59644238D01*
X183906881Y-59783655D01*
X183775976Y-59949708D01*
X183727512Y-60041822D01*
X183679770Y-60132566D01*
X183677523Y-60136836D01*
X183676676Y-60139563D01*
X183676675Y-60139566D01*
X183632631Y-60281412D01*
X183614820Y-60338773D01*
X183589967Y-60548754D01*
X181055350Y-60548754D01*
X181038287Y-60353719D01*
X181037343Y-60348365D01*
X180979520Y-60132566D01*
X180977660Y-60127456D01*
X180883240Y-59924973D01*
X180880525Y-59920270D01*
X180839229Y-59861294D01*
X180831205Y-59856182D01*
X180825839Y-59857371D01*
X180113000Y-60570210D01*
X180109359Y-60579000D01*
X179380641Y-60579000D01*
X179377000Y-60570210D01*
X178666691Y-59859901D01*
X178657901Y-59856260D01*
X178652822Y-59858364D01*
X178609475Y-59920270D01*
X178606760Y-59924973D01*
X178512340Y-60127456D01*
X178510480Y-60132566D01*
X178452657Y-60348365D01*
X178451713Y-60353719D01*
X178432242Y-60576280D01*
X178432242Y-60581720D01*
X177715686Y-60581720D01*
X177668240Y-60479973D01*
X177665525Y-60475270D01*
X177624229Y-60416294D01*
X177616205Y-60411182D01*
X177610839Y-60412371D01*
X176898000Y-61125210D01*
X176894359Y-61134000D01*
X176165641Y-61134000D01*
X176162000Y-61125210D01*
X175451691Y-60414901D01*
X175442901Y-60411260D01*
X175437822Y-60413364D01*
X175394475Y-60475270D01*
X175391760Y-60479973D01*
X175297340Y-60682456D01*
X175295480Y-60687566D01*
X175237657Y-60903365D01*
X175236713Y-60908719D01*
X175217242Y-61131280D01*
X175217242Y-61136720D01*
X174297418Y-61136720D01*
X174299390Y-61133751D01*
X174412976Y-60927992D01*
X174415073Y-60923327D01*
X174493528Y-60701776D01*
X174494836Y-60696828D01*
X174513644Y-60591239D01*
X174511601Y-60581947D01*
X174506993Y-60579000D01*
X171556220Y-60579000D01*
X171547430Y-60582641D01*
X171545178Y-60588078D01*
X166217330Y-60588078D01*
X166218530Y-60587904D01*
X166418755Y-60519937D01*
X166603242Y-60416619D01*
X166609780Y-60411182D01*
X166763614Y-60283240D01*
X166765812Y-60281412D01*
X166821220Y-60214791D01*
X166899188Y-60121044D01*
X166899190Y-60121041D01*
X166901019Y-60118842D01*
X166934666Y-60058761D01*
X171546356Y-60058761D01*
X171548399Y-60068053D01*
X171553007Y-60071000D01*
X174503780Y-60071000D01*
X174512570Y-60067359D01*
X174514822Y-60061922D01*
X174512660Y-60047795D01*
X175807182Y-60047795D01*
X175808371Y-60053161D01*
X176521210Y-60766000D01*
X176530000Y-60769641D01*
X176538790Y-60766000D01*
X177249099Y-60055691D01*
X177252740Y-60046901D01*
X177250636Y-60041822D01*
X177188730Y-59998475D01*
X177184027Y-59995760D01*
X176981544Y-59901340D01*
X176976434Y-59899480D01*
X176760635Y-59841657D01*
X176755281Y-59840713D01*
X176532720Y-59821242D01*
X176527280Y-59821242D01*
X176304719Y-59840713D01*
X176299365Y-59841657D01*
X176083566Y-59899480D01*
X176078456Y-59901340D01*
X175875973Y-59995760D01*
X175871270Y-59998475D01*
X175812294Y-60039771D01*
X175807182Y-60047795D01*
X174512660Y-60047795D01*
X174503496Y-59987909D01*
X174502310Y-59982930D01*
X174429294Y-59759538D01*
X174427308Y-59754813D01*
X174318787Y-59546346D01*
X174316057Y-59542012D01*
X174279104Y-59492795D01*
X179022182Y-59492795D01*
X179023371Y-59498161D01*
X179736210Y-60211000D01*
X179745000Y-60214641D01*
X179753790Y-60211000D01*
X180464099Y-59500691D01*
X180467740Y-59491901D01*
X180465636Y-59486822D01*
X180403730Y-59443475D01*
X180399027Y-59440760D01*
X180196544Y-59346340D01*
X180191434Y-59344480D01*
X179975635Y-59286657D01*
X179970281Y-59285713D01*
X179747720Y-59266242D01*
X179742280Y-59266242D01*
X179519719Y-59285713D01*
X179514365Y-59286657D01*
X179298566Y-59344480D01*
X179293456Y-59346340D01*
X179090973Y-59440760D01*
X179086270Y-59443475D01*
X179027294Y-59484771D01*
X179022182Y-59492795D01*
X174279104Y-59492795D01*
X174174942Y-59354064D01*
X174171551Y-59350244D01*
X174001622Y-59187857D01*
X173997655Y-59184645D01*
X173803500Y-59052201D01*
X173799041Y-59049668D01*
X173743505Y-59023889D01*
X173711127Y-58988678D01*
X173713130Y-58940884D01*
X173733972Y-58916002D01*
X173916013Y-58788536D01*
X173918251Y-58786969D01*
X174079469Y-58625751D01*
X174208676Y-58441225D01*
X174208677Y-58441223D01*
X174210241Y-58438989D01*
X174212146Y-58434905D01*
X174305443Y-58234827D01*
X174305444Y-58234825D01*
X174306596Y-58232354D01*
X174318002Y-58189790D01*
X174364900Y-58014764D01*
X174364901Y-58014760D01*
X174365606Y-58012128D01*
X174385477Y-57785000D01*
X174365606Y-57557872D01*
X174306596Y-57337646D01*
X174279503Y-57279544D01*
X174211395Y-57133486D01*
X174211393Y-57133483D01*
X174210241Y-57131012D01*
X174079469Y-56944249D01*
X173918251Y-56783031D01*
X173731488Y-56652259D01*
X173729017Y-56651107D01*
X173729014Y-56651105D01*
X173527327Y-56557057D01*
X173527325Y-56557056D01*
X173524854Y-56555904D01*
X173522221Y-56555199D01*
X173522217Y-56555197D01*
X173307264Y-56497600D01*
X173307260Y-56497599D01*
X173304628Y-56496894D01*
X173301912Y-56496656D01*
X173301910Y-56496656D01*
X173135740Y-56482118D01*
X173135734Y-56482118D01*
X173134388Y-56482000D01*
X172925612Y-56482000D01*
X172924266Y-56482118D01*
X172924260Y-56482118D01*
X172758090Y-56496656D01*
X172758088Y-56496656D01*
X172755372Y-56496894D01*
X172752740Y-56497599D01*
X172752736Y-56497600D01*
X172537783Y-56555197D01*
X172537779Y-56555199D01*
X172535146Y-56555904D01*
X172532675Y-56557056D01*
X172532673Y-56557057D01*
X172330986Y-56651105D01*
X172330983Y-56651107D01*
X172328512Y-56652259D01*
X172141749Y-56783031D01*
X171980531Y-56944249D01*
X171918017Y-57033528D01*
X171851325Y-57128774D01*
X171851323Y-57128777D01*
X171849759Y-57131011D01*
X171848607Y-57133482D01*
X171848605Y-57133485D01*
X171776678Y-57287734D01*
X171753404Y-57337646D01*
X171694394Y-57557872D01*
X171674523Y-57785000D01*
X171694394Y-58012128D01*
X171695099Y-58014760D01*
X171695100Y-58014764D01*
X171741999Y-58189790D01*
X171753404Y-58232354D01*
X171754556Y-58234825D01*
X171754557Y-58234827D01*
X171848568Y-58436433D01*
X171849759Y-58438988D01*
X171980531Y-58625751D01*
X172141749Y-58786969D01*
X172143987Y-58788536D01*
X172324270Y-58914771D01*
X172349972Y-58955115D01*
X172339619Y-59001816D01*
X172313343Y-59023285D01*
X172292319Y-59032426D01*
X172287823Y-59034837D01*
X172090485Y-59162501D01*
X172086429Y-59165625D01*
X171912597Y-59323799D01*
X171909106Y-59327542D01*
X171763438Y-59511992D01*
X171760610Y-59516249D01*
X171647024Y-59722008D01*
X171644927Y-59726673D01*
X171566472Y-59948224D01*
X171565164Y-59953172D01*
X171546356Y-60058761D01*
X166934666Y-60058761D01*
X167004337Y-59934355D01*
X167072304Y-59734130D01*
X167100512Y-59539589D01*
X167102383Y-59526684D01*
X167102646Y-59524870D01*
X167104229Y-59464400D01*
X167104051Y-59462455D01*
X167087810Y-59285713D01*
X167084881Y-59253840D01*
X167083210Y-59247913D01*
X167028266Y-59053096D01*
X167028265Y-59053094D01*
X167027486Y-59050331D01*
X166933965Y-58860690D01*
X166807451Y-58691267D01*
X166652181Y-58547737D01*
X166473354Y-58434905D01*
X166276960Y-58356552D01*
X166274154Y-58355994D01*
X166274151Y-58355993D01*
X166072381Y-58315859D01*
X166072379Y-58315859D01*
X166069575Y-58315301D01*
X165969945Y-58313997D01*
X165861008Y-58312570D01*
X165861003Y-58312570D01*
X165858146Y-58312533D01*
X165855325Y-58313018D01*
X165855321Y-58313018D01*
X165733380Y-58333971D01*
X165649753Y-58348341D01*
X165647065Y-58349333D01*
X165647060Y-58349334D01*
X165454063Y-58420535D01*
X165454060Y-58420536D01*
X165451375Y-58421527D01*
X165448915Y-58422990D01*
X165448914Y-58422991D01*
X165418264Y-58441226D01*
X165269656Y-58529638D01*
X165110681Y-58669055D01*
X165108905Y-58671308D01*
X165017726Y-58786969D01*
X164979776Y-58835108D01*
X164937863Y-58914771D01*
X164892067Y-59001816D01*
X164881323Y-59022236D01*
X164880476Y-59024963D01*
X164880475Y-59024966D01*
X164865527Y-59073106D01*
X164818620Y-59224173D01*
X164806828Y-59323799D01*
X164797656Y-59401300D01*
X164793767Y-59434154D01*
X157141813Y-59434154D01*
X157134806Y-59354064D01*
X157124101Y-59231710D01*
X157124101Y-59231708D01*
X157123863Y-59228992D01*
X157112841Y-59187857D01*
X157063410Y-59003374D01*
X157063408Y-59003370D01*
X157062703Y-59000737D01*
X156997398Y-58860690D01*
X156963989Y-58789045D01*
X156963987Y-58789042D01*
X156962835Y-58786571D01*
X156827295Y-58592999D01*
X156660201Y-58425905D01*
X156466629Y-58290365D01*
X156464158Y-58289213D01*
X156464155Y-58289211D01*
X156336570Y-58229717D01*
X156252463Y-58190497D01*
X156249830Y-58189792D01*
X156249826Y-58189790D01*
X156026844Y-58130043D01*
X156026841Y-58130042D01*
X156024208Y-58129337D01*
X156021492Y-58129099D01*
X156021490Y-58129099D01*
X155849118Y-58114018D01*
X155849111Y-58114018D01*
X155847766Y-58113900D01*
X105009446Y-58113900D01*
X104953834Y-58123706D01*
X104948452Y-58124415D01*
X104910914Y-58127699D01*
X104894910Y-58129099D01*
X104894908Y-58129099D01*
X104892192Y-58129337D01*
X104889560Y-58130042D01*
X104889556Y-58130043D01*
X104837660Y-58143949D01*
X104832337Y-58145130D01*
X104776729Y-58154935D01*
X104723679Y-58174244D01*
X104718488Y-58175881D01*
X104663937Y-58190497D01*
X104612764Y-58214359D01*
X104607735Y-58216441D01*
X104557247Y-58234818D01*
X104557236Y-58234823D01*
X104554673Y-58235756D01*
X104505769Y-58263991D01*
X104500945Y-58266502D01*
X104452249Y-58289209D01*
X104452246Y-58289211D01*
X104449771Y-58290365D01*
X104417419Y-58313018D01*
X104403521Y-58322749D01*
X104398924Y-58325678D01*
X104352391Y-58352544D01*
X104352387Y-58352547D01*
X104350026Y-58353910D01*
X104347937Y-58355663D01*
X104347934Y-58355665D01*
X104306778Y-58390198D01*
X104302454Y-58393516D01*
X104263868Y-58420535D01*
X104256199Y-58425905D01*
X103746910Y-58935194D01*
X103702716Y-58953500D01*
X102988638Y-58953500D01*
X102986613Y-58953767D01*
X102986607Y-58953767D01*
X102875300Y-58968421D01*
X102875299Y-58968421D01*
X102871237Y-58968956D01*
X102867452Y-58970524D01*
X102867451Y-58970524D01*
X102728947Y-59027894D01*
X102728944Y-59027896D01*
X102725158Y-59029464D01*
X102599718Y-59125718D01*
X102503464Y-59251159D01*
X102442956Y-59397237D01*
X102442421Y-59401299D01*
X102442421Y-59401300D01*
X102430376Y-59492795D01*
X102427500Y-59514638D01*
X102427500Y-61643362D01*
X102061041Y-61643362D01*
X102058328Y-56103754D01*
X175374967Y-56103754D01*
X175388796Y-56314749D01*
X175389502Y-56317529D01*
X175411395Y-56403730D01*
X175440845Y-56519690D01*
X175529369Y-56711714D01*
X175651405Y-56884391D01*
X175802865Y-57031937D01*
X175978677Y-57149411D01*
X176172953Y-57232878D01*
X176276070Y-57256211D01*
X176376396Y-57278913D01*
X176376399Y-57278913D01*
X176379186Y-57279544D01*
X176472911Y-57283227D01*
X176587610Y-57287734D01*
X176587614Y-57287734D01*
X176590470Y-57287846D01*
X176799730Y-57257504D01*
X176999955Y-57189537D01*
X177184442Y-57086219D01*
X177347012Y-56951012D01*
X177482219Y-56788442D01*
X177585537Y-56603955D01*
X177653504Y-56403730D01*
X177683846Y-56194470D01*
X177685429Y-56134000D01*
X177666081Y-55923440D01*
X177634457Y-55811307D01*
X177609466Y-55722696D01*
X177609465Y-55722694D01*
X177608686Y-55719931D01*
X177515165Y-55530290D01*
X177388651Y-55360867D01*
X177340221Y-55316099D01*
X180252260Y-55316099D01*
X180254364Y-55321178D01*
X180316270Y-55364525D01*
X180320973Y-55367240D01*
X180523456Y-55461660D01*
X180528566Y-55463520D01*
X180744365Y-55521343D01*
X180749719Y-55522287D01*
X180972280Y-55541758D01*
X180977720Y-55541758D01*
X181200281Y-55522287D01*
X181205635Y-55521343D01*
X181421434Y-55463520D01*
X181426544Y-55461660D01*
X181629027Y-55367240D01*
X181633730Y-55364525D01*
X181692706Y-55323229D01*
X181697818Y-55315205D01*
X181696629Y-55309839D01*
X180983790Y-54597000D01*
X180975000Y-54593359D01*
X180966210Y-54597000D01*
X180255901Y-55307309D01*
X180252260Y-55316099D01*
X177340221Y-55316099D01*
X177233381Y-55217337D01*
X177054554Y-55104505D01*
X176858160Y-55026152D01*
X176855354Y-55025594D01*
X176855351Y-55025593D01*
X176653581Y-54985459D01*
X176653579Y-54985459D01*
X176650775Y-54984901D01*
X176551145Y-54983597D01*
X176442208Y-54982170D01*
X176442203Y-54982170D01*
X176439346Y-54982133D01*
X176436525Y-54982618D01*
X176436521Y-54982618D01*
X176314580Y-55003571D01*
X176230953Y-55017941D01*
X176228265Y-55018933D01*
X176228260Y-55018934D01*
X176035263Y-55090135D01*
X176035260Y-55090136D01*
X176032575Y-55091127D01*
X176030115Y-55092590D01*
X176030114Y-55092591D01*
X176007520Y-55106033D01*
X175850856Y-55199238D01*
X175848699Y-55201130D01*
X175718621Y-55315205D01*
X175691881Y-55338655D01*
X175560976Y-55504708D01*
X175462523Y-55691836D01*
X175461676Y-55694563D01*
X175461675Y-55694566D01*
X175401318Y-55888947D01*
X175399820Y-55893773D01*
X175374967Y-56103754D01*
X102058328Y-56103754D01*
X102057084Y-53563754D01*
X176390967Y-53563754D01*
X176393069Y-53595827D01*
X176401368Y-53722439D01*
X176404796Y-53774749D01*
X176405502Y-53777529D01*
X176440846Y-53916693D01*
X176456845Y-53979690D01*
X176545369Y-54171714D01*
X176547020Y-54174049D01*
X176547021Y-54174052D01*
X176583932Y-54226280D01*
X176667405Y-54344391D01*
X176818865Y-54491937D01*
X176994677Y-54609411D01*
X177188953Y-54692878D01*
X177292069Y-54716211D01*
X177392396Y-54738913D01*
X177392399Y-54738913D01*
X177395186Y-54739544D01*
X177488911Y-54743227D01*
X177603610Y-54747734D01*
X177603614Y-54747734D01*
X177606470Y-54747846D01*
X177815730Y-54717504D01*
X178015955Y-54649537D01*
X178200442Y-54546219D01*
X178363012Y-54411012D01*
X178498219Y-54248442D01*
X178507584Y-54231720D01*
X179662242Y-54231720D01*
X179681713Y-54454281D01*
X179682657Y-54459635D01*
X179740480Y-54675434D01*
X179742340Y-54680544D01*
X179836760Y-54883027D01*
X179839475Y-54887730D01*
X179880771Y-54946706D01*
X179888795Y-54951818D01*
X179894161Y-54950629D01*
X180607000Y-54237790D01*
X180610641Y-54229000D01*
X181339359Y-54229000D01*
X181343000Y-54237790D01*
X182053309Y-54948099D01*
X182062099Y-54951740D01*
X182067178Y-54949636D01*
X182110525Y-54887730D01*
X182113240Y-54883027D01*
X182207660Y-54680544D01*
X182209520Y-54675434D01*
X182267343Y-54459635D01*
X182268287Y-54454281D01*
X182287758Y-54231720D01*
X182287758Y-54226280D01*
X182268287Y-54003719D01*
X182267343Y-53998365D01*
X182209520Y-53782566D01*
X182207660Y-53777456D01*
X182113240Y-53574973D01*
X182110525Y-53570270D01*
X182069229Y-53511294D01*
X182061205Y-53506182D01*
X182055839Y-53507371D01*
X181343000Y-54220210D01*
X181339359Y-54229000D01*
X180610641Y-54229000D01*
X180607000Y-54220210D01*
X179896691Y-53509901D01*
X179887901Y-53506260D01*
X179882822Y-53508364D01*
X179839475Y-53570270D01*
X179836760Y-53574973D01*
X179742340Y-53777456D01*
X179740480Y-53782566D01*
X179682657Y-53998365D01*
X179681713Y-54003719D01*
X179662242Y-54226280D01*
X179662242Y-54231720D01*
X178507584Y-54231720D01*
X178601537Y-54063955D01*
X178669504Y-53863730D01*
X178699846Y-53654470D01*
X178701429Y-53594000D01*
X178699249Y-53570270D01*
X178691979Y-53491158D01*
X178682081Y-53383440D01*
X178624686Y-53179931D01*
X178606372Y-53142795D01*
X180252182Y-53142795D01*
X180253371Y-53148161D01*
X180966210Y-53861000D01*
X180975000Y-53864641D01*
X180983790Y-53861000D01*
X181694099Y-53150691D01*
X181697740Y-53141901D01*
X181695636Y-53136822D01*
X181633730Y-53093475D01*
X181629027Y-53090760D01*
X181426544Y-52996340D01*
X181421434Y-52994480D01*
X181205635Y-52936657D01*
X181200281Y-52935713D01*
X180977720Y-52916242D01*
X180972280Y-52916242D01*
X180749719Y-52935713D01*
X180744365Y-52936657D01*
X180528566Y-52994480D01*
X180523456Y-52996340D01*
X180320973Y-53090760D01*
X180316270Y-53093475D01*
X180257294Y-53134771D01*
X180252182Y-53142795D01*
X178606372Y-53142795D01*
X178531165Y-52990290D01*
X178462650Y-52898537D01*
X178406368Y-52823166D01*
X178406366Y-52823164D01*
X178404651Y-52820867D01*
X178249381Y-52677337D01*
X178104702Y-52586051D01*
X182918924Y-52586051D01*
X182951139Y-52728994D01*
X182952664Y-52733861D01*
X183034747Y-52936008D01*
X183037057Y-52940582D01*
X183151051Y-53126602D01*
X183154072Y-53130731D01*
X183296917Y-53295635D01*
X183300580Y-53299222D01*
X183468437Y-53438580D01*
X183472631Y-53441517D01*
X183653209Y-53547038D01*
X183682130Y-53585140D01*
X183675638Y-53632533D01*
X183637536Y-53661454D01*
X183621676Y-53663500D01*
X183368782Y-53663500D01*
X183366535Y-53663831D01*
X183366532Y-53663831D01*
X183342338Y-53667393D01*
X183299888Y-53673642D01*
X183195145Y-53725068D01*
X183191499Y-53728720D01*
X183191498Y-53728721D01*
X183116355Y-53803995D01*
X183116353Y-53803997D01*
X183112707Y-53807650D01*
X183110439Y-53812290D01*
X183063886Y-53907528D01*
X183061464Y-53912482D01*
X183051500Y-53980782D01*
X183051500Y-55747218D01*
X183061642Y-55816112D01*
X183113068Y-55920855D01*
X183116720Y-55924501D01*
X183116721Y-55924502D01*
X183191995Y-55999645D01*
X183191997Y-55999647D01*
X183195650Y-56003293D01*
X183200290Y-56005561D01*
X183295738Y-56052217D01*
X183300482Y-56054536D01*
X183305285Y-56055237D01*
X183305286Y-56055237D01*
X183325248Y-56058149D01*
X183368782Y-56064500D01*
X185135218Y-56064500D01*
X185137465Y-56064169D01*
X185137468Y-56064169D01*
X185161662Y-56060607D01*
X185204112Y-56054358D01*
X185308855Y-56002932D01*
X185312502Y-55999279D01*
X185387645Y-55924005D01*
X185387647Y-55924003D01*
X185391293Y-55920350D01*
X185406458Y-55889325D01*
X185440405Y-55819878D01*
X185440405Y-55819877D01*
X185442536Y-55815518D01*
X185452500Y-55747218D01*
X185452500Y-53980782D01*
X185442358Y-53911888D01*
X185390932Y-53807145D01*
X185387279Y-53803498D01*
X185312005Y-53728355D01*
X185312003Y-53728353D01*
X185308350Y-53724707D01*
X185277325Y-53709542D01*
X185207878Y-53675595D01*
X185207877Y-53675595D01*
X185203518Y-53673464D01*
X185198715Y-53672763D01*
X185198714Y-53672763D01*
X185178752Y-53669851D01*
X185135218Y-53663500D01*
X184874338Y-53663500D01*
X184830144Y-53645194D01*
X184811838Y-53601000D01*
X184830144Y-53556806D01*
X184846842Y-53544873D01*
X184947436Y-53495592D01*
X184951824Y-53492976D01*
X185129449Y-53366278D01*
X185133352Y-53362980D01*
X185287897Y-53208973D01*
X185291210Y-53205080D01*
X185418522Y-53027906D01*
X185421161Y-53023515D01*
X185517825Y-52827930D01*
X185519710Y-52823170D01*
X185583136Y-52614413D01*
X185584215Y-52609420D01*
X185586728Y-52590326D01*
X185584266Y-52581135D01*
X185578835Y-52578000D01*
X182929541Y-52578000D01*
X182920751Y-52581641D01*
X182918924Y-52586051D01*
X178104702Y-52586051D01*
X178070554Y-52564505D01*
X177874160Y-52486152D01*
X177871354Y-52485594D01*
X177871351Y-52485593D01*
X177669581Y-52445459D01*
X177669579Y-52445459D01*
X177666775Y-52444901D01*
X177567145Y-52443597D01*
X177458208Y-52442170D01*
X177458203Y-52442170D01*
X177455346Y-52442133D01*
X177452525Y-52442618D01*
X177452521Y-52442618D01*
X177330580Y-52463571D01*
X177246953Y-52477941D01*
X177244265Y-52478933D01*
X177244260Y-52478934D01*
X177051263Y-52550135D01*
X177051260Y-52550136D01*
X177048575Y-52551127D01*
X177046115Y-52552590D01*
X177046114Y-52552591D01*
X177025196Y-52565036D01*
X176866856Y-52659238D01*
X176864699Y-52661130D01*
X176710203Y-52796619D01*
X176707881Y-52798655D01*
X176706105Y-52800908D01*
X176593373Y-52943909D01*
X176576976Y-52964708D01*
X176561312Y-52994480D01*
X176480457Y-53148161D01*
X176478523Y-53151836D01*
X176477676Y-53154563D01*
X176477675Y-53154566D01*
X176417318Y-53348947D01*
X176415820Y-53353773D01*
X176390967Y-53563754D01*
X102057084Y-53563754D01*
X102056227Y-51814154D01*
X154633767Y-51814154D01*
X154647596Y-52025149D01*
X154648302Y-52027929D01*
X154694228Y-52208759D01*
X154699645Y-52230090D01*
X154788169Y-52422114D01*
X154789820Y-52424449D01*
X154789821Y-52424452D01*
X154834176Y-52487212D01*
X154910205Y-52594791D01*
X154912257Y-52596790D01*
X154974857Y-52657772D01*
X155061665Y-52742337D01*
X155237477Y-52859811D01*
X155431753Y-52943278D01*
X155534869Y-52966611D01*
X155635196Y-52989313D01*
X155635199Y-52989313D01*
X155637986Y-52989944D01*
X155731711Y-52993627D01*
X155846410Y-52998134D01*
X155846414Y-52998134D01*
X155849270Y-52998246D01*
X156058530Y-52967904D01*
X156165776Y-52931499D01*
X165226060Y-52931499D01*
X165228164Y-52936578D01*
X165290070Y-52979925D01*
X165294773Y-52982640D01*
X165497256Y-53077060D01*
X165502366Y-53078920D01*
X165718165Y-53136743D01*
X165723519Y-53137687D01*
X165946080Y-53157158D01*
X165951520Y-53157158D01*
X166174081Y-53137687D01*
X166179435Y-53136743D01*
X166395234Y-53078920D01*
X166400344Y-53077060D01*
X166602827Y-52982640D01*
X166607530Y-52979925D01*
X166666506Y-52938629D01*
X166671618Y-52930605D01*
X166670429Y-52925239D01*
X165957590Y-52212400D01*
X165948800Y-52208759D01*
X165940010Y-52212400D01*
X165229701Y-52922709D01*
X165226060Y-52931499D01*
X156165776Y-52931499D01*
X156258755Y-52899937D01*
X156443242Y-52796619D01*
X156605812Y-52661412D01*
X156672577Y-52581135D01*
X156739188Y-52501044D01*
X156739190Y-52501041D01*
X156741019Y-52498842D01*
X156844337Y-52314355D01*
X156912304Y-52114130D01*
X156942646Y-51904870D01*
X156944158Y-51847120D01*
X164636042Y-51847120D01*
X164655513Y-52069681D01*
X164656457Y-52075035D01*
X164714280Y-52290834D01*
X164716140Y-52295944D01*
X164810560Y-52498427D01*
X164813275Y-52503130D01*
X164854571Y-52562106D01*
X164862595Y-52567218D01*
X164867961Y-52566029D01*
X165580800Y-51853190D01*
X165584441Y-51844400D01*
X166313159Y-51844400D01*
X166316800Y-51853190D01*
X167027109Y-52563499D01*
X167035899Y-52567140D01*
X167040978Y-52565036D01*
X167084325Y-52503130D01*
X167087040Y-52498427D01*
X167181460Y-52295944D01*
X167183320Y-52290834D01*
X167241143Y-52075035D01*
X167242087Y-52069681D01*
X167242853Y-52060924D01*
X182915628Y-52060924D01*
X182917347Y-52066767D01*
X182923274Y-52070000D01*
X185576028Y-52070000D01*
X185584818Y-52066359D01*
X185586515Y-52062261D01*
X185542580Y-51887350D01*
X185540932Y-51882510D01*
X185453937Y-51682435D01*
X185451514Y-51677917D01*
X185333013Y-51494741D01*
X185329889Y-51490684D01*
X185183057Y-51329318D01*
X185179314Y-51325827D01*
X185008091Y-51190605D01*
X185003834Y-51187777D01*
X184812831Y-51082337D01*
X184808166Y-51080240D01*
X184664957Y-51029527D01*
X184629408Y-50997519D01*
X184626905Y-50949749D01*
X184658913Y-50914200D01*
X184665730Y-50911429D01*
X184701858Y-50899165D01*
X184742379Y-50885410D01*
X184934884Y-50777602D01*
X185104518Y-50636518D01*
X185245602Y-50466884D01*
X185353410Y-50274379D01*
X185424331Y-50065452D01*
X185442656Y-49939068D01*
X185455728Y-49848914D01*
X185455728Y-49848909D01*
X185455991Y-49847098D01*
X185457643Y-49784000D01*
X185454482Y-49749592D01*
X185437716Y-49567142D01*
X185437454Y-49564289D01*
X185427954Y-49530602D01*
X185378342Y-49354691D01*
X185377565Y-49351936D01*
X185364455Y-49325350D01*
X185281248Y-49156624D01*
X185281247Y-49156623D01*
X185279980Y-49154053D01*
X185261941Y-49129896D01*
X185149684Y-48979566D01*
X185149683Y-48979564D01*
X185147967Y-48977267D01*
X184985949Y-48827499D01*
X184799350Y-48709764D01*
X184594421Y-48628006D01*
X184591615Y-48627448D01*
X184591612Y-48627447D01*
X184380830Y-48585520D01*
X184380828Y-48585520D01*
X184378024Y-48584962D01*
X184274127Y-48583602D01*
X184160268Y-48582111D01*
X184160263Y-48582111D01*
X184157406Y-48582074D01*
X184154585Y-48582559D01*
X184154581Y-48582559D01*
X184036844Y-48602790D01*
X183939957Y-48619438D01*
X183937269Y-48620430D01*
X183937264Y-48620431D01*
X183735645Y-48694812D01*
X183735642Y-48694814D01*
X183732957Y-48695804D01*
X183730497Y-48697267D01*
X183730496Y-48697268D01*
X183545806Y-48807147D01*
X183545802Y-48807150D01*
X183543341Y-48808614D01*
X183377457Y-48954090D01*
X183240863Y-49127360D01*
X183138131Y-49322620D01*
X183137284Y-49325347D01*
X183137283Y-49325350D01*
X183125768Y-49362434D01*
X183072703Y-49533333D01*
X183046770Y-49752440D01*
X183061200Y-49972604D01*
X183061906Y-49975384D01*
X183079678Y-50045359D01*
X183115511Y-50186452D01*
X183207883Y-50386821D01*
X183335222Y-50567002D01*
X183493264Y-50720961D01*
X183676717Y-50843540D01*
X183679354Y-50844673D01*
X183679356Y-50844674D01*
X183841431Y-50914307D01*
X183874811Y-50948571D01*
X183874184Y-50996402D01*
X183836177Y-51031138D01*
X183726394Y-51067020D01*
X183721669Y-51069006D01*
X183528153Y-51169744D01*
X183523819Y-51172474D01*
X183349348Y-51303471D01*
X183345527Y-51306863D01*
X183194793Y-51464598D01*
X183191572Y-51468575D01*
X183068629Y-51648802D01*
X183066096Y-51653261D01*
X182974240Y-51851149D01*
X182972473Y-51855950D01*
X182915628Y-52060924D01*
X167242853Y-52060924D01*
X167261558Y-51847120D01*
X167261558Y-51841680D01*
X167242087Y-51619119D01*
X167241143Y-51613765D01*
X167183320Y-51397966D01*
X167181460Y-51392856D01*
X167087040Y-51190373D01*
X167084325Y-51185670D01*
X167043029Y-51126694D01*
X167035005Y-51121582D01*
X167029639Y-51122771D01*
X166316800Y-51835610D01*
X166313159Y-51844400D01*
X165584441Y-51844400D01*
X165580800Y-51835610D01*
X164870491Y-51125301D01*
X164861701Y-51121660D01*
X164856622Y-51123764D01*
X164813275Y-51185670D01*
X164810560Y-51190373D01*
X164716140Y-51392856D01*
X164714280Y-51397966D01*
X164656457Y-51613765D01*
X164655513Y-51619119D01*
X164636042Y-51841680D01*
X164636042Y-51847120D01*
X156944158Y-51847120D01*
X156944229Y-51844400D01*
X156943422Y-51835610D01*
X156928931Y-51677917D01*
X156924881Y-51633840D01*
X156920730Y-51619119D01*
X156868266Y-51433096D01*
X156868265Y-51433094D01*
X156867486Y-51430331D01*
X156773965Y-51240690D01*
X156685023Y-51121582D01*
X156649168Y-51073566D01*
X156649166Y-51073564D01*
X156647451Y-51071267D01*
X156492181Y-50927737D01*
X156313354Y-50814905D01*
X156171209Y-50758195D01*
X165225982Y-50758195D01*
X165227171Y-50763561D01*
X165940010Y-51476400D01*
X165948800Y-51480041D01*
X165957590Y-51476400D01*
X166667899Y-50766091D01*
X166671540Y-50757301D01*
X166669436Y-50752222D01*
X166607530Y-50708875D01*
X166602827Y-50706160D01*
X166400344Y-50611740D01*
X166395234Y-50609880D01*
X166179435Y-50552057D01*
X166174081Y-50551113D01*
X165951520Y-50531642D01*
X165946080Y-50531642D01*
X165723519Y-50551113D01*
X165718165Y-50552057D01*
X165502366Y-50609880D01*
X165497256Y-50611740D01*
X165294773Y-50706160D01*
X165290070Y-50708875D01*
X165231094Y-50750171D01*
X165225982Y-50758195D01*
X156171209Y-50758195D01*
X156116960Y-50736552D01*
X156114154Y-50735994D01*
X156114151Y-50735993D01*
X155912381Y-50695859D01*
X155912379Y-50695859D01*
X155909575Y-50695301D01*
X155809945Y-50693997D01*
X155701008Y-50692570D01*
X155701003Y-50692570D01*
X155698146Y-50692533D01*
X155695325Y-50693018D01*
X155695321Y-50693018D01*
X155573380Y-50713971D01*
X155489753Y-50728341D01*
X155487065Y-50729333D01*
X155487060Y-50729334D01*
X155294063Y-50800535D01*
X155294060Y-50800536D01*
X155291375Y-50801527D01*
X155288915Y-50802990D01*
X155288914Y-50802991D01*
X155266320Y-50816433D01*
X155109656Y-50909638D01*
X155027893Y-50981342D01*
X154963204Y-51038073D01*
X154950681Y-51049055D01*
X154948905Y-51051308D01*
X154839093Y-51190605D01*
X154819776Y-51215108D01*
X154773286Y-51303471D01*
X154723570Y-51397966D01*
X154721323Y-51402236D01*
X154720476Y-51404963D01*
X154720475Y-51404966D01*
X154697164Y-51480041D01*
X154658620Y-51604173D01*
X154633767Y-51814154D01*
X102056227Y-51814154D01*
X102055005Y-49320149D01*
X171125390Y-49320149D01*
X171125501Y-49322463D01*
X171125501Y-49322469D01*
X171131633Y-49450115D01*
X171137303Y-49568154D01*
X171185742Y-49811673D01*
X171186521Y-49813842D01*
X171186523Y-49813850D01*
X171268860Y-50043179D01*
X171269643Y-50045359D01*
X171387164Y-50264076D01*
X171388548Y-50265930D01*
X171388551Y-50265934D01*
X171446453Y-50343473D01*
X171535723Y-50463020D01*
X171712055Y-50637820D01*
X171786674Y-50692533D01*
X171910420Y-50783268D01*
X171910426Y-50783272D01*
X171912288Y-50784637D01*
X171914337Y-50785715D01*
X172105578Y-50886331D01*
X172132022Y-50900244D01*
X172134201Y-50901005D01*
X172134208Y-50901008D01*
X172265913Y-50947001D01*
X172366430Y-50982103D01*
X172610364Y-51028416D01*
X172612678Y-51028507D01*
X172612679Y-51028507D01*
X172638640Y-51029527D01*
X172858463Y-51038164D01*
X172974177Y-51025491D01*
X173102969Y-51011386D01*
X173102971Y-51011386D01*
X173105278Y-51011133D01*
X173226079Y-50979329D01*
X173343140Y-50948510D01*
X173343145Y-50948508D01*
X173345387Y-50947918D01*
X173347519Y-50947002D01*
X173347522Y-50947001D01*
X173571385Y-50850821D01*
X173571388Y-50850819D01*
X173573514Y-50849906D01*
X173768356Y-50729334D01*
X173782672Y-50720475D01*
X173782674Y-50720474D01*
X173784648Y-50719252D01*
X173974152Y-50558826D01*
X174137861Y-50372151D01*
X174272180Y-50163329D01*
X174374158Y-49936947D01*
X174400014Y-49845269D01*
X174440924Y-49700213D01*
X174440925Y-49700209D01*
X174441554Y-49697978D01*
X174443701Y-49681099D01*
X176823260Y-49681099D01*
X176825364Y-49686178D01*
X176887270Y-49729525D01*
X176891973Y-49732240D01*
X177094456Y-49826660D01*
X177099566Y-49828520D01*
X177315365Y-49886343D01*
X177320719Y-49887287D01*
X177543280Y-49906758D01*
X177548720Y-49906758D01*
X177771281Y-49887287D01*
X177776635Y-49886343D01*
X177992434Y-49828520D01*
X177997544Y-49826660D01*
X178200027Y-49732240D01*
X178204730Y-49729525D01*
X178263706Y-49688229D01*
X178268818Y-49680205D01*
X178267629Y-49674839D01*
X177554790Y-48962000D01*
X177546000Y-48958359D01*
X177537210Y-48962000D01*
X176826901Y-49672309D01*
X176823260Y-49681099D01*
X174443701Y-49681099D01*
X174458070Y-49568154D01*
X174472691Y-49453224D01*
X174472692Y-49453215D01*
X174472888Y-49451672D01*
X174475184Y-49364000D01*
X174474493Y-49354691D01*
X174456956Y-49118708D01*
X174456784Y-49116392D01*
X174401986Y-48874224D01*
X174311996Y-48642815D01*
X174285651Y-48596720D01*
X176233242Y-48596720D01*
X176252713Y-48819281D01*
X176253657Y-48824635D01*
X176311480Y-49040434D01*
X176313340Y-49045544D01*
X176407760Y-49248027D01*
X176410475Y-49252730D01*
X176451771Y-49311706D01*
X176459795Y-49316818D01*
X176465161Y-49315629D01*
X177178000Y-48602790D01*
X177181641Y-48594000D01*
X177910359Y-48594000D01*
X177914000Y-48602790D01*
X178624309Y-49313099D01*
X178633099Y-49316740D01*
X178638178Y-49314636D01*
X178681525Y-49252730D01*
X178684240Y-49248027D01*
X178778660Y-49045544D01*
X178780520Y-49040434D01*
X178838343Y-48824635D01*
X178839287Y-48819281D01*
X178858758Y-48596720D01*
X178858758Y-48591280D01*
X178839287Y-48368719D01*
X178838343Y-48363365D01*
X178780520Y-48147566D01*
X178778660Y-48142456D01*
X178684240Y-47939973D01*
X178681525Y-47935270D01*
X178640229Y-47876294D01*
X178632205Y-47871182D01*
X178626839Y-47872371D01*
X177914000Y-48585210D01*
X177910359Y-48594000D01*
X177181641Y-48594000D01*
X177178000Y-48585210D01*
X176467691Y-47874901D01*
X176458901Y-47871260D01*
X176453822Y-47873364D01*
X176410475Y-47935270D01*
X176407760Y-47939973D01*
X176313340Y-48142456D01*
X176311480Y-48147566D01*
X176253657Y-48363365D01*
X176252713Y-48368719D01*
X176233242Y-48591280D01*
X176233242Y-48596720D01*
X174285651Y-48596720D01*
X174188790Y-48427249D01*
X174125000Y-48346331D01*
X174036514Y-48234087D01*
X174036512Y-48234085D01*
X174035075Y-48232262D01*
X173854227Y-48062138D01*
X173806461Y-48029001D01*
X173652123Y-47921933D01*
X173652121Y-47921932D01*
X173650220Y-47920613D01*
X173427535Y-47810796D01*
X173191064Y-47735101D01*
X172946002Y-47695191D01*
X172804655Y-47693341D01*
X172700045Y-47691971D01*
X172700041Y-47691971D01*
X172697732Y-47691941D01*
X172695441Y-47692253D01*
X172695437Y-47692253D01*
X172454009Y-47725110D01*
X172454007Y-47725110D01*
X172451710Y-47725423D01*
X172449484Y-47726072D01*
X172449483Y-47726072D01*
X172374938Y-47747800D01*
X172213338Y-47794902D01*
X172211241Y-47795869D01*
X172211235Y-47795871D01*
X171989967Y-47897877D01*
X171989963Y-47897879D01*
X171987855Y-47898851D01*
X171985912Y-47900125D01*
X171985910Y-47900126D01*
X171941734Y-47929089D01*
X171780213Y-48034987D01*
X171778482Y-48036532D01*
X171618901Y-48178963D01*
X171594973Y-48200319D01*
X171436207Y-48391216D01*
X171435008Y-48393191D01*
X171435005Y-48393196D01*
X171414341Y-48427249D01*
X171307400Y-48603482D01*
X171306506Y-48605615D01*
X171306504Y-48605618D01*
X171212644Y-48829448D01*
X171211383Y-48832456D01*
X171210813Y-48834699D01*
X171210812Y-48834703D01*
X171200775Y-48874224D01*
X171150266Y-49073107D01*
X171125390Y-49320149D01*
X102055005Y-49320149D01*
X102054117Y-47507795D01*
X176823182Y-47507795D01*
X176824371Y-47513161D01*
X177537210Y-48226000D01*
X177546000Y-48229641D01*
X177554790Y-48226000D01*
X178265099Y-47515691D01*
X178268740Y-47506901D01*
X178266636Y-47501822D01*
X178204730Y-47458475D01*
X178200027Y-47455760D01*
X177997544Y-47361340D01*
X177992434Y-47359480D01*
X177776635Y-47301657D01*
X177771281Y-47300713D01*
X177548720Y-47281242D01*
X177543280Y-47281242D01*
X177320719Y-47300713D01*
X177315365Y-47301657D01*
X177099566Y-47359480D01*
X177094456Y-47361340D01*
X176891973Y-47455760D01*
X176887270Y-47458475D01*
X176828294Y-47499771D01*
X176823182Y-47507795D01*
X102054117Y-47507795D01*
X102053972Y-47212440D01*
X183046770Y-47212440D01*
X183061200Y-47432604D01*
X183115511Y-47646452D01*
X183207883Y-47846821D01*
X183209534Y-47849156D01*
X183209535Y-47849159D01*
X183244654Y-47898851D01*
X183335222Y-48027002D01*
X183493264Y-48180961D01*
X183676717Y-48303540D01*
X183879436Y-48390635D01*
X183882222Y-48391265D01*
X183882227Y-48391267D01*
X184091842Y-48438698D01*
X184091845Y-48438698D01*
X184094632Y-48439329D01*
X184192029Y-48443156D01*
X184312238Y-48447879D01*
X184312242Y-48447879D01*
X184315098Y-48447991D01*
X184533452Y-48416331D01*
X184742379Y-48345410D01*
X184934884Y-48237602D01*
X185104518Y-48096518D01*
X185245602Y-47926884D01*
X185353410Y-47734379D01*
X185424331Y-47525452D01*
X185455991Y-47307098D01*
X185456134Y-47301657D01*
X185457595Y-47245827D01*
X185457643Y-47244000D01*
X185454482Y-47209592D01*
X185437716Y-47027142D01*
X185437454Y-47024289D01*
X185427954Y-46990602D01*
X185378342Y-46814691D01*
X185377565Y-46811936D01*
X185364455Y-46785350D01*
X185281248Y-46616624D01*
X185281247Y-46616623D01*
X185279980Y-46614053D01*
X185261941Y-46589896D01*
X185149684Y-46439566D01*
X185149683Y-46439564D01*
X185147967Y-46437267D01*
X184985949Y-46287499D01*
X184799350Y-46169764D01*
X184594421Y-46088006D01*
X184591615Y-46087448D01*
X184591612Y-46087447D01*
X184380830Y-46045520D01*
X184380828Y-46045520D01*
X184378024Y-46044962D01*
X184274127Y-46043602D01*
X184160268Y-46042111D01*
X184160263Y-46042111D01*
X184157406Y-46042074D01*
X184154585Y-46042559D01*
X184154581Y-46042559D01*
X184027124Y-46064460D01*
X183939957Y-46079438D01*
X183937269Y-46080430D01*
X183937264Y-46080431D01*
X183735645Y-46154812D01*
X183735642Y-46154814D01*
X183732957Y-46155804D01*
X183730497Y-46157267D01*
X183730496Y-46157268D01*
X183545806Y-46267147D01*
X183545802Y-46267150D01*
X183543341Y-46268614D01*
X183377457Y-46414090D01*
X183240863Y-46587360D01*
X183138131Y-46782620D01*
X183137284Y-46785347D01*
X183137283Y-46785350D01*
X183074271Y-46988284D01*
X183072703Y-46993333D01*
X183046770Y-47212440D01*
X102053972Y-47212440D01*
X102052471Y-44146840D01*
X146757763Y-44146840D01*
X146771494Y-44384962D01*
X146823931Y-44617645D01*
X146913667Y-44838639D01*
X146915009Y-44840829D01*
X146915010Y-44840831D01*
X146946737Y-44892604D01*
X147038293Y-45042009D01*
X147039970Y-45043945D01*
X147039973Y-45043949D01*
X147167929Y-45191666D01*
X147194460Y-45222294D01*
X147196439Y-45223937D01*
X147316096Y-45323278D01*
X147377976Y-45374652D01*
X147380189Y-45375945D01*
X147380193Y-45375948D01*
X147570240Y-45487002D01*
X147583912Y-45494991D01*
X147586307Y-45495906D01*
X147586310Y-45495907D01*
X147749835Y-45558351D01*
X147806737Y-45580080D01*
X147809248Y-45580591D01*
X147809252Y-45580592D01*
X148037953Y-45627122D01*
X148037956Y-45627122D01*
X148040466Y-45627633D01*
X148043026Y-45627727D01*
X148043027Y-45627727D01*
X148276255Y-45636279D01*
X148276258Y-45636279D01*
X148278825Y-45636373D01*
X148281378Y-45636046D01*
X148512859Y-45606392D01*
X148512863Y-45606391D01*
X148515409Y-45606065D01*
X148517869Y-45605327D01*
X148741416Y-45538261D01*
X148741420Y-45538259D01*
X148743868Y-45537525D01*
X148958064Y-45432591D01*
X149117833Y-45318629D01*
X149150158Y-45295572D01*
X149150161Y-45295570D01*
X149152245Y-45294083D01*
X149321197Y-45125720D01*
X149335043Y-45106452D01*
X149431331Y-44972452D01*
X149460382Y-44932023D01*
X149487902Y-44876342D01*
X149562381Y-44725644D01*
X149566063Y-44718195D01*
X149635400Y-44489977D01*
X149640412Y-44451911D01*
X149666314Y-44255162D01*
X149666533Y-44253499D01*
X149667984Y-44194154D01*
X154633767Y-44194154D01*
X154647596Y-44405149D01*
X154648302Y-44407929D01*
X154694228Y-44588759D01*
X154699645Y-44610090D01*
X154788169Y-44802114D01*
X154789820Y-44804449D01*
X154789821Y-44804452D01*
X154887106Y-44942106D01*
X154910205Y-44974791D01*
X155061665Y-45122337D01*
X155237477Y-45239811D01*
X155431753Y-45323278D01*
X155534870Y-45346611D01*
X155635196Y-45369313D01*
X155635199Y-45369313D01*
X155637986Y-45369944D01*
X155731711Y-45373627D01*
X155846410Y-45378134D01*
X155846414Y-45378134D01*
X155849270Y-45378246D01*
X156058530Y-45347904D01*
X156165776Y-45311499D01*
X165226060Y-45311499D01*
X165228164Y-45316578D01*
X165290070Y-45359925D01*
X165294773Y-45362640D01*
X165497256Y-45457060D01*
X165502366Y-45458920D01*
X165718165Y-45516743D01*
X165723519Y-45517687D01*
X165946080Y-45537158D01*
X165951520Y-45537158D01*
X166174081Y-45517687D01*
X166179435Y-45516743D01*
X166395234Y-45458920D01*
X166400344Y-45457060D01*
X166602827Y-45362640D01*
X166607530Y-45359925D01*
X166666506Y-45318629D01*
X166671618Y-45310605D01*
X166670429Y-45305239D01*
X165957590Y-44592400D01*
X165948800Y-44588759D01*
X165940010Y-44592400D01*
X165229701Y-45302709D01*
X165226060Y-45311499D01*
X156165776Y-45311499D01*
X156258755Y-45279937D01*
X156443242Y-45176619D01*
X156452994Y-45168509D01*
X156603614Y-45043240D01*
X156605812Y-45041412D01*
X156667752Y-44966937D01*
X156739188Y-44881044D01*
X156739190Y-44881041D01*
X156741019Y-44878842D01*
X156844337Y-44694355D01*
X156912304Y-44494130D01*
X156942646Y-44284870D01*
X156942913Y-44274691D01*
X156944158Y-44227120D01*
X164636042Y-44227120D01*
X164655513Y-44449681D01*
X164656457Y-44455035D01*
X164714280Y-44670834D01*
X164716140Y-44675944D01*
X164810560Y-44878427D01*
X164813275Y-44883130D01*
X164854571Y-44942106D01*
X164862595Y-44947218D01*
X164867961Y-44946029D01*
X165580800Y-44233190D01*
X165584441Y-44224400D01*
X166313159Y-44224400D01*
X166316800Y-44233190D01*
X167027109Y-44943499D01*
X167035899Y-44947140D01*
X167040978Y-44945036D01*
X167084325Y-44883130D01*
X167087040Y-44878427D01*
X167181460Y-44675944D01*
X167183320Y-44670834D01*
X167241143Y-44455035D01*
X167242087Y-44449681D01*
X167261558Y-44227120D01*
X167261558Y-44221680D01*
X167245555Y-44038754D01*
X179819967Y-44038754D01*
X179822069Y-44070827D01*
X179833508Y-44245350D01*
X179833796Y-44249749D01*
X179834502Y-44252529D01*
X179868772Y-44387464D01*
X179885845Y-44454690D01*
X179974369Y-44646714D01*
X179976020Y-44649049D01*
X179976021Y-44649052D01*
X180006121Y-44691642D01*
X180096405Y-44819391D01*
X180247865Y-44966937D01*
X180423677Y-45084411D01*
X180617953Y-45167878D01*
X180662770Y-45178019D01*
X180821396Y-45213913D01*
X180821399Y-45213913D01*
X180824186Y-45214544D01*
X180917911Y-45218227D01*
X181032610Y-45222734D01*
X181032614Y-45222734D01*
X181035470Y-45222846D01*
X181244730Y-45192504D01*
X181444955Y-45124537D01*
X181629442Y-45021219D01*
X181669186Y-44988165D01*
X181789814Y-44887840D01*
X181792012Y-44886012D01*
X181831411Y-44838639D01*
X181925388Y-44725644D01*
X181925390Y-44725641D01*
X181927219Y-44723442D01*
X181955782Y-44672440D01*
X183046770Y-44672440D01*
X183048370Y-44696854D01*
X183060888Y-44887840D01*
X183061200Y-44892604D01*
X183061906Y-44895384D01*
X183109509Y-45082818D01*
X183115511Y-45106452D01*
X183207883Y-45306821D01*
X183209534Y-45309156D01*
X183209535Y-45309159D01*
X183258282Y-45378134D01*
X183335222Y-45487002D01*
X183493264Y-45640961D01*
X183676717Y-45763540D01*
X183879436Y-45850635D01*
X183882222Y-45851265D01*
X183882227Y-45851267D01*
X184091842Y-45898698D01*
X184091845Y-45898698D01*
X184094632Y-45899329D01*
X184192029Y-45903156D01*
X184312238Y-45907879D01*
X184312242Y-45907879D01*
X184315098Y-45907991D01*
X184533452Y-45876331D01*
X184742379Y-45805410D01*
X184934884Y-45697602D01*
X185104518Y-45556518D01*
X185245602Y-45386884D01*
X185353410Y-45194379D01*
X185354360Y-45191582D01*
X185404715Y-45043240D01*
X185424331Y-44985452D01*
X185445618Y-44838639D01*
X185455728Y-44768914D01*
X185455728Y-44768909D01*
X185455991Y-44767098D01*
X185457643Y-44704000D01*
X185456987Y-44696854D01*
X185437454Y-44484289D01*
X185429107Y-44454690D01*
X185378342Y-44274691D01*
X185377565Y-44271936D01*
X185364455Y-44245350D01*
X185281248Y-44076624D01*
X185281247Y-44076623D01*
X185279980Y-44074053D01*
X185261941Y-44049896D01*
X185149684Y-43899566D01*
X185149683Y-43899564D01*
X185147967Y-43897267D01*
X184985949Y-43747499D01*
X184799350Y-43629764D01*
X184594421Y-43548006D01*
X184591615Y-43547448D01*
X184591612Y-43547447D01*
X184380830Y-43505520D01*
X184380828Y-43505520D01*
X184378024Y-43504962D01*
X184274127Y-43503602D01*
X184160268Y-43502111D01*
X184160263Y-43502111D01*
X184157406Y-43502074D01*
X184154585Y-43502559D01*
X184154581Y-43502559D01*
X184027124Y-43524460D01*
X183939957Y-43539438D01*
X183937269Y-43540430D01*
X183937264Y-43540431D01*
X183735645Y-43614812D01*
X183735642Y-43614814D01*
X183732957Y-43615804D01*
X183730497Y-43617267D01*
X183730496Y-43617268D01*
X183545806Y-43727147D01*
X183545802Y-43727150D01*
X183543341Y-43728614D01*
X183492893Y-43772856D01*
X183397629Y-43856400D01*
X183377457Y-43874090D01*
X183349407Y-43909672D01*
X183245390Y-44041618D01*
X183240863Y-44047360D01*
X183138131Y-44242620D01*
X183137284Y-44245347D01*
X183137283Y-44245350D01*
X183086801Y-44407929D01*
X183072703Y-44453333D01*
X183068667Y-44487433D01*
X183054479Y-44607311D01*
X183046770Y-44672440D01*
X181955782Y-44672440D01*
X182030537Y-44538955D01*
X182098504Y-44338730D01*
X182128846Y-44129470D01*
X182130429Y-44069000D01*
X182125361Y-44013840D01*
X182116023Y-43912220D01*
X182111081Y-43858440D01*
X182090360Y-43784966D01*
X182054466Y-43657696D01*
X182054465Y-43657694D01*
X182053686Y-43654931D01*
X181960165Y-43465290D01*
X181896908Y-43380578D01*
X181835368Y-43298166D01*
X181835366Y-43298164D01*
X181833651Y-43295867D01*
X181678381Y-43152337D01*
X181499554Y-43039505D01*
X181303160Y-42961152D01*
X181300354Y-42960594D01*
X181300351Y-42960593D01*
X181098581Y-42920459D01*
X181098579Y-42920459D01*
X181095775Y-42919901D01*
X180996145Y-42918597D01*
X180887208Y-42917170D01*
X180887203Y-42917170D01*
X180884346Y-42917133D01*
X180881525Y-42917618D01*
X180881521Y-42917618D01*
X180797492Y-42932057D01*
X180675953Y-42952941D01*
X180673265Y-42953933D01*
X180673260Y-42953934D01*
X180480263Y-43025135D01*
X180480260Y-43025136D01*
X180477575Y-43026127D01*
X180475115Y-43027590D01*
X180475114Y-43027591D01*
X180452520Y-43041033D01*
X180295856Y-43134238D01*
X180267618Y-43159002D01*
X180146283Y-43265410D01*
X180136881Y-43273655D01*
X180005976Y-43439708D01*
X179971664Y-43504925D01*
X179910757Y-43620690D01*
X179907523Y-43626836D01*
X179906676Y-43629563D01*
X179906675Y-43629566D01*
X179870056Y-43747499D01*
X179844820Y-43828773D01*
X179819967Y-44038754D01*
X167245555Y-44038754D01*
X167242087Y-43999119D01*
X167241143Y-43993765D01*
X167183320Y-43777966D01*
X167181460Y-43772856D01*
X167087040Y-43570373D01*
X167084325Y-43565670D01*
X167043029Y-43506694D01*
X167035005Y-43501582D01*
X167029639Y-43502771D01*
X166316800Y-44215610D01*
X166313159Y-44224400D01*
X165584441Y-44224400D01*
X165580800Y-44215610D01*
X164870491Y-43505301D01*
X164861701Y-43501660D01*
X164856622Y-43503764D01*
X164813275Y-43565670D01*
X164810560Y-43570373D01*
X164716140Y-43772856D01*
X164714280Y-43777966D01*
X164656457Y-43993765D01*
X164655513Y-43999119D01*
X164636042Y-44221680D01*
X164636042Y-44227120D01*
X156944158Y-44227120D01*
X156944181Y-44226227D01*
X156944229Y-44224400D01*
X156943422Y-44215610D01*
X156930117Y-44070827D01*
X156924881Y-44013840D01*
X156920730Y-43999119D01*
X156868266Y-43813096D01*
X156868265Y-43813094D01*
X156867486Y-43810331D01*
X156773965Y-43620690D01*
X156659845Y-43467864D01*
X156649168Y-43453566D01*
X156649166Y-43453564D01*
X156647451Y-43451267D01*
X156492181Y-43307737D01*
X156313354Y-43194905D01*
X156171209Y-43138195D01*
X165225982Y-43138195D01*
X165227171Y-43143561D01*
X165940010Y-43856400D01*
X165948800Y-43860041D01*
X165957590Y-43856400D01*
X166667899Y-43146091D01*
X166671540Y-43137301D01*
X166669436Y-43132222D01*
X166607530Y-43088875D01*
X166602827Y-43086160D01*
X166400344Y-42991740D01*
X166395234Y-42989880D01*
X166179435Y-42932057D01*
X166174081Y-42931113D01*
X165951520Y-42911642D01*
X165946080Y-42911642D01*
X165723519Y-42931113D01*
X165718165Y-42932057D01*
X165502366Y-42989880D01*
X165497256Y-42991740D01*
X165294773Y-43086160D01*
X165290070Y-43088875D01*
X165231094Y-43130171D01*
X165225982Y-43138195D01*
X156171209Y-43138195D01*
X156166033Y-43136130D01*
X156119617Y-43117612D01*
X156116960Y-43116552D01*
X156114154Y-43115994D01*
X156114151Y-43115993D01*
X155912381Y-43075859D01*
X155912379Y-43075859D01*
X155909575Y-43075301D01*
X155809945Y-43073997D01*
X155701008Y-43072570D01*
X155701003Y-43072570D01*
X155698146Y-43072533D01*
X155695325Y-43073018D01*
X155695321Y-43073018D01*
X155582159Y-43092463D01*
X155489753Y-43108341D01*
X155487065Y-43109333D01*
X155487060Y-43109334D01*
X155294063Y-43180535D01*
X155294060Y-43180536D01*
X155291375Y-43181527D01*
X155288915Y-43182990D01*
X155288914Y-43182991D01*
X155266320Y-43196433D01*
X155109656Y-43289638D01*
X154950681Y-43429055D01*
X154819776Y-43595108D01*
X154788302Y-43654931D01*
X154723570Y-43777966D01*
X154721323Y-43782236D01*
X154720476Y-43784963D01*
X154720475Y-43784966D01*
X154692102Y-43876343D01*
X154658620Y-43984173D01*
X154633767Y-44194154D01*
X149667984Y-44194154D01*
X149668271Y-44182400D01*
X149648727Y-43944684D01*
X149620326Y-43831613D01*
X149591246Y-43715839D01*
X149591245Y-43715835D01*
X149590621Y-43713352D01*
X149495512Y-43494616D01*
X149365955Y-43294351D01*
X149242796Y-43159002D01*
X149207158Y-43119836D01*
X149207157Y-43119835D01*
X149205429Y-43117936D01*
X149203418Y-43116348D01*
X149203415Y-43116345D01*
X149020259Y-42971697D01*
X149020255Y-42971694D01*
X149018245Y-42970107D01*
X149001011Y-42960593D01*
X148811679Y-42856077D01*
X148809431Y-42854836D01*
X148786975Y-42846884D01*
X148587015Y-42776074D01*
X148587011Y-42776073D01*
X148584594Y-42775217D01*
X148582068Y-42774767D01*
X148582064Y-42774766D01*
X148352306Y-42733839D01*
X148352301Y-42733839D01*
X148349772Y-42733388D01*
X148221747Y-42731824D01*
X148113839Y-42730505D01*
X148113834Y-42730505D01*
X148111271Y-42730474D01*
X147875498Y-42766553D01*
X147873058Y-42767351D01*
X147873056Y-42767351D01*
X147651226Y-42839856D01*
X147651224Y-42839857D01*
X147648782Y-42840655D01*
X147646505Y-42841840D01*
X147646501Y-42841842D01*
X147537530Y-42898569D01*
X147437214Y-42950790D01*
X147246475Y-43094002D01*
X147244705Y-43095854D01*
X147244704Y-43095855D01*
X147223913Y-43117612D01*
X147081687Y-43266442D01*
X147080241Y-43268562D01*
X147080240Y-43268563D01*
X146955608Y-43451267D01*
X146947275Y-43463482D01*
X146946192Y-43465814D01*
X146946192Y-43465815D01*
X146869381Y-43631292D01*
X146846851Y-43679828D01*
X146846167Y-43682295D01*
X146846165Y-43682300D01*
X146783793Y-43907205D01*
X146783109Y-43909672D01*
X146779094Y-43947244D01*
X146759815Y-44127643D01*
X146757763Y-44146840D01*
X102052471Y-44146840D01*
X102052131Y-43453566D01*
X102050738Y-40609754D01*
X169659967Y-40609754D01*
X169662069Y-40641827D01*
X169671976Y-40792976D01*
X169673796Y-40820749D01*
X169674502Y-40823529D01*
X169696395Y-40909730D01*
X169725845Y-41025690D01*
X169814369Y-41217714D01*
X169936405Y-41390391D01*
X170087865Y-41537937D01*
X170263677Y-41655411D01*
X170457953Y-41738878D01*
X170561070Y-41762211D01*
X170661396Y-41784913D01*
X170661399Y-41784913D01*
X170664186Y-41785544D01*
X170757911Y-41789227D01*
X170872610Y-41793734D01*
X170872614Y-41793734D01*
X170875470Y-41793846D01*
X171084730Y-41763504D01*
X171284955Y-41695537D01*
X171469442Y-41592219D01*
X171568426Y-41509896D01*
X171629814Y-41458840D01*
X171632012Y-41457012D01*
X171689365Y-41388052D01*
X171765388Y-41296644D01*
X171765390Y-41296641D01*
X171767219Y-41294442D01*
X171870537Y-41109955D01*
X171938504Y-40909730D01*
X171968846Y-40700470D01*
X171970429Y-40640000D01*
X171967650Y-40609754D01*
X179819967Y-40609754D01*
X179822069Y-40641827D01*
X179831976Y-40792976D01*
X179833796Y-40820749D01*
X179834502Y-40823529D01*
X179856395Y-40909730D01*
X179885845Y-41025690D01*
X179974369Y-41217714D01*
X180096405Y-41390391D01*
X180247865Y-41537937D01*
X180423677Y-41655411D01*
X180617953Y-41738878D01*
X180721070Y-41762211D01*
X180821396Y-41784913D01*
X180821399Y-41784913D01*
X180824186Y-41785544D01*
X180917911Y-41789227D01*
X181032610Y-41793734D01*
X181032614Y-41793734D01*
X181035470Y-41793846D01*
X181244730Y-41763504D01*
X181444955Y-41695537D01*
X181629442Y-41592219D01*
X181728426Y-41509896D01*
X181789814Y-41458840D01*
X181792012Y-41457012D01*
X181849365Y-41388052D01*
X181925388Y-41296644D01*
X181925390Y-41296641D01*
X181927219Y-41294442D01*
X182030537Y-41109955D01*
X182098504Y-40909730D01*
X182128846Y-40700470D01*
X182130429Y-40640000D01*
X182126353Y-40595635D01*
X182111343Y-40432295D01*
X182111081Y-40429440D01*
X182081208Y-40323515D01*
X182054466Y-40228696D01*
X182054465Y-40228694D01*
X182053686Y-40225931D01*
X181960165Y-40036290D01*
X181851169Y-39890326D01*
X181847977Y-39886051D01*
X182918924Y-39886051D01*
X182951139Y-40028994D01*
X182952664Y-40033861D01*
X183034747Y-40236008D01*
X183037057Y-40240582D01*
X183151051Y-40426602D01*
X183154072Y-40430731D01*
X183296917Y-40595635D01*
X183300580Y-40599222D01*
X183468437Y-40738580D01*
X183472631Y-40741517D01*
X183660999Y-40851590D01*
X183665615Y-40853802D01*
X183838856Y-40919956D01*
X183873612Y-40952823D01*
X183874948Y-41000640D01*
X183838192Y-41036981D01*
X183735645Y-41074812D01*
X183735642Y-41074814D01*
X183732957Y-41075804D01*
X183730497Y-41077267D01*
X183730496Y-41077268D01*
X183545806Y-41187147D01*
X183545802Y-41187150D01*
X183543341Y-41188614D01*
X183377457Y-41334090D01*
X183240863Y-41507360D01*
X183197180Y-41590388D01*
X183141858Y-41695537D01*
X183138131Y-41702620D01*
X183137284Y-41705347D01*
X183137283Y-41705350D01*
X183074271Y-41908284D01*
X183072703Y-41913333D01*
X183046770Y-42132440D01*
X183061200Y-42352604D01*
X183115511Y-42566452D01*
X183207883Y-42766821D01*
X183209534Y-42769156D01*
X183209535Y-42769159D01*
X183260902Y-42841842D01*
X183335222Y-42947002D01*
X183337274Y-42949001D01*
X183342338Y-42953934D01*
X183493264Y-43100961D01*
X183676717Y-43223540D01*
X183879436Y-43310635D01*
X183882222Y-43311265D01*
X183882227Y-43311267D01*
X184091842Y-43358698D01*
X184091845Y-43358698D01*
X184094632Y-43359329D01*
X184192029Y-43363156D01*
X184312238Y-43367879D01*
X184312242Y-43367879D01*
X184315098Y-43367991D01*
X184533452Y-43336331D01*
X184665432Y-43291530D01*
X184739666Y-43266331D01*
X184739667Y-43266331D01*
X184742379Y-43265410D01*
X184934884Y-43157602D01*
X185104518Y-43016518D01*
X185245602Y-42846884D01*
X185353410Y-42654379D01*
X185424331Y-42445452D01*
X185455991Y-42227098D01*
X185457643Y-42164000D01*
X185454482Y-42129592D01*
X185437716Y-41947142D01*
X185437454Y-41944289D01*
X185427954Y-41910602D01*
X185378342Y-41734691D01*
X185377565Y-41731936D01*
X185364455Y-41705350D01*
X185281248Y-41536624D01*
X185281247Y-41536623D01*
X185279980Y-41534053D01*
X185261941Y-41509896D01*
X185149684Y-41359566D01*
X185149683Y-41359564D01*
X185147967Y-41357267D01*
X184985949Y-41207499D01*
X184799350Y-41089764D01*
X184662366Y-41035113D01*
X184628103Y-41001735D01*
X184627476Y-40953903D01*
X184660855Y-40919639D01*
X184667567Y-40917199D01*
X184746749Y-40893443D01*
X184751499Y-40891581D01*
X184947436Y-40795592D01*
X184951824Y-40792976D01*
X185129449Y-40666278D01*
X185133352Y-40662980D01*
X185287897Y-40508973D01*
X185291210Y-40505080D01*
X185418522Y-40327906D01*
X185421161Y-40323515D01*
X185517825Y-40127930D01*
X185519710Y-40123170D01*
X185583136Y-39914413D01*
X185584215Y-39909420D01*
X185586728Y-39890326D01*
X185584266Y-39881135D01*
X185578835Y-39878000D01*
X182929541Y-39878000D01*
X182920751Y-39881641D01*
X182918924Y-39886051D01*
X181847977Y-39886051D01*
X181835368Y-39869166D01*
X181835366Y-39869164D01*
X181833651Y-39866867D01*
X181678381Y-39723337D01*
X181499554Y-39610505D01*
X181303160Y-39532152D01*
X181300354Y-39531594D01*
X181300351Y-39531593D01*
X181098581Y-39491459D01*
X181098579Y-39491459D01*
X181095775Y-39490901D01*
X180996145Y-39489597D01*
X180887208Y-39488170D01*
X180887203Y-39488170D01*
X180884346Y-39488133D01*
X180881525Y-39488618D01*
X180881521Y-39488618D01*
X180759580Y-39509571D01*
X180675953Y-39523941D01*
X180673265Y-39524933D01*
X180673260Y-39524934D01*
X180480263Y-39596135D01*
X180480260Y-39596136D01*
X180477575Y-39597127D01*
X180475115Y-39598590D01*
X180475114Y-39598591D01*
X180453177Y-39611642D01*
X180295856Y-39705238D01*
X180136881Y-39844655D01*
X180079680Y-39917214D01*
X180012898Y-40001928D01*
X180005976Y-40010708D01*
X179907523Y-40197836D01*
X179906676Y-40200563D01*
X179906675Y-40200566D01*
X179876380Y-40298134D01*
X179844820Y-40399773D01*
X179844484Y-40402613D01*
X179821214Y-40599222D01*
X179819967Y-40609754D01*
X171967650Y-40609754D01*
X171966353Y-40595635D01*
X171951343Y-40432295D01*
X171951081Y-40429440D01*
X171921208Y-40323515D01*
X171894466Y-40228696D01*
X171894465Y-40228694D01*
X171893686Y-40225931D01*
X171800165Y-40036290D01*
X171691169Y-39890326D01*
X171675368Y-39869166D01*
X171675366Y-39869164D01*
X171673651Y-39866867D01*
X171518381Y-39723337D01*
X171339554Y-39610505D01*
X171143160Y-39532152D01*
X171140354Y-39531594D01*
X171140351Y-39531593D01*
X170938581Y-39491459D01*
X170938579Y-39491459D01*
X170935775Y-39490901D01*
X170836145Y-39489597D01*
X170727208Y-39488170D01*
X170727203Y-39488170D01*
X170724346Y-39488133D01*
X170721525Y-39488618D01*
X170721521Y-39488618D01*
X170599580Y-39509571D01*
X170515953Y-39523941D01*
X170513265Y-39524933D01*
X170513260Y-39524934D01*
X170320263Y-39596135D01*
X170320260Y-39596136D01*
X170317575Y-39597127D01*
X170315115Y-39598590D01*
X170315114Y-39598591D01*
X170293177Y-39611642D01*
X170135856Y-39705238D01*
X169976881Y-39844655D01*
X169919680Y-39917214D01*
X169852898Y-40001928D01*
X169845976Y-40010708D01*
X169747523Y-40197836D01*
X169746676Y-40200563D01*
X169746675Y-40200566D01*
X169716380Y-40298134D01*
X169684820Y-40399773D01*
X169684484Y-40402613D01*
X169661214Y-40599222D01*
X169659967Y-40609754D01*
X102050738Y-40609754D01*
X102050005Y-39114154D01*
X154633767Y-39114154D01*
X154636840Y-39161043D01*
X154644656Y-39280286D01*
X154647596Y-39325149D01*
X154648302Y-39327929D01*
X154698336Y-39524934D01*
X154699645Y-39530090D01*
X154788169Y-39722114D01*
X154789820Y-39724449D01*
X154789821Y-39724452D01*
X154840628Y-39796342D01*
X154910205Y-39894791D01*
X154912257Y-39896790D01*
X154933223Y-39917214D01*
X155061665Y-40042337D01*
X155237477Y-40159811D01*
X155431753Y-40243278D01*
X155534870Y-40266611D01*
X155635196Y-40289313D01*
X155635199Y-40289313D01*
X155637986Y-40289944D01*
X155731711Y-40293627D01*
X155846410Y-40298134D01*
X155846414Y-40298134D01*
X155849270Y-40298246D01*
X156058530Y-40267904D01*
X156258755Y-40199937D01*
X156443242Y-40096619D01*
X156495944Y-40052788D01*
X156603614Y-39963240D01*
X156605812Y-39961412D01*
X156672577Y-39881135D01*
X156739188Y-39801044D01*
X156739190Y-39801041D01*
X156741019Y-39798842D01*
X156844337Y-39614355D01*
X156912304Y-39414130D01*
X156942646Y-39204870D01*
X156944229Y-39144400D01*
X156940203Y-39100579D01*
X156937591Y-39072154D01*
X164793767Y-39072154D01*
X164807596Y-39283149D01*
X164808302Y-39285929D01*
X164830195Y-39372130D01*
X164859645Y-39488090D01*
X164948169Y-39680114D01*
X164949820Y-39682449D01*
X164949821Y-39682452D01*
X164978716Y-39723337D01*
X165070205Y-39852791D01*
X165221665Y-40000337D01*
X165397477Y-40117811D01*
X165591753Y-40201278D01*
X165689314Y-40223354D01*
X165795196Y-40247313D01*
X165795199Y-40247313D01*
X165797986Y-40247944D01*
X165891711Y-40251627D01*
X166006410Y-40256134D01*
X166006414Y-40256134D01*
X166009270Y-40256246D01*
X166218530Y-40225904D01*
X166409903Y-40160942D01*
X166416042Y-40158858D01*
X166416043Y-40158858D01*
X166418755Y-40157937D01*
X166603242Y-40054619D01*
X166622186Y-40038864D01*
X166763614Y-39921240D01*
X166765812Y-39919412D01*
X166823165Y-39850452D01*
X166899188Y-39759044D01*
X166899190Y-39759041D01*
X166901019Y-39756842D01*
X167004337Y-39572355D01*
X167072304Y-39372130D01*
X167073929Y-39360924D01*
X182915628Y-39360924D01*
X182917347Y-39366767D01*
X182923274Y-39370000D01*
X183985569Y-39370000D01*
X183994359Y-39366359D01*
X183998000Y-39357569D01*
X184506000Y-39357569D01*
X184509641Y-39366359D01*
X184518431Y-39370000D01*
X185576028Y-39370000D01*
X185584818Y-39366359D01*
X185586515Y-39362261D01*
X185542580Y-39187350D01*
X185540932Y-39182510D01*
X185453937Y-38982435D01*
X185451514Y-38977917D01*
X185333013Y-38794741D01*
X185329889Y-38790684D01*
X185183057Y-38629318D01*
X185179314Y-38625827D01*
X185008091Y-38490605D01*
X185003834Y-38487777D01*
X184812831Y-38382337D01*
X184808166Y-38380240D01*
X184602503Y-38307411D01*
X184597555Y-38306103D01*
X184518239Y-38291975D01*
X184508947Y-38294018D01*
X184506000Y-38298626D01*
X184506000Y-39357569D01*
X183998000Y-39357569D01*
X183998000Y-38301418D01*
X183994359Y-38292628D01*
X183988922Y-38290376D01*
X183938745Y-38298055D01*
X183933766Y-38299241D01*
X183726394Y-38367020D01*
X183721669Y-38369006D01*
X183528153Y-38469744D01*
X183523819Y-38472474D01*
X183349348Y-38603471D01*
X183345527Y-38606863D01*
X183194793Y-38764598D01*
X183191572Y-38768575D01*
X183068629Y-38948802D01*
X183066096Y-38953261D01*
X182974240Y-39151149D01*
X182972473Y-39155950D01*
X182915628Y-39360924D01*
X167073929Y-39360924D01*
X167102646Y-39162870D01*
X167104229Y-39102400D01*
X167084881Y-38891840D01*
X167057497Y-38794741D01*
X167028266Y-38691096D01*
X167028265Y-38691094D01*
X167027486Y-38688331D01*
X166933965Y-38498690D01*
X166837361Y-38369321D01*
X166809168Y-38331566D01*
X166809166Y-38331564D01*
X166807451Y-38329267D01*
X166773734Y-38298099D01*
X170092260Y-38298099D01*
X170094364Y-38303178D01*
X170156270Y-38346525D01*
X170160973Y-38349240D01*
X170363456Y-38443660D01*
X170368566Y-38445520D01*
X170584365Y-38503343D01*
X170589719Y-38504287D01*
X170812280Y-38523758D01*
X170817720Y-38523758D01*
X171040281Y-38504287D01*
X171045635Y-38503343D01*
X171261434Y-38445520D01*
X171266544Y-38443660D01*
X171469027Y-38349240D01*
X171473730Y-38346525D01*
X171532706Y-38305229D01*
X171537818Y-38297205D01*
X171536629Y-38291839D01*
X170823790Y-37579000D01*
X170815000Y-37575359D01*
X170806210Y-37579000D01*
X170095901Y-38289309D01*
X170092260Y-38298099D01*
X166773734Y-38298099D01*
X166652181Y-38185737D01*
X166473354Y-38072905D01*
X166276960Y-37994552D01*
X166274154Y-37993994D01*
X166274151Y-37993993D01*
X166072381Y-37953859D01*
X166072379Y-37953859D01*
X166069575Y-37953301D01*
X165969945Y-37951997D01*
X165861008Y-37950570D01*
X165861003Y-37950570D01*
X165858146Y-37950533D01*
X165855325Y-37951018D01*
X165855321Y-37951018D01*
X165733380Y-37971971D01*
X165649753Y-37986341D01*
X165647065Y-37987333D01*
X165647060Y-37987334D01*
X165454063Y-38058535D01*
X165454060Y-38058536D01*
X165451375Y-38059527D01*
X165448915Y-38060990D01*
X165448914Y-38060991D01*
X165426320Y-38074433D01*
X165269656Y-38167638D01*
X165201126Y-38227737D01*
X165120944Y-38298055D01*
X165110681Y-38307055D01*
X165063409Y-38367020D01*
X165001525Y-38445520D01*
X164979776Y-38473108D01*
X164881323Y-38660236D01*
X164880476Y-38662963D01*
X164880475Y-38662966D01*
X164867434Y-38704966D01*
X164818620Y-38862173D01*
X164793767Y-39072154D01*
X156937591Y-39072154D01*
X156928931Y-38977917D01*
X156924881Y-38933840D01*
X156885652Y-38794741D01*
X156868266Y-38733096D01*
X156868265Y-38733094D01*
X156867486Y-38730331D01*
X156773965Y-38540690D01*
X156701509Y-38443660D01*
X156649168Y-38373566D01*
X156649166Y-38373564D01*
X156647451Y-38371267D01*
X156492181Y-38227737D01*
X156313354Y-38114905D01*
X156178217Y-38060991D01*
X156119617Y-38037612D01*
X156116960Y-38036552D01*
X156114154Y-38035994D01*
X156114151Y-38035993D01*
X155912381Y-37995859D01*
X155912379Y-37995859D01*
X155909575Y-37995301D01*
X155809666Y-37993993D01*
X155701008Y-37992570D01*
X155701003Y-37992570D01*
X155698146Y-37992533D01*
X155695325Y-37993018D01*
X155695321Y-37993018D01*
X155573380Y-38013971D01*
X155489753Y-38028341D01*
X155487065Y-38029333D01*
X155487060Y-38029334D01*
X155294063Y-38100535D01*
X155294060Y-38100536D01*
X155291375Y-38101527D01*
X155288915Y-38102990D01*
X155288914Y-38102991D01*
X155266320Y-38116433D01*
X155109656Y-38209638D01*
X155015768Y-38291975D01*
X154966805Y-38334915D01*
X154950681Y-38349055D01*
X154936519Y-38367020D01*
X154828307Y-38504287D01*
X154819776Y-38515108D01*
X154721323Y-38702236D01*
X154720476Y-38704963D01*
X154720475Y-38704966D01*
X154701959Y-38764598D01*
X154658620Y-38904173D01*
X154633767Y-39114154D01*
X102050005Y-39114154D01*
X102049074Y-37213720D01*
X169502242Y-37213720D01*
X169521713Y-37436281D01*
X169522657Y-37441635D01*
X169580480Y-37657434D01*
X169582340Y-37662544D01*
X169676760Y-37865027D01*
X169679475Y-37869730D01*
X169720771Y-37928706D01*
X169728795Y-37933818D01*
X169734161Y-37932629D01*
X170447000Y-37219790D01*
X170450641Y-37211000D01*
X171179359Y-37211000D01*
X171183000Y-37219790D01*
X171893309Y-37930099D01*
X171902099Y-37933740D01*
X171907178Y-37931636D01*
X171950525Y-37869730D01*
X171953240Y-37865027D01*
X172047660Y-37662544D01*
X172049520Y-37657434D01*
X172107343Y-37441635D01*
X172108287Y-37436281D01*
X172127758Y-37213720D01*
X172127758Y-37208280D01*
X172125350Y-37180754D01*
X179819967Y-37180754D01*
X179833796Y-37391749D01*
X179834502Y-37394529D01*
X179880428Y-37575359D01*
X179885845Y-37596690D01*
X179974369Y-37788714D01*
X180096405Y-37961391D01*
X180247865Y-38108937D01*
X180423677Y-38226411D01*
X180617953Y-38309878D01*
X180695040Y-38327321D01*
X180821396Y-38355913D01*
X180821399Y-38355913D01*
X180824186Y-38356544D01*
X180917911Y-38360227D01*
X181032610Y-38364734D01*
X181032614Y-38364734D01*
X181035470Y-38364846D01*
X181244730Y-38334504D01*
X181444955Y-38266537D01*
X181629442Y-38163219D01*
X181685697Y-38116433D01*
X181789814Y-38029840D01*
X181792012Y-38028012D01*
X181871341Y-37932629D01*
X181925388Y-37867644D01*
X181925390Y-37867641D01*
X181927219Y-37865442D01*
X182030537Y-37680955D01*
X182098504Y-37480730D01*
X182128846Y-37271470D01*
X182129047Y-37263814D01*
X182130381Y-37212827D01*
X182130429Y-37211000D01*
X182129622Y-37202210D01*
X182111343Y-37003295D01*
X182111081Y-37000440D01*
X182106930Y-36985719D01*
X182054466Y-36799696D01*
X182054465Y-36799694D01*
X182053686Y-36796931D01*
X181960165Y-36607290D01*
X181843329Y-36450827D01*
X181835368Y-36440166D01*
X181835366Y-36440164D01*
X181833651Y-36437867D01*
X181812975Y-36418754D01*
X183121967Y-36418754D01*
X183127793Y-36507643D01*
X183134493Y-36609864D01*
X183135796Y-36629749D01*
X183136502Y-36632529D01*
X183178958Y-36799696D01*
X183187845Y-36834690D01*
X183276369Y-37026714D01*
X183398405Y-37199391D01*
X183549865Y-37346937D01*
X183725677Y-37464411D01*
X183919953Y-37547878D01*
X184023069Y-37571211D01*
X184123396Y-37593913D01*
X184123399Y-37593913D01*
X184126186Y-37594544D01*
X184219911Y-37598227D01*
X184334610Y-37602734D01*
X184334614Y-37602734D01*
X184337470Y-37602846D01*
X184546730Y-37572504D01*
X184746955Y-37504537D01*
X184931442Y-37401219D01*
X185094012Y-37266012D01*
X185132454Y-37219790D01*
X185227388Y-37105644D01*
X185227390Y-37105641D01*
X185229219Y-37103442D01*
X185332537Y-36918955D01*
X185400504Y-36718730D01*
X185430846Y-36509470D01*
X185431270Y-36493294D01*
X185432381Y-36450827D01*
X185432429Y-36449000D01*
X185431618Y-36440166D01*
X185418217Y-36294337D01*
X185413081Y-36238440D01*
X185382544Y-36130161D01*
X185356466Y-36037696D01*
X185356465Y-36037694D01*
X185355686Y-36034931D01*
X185262165Y-35845290D01*
X185198908Y-35760578D01*
X185137368Y-35678166D01*
X185137366Y-35678164D01*
X185135651Y-35675867D01*
X184980381Y-35532337D01*
X184801554Y-35419505D01*
X184605160Y-35341152D01*
X184602354Y-35340594D01*
X184602351Y-35340593D01*
X184400581Y-35300459D01*
X184400579Y-35300459D01*
X184397775Y-35299901D01*
X184298145Y-35298597D01*
X184189208Y-35297170D01*
X184189203Y-35297170D01*
X184186346Y-35297133D01*
X184183525Y-35297618D01*
X184183521Y-35297618D01*
X184061580Y-35318571D01*
X183977953Y-35332941D01*
X183975265Y-35333933D01*
X183975260Y-35333934D01*
X183782263Y-35405135D01*
X183782260Y-35405136D01*
X183779575Y-35406127D01*
X183777115Y-35407590D01*
X183777114Y-35407591D01*
X183754520Y-35421033D01*
X183597856Y-35514238D01*
X183438881Y-35653655D01*
X183307976Y-35819708D01*
X183266657Y-35898242D01*
X183224516Y-35978340D01*
X183209523Y-36006836D01*
X183208676Y-36009563D01*
X183208675Y-36009566D01*
X183182166Y-36094941D01*
X183146820Y-36208773D01*
X183121967Y-36418754D01*
X181812975Y-36418754D01*
X181678381Y-36294337D01*
X181499554Y-36181505D01*
X181303160Y-36103152D01*
X181300354Y-36102594D01*
X181300351Y-36102593D01*
X181098581Y-36062459D01*
X181098579Y-36062459D01*
X181095775Y-36061901D01*
X180996145Y-36060597D01*
X180887208Y-36059170D01*
X180887203Y-36059170D01*
X180884346Y-36059133D01*
X180881525Y-36059618D01*
X180881521Y-36059618D01*
X180759580Y-36080571D01*
X180675953Y-36094941D01*
X180673265Y-36095933D01*
X180673260Y-36095934D01*
X180480263Y-36167135D01*
X180480260Y-36167136D01*
X180477575Y-36168127D01*
X180475115Y-36169590D01*
X180475114Y-36169591D01*
X180452520Y-36183033D01*
X180295856Y-36276238D01*
X180136881Y-36415655D01*
X180005976Y-36581708D01*
X179979238Y-36632529D01*
X179909770Y-36764566D01*
X179907523Y-36768836D01*
X179906676Y-36771563D01*
X179906675Y-36771566D01*
X179883364Y-36846641D01*
X179844820Y-36970773D01*
X179819967Y-37180754D01*
X172125350Y-37180754D01*
X172108287Y-36985719D01*
X172107343Y-36980365D01*
X172049520Y-36764566D01*
X172047660Y-36759456D01*
X171953240Y-36556973D01*
X171950525Y-36552270D01*
X171909229Y-36493294D01*
X171901205Y-36488182D01*
X171895839Y-36489371D01*
X171183000Y-37202210D01*
X171179359Y-37211000D01*
X170450641Y-37211000D01*
X170447000Y-37202210D01*
X169736691Y-36491901D01*
X169727901Y-36488260D01*
X169722822Y-36490364D01*
X169679475Y-36552270D01*
X169676760Y-36556973D01*
X169582340Y-36759456D01*
X169580480Y-36764566D01*
X169522657Y-36980365D01*
X169521713Y-36985719D01*
X169502242Y-37208280D01*
X169502242Y-37213720D01*
X102049074Y-37213720D01*
X102048541Y-36124795D01*
X170092182Y-36124795D01*
X170093371Y-36130161D01*
X170806210Y-36843000D01*
X170815000Y-36846641D01*
X170823790Y-36843000D01*
X171534099Y-36132691D01*
X171537740Y-36123901D01*
X171535636Y-36118822D01*
X171473730Y-36075475D01*
X171469027Y-36072760D01*
X171266544Y-35978340D01*
X171261434Y-35976480D01*
X171045635Y-35918657D01*
X171040281Y-35917713D01*
X170817720Y-35898242D01*
X170812280Y-35898242D01*
X170589719Y-35917713D01*
X170584365Y-35918657D01*
X170368566Y-35976480D01*
X170363456Y-35978340D01*
X170160973Y-36072760D01*
X170156270Y-36075475D01*
X170097294Y-36116771D01*
X170092182Y-36124795D01*
X102048541Y-36124795D01*
X102047249Y-33487754D01*
X169776967Y-33487754D01*
X169779069Y-33519827D01*
X169786116Y-33627337D01*
X169790796Y-33698749D01*
X169791502Y-33701529D01*
X169813395Y-33787730D01*
X169842845Y-33903690D01*
X169931369Y-34095714D01*
X169933020Y-34098049D01*
X169933021Y-34098052D01*
X169937625Y-34104566D01*
X170053405Y-34268391D01*
X170204865Y-34415937D01*
X170380677Y-34533411D01*
X170574953Y-34616878D01*
X170678070Y-34640211D01*
X170778396Y-34662913D01*
X170778399Y-34662913D01*
X170781186Y-34663544D01*
X170874911Y-34667227D01*
X170989610Y-34671734D01*
X170989614Y-34671734D01*
X170992470Y-34671846D01*
X171201730Y-34641504D01*
X171401955Y-34573537D01*
X171586442Y-34470219D01*
X171642162Y-34423878D01*
X171729526Y-34351218D01*
X177401500Y-34351218D01*
X177411642Y-34420112D01*
X177463068Y-34524855D01*
X177466720Y-34528501D01*
X177466721Y-34528502D01*
X177541995Y-34603645D01*
X177541997Y-34603647D01*
X177545650Y-34607293D01*
X177550290Y-34609561D01*
X177645738Y-34656217D01*
X177650482Y-34658536D01*
X177655285Y-34659237D01*
X177655286Y-34659237D01*
X177675248Y-34662149D01*
X177718782Y-34668500D01*
X179385218Y-34668500D01*
X179387465Y-34668169D01*
X179387468Y-34668169D01*
X179418123Y-34663656D01*
X179454112Y-34658358D01*
X179558855Y-34606932D01*
X179563137Y-34602643D01*
X179637645Y-34528005D01*
X179637647Y-34528003D01*
X179641293Y-34524350D01*
X179646472Y-34513754D01*
X180073967Y-34513754D01*
X180076069Y-34545827D01*
X180084329Y-34671846D01*
X180087796Y-34724749D01*
X180088502Y-34727529D01*
X180110395Y-34813730D01*
X180139845Y-34929690D01*
X180228369Y-35121714D01*
X180350405Y-35294391D01*
X180501865Y-35441937D01*
X180677677Y-35559411D01*
X180871953Y-35642878D01*
X180975069Y-35666211D01*
X181075396Y-35688913D01*
X181075399Y-35688913D01*
X181078186Y-35689544D01*
X181171911Y-35693227D01*
X181286610Y-35697734D01*
X181286614Y-35697734D01*
X181289470Y-35697846D01*
X181498730Y-35667504D01*
X181698955Y-35599537D01*
X181883442Y-35496219D01*
X181990007Y-35407591D01*
X182043814Y-35362840D01*
X182046012Y-35361012D01*
X182098736Y-35297618D01*
X182179388Y-35200644D01*
X182179390Y-35200641D01*
X182181219Y-35198442D01*
X182284537Y-35013955D01*
X182352504Y-34813730D01*
X182382846Y-34604470D01*
X182384429Y-34544000D01*
X182382960Y-34528005D01*
X182373045Y-34420112D01*
X182365081Y-34333440D01*
X182346736Y-34268391D01*
X182308466Y-34132696D01*
X182308465Y-34132694D01*
X182307686Y-34129931D01*
X182214165Y-33940290D01*
X182087651Y-33770867D01*
X181932381Y-33627337D01*
X181753554Y-33514505D01*
X181557160Y-33436152D01*
X181554354Y-33435594D01*
X181554351Y-33435593D01*
X181352581Y-33395459D01*
X181352579Y-33395459D01*
X181349775Y-33394901D01*
X181250145Y-33393597D01*
X181141208Y-33392170D01*
X181141203Y-33392170D01*
X181138346Y-33392133D01*
X181135525Y-33392618D01*
X181135521Y-33392618D01*
X181013580Y-33413571D01*
X180929953Y-33427941D01*
X180927265Y-33428933D01*
X180927260Y-33428934D01*
X180734263Y-33500135D01*
X180734260Y-33500136D01*
X180731575Y-33501127D01*
X180729115Y-33502590D01*
X180729114Y-33502591D01*
X180706520Y-33516033D01*
X180549856Y-33609238D01*
X180390881Y-33748655D01*
X180259976Y-33914708D01*
X180161523Y-34101836D01*
X180160676Y-34104563D01*
X180160675Y-34104566D01*
X180110533Y-34266052D01*
X180098820Y-34303773D01*
X180073967Y-34513754D01*
X179646472Y-34513754D01*
X179656458Y-34493325D01*
X179690405Y-34423878D01*
X179690405Y-34423877D01*
X179692536Y-34419518D01*
X179702500Y-34351218D01*
X179702500Y-32684782D01*
X179692358Y-32615888D01*
X179640932Y-32511145D01*
X179621793Y-32492039D01*
X179562005Y-32432355D01*
X179562003Y-32432353D01*
X179558350Y-32428707D01*
X179503593Y-32401941D01*
X179457878Y-32379595D01*
X179457877Y-32379595D01*
X179453518Y-32377464D01*
X179448715Y-32376763D01*
X179448714Y-32376763D01*
X179428752Y-32373851D01*
X179385218Y-32367500D01*
X177718782Y-32367500D01*
X177716535Y-32367831D01*
X177716532Y-32367831D01*
X177692338Y-32371393D01*
X177649888Y-32377642D01*
X177545145Y-32429068D01*
X177541499Y-32432720D01*
X177541498Y-32432721D01*
X177466355Y-32507995D01*
X177466353Y-32507997D01*
X177462707Y-32511650D01*
X177453032Y-32531442D01*
X177413886Y-32611528D01*
X177411464Y-32616482D01*
X177410763Y-32621285D01*
X177410763Y-32621286D01*
X177409581Y-32629390D01*
X177401500Y-32684782D01*
X177401500Y-34351218D01*
X171729526Y-34351218D01*
X171746814Y-34336840D01*
X171749012Y-34335012D01*
X171884219Y-34172442D01*
X171987537Y-33987955D01*
X172055504Y-33787730D01*
X172085846Y-33578470D01*
X172087429Y-33518000D01*
X172087249Y-33516033D01*
X172068343Y-33310295D01*
X172068081Y-33307440D01*
X172010686Y-33103931D01*
X171917165Y-32914290D01*
X171852272Y-32827388D01*
X171792368Y-32747166D01*
X171792366Y-32747164D01*
X171790651Y-32744867D01*
X171635381Y-32601337D01*
X171456554Y-32488505D01*
X171315812Y-32432355D01*
X171262817Y-32411212D01*
X171260160Y-32410152D01*
X171257354Y-32409594D01*
X171257351Y-32409593D01*
X171055581Y-32369459D01*
X171055579Y-32369459D01*
X171052775Y-32368901D01*
X170953145Y-32367597D01*
X170844208Y-32366170D01*
X170844203Y-32366170D01*
X170841346Y-32366133D01*
X170838525Y-32366618D01*
X170838521Y-32366618D01*
X170716580Y-32387571D01*
X170632953Y-32401941D01*
X170630265Y-32402933D01*
X170630260Y-32402934D01*
X170437263Y-32474135D01*
X170437260Y-32474136D01*
X170434575Y-32475127D01*
X170432115Y-32476590D01*
X170432114Y-32476591D01*
X170409520Y-32490033D01*
X170252856Y-32583238D01*
X170205176Y-32625052D01*
X170129049Y-32691814D01*
X170093881Y-32722655D01*
X169962976Y-32888708D01*
X169864523Y-33075836D01*
X169863676Y-33078563D01*
X169863675Y-33078566D01*
X169803318Y-33272947D01*
X169801820Y-33277773D01*
X169801484Y-33280613D01*
X169783075Y-33436152D01*
X169776967Y-33487754D01*
X102047249Y-33487754D01*
X102046147Y-31237000D01*
X143270723Y-31237000D01*
X143270961Y-31239720D01*
X143289179Y-31447955D01*
X143289793Y-31454977D01*
X143290498Y-31457610D01*
X143290499Y-31457613D01*
X143337935Y-31634644D01*
X143346425Y-31666330D01*
X143347577Y-31668801D01*
X143347578Y-31668803D01*
X143430559Y-31846754D01*
X143438898Y-31864638D01*
X143564402Y-32043877D01*
X143719123Y-32198598D01*
X143898361Y-32324102D01*
X144096670Y-32416575D01*
X144099303Y-32417280D01*
X144099307Y-32417282D01*
X144305387Y-32472501D01*
X144305390Y-32472502D01*
X144308023Y-32473207D01*
X144310739Y-32473445D01*
X144310741Y-32473445D01*
X144523280Y-32492039D01*
X144526000Y-32492277D01*
X144528720Y-32492039D01*
X144741259Y-32473445D01*
X144741261Y-32473445D01*
X144743977Y-32473207D01*
X144746610Y-32472502D01*
X144746613Y-32472501D01*
X144952693Y-32417282D01*
X144952697Y-32417280D01*
X144955330Y-32416575D01*
X145153639Y-32324102D01*
X145332877Y-32198598D01*
X145487598Y-32043877D01*
X145613102Y-31864638D01*
X145621442Y-31846754D01*
X146926967Y-31846754D01*
X146928984Y-31877528D01*
X146939887Y-32043877D01*
X146940796Y-32057749D01*
X146941502Y-32060529D01*
X146976568Y-32198598D01*
X146992845Y-32262690D01*
X147081369Y-32454714D01*
X147083020Y-32457049D01*
X147083021Y-32457052D01*
X147133828Y-32528942D01*
X147203405Y-32627391D01*
X147354865Y-32774937D01*
X147530677Y-32892411D01*
X147724953Y-32975878D01*
X147828070Y-32999211D01*
X147928396Y-33021913D01*
X147928399Y-33021913D01*
X147931186Y-33022544D01*
X148024911Y-33026227D01*
X148139610Y-33030734D01*
X148139614Y-33030734D01*
X148142470Y-33030846D01*
X148351730Y-33000504D01*
X148551955Y-32932537D01*
X148736442Y-32829219D01*
X148899012Y-32694012D01*
X148967613Y-32611528D01*
X149032388Y-32533644D01*
X149032390Y-32533641D01*
X149034219Y-32531442D01*
X149137537Y-32346955D01*
X149205504Y-32146730D01*
X149235846Y-31937470D01*
X149237429Y-31877000D01*
X149234650Y-31846754D01*
X162166967Y-31846754D01*
X162168984Y-31877528D01*
X162179887Y-32043877D01*
X162180796Y-32057749D01*
X162181502Y-32060529D01*
X162216568Y-32198598D01*
X162232845Y-32262690D01*
X162321369Y-32454714D01*
X162323020Y-32457049D01*
X162323021Y-32457052D01*
X162373828Y-32528942D01*
X162443405Y-32627391D01*
X162594865Y-32774937D01*
X162770677Y-32892411D01*
X162964953Y-32975878D01*
X163068070Y-32999211D01*
X163168396Y-33021913D01*
X163168399Y-33021913D01*
X163171186Y-33022544D01*
X163264911Y-33026227D01*
X163379610Y-33030734D01*
X163379614Y-33030734D01*
X163382470Y-33030846D01*
X163591730Y-33000504D01*
X163791955Y-32932537D01*
X163976442Y-32829219D01*
X164139012Y-32694012D01*
X164207613Y-32611528D01*
X164272388Y-32533644D01*
X164272390Y-32533641D01*
X164274219Y-32531442D01*
X164377537Y-32346955D01*
X164445504Y-32146730D01*
X164475846Y-31937470D01*
X164477429Y-31877000D01*
X164458081Y-31666440D01*
X164426854Y-31555714D01*
X164401466Y-31465696D01*
X164401465Y-31465694D01*
X164400686Y-31462931D01*
X164307165Y-31273290D01*
X164180651Y-31103867D01*
X164025381Y-30960337D01*
X164005438Y-30947754D01*
X169776967Y-30947754D01*
X169779069Y-30979827D01*
X169787350Y-31106166D01*
X169790796Y-31158749D01*
X169791502Y-31161529D01*
X169813395Y-31247730D01*
X169842845Y-31363690D01*
X169931369Y-31555714D01*
X170053405Y-31728391D01*
X170204865Y-31875937D01*
X170380677Y-31993411D01*
X170574953Y-32076878D01*
X170678069Y-32100211D01*
X170778396Y-32122913D01*
X170778399Y-32122913D01*
X170781186Y-32123544D01*
X170874911Y-32127227D01*
X170989610Y-32131734D01*
X170989614Y-32131734D01*
X170992470Y-32131846D01*
X171201730Y-32101504D01*
X171401955Y-32033537D01*
X171586442Y-31930219D01*
X171650432Y-31877000D01*
X171746814Y-31796840D01*
X171749012Y-31795012D01*
X171853978Y-31668803D01*
X171882388Y-31634644D01*
X171882390Y-31634641D01*
X171884219Y-31632442D01*
X171987537Y-31447955D01*
X172055504Y-31247730D01*
X172085846Y-31038470D01*
X172087429Y-30978000D01*
X172085666Y-30958806D01*
X172084650Y-30947754D01*
X177396967Y-30947754D01*
X177399069Y-30979827D01*
X177407350Y-31106166D01*
X177410796Y-31158749D01*
X177411502Y-31161529D01*
X177433395Y-31247730D01*
X177462845Y-31363690D01*
X177551369Y-31555714D01*
X177673405Y-31728391D01*
X177824865Y-31875937D01*
X178000677Y-31993411D01*
X178194953Y-32076878D01*
X178298069Y-32100211D01*
X178398396Y-32122913D01*
X178398399Y-32122913D01*
X178401186Y-32123544D01*
X178494911Y-32127227D01*
X178609610Y-32131734D01*
X178609614Y-32131734D01*
X178612470Y-32131846D01*
X178821730Y-32101504D01*
X179021955Y-32033537D01*
X179206442Y-31930219D01*
X179270432Y-31877000D01*
X179366814Y-31796840D01*
X179369012Y-31795012D01*
X179473978Y-31668803D01*
X179502388Y-31634644D01*
X179502390Y-31634641D01*
X179504219Y-31632442D01*
X179607537Y-31447955D01*
X179675504Y-31247730D01*
X179705846Y-31038470D01*
X179707429Y-30978000D01*
X179705666Y-30958806D01*
X179694209Y-30834127D01*
X179688081Y-30767440D01*
X179677088Y-30728459D01*
X179631466Y-30566696D01*
X179631465Y-30566694D01*
X179630686Y-30563931D01*
X179537165Y-30374290D01*
X179410651Y-30204867D01*
X179255381Y-30061337D01*
X179076554Y-29948505D01*
X178880160Y-29870152D01*
X178877354Y-29869594D01*
X178877351Y-29869593D01*
X178675581Y-29829459D01*
X178675579Y-29829459D01*
X178672775Y-29828901D01*
X178573145Y-29827597D01*
X178464208Y-29826170D01*
X178464203Y-29826170D01*
X178461346Y-29826133D01*
X178458525Y-29826618D01*
X178458521Y-29826618D01*
X178362806Y-29843065D01*
X178252953Y-29861941D01*
X178250265Y-29862933D01*
X178250260Y-29862934D01*
X178057263Y-29934135D01*
X178057260Y-29934136D01*
X178054575Y-29935127D01*
X178052115Y-29936590D01*
X178052114Y-29936591D01*
X178025367Y-29952504D01*
X177872856Y-30043238D01*
X177713881Y-30182655D01*
X177712105Y-30184908D01*
X177640766Y-30275402D01*
X177582976Y-30348708D01*
X177484523Y-30535836D01*
X177483676Y-30538563D01*
X177483675Y-30538566D01*
X177425745Y-30725133D01*
X177421820Y-30737773D01*
X177419078Y-30760941D01*
X177399912Y-30922876D01*
X177396967Y-30947754D01*
X172084650Y-30947754D01*
X172074209Y-30834127D01*
X172068081Y-30767440D01*
X172057088Y-30728459D01*
X172011466Y-30566696D01*
X172011465Y-30566694D01*
X172010686Y-30563931D01*
X171917165Y-30374290D01*
X171790651Y-30204867D01*
X171635381Y-30061337D01*
X171456554Y-29948505D01*
X171260160Y-29870152D01*
X171257354Y-29869594D01*
X171257351Y-29869593D01*
X171055581Y-29829459D01*
X171055579Y-29829459D01*
X171052775Y-29828901D01*
X170953145Y-29827597D01*
X170844208Y-29826170D01*
X170844203Y-29826170D01*
X170841346Y-29826133D01*
X170838525Y-29826618D01*
X170838521Y-29826618D01*
X170742806Y-29843065D01*
X170632953Y-29861941D01*
X170630265Y-29862933D01*
X170630260Y-29862934D01*
X170437263Y-29934135D01*
X170437260Y-29934136D01*
X170434575Y-29935127D01*
X170432115Y-29936590D01*
X170432114Y-29936591D01*
X170405367Y-29952504D01*
X170252856Y-30043238D01*
X170093881Y-30182655D01*
X170092105Y-30184908D01*
X170020766Y-30275402D01*
X169962976Y-30348708D01*
X169864523Y-30535836D01*
X169863676Y-30538563D01*
X169863675Y-30538566D01*
X169805745Y-30725133D01*
X169801820Y-30737773D01*
X169799078Y-30760941D01*
X169779912Y-30922876D01*
X169776967Y-30947754D01*
X164005438Y-30947754D01*
X163846554Y-30847505D01*
X163650160Y-30769152D01*
X163647354Y-30768594D01*
X163647351Y-30768593D01*
X163445581Y-30728459D01*
X163445579Y-30728459D01*
X163442775Y-30727901D01*
X163343145Y-30726597D01*
X163234208Y-30725170D01*
X163234203Y-30725170D01*
X163231346Y-30725133D01*
X163228525Y-30725618D01*
X163228521Y-30725618D01*
X163106580Y-30746571D01*
X163022953Y-30760941D01*
X163020265Y-30761933D01*
X163020260Y-30761934D01*
X162827263Y-30833135D01*
X162827260Y-30833136D01*
X162824575Y-30834127D01*
X162822115Y-30835590D01*
X162822114Y-30835591D01*
X162799520Y-30849033D01*
X162642856Y-30942238D01*
X162483881Y-31081655D01*
X162352976Y-31247708D01*
X162254523Y-31434836D01*
X162253676Y-31437563D01*
X162253675Y-31437566D01*
X162217797Y-31553113D01*
X162191820Y-31636773D01*
X162166967Y-31846754D01*
X149234650Y-31846754D01*
X149218081Y-31666440D01*
X149186854Y-31555714D01*
X149161466Y-31465696D01*
X149161465Y-31465694D01*
X149160686Y-31462931D01*
X149067165Y-31273290D01*
X148940651Y-31103867D01*
X148785381Y-30960337D01*
X148606554Y-30847505D01*
X148410160Y-30769152D01*
X148407354Y-30768594D01*
X148407351Y-30768593D01*
X148205581Y-30728459D01*
X148205579Y-30728459D01*
X148202775Y-30727901D01*
X148103145Y-30726597D01*
X147994208Y-30725170D01*
X147994203Y-30725170D01*
X147991346Y-30725133D01*
X147988525Y-30725618D01*
X147988521Y-30725618D01*
X147866580Y-30746571D01*
X147782953Y-30760941D01*
X147780265Y-30761933D01*
X147780260Y-30761934D01*
X147587263Y-30833135D01*
X147587260Y-30833136D01*
X147584575Y-30834127D01*
X147582115Y-30835590D01*
X147582114Y-30835591D01*
X147559520Y-30849033D01*
X147402856Y-30942238D01*
X147243881Y-31081655D01*
X147112976Y-31247708D01*
X147014523Y-31434836D01*
X147013676Y-31437563D01*
X147013675Y-31437566D01*
X146977797Y-31553113D01*
X146951820Y-31636773D01*
X146926967Y-31846754D01*
X145621442Y-31846754D01*
X145704422Y-31668803D01*
X145704423Y-31668801D01*
X145705575Y-31666330D01*
X145714066Y-31634644D01*
X145761501Y-31457613D01*
X145761502Y-31457610D01*
X145762207Y-31454977D01*
X145762822Y-31447955D01*
X145781039Y-31239720D01*
X145781277Y-31237000D01*
X145769630Y-31103867D01*
X145762445Y-31021741D01*
X145762445Y-31021739D01*
X145762207Y-31019023D01*
X145761501Y-31016387D01*
X145706282Y-30810307D01*
X145706280Y-30810303D01*
X145705575Y-30807670D01*
X145687353Y-30768593D01*
X145614256Y-30611836D01*
X145614254Y-30611833D01*
X145613102Y-30609362D01*
X145487598Y-30430123D01*
X145332877Y-30275402D01*
X145153639Y-30149898D01*
X144975100Y-30066644D01*
X144942783Y-30031376D01*
X144944870Y-29983586D01*
X144980138Y-29951269D01*
X145001514Y-29947500D01*
X145459218Y-29947500D01*
X145461465Y-29947169D01*
X145461468Y-29947169D01*
X145485662Y-29943607D01*
X145528112Y-29937358D01*
X145632855Y-29885932D01*
X145636502Y-29882279D01*
X145711645Y-29807005D01*
X145711647Y-29807003D01*
X145715293Y-29803350D01*
X145751867Y-29728528D01*
X145764405Y-29702878D01*
X145764405Y-29702877D01*
X145766536Y-29698518D01*
X145776500Y-29630218D01*
X145776500Y-29535218D01*
X147185500Y-29535218D01*
X147185831Y-29537464D01*
X147185831Y-29537468D01*
X147187369Y-29547912D01*
X147195642Y-29604112D01*
X147247068Y-29708855D01*
X147250720Y-29712501D01*
X147250721Y-29712502D01*
X147325995Y-29787645D01*
X147325997Y-29787647D01*
X147329650Y-29791293D01*
X147334290Y-29793561D01*
X147429785Y-29840240D01*
X147434482Y-29842536D01*
X147439285Y-29843237D01*
X147439286Y-29843237D01*
X147455087Y-29845542D01*
X147502782Y-29852500D01*
X149169218Y-29852500D01*
X149171465Y-29852169D01*
X149171468Y-29852169D01*
X149195662Y-29848607D01*
X149238112Y-29842358D01*
X149342855Y-29790932D01*
X149354379Y-29779388D01*
X149421645Y-29712005D01*
X149421647Y-29712003D01*
X149425293Y-29708350D01*
X149454871Y-29647840D01*
X149474405Y-29607878D01*
X149474405Y-29607877D01*
X149476536Y-29603518D01*
X149486500Y-29535218D01*
X149486500Y-28963548D01*
X154671941Y-28963548D01*
X154721480Y-29148434D01*
X154723340Y-29153544D01*
X154817760Y-29356027D01*
X154820475Y-29360730D01*
X154948620Y-29543740D01*
X154952121Y-29547912D01*
X155110088Y-29705879D01*
X155114260Y-29709380D01*
X155297270Y-29837525D01*
X155301973Y-29840240D01*
X155504456Y-29934660D01*
X155509566Y-29936520D01*
X155689992Y-29984865D01*
X155699425Y-29983623D01*
X155702000Y-29980267D01*
X155702000Y-29975651D01*
X156210000Y-29975651D01*
X156213641Y-29984441D01*
X156217548Y-29986059D01*
X156402434Y-29936520D01*
X156407544Y-29934660D01*
X156610027Y-29840240D01*
X156614730Y-29837525D01*
X156797740Y-29709380D01*
X156801912Y-29705879D01*
X156959879Y-29547912D01*
X156963380Y-29543740D01*
X157091525Y-29360730D01*
X157094240Y-29356027D01*
X157103112Y-29337000D01*
X165399551Y-29337000D01*
X165419317Y-29588148D01*
X165428873Y-29627951D01*
X165476461Y-29826170D01*
X165478127Y-29833111D01*
X165479066Y-29835378D01*
X165479067Y-29835381D01*
X165500948Y-29888207D01*
X165574534Y-30065859D01*
X165575816Y-30067951D01*
X165704128Y-30277336D01*
X165706164Y-30280659D01*
X165869776Y-30472224D01*
X165871640Y-30473816D01*
X166033241Y-30611836D01*
X166061341Y-30635836D01*
X166063434Y-30637119D01*
X166063436Y-30637120D01*
X166223230Y-30735042D01*
X166276141Y-30767466D01*
X166379569Y-30810307D01*
X166506619Y-30862933D01*
X166506622Y-30862934D01*
X166508889Y-30863873D01*
X166511280Y-30864447D01*
X166511283Y-30864448D01*
X166631371Y-30893278D01*
X166753852Y-30922683D01*
X166810788Y-30927164D01*
X166940879Y-30937403D01*
X166940892Y-30937404D01*
X166942118Y-30937500D01*
X167067882Y-30937500D01*
X167069108Y-30937404D01*
X167069121Y-30937403D01*
X167199212Y-30927164D01*
X167256148Y-30922683D01*
X167378630Y-30893278D01*
X167498717Y-30864448D01*
X167498720Y-30864447D01*
X167501111Y-30863873D01*
X167503378Y-30862934D01*
X167503381Y-30862933D01*
X167630431Y-30810307D01*
X167733859Y-30767466D01*
X167786770Y-30735042D01*
X167946564Y-30637120D01*
X167946566Y-30637119D01*
X167948659Y-30635836D01*
X167976760Y-30611836D01*
X168138360Y-30473816D01*
X168140224Y-30472224D01*
X168303836Y-30280659D01*
X168305873Y-30277336D01*
X168434184Y-30067951D01*
X168435466Y-30065859D01*
X168509052Y-29888207D01*
X168530933Y-29835381D01*
X168530934Y-29835378D01*
X168531873Y-29833111D01*
X168533540Y-29826170D01*
X168581127Y-29627951D01*
X168590683Y-29588148D01*
X168610449Y-29337000D01*
X168590683Y-29085852D01*
X168531873Y-28840889D01*
X168526949Y-28829000D01*
X168491297Y-28742930D01*
X168435466Y-28608141D01*
X168329973Y-28435992D01*
X168312669Y-28407754D01*
X169776967Y-28407754D01*
X169779069Y-28439827D01*
X169790595Y-28615677D01*
X169790796Y-28618749D01*
X169791502Y-28621529D01*
X169835789Y-28795906D01*
X169842845Y-28823690D01*
X169931369Y-29015714D01*
X169933020Y-29018049D01*
X169933021Y-29018052D01*
X169983828Y-29089942D01*
X170053405Y-29188391D01*
X170204865Y-29335937D01*
X170380677Y-29453411D01*
X170574953Y-29536878D01*
X170678069Y-29560211D01*
X170778396Y-29582913D01*
X170778399Y-29582913D01*
X170781186Y-29583544D01*
X170874911Y-29587227D01*
X170989610Y-29591734D01*
X170989614Y-29591734D01*
X170992470Y-29591846D01*
X171201730Y-29561504D01*
X171401955Y-29493537D01*
X171586442Y-29390219D01*
X171650432Y-29337000D01*
X171746814Y-29256840D01*
X171749012Y-29255012D01*
X171782547Y-29214690D01*
X171882388Y-29094644D01*
X171882390Y-29094641D01*
X171884219Y-29092442D01*
X171987537Y-28907955D01*
X172055504Y-28707730D01*
X172085846Y-28498470D01*
X172087429Y-28438000D01*
X172087245Y-28435992D01*
X172068343Y-28230295D01*
X172068081Y-28227440D01*
X172066827Y-28222991D01*
X172011466Y-28026696D01*
X172011465Y-28026694D01*
X172010686Y-28023931D01*
X171917165Y-27834290D01*
X171844142Y-27736500D01*
X171792368Y-27667166D01*
X171792366Y-27667164D01*
X171790651Y-27664867D01*
X171635381Y-27521337D01*
X171456554Y-27408505D01*
X171260160Y-27330152D01*
X171257354Y-27329594D01*
X171257351Y-27329593D01*
X171055581Y-27289459D01*
X171055579Y-27289459D01*
X171052775Y-27288901D01*
X170953145Y-27287597D01*
X170844208Y-27286170D01*
X170844203Y-27286170D01*
X170841346Y-27286133D01*
X170838525Y-27286618D01*
X170838521Y-27286618D01*
X170736602Y-27304131D01*
X170632953Y-27321941D01*
X170630265Y-27322933D01*
X170630260Y-27322934D01*
X170437263Y-27394135D01*
X170437260Y-27394136D01*
X170434575Y-27395127D01*
X170432115Y-27396590D01*
X170432114Y-27396591D01*
X170409520Y-27410033D01*
X170252856Y-27503238D01*
X170180748Y-27566475D01*
X170127619Y-27613068D01*
X170093881Y-27642655D01*
X169962976Y-27808708D01*
X169864523Y-27995836D01*
X169863676Y-27998563D01*
X169863675Y-27998566D01*
X169849794Y-28043270D01*
X169801820Y-28197773D01*
X169776967Y-28407754D01*
X168312669Y-28407754D01*
X168305120Y-28395436D01*
X168305119Y-28395434D01*
X168303836Y-28393341D01*
X168298281Y-28386836D01*
X168141816Y-28203640D01*
X168140224Y-28201776D01*
X168132340Y-28195042D01*
X167950527Y-28039759D01*
X167950524Y-28039757D01*
X167948659Y-28038164D01*
X167733859Y-27906534D01*
X167503808Y-27811244D01*
X167503381Y-27811067D01*
X167503378Y-27811066D01*
X167501111Y-27810127D01*
X167498720Y-27809553D01*
X167498717Y-27809552D01*
X167317553Y-27766059D01*
X167256148Y-27751317D01*
X167199212Y-27746836D01*
X167069121Y-27736597D01*
X167069108Y-27736596D01*
X167067882Y-27736500D01*
X166942118Y-27736500D01*
X166940892Y-27736596D01*
X166940879Y-27736597D01*
X166810788Y-27746836D01*
X166753852Y-27751317D01*
X166692447Y-27766059D01*
X166511283Y-27809552D01*
X166511280Y-27809553D01*
X166508889Y-27810127D01*
X166506622Y-27811066D01*
X166506619Y-27811067D01*
X166506192Y-27811244D01*
X166276141Y-27906534D01*
X166061341Y-28038164D01*
X166059476Y-28039757D01*
X166059473Y-28039759D01*
X165877660Y-28195042D01*
X165869776Y-28201776D01*
X165868184Y-28203640D01*
X165711720Y-28386836D01*
X165706164Y-28393341D01*
X165704881Y-28395434D01*
X165704880Y-28395436D01*
X165680027Y-28435992D01*
X165574534Y-28608141D01*
X165518703Y-28742930D01*
X165483052Y-28829000D01*
X165478127Y-28840889D01*
X165419317Y-29085852D01*
X165399551Y-29337000D01*
X157103112Y-29337000D01*
X157188660Y-29153544D01*
X157190520Y-29148434D01*
X157238865Y-28968008D01*
X157237623Y-28958575D01*
X157234267Y-28956000D01*
X156222431Y-28956000D01*
X156213641Y-28959641D01*
X156210000Y-28968431D01*
X156210000Y-29975651D01*
X155702000Y-29975651D01*
X155702000Y-28968431D01*
X155698359Y-28959641D01*
X155689569Y-28956000D01*
X154682349Y-28956000D01*
X154673559Y-28959641D01*
X154671941Y-28963548D01*
X149486500Y-28963548D01*
X149486500Y-28435992D01*
X154673135Y-28435992D01*
X154674377Y-28445425D01*
X154677733Y-28448000D01*
X155689569Y-28448000D01*
X155698359Y-28444359D01*
X155702000Y-28435569D01*
X156210000Y-28435569D01*
X156213641Y-28444359D01*
X156222431Y-28448000D01*
X157229651Y-28448000D01*
X157238441Y-28444359D01*
X157240059Y-28440452D01*
X157190520Y-28255566D01*
X157188660Y-28250456D01*
X157094240Y-28047973D01*
X157091525Y-28043270D01*
X156963380Y-27860260D01*
X156959879Y-27856088D01*
X156801912Y-27698121D01*
X156797740Y-27694620D01*
X156614730Y-27566475D01*
X156610027Y-27563760D01*
X156407544Y-27469340D01*
X156402434Y-27467480D01*
X156222008Y-27419135D01*
X156212575Y-27420377D01*
X156210000Y-27423733D01*
X156210000Y-28435569D01*
X155702000Y-28435569D01*
X155702000Y-27428349D01*
X155698359Y-27419559D01*
X155694452Y-27417941D01*
X155509566Y-27467480D01*
X155504456Y-27469340D01*
X155301973Y-27563760D01*
X155297270Y-27566475D01*
X155114260Y-27694620D01*
X155110088Y-27698121D01*
X154952121Y-27856088D01*
X154948620Y-27860260D01*
X154820475Y-28043270D01*
X154817760Y-28047973D01*
X154723340Y-28250456D01*
X154721480Y-28255566D01*
X154673135Y-28435992D01*
X149486500Y-28435992D01*
X149486500Y-27868782D01*
X149485246Y-27860260D01*
X149481084Y-27831991D01*
X149476358Y-27799888D01*
X149424932Y-27695145D01*
X149420307Y-27690528D01*
X149346005Y-27616355D01*
X149346003Y-27616353D01*
X149342350Y-27612707D01*
X149288732Y-27586498D01*
X149241878Y-27563595D01*
X149241877Y-27563595D01*
X149237518Y-27561464D01*
X149232715Y-27560763D01*
X149232714Y-27560763D01*
X149212752Y-27557851D01*
X149169218Y-27551500D01*
X147502782Y-27551500D01*
X147500535Y-27551831D01*
X147500532Y-27551831D01*
X147476338Y-27555393D01*
X147433888Y-27561642D01*
X147329145Y-27613068D01*
X147325499Y-27616720D01*
X147325498Y-27616721D01*
X147250355Y-27691995D01*
X147250353Y-27691997D01*
X147246707Y-27695650D01*
X147244439Y-27700290D01*
X147197886Y-27795528D01*
X147195464Y-27800482D01*
X147194763Y-27805285D01*
X147194763Y-27805286D01*
X147194264Y-27808708D01*
X147185500Y-27868782D01*
X147185500Y-29535218D01*
X145776500Y-29535218D01*
X145776500Y-27763782D01*
X145766358Y-27694888D01*
X145714932Y-27590145D01*
X145688336Y-27563595D01*
X145636005Y-27511355D01*
X145636003Y-27511353D01*
X145632350Y-27507707D01*
X145601325Y-27492542D01*
X145531878Y-27458595D01*
X145531877Y-27458595D01*
X145527518Y-27456464D01*
X145522715Y-27455763D01*
X145522714Y-27455763D01*
X145502752Y-27452851D01*
X145459218Y-27446500D01*
X143592782Y-27446500D01*
X143590535Y-27446831D01*
X143590532Y-27446831D01*
X143566338Y-27450393D01*
X143523888Y-27456642D01*
X143419145Y-27508068D01*
X143415499Y-27511720D01*
X143415498Y-27511721D01*
X143340355Y-27586995D01*
X143340353Y-27586997D01*
X143336707Y-27590650D01*
X143334439Y-27595290D01*
X143287886Y-27690528D01*
X143285464Y-27695482D01*
X143284763Y-27700285D01*
X143284763Y-27700286D01*
X143282988Y-27712455D01*
X143275500Y-27763782D01*
X143275500Y-29630218D01*
X143285642Y-29699112D01*
X143337068Y-29803855D01*
X143340720Y-29807501D01*
X143340721Y-29807502D01*
X143415995Y-29882645D01*
X143415997Y-29882647D01*
X143419650Y-29886293D01*
X143424290Y-29888561D01*
X143519738Y-29935217D01*
X143524482Y-29937536D01*
X143529285Y-29938237D01*
X143529286Y-29938237D01*
X143549248Y-29941149D01*
X143592782Y-29947500D01*
X144050486Y-29947500D01*
X144094680Y-29965806D01*
X144112986Y-30010000D01*
X144094680Y-30054194D01*
X144076900Y-30066644D01*
X143900836Y-30148744D01*
X143900833Y-30148746D01*
X143898362Y-30149898D01*
X143719123Y-30275402D01*
X143564402Y-30430123D01*
X143438898Y-30609362D01*
X143437746Y-30611833D01*
X143437744Y-30611836D01*
X143364647Y-30768593D01*
X143346425Y-30807670D01*
X143345720Y-30810303D01*
X143345718Y-30810307D01*
X143290499Y-31016387D01*
X143289793Y-31019023D01*
X143289555Y-31021739D01*
X143289555Y-31021741D01*
X143282370Y-31103867D01*
X143270723Y-31237000D01*
X102046147Y-31237000D01*
X102043398Y-25623754D01*
X140449967Y-25623754D01*
X140463796Y-25834749D01*
X140464502Y-25837529D01*
X140510428Y-26018359D01*
X140515845Y-26039690D01*
X140604369Y-26231714D01*
X140726405Y-26404391D01*
X140877865Y-26551937D01*
X141053677Y-26669411D01*
X141247953Y-26752878D01*
X141351069Y-26776211D01*
X141451396Y-26798913D01*
X141451399Y-26798913D01*
X141454186Y-26799544D01*
X141547911Y-26803227D01*
X141662610Y-26807734D01*
X141662614Y-26807734D01*
X141665470Y-26807846D01*
X141874730Y-26777504D01*
X141981976Y-26741099D01*
X151042260Y-26741099D01*
X151044364Y-26746178D01*
X151106270Y-26789525D01*
X151110973Y-26792240D01*
X151313456Y-26886660D01*
X151318566Y-26888520D01*
X151534365Y-26946343D01*
X151539719Y-26947287D01*
X151762280Y-26966758D01*
X151767720Y-26966758D01*
X151990281Y-26947287D01*
X151995635Y-26946343D01*
X152211434Y-26888520D01*
X152216544Y-26886660D01*
X152419027Y-26792240D01*
X152423730Y-26789525D01*
X152482706Y-26748229D01*
X152487248Y-26741099D01*
X153201260Y-26741099D01*
X153203364Y-26746178D01*
X153265270Y-26789525D01*
X153269973Y-26792240D01*
X153472456Y-26886660D01*
X153477566Y-26888520D01*
X153693365Y-26946343D01*
X153698719Y-26947287D01*
X153921280Y-26966758D01*
X153926720Y-26966758D01*
X154149281Y-26947287D01*
X154154635Y-26946343D01*
X154370434Y-26888520D01*
X154375544Y-26886660D01*
X154578027Y-26792240D01*
X154582730Y-26789525D01*
X154641706Y-26748229D01*
X154646818Y-26740205D01*
X154645629Y-26734839D01*
X153932790Y-26022000D01*
X153924000Y-26018359D01*
X153915210Y-26022000D01*
X153204901Y-26732309D01*
X153201260Y-26741099D01*
X152487248Y-26741099D01*
X152487818Y-26740205D01*
X152486629Y-26734839D01*
X151773790Y-26022000D01*
X151765000Y-26018359D01*
X151756210Y-26022000D01*
X151045901Y-26732309D01*
X151042260Y-26741099D01*
X141981976Y-26741099D01*
X142074955Y-26709537D01*
X142259442Y-26606219D01*
X142324103Y-26552442D01*
X142419814Y-26472840D01*
X142422012Y-26471012D01*
X142501341Y-26375629D01*
X142555388Y-26310644D01*
X142555390Y-26310641D01*
X142557219Y-26308442D01*
X142660537Y-26123955D01*
X142728504Y-25923730D01*
X142758846Y-25714470D01*
X142760358Y-25656720D01*
X150452242Y-25656720D01*
X150471713Y-25879281D01*
X150472657Y-25884635D01*
X150530480Y-26100434D01*
X150532340Y-26105544D01*
X150626760Y-26308027D01*
X150629475Y-26312730D01*
X150670771Y-26371706D01*
X150678795Y-26376818D01*
X150684161Y-26375629D01*
X151397000Y-25662790D01*
X151400641Y-25654000D01*
X152129359Y-25654000D01*
X152133000Y-25662790D01*
X152835710Y-26365500D01*
X152844500Y-26369141D01*
X152853290Y-26365500D01*
X153556000Y-25662790D01*
X153559641Y-25654000D01*
X154288359Y-25654000D01*
X154292000Y-25662790D01*
X155002309Y-26373099D01*
X155011099Y-26376740D01*
X155016178Y-26374636D01*
X155059525Y-26312730D01*
X155062240Y-26308027D01*
X155156660Y-26105544D01*
X155158520Y-26100434D01*
X155216343Y-25884635D01*
X155217287Y-25879281D01*
X155236758Y-25656720D01*
X155236758Y-25651280D01*
X155234350Y-25623754D01*
X162928967Y-25623754D01*
X162942796Y-25834749D01*
X162943502Y-25837529D01*
X162989428Y-26018359D01*
X162994845Y-26039690D01*
X163083369Y-26231714D01*
X163205405Y-26404391D01*
X163356865Y-26551937D01*
X163532677Y-26669411D01*
X163726953Y-26752878D01*
X163830069Y-26776211D01*
X163930396Y-26798913D01*
X163930399Y-26798913D01*
X163933186Y-26799544D01*
X164026911Y-26803227D01*
X164141610Y-26807734D01*
X164141614Y-26807734D01*
X164144470Y-26807846D01*
X164353730Y-26777504D01*
X164553955Y-26709537D01*
X164738442Y-26606219D01*
X164803103Y-26552442D01*
X164898814Y-26472840D01*
X164901012Y-26471012D01*
X164980341Y-26375629D01*
X165034388Y-26310644D01*
X165034390Y-26310641D01*
X165036219Y-26308442D01*
X165139537Y-26123955D01*
X165207504Y-25923730D01*
X165215620Y-25867754D01*
X169776967Y-25867754D01*
X169779069Y-25899827D01*
X169788407Y-26042295D01*
X169790796Y-26078749D01*
X169791502Y-26081529D01*
X169829645Y-26231714D01*
X169842845Y-26283690D01*
X169931369Y-26475714D01*
X170053405Y-26648391D01*
X170204865Y-26795937D01*
X170380677Y-26913411D01*
X170574953Y-26996878D01*
X170678069Y-27020211D01*
X170778396Y-27042913D01*
X170778399Y-27042913D01*
X170781186Y-27043544D01*
X170874911Y-27047227D01*
X170989610Y-27051734D01*
X170989614Y-27051734D01*
X170992470Y-27051846D01*
X171201730Y-27021504D01*
X171401955Y-26953537D01*
X171586442Y-26850219D01*
X171637391Y-26807846D01*
X171746814Y-26716840D01*
X171749012Y-26715012D01*
X171838329Y-26607619D01*
X171882388Y-26554644D01*
X171882390Y-26554641D01*
X171884219Y-26552442D01*
X171987537Y-26367955D01*
X172055504Y-26167730D01*
X172056690Y-26159548D01*
X177267941Y-26159548D01*
X177317480Y-26344434D01*
X177319340Y-26349544D01*
X177413760Y-26552027D01*
X177416475Y-26556730D01*
X177544620Y-26739740D01*
X177548121Y-26743912D01*
X177706088Y-26901879D01*
X177710260Y-26905380D01*
X177893270Y-27033525D01*
X177897973Y-27036240D01*
X178100456Y-27130660D01*
X178105566Y-27132520D01*
X178318720Y-27189634D01*
X178356671Y-27218754D01*
X178362914Y-27266180D01*
X178333794Y-27304131D01*
X178313128Y-27311601D01*
X178290628Y-27315467D01*
X178252953Y-27321941D01*
X178250265Y-27322933D01*
X178250260Y-27322934D01*
X178057263Y-27394135D01*
X178057260Y-27394136D01*
X178054575Y-27395127D01*
X178052115Y-27396590D01*
X178052114Y-27396591D01*
X178029520Y-27410033D01*
X177872856Y-27503238D01*
X177800748Y-27566475D01*
X177747619Y-27613068D01*
X177713881Y-27642655D01*
X177582976Y-27808708D01*
X177484523Y-27995836D01*
X177483676Y-27998563D01*
X177483675Y-27998566D01*
X177469794Y-28043270D01*
X177421820Y-28197773D01*
X177396967Y-28407754D01*
X177399069Y-28439827D01*
X177410595Y-28615677D01*
X177410796Y-28618749D01*
X177411502Y-28621529D01*
X177455789Y-28795906D01*
X177462845Y-28823690D01*
X177551369Y-29015714D01*
X177553020Y-29018049D01*
X177553021Y-29018052D01*
X177603828Y-29089942D01*
X177673405Y-29188391D01*
X177824865Y-29335937D01*
X178000677Y-29453411D01*
X178194953Y-29536878D01*
X178298069Y-29560211D01*
X178398396Y-29582913D01*
X178398399Y-29582913D01*
X178401186Y-29583544D01*
X178494911Y-29587227D01*
X178609610Y-29591734D01*
X178609614Y-29591734D01*
X178612470Y-29591846D01*
X178821730Y-29561504D01*
X179021955Y-29493537D01*
X179206442Y-29390219D01*
X179270432Y-29337000D01*
X179366814Y-29256840D01*
X179369012Y-29255012D01*
X179402547Y-29214690D01*
X179502388Y-29094644D01*
X179502390Y-29094641D01*
X179504219Y-29092442D01*
X179607537Y-28907955D01*
X179644606Y-28798754D01*
X183121967Y-28798754D01*
X183135796Y-29009749D01*
X183136502Y-29012529D01*
X183181674Y-29190390D01*
X183187845Y-29214690D01*
X183276369Y-29406714D01*
X183398405Y-29579391D01*
X183549865Y-29726937D01*
X183725677Y-29844411D01*
X183919953Y-29927878D01*
X184011111Y-29948505D01*
X184123396Y-29973913D01*
X184123399Y-29973913D01*
X184126186Y-29974544D01*
X184219911Y-29978227D01*
X184334610Y-29982734D01*
X184334614Y-29982734D01*
X184337470Y-29982846D01*
X184546730Y-29952504D01*
X184735101Y-29888561D01*
X184744242Y-29885458D01*
X184744243Y-29885458D01*
X184746955Y-29884537D01*
X184931442Y-29781219D01*
X185014664Y-29712005D01*
X185091814Y-29647840D01*
X185094012Y-29646012D01*
X185125233Y-29608472D01*
X185227388Y-29485644D01*
X185227390Y-29485641D01*
X185229219Y-29483442D01*
X185332537Y-29298955D01*
X185400504Y-29098730D01*
X185430846Y-28889470D01*
X185432429Y-28829000D01*
X185432181Y-28826295D01*
X185413343Y-28621295D01*
X185413081Y-28618440D01*
X185410177Y-28608141D01*
X185356466Y-28417696D01*
X185356465Y-28417694D01*
X185355686Y-28414931D01*
X185262165Y-28225290D01*
X185135651Y-28055867D01*
X184980381Y-27912337D01*
X184801554Y-27799505D01*
X184605160Y-27721152D01*
X184602354Y-27720594D01*
X184602351Y-27720593D01*
X184400581Y-27680459D01*
X184400579Y-27680459D01*
X184397775Y-27679901D01*
X184298145Y-27678597D01*
X184189208Y-27677170D01*
X184189203Y-27677170D01*
X184186346Y-27677133D01*
X184183525Y-27677618D01*
X184183521Y-27677618D01*
X184078582Y-27695650D01*
X183977953Y-27712941D01*
X183975265Y-27713933D01*
X183975260Y-27713934D01*
X183782263Y-27785135D01*
X183782260Y-27785136D01*
X183779575Y-27786127D01*
X183777115Y-27787590D01*
X183777114Y-27787591D01*
X183756445Y-27799888D01*
X183597856Y-27894238D01*
X183578964Y-27910806D01*
X183452908Y-28021354D01*
X183438881Y-28033655D01*
X183307976Y-28199708D01*
X183209523Y-28386836D01*
X183208676Y-28389563D01*
X183208675Y-28389566D01*
X183148318Y-28583948D01*
X183146820Y-28588773D01*
X183121967Y-28798754D01*
X179644606Y-28798754D01*
X179675504Y-28707730D01*
X179705846Y-28498470D01*
X179707429Y-28438000D01*
X179707245Y-28435992D01*
X179688343Y-28230295D01*
X179688081Y-28227440D01*
X179686827Y-28222991D01*
X179631466Y-28026696D01*
X179631465Y-28026694D01*
X179630686Y-28023931D01*
X179537165Y-27834290D01*
X179464142Y-27736500D01*
X179412368Y-27667166D01*
X179412366Y-27667164D01*
X179410651Y-27664867D01*
X179255381Y-27521337D01*
X179076554Y-27408505D01*
X178880160Y-27330152D01*
X178877354Y-27329594D01*
X178877351Y-27329593D01*
X178787616Y-27311744D01*
X178747842Y-27285168D01*
X178738510Y-27238252D01*
X178765086Y-27198478D01*
X178783633Y-27190075D01*
X178998434Y-27132520D01*
X179003544Y-27130660D01*
X179206027Y-27036240D01*
X179210730Y-27033525D01*
X179393740Y-26905380D01*
X179397912Y-26901879D01*
X179555879Y-26743912D01*
X179559380Y-26739740D01*
X179687525Y-26556730D01*
X179690240Y-26552027D01*
X179784660Y-26349544D01*
X179786520Y-26344434D01*
X179834865Y-26164008D01*
X179833623Y-26154575D01*
X179830267Y-26152000D01*
X177278349Y-26152000D01*
X177269559Y-26155641D01*
X177267941Y-26159548D01*
X172056690Y-26159548D01*
X172085846Y-25958470D01*
X172087429Y-25898000D01*
X172081873Y-25837529D01*
X172070731Y-25716284D01*
X172068081Y-25687440D01*
X172062279Y-25666865D01*
X172052444Y-25631992D01*
X177269135Y-25631992D01*
X177270377Y-25641425D01*
X177273733Y-25644000D01*
X178285569Y-25644000D01*
X178294359Y-25640359D01*
X178298000Y-25631569D01*
X178806000Y-25631569D01*
X178809641Y-25640359D01*
X178818431Y-25644000D01*
X179825651Y-25644000D01*
X179834441Y-25640359D01*
X179836059Y-25636452D01*
X179786520Y-25451566D01*
X179784660Y-25446456D01*
X179690240Y-25243973D01*
X179687525Y-25239270D01*
X179559380Y-25056260D01*
X179555879Y-25052088D01*
X179397912Y-24894121D01*
X179393740Y-24890620D01*
X179210730Y-24762475D01*
X179206027Y-24759760D01*
X179003544Y-24665340D01*
X178998434Y-24663480D01*
X178931511Y-24645548D01*
X179944941Y-24645548D01*
X179994480Y-24830434D01*
X179996340Y-24835544D01*
X180090760Y-25038027D01*
X180093475Y-25042730D01*
X180221620Y-25225740D01*
X180225121Y-25229912D01*
X180383088Y-25387879D01*
X180387260Y-25391380D01*
X180570270Y-25519525D01*
X180574973Y-25522240D01*
X180777456Y-25616660D01*
X180782566Y-25618520D01*
X180962992Y-25666865D01*
X180972425Y-25665623D01*
X180975000Y-25662267D01*
X180975000Y-25657651D01*
X181483000Y-25657651D01*
X181486641Y-25666441D01*
X181490548Y-25668059D01*
X181675434Y-25618520D01*
X181680544Y-25616660D01*
X181883027Y-25522240D01*
X181887730Y-25519525D01*
X182070740Y-25391380D01*
X182074912Y-25387879D01*
X182232879Y-25229912D01*
X182236380Y-25225740D01*
X182364525Y-25042730D01*
X182367240Y-25038027D01*
X182461660Y-24835544D01*
X182463520Y-24830434D01*
X182511865Y-24650008D01*
X182510623Y-24640575D01*
X182507267Y-24638000D01*
X181495431Y-24638000D01*
X181486641Y-24641641D01*
X181483000Y-24650431D01*
X181483000Y-25657651D01*
X180975000Y-25657651D01*
X180975000Y-24650431D01*
X180971359Y-24641641D01*
X180962569Y-24638000D01*
X179955349Y-24638000D01*
X179946559Y-24641641D01*
X179944941Y-24645548D01*
X178931511Y-24645548D01*
X178818008Y-24615135D01*
X178808575Y-24616377D01*
X178806000Y-24619733D01*
X178806000Y-25631569D01*
X178298000Y-25631569D01*
X178298000Y-24624349D01*
X178294359Y-24615559D01*
X178290452Y-24613941D01*
X178105566Y-24663480D01*
X178100456Y-24665340D01*
X177897973Y-24759760D01*
X177893270Y-24762475D01*
X177710260Y-24890620D01*
X177706088Y-24894121D01*
X177548121Y-25052088D01*
X177544620Y-25056260D01*
X177416475Y-25239270D01*
X177413760Y-25243973D01*
X177319340Y-25446456D01*
X177317480Y-25451566D01*
X177269135Y-25631992D01*
X172052444Y-25631992D01*
X172011466Y-25486696D01*
X172011465Y-25486694D01*
X172010686Y-25483931D01*
X171917165Y-25294290D01*
X171790651Y-25124867D01*
X171635381Y-24981337D01*
X171456554Y-24868505D01*
X171260160Y-24790152D01*
X171257354Y-24789594D01*
X171257351Y-24789593D01*
X171055581Y-24749459D01*
X171055579Y-24749459D01*
X171052775Y-24748901D01*
X170953145Y-24747597D01*
X170844208Y-24746170D01*
X170844203Y-24746170D01*
X170841346Y-24746133D01*
X170838525Y-24746618D01*
X170838521Y-24746618D01*
X170716580Y-24767571D01*
X170632953Y-24781941D01*
X170630265Y-24782933D01*
X170630260Y-24782934D01*
X170437263Y-24854135D01*
X170437260Y-24854136D01*
X170434575Y-24855127D01*
X170432115Y-24856590D01*
X170432114Y-24856591D01*
X170409520Y-24870033D01*
X170252856Y-24963238D01*
X170093881Y-25102655D01*
X169962976Y-25268708D01*
X169900277Y-25387879D01*
X169866770Y-25451566D01*
X169864523Y-25455836D01*
X169863676Y-25458563D01*
X169863675Y-25458566D01*
X169844747Y-25519525D01*
X169801820Y-25657773D01*
X169776967Y-25867754D01*
X165215620Y-25867754D01*
X165237846Y-25714470D01*
X165239429Y-25654000D01*
X165238622Y-25645210D01*
X165224056Y-25486696D01*
X165220081Y-25443440D01*
X165215930Y-25428719D01*
X165163466Y-25242696D01*
X165163465Y-25242694D01*
X165162686Y-25239931D01*
X165069165Y-25050290D01*
X165003066Y-24961772D01*
X164944368Y-24883166D01*
X164944366Y-24883164D01*
X164942651Y-24880867D01*
X164787381Y-24737337D01*
X164608554Y-24624505D01*
X164412160Y-24546152D01*
X164409354Y-24545594D01*
X164409351Y-24545593D01*
X164207581Y-24505459D01*
X164207579Y-24505459D01*
X164204775Y-24504901D01*
X164105145Y-24503597D01*
X163996208Y-24502170D01*
X163996203Y-24502170D01*
X163993346Y-24502133D01*
X163990525Y-24502618D01*
X163990521Y-24502618D01*
X163868580Y-24523571D01*
X163784953Y-24537941D01*
X163782265Y-24538933D01*
X163782260Y-24538934D01*
X163589263Y-24610135D01*
X163589260Y-24610136D01*
X163586575Y-24611127D01*
X163584115Y-24612590D01*
X163584114Y-24612591D01*
X163561520Y-24626033D01*
X163404856Y-24719238D01*
X163324631Y-24789593D01*
X163248235Y-24856591D01*
X163245881Y-24858655D01*
X163244105Y-24860908D01*
X163164591Y-24961772D01*
X163114976Y-25024708D01*
X163098376Y-25056260D01*
X163018770Y-25207566D01*
X163016523Y-25211836D01*
X163015676Y-25214563D01*
X163015675Y-25214566D01*
X162992364Y-25289641D01*
X162953820Y-25413773D01*
X162928967Y-25623754D01*
X155234350Y-25623754D01*
X155217287Y-25428719D01*
X155216343Y-25423365D01*
X155158520Y-25207566D01*
X155156660Y-25202456D01*
X155062240Y-24999973D01*
X155059525Y-24995270D01*
X155018229Y-24936294D01*
X155010205Y-24931182D01*
X155004839Y-24932371D01*
X154292000Y-25645210D01*
X154288359Y-25654000D01*
X153559641Y-25654000D01*
X153556000Y-25645210D01*
X152853290Y-24942500D01*
X152844500Y-24938859D01*
X152835710Y-24942500D01*
X152133000Y-25645210D01*
X152129359Y-25654000D01*
X151400641Y-25654000D01*
X151397000Y-25645210D01*
X150686691Y-24934901D01*
X150677901Y-24931260D01*
X150672822Y-24933364D01*
X150629475Y-24995270D01*
X150626760Y-24999973D01*
X150532340Y-25202456D01*
X150530480Y-25207566D01*
X150472657Y-25423365D01*
X150471713Y-25428719D01*
X150452242Y-25651280D01*
X150452242Y-25656720D01*
X142760358Y-25656720D01*
X142760429Y-25654000D01*
X142759622Y-25645210D01*
X142745056Y-25486696D01*
X142741081Y-25443440D01*
X142736930Y-25428719D01*
X142684466Y-25242696D01*
X142684465Y-25242694D01*
X142683686Y-25239931D01*
X142590165Y-25050290D01*
X142524066Y-24961772D01*
X142465368Y-24883166D01*
X142465366Y-24883164D01*
X142463651Y-24880867D01*
X142308381Y-24737337D01*
X142129554Y-24624505D01*
X141987409Y-24567795D01*
X151042182Y-24567795D01*
X151043371Y-24573161D01*
X151756210Y-25286000D01*
X151765000Y-25289641D01*
X151773790Y-25286000D01*
X152484099Y-24575691D01*
X152487370Y-24567795D01*
X153201182Y-24567795D01*
X153202371Y-24573161D01*
X153915210Y-25286000D01*
X153924000Y-25289641D01*
X153932790Y-25286000D01*
X154643099Y-24575691D01*
X154646740Y-24566901D01*
X154644636Y-24561822D01*
X154582730Y-24518475D01*
X154578027Y-24515760D01*
X154375544Y-24421340D01*
X154370434Y-24419480D01*
X154154635Y-24361657D01*
X154149281Y-24360713D01*
X153926720Y-24341242D01*
X153921280Y-24341242D01*
X153698719Y-24360713D01*
X153693365Y-24361657D01*
X153477566Y-24419480D01*
X153472456Y-24421340D01*
X153269973Y-24515760D01*
X153265270Y-24518475D01*
X153206294Y-24559771D01*
X153201182Y-24567795D01*
X152487370Y-24567795D01*
X152487740Y-24566901D01*
X152485636Y-24561822D01*
X152423730Y-24518475D01*
X152419027Y-24515760D01*
X152216544Y-24421340D01*
X152211434Y-24419480D01*
X151995635Y-24361657D01*
X151990281Y-24360713D01*
X151767720Y-24341242D01*
X151762280Y-24341242D01*
X151539719Y-24360713D01*
X151534365Y-24361657D01*
X151318566Y-24419480D01*
X151313456Y-24421340D01*
X151110973Y-24515760D01*
X151106270Y-24518475D01*
X151047294Y-24559771D01*
X151042182Y-24567795D01*
X141987409Y-24567795D01*
X141933160Y-24546152D01*
X141930354Y-24545594D01*
X141930351Y-24545593D01*
X141728581Y-24505459D01*
X141728579Y-24505459D01*
X141725775Y-24504901D01*
X141626145Y-24503597D01*
X141517208Y-24502170D01*
X141517203Y-24502170D01*
X141514346Y-24502133D01*
X141511525Y-24502618D01*
X141511521Y-24502618D01*
X141389580Y-24523571D01*
X141305953Y-24537941D01*
X141303265Y-24538933D01*
X141303260Y-24538934D01*
X141110263Y-24610135D01*
X141110260Y-24610136D01*
X141107575Y-24611127D01*
X141105115Y-24612590D01*
X141105114Y-24612591D01*
X141082520Y-24626033D01*
X140925856Y-24719238D01*
X140845631Y-24789593D01*
X140769235Y-24856591D01*
X140766881Y-24858655D01*
X140765105Y-24860908D01*
X140685591Y-24961772D01*
X140635976Y-25024708D01*
X140619376Y-25056260D01*
X140539770Y-25207566D01*
X140537523Y-25211836D01*
X140536676Y-25214563D01*
X140536675Y-25214566D01*
X140513364Y-25289641D01*
X140474820Y-25413773D01*
X140449967Y-25623754D01*
X102043398Y-25623754D01*
X102042495Y-23781031D01*
X102060779Y-23736827D01*
X102104995Y-23718500D01*
X179998004Y-23718500D01*
X180042198Y-23736806D01*
G37*
%TD.AperFunction*%
%TD*%
M02*
