M48
; DRILL file {KiCad (6.0.5-0)} date Saturday, 25 June 2022 at 14:04:22
; FORMAT={-:-/ absolute / inch / decimal}
; #@! TF.CreationDate,2022-06-25T14:04:22+01:00
; #@! TF.GenerationSoftware,Kicad,Pcbnew,(6.0.5-0)
; #@! TF.FileFunction,Plated,1,2,PTH
FMAT,2
INCH
; #@! TA.AperFunction,Plated,PTH,ComponentDrill
T1C0.0315
; #@! TA.AperFunction,Plated,PTH,ComponentDrill
T2C0.0354
; #@! TA.AperFunction,Plated,PTH,ComponentDrill
T3C0.0394
; #@! TA.AperFunction,Plated,PTH,ComponentDrill
T4C0.0433
; #@! TA.AperFunction,Plated,PTH,ComponentDrill
T5C0.0472
; #@! TA.AperFunction,Plated,PTH,ComponentDrill
T6C0.0610
; #@! TA.AperFunction,Plated,PTH,ComponentDrill
T7C0.0827
; #@! TA.AperFunction,Plated,PTH,ComponentDrill
T8C0.1039
%
G90
G05
T1
X5.575Y-1.01
X5.83Y-1.255
X5.84Y-1.13
X5.975Y-1.01
X6.06Y-1.01
X6.14Y-1.13
X6.43Y-1.255
X6.46Y-1.01
X6.725Y-1.465
X6.725Y-1.6
X6.7296Y-1.0196
X6.7296Y-1.1196
X6.7296Y-1.2196
X6.7296Y-1.3196
X6.95Y-2.21
X6.95Y-2.4069
X6.99Y-1.9131
X6.99Y-2.11
X7.0296Y-1.0196
X7.0296Y-1.1196
X7.0296Y-1.2196
X7.0296Y-1.3196
X7.0766Y-2.385
X7.125Y-1.465
X7.125Y-1.6
X7.125Y-1.735
X7.125Y-2.135
X7.135Y-0.96
X7.135Y-1.36
X7.255Y-1.135
X7.255Y-1.435
X7.2734Y-2.385
T2
X5.69Y-1.1298
X5.69Y-1.2298
T3
X7.254Y-1.56
X7.254Y-1.66
X7.254Y-1.76
X7.254Y-1.86
X7.254Y-1.96
X7.254Y-2.06
X7.254Y-2.16
T4
X6.8122Y-2.275
X6.8122Y-2.375
X6.8122Y-2.475
T5
X6.1334Y-1.5411
X6.1334Y-1.7411
X6.1334Y-2.0411
X6.1334Y-2.3411
X6.5334Y-1.5395
X6.5334Y-1.7411
X6.5334Y-2.0411
X6.5334Y-2.3411
T6
X4.0966Y-2.385
T7
X5.8351Y-1.7395
T8
X3.5501Y-1.9435
X6.8031Y-1.9435
T0
M30
