%TF.GenerationSoftware,KiCad,Pcbnew,(6.0.5-0)*%
%TF.CreationDate,2022-06-25T14:04:27+01:00*%
%TF.ProjectId,revised_minh_design,72657669-7365-4645-9f6d-696e685f6465,rev?*%
%TF.SameCoordinates,Original*%
%TF.FileFunction,Legend,Bot*%
%TF.FilePolarity,Positive*%
%FSLAX46Y46*%
G04 Gerber Fmt 4.6, Leading zero omitted, Abs format (unit mm)*
G04 Created by KiCad (PCBNEW (6.0.5-0)) date 2022-06-25 14:04:27*
%MOMM*%
%LPD*%
G01*
G04 APERTURE LIST*
%ADD10C,0.700000*%
%ADD11C,0.150000*%
%ADD12C,0.120000*%
G04 APERTURE END LIST*
D10*
X146602380Y-51299809D02*
X145888095Y-51537904D01*
X144697619Y-51537904D01*
X144221428Y-51299809D01*
X143983333Y-51061714D01*
X143745238Y-50585523D01*
X143745238Y-50109333D01*
X143983333Y-49633142D01*
X144221428Y-49395047D01*
X144697619Y-49156952D01*
X145650000Y-48918857D01*
X146126190Y-48680761D01*
X146364285Y-48442666D01*
X146602380Y-47966476D01*
X146602380Y-47490285D01*
X146364285Y-47014095D01*
X146126190Y-46776000D01*
X145650000Y-46537904D01*
X144459523Y-46537904D01*
X143745238Y-46776000D01*
X141602380Y-51061714D02*
X141364285Y-51299809D01*
X141602380Y-51537904D01*
X141840476Y-51299809D01*
X141602380Y-51061714D01*
X141602380Y-51537904D01*
X139221428Y-51537904D02*
X139221428Y-46537904D01*
X139221428Y-48918857D02*
X136364285Y-48918857D01*
X136364285Y-51537904D02*
X136364285Y-46537904D01*
X133983333Y-51061714D02*
X133745238Y-51299809D01*
X133983333Y-51537904D01*
X134221428Y-51299809D01*
X133983333Y-51061714D01*
X133983333Y-51537904D01*
X132316666Y-46537904D02*
X130650000Y-51537904D01*
X128983333Y-46537904D01*
X127316666Y-51061714D02*
X127078571Y-51299809D01*
X127316666Y-51537904D01*
X127554761Y-51299809D01*
X127316666Y-51061714D01*
X127316666Y-51537904D01*
X122078571Y-51537904D02*
X123745238Y-49156952D01*
X124935714Y-51537904D02*
X124935714Y-46537904D01*
X123030952Y-46537904D01*
X122554761Y-46776000D01*
X122316666Y-47014095D01*
X122078571Y-47490285D01*
X122078571Y-48204571D01*
X122316666Y-48680761D01*
X122554761Y-48918857D01*
X123030952Y-49156952D01*
X124935714Y-49156952D01*
X119935714Y-51061714D02*
X119697619Y-51299809D01*
X119935714Y-51537904D01*
X120173809Y-51299809D01*
X119935714Y-51061714D01*
X119935714Y-51537904D01*
X117554761Y-51537904D02*
X117554761Y-46537904D01*
X115173809Y-51061714D02*
X114935714Y-51299809D01*
X115173809Y-51537904D01*
X115411904Y-51299809D01*
X115173809Y-51061714D01*
X115173809Y-51537904D01*
X112792857Y-51537904D02*
X112792857Y-46537904D01*
X111126190Y-50109333D01*
X109459523Y-46537904D01*
X109459523Y-51537904D01*
X107078571Y-51061714D02*
X106840476Y-51299809D01*
X107078571Y-51537904D01*
X107316666Y-51299809D01*
X107078571Y-51061714D01*
X107078571Y-51537904D01*
X104697619Y-51537904D02*
X104697619Y-46537904D01*
X102792857Y-46537904D01*
X102316666Y-46776000D01*
X102078571Y-47014095D01*
X101840476Y-47490285D01*
X101840476Y-48204571D01*
X102078571Y-48680761D01*
X102316666Y-48918857D01*
X102792857Y-49156952D01*
X104697619Y-49156952D01*
X99697619Y-51061714D02*
X99459523Y-51299809D01*
X99697619Y-51537904D01*
X99935714Y-51299809D01*
X99697619Y-51061714D01*
X99697619Y-51537904D01*
X97554761Y-51299809D02*
X96840476Y-51537904D01*
X95650000Y-51537904D01*
X95173809Y-51299809D01*
X94935714Y-51061714D01*
X94697619Y-50585523D01*
X94697619Y-50109333D01*
X94935714Y-49633142D01*
X95173809Y-49395047D01*
X95650000Y-49156952D01*
X96602380Y-48918857D01*
X97078571Y-48680761D01*
X97316666Y-48442666D01*
X97554761Y-47966476D01*
X97554761Y-47490285D01*
X97316666Y-47014095D01*
X97078571Y-46776000D01*
X96602380Y-46537904D01*
X95411904Y-46537904D01*
X94697619Y-46776000D01*
D11*
%TO.C,J2*%
X105975380Y-60245666D02*
X106689666Y-60245666D01*
X106832523Y-60198047D01*
X106927761Y-60102809D01*
X106975380Y-59959952D01*
X106975380Y-59864714D01*
X106070619Y-60674238D02*
X106023000Y-60721857D01*
X105975380Y-60817095D01*
X105975380Y-61055190D01*
X106023000Y-61150428D01*
X106070619Y-61198047D01*
X106165857Y-61245666D01*
X106261095Y-61245666D01*
X106403952Y-61198047D01*
X106975380Y-60626619D01*
X106975380Y-61245666D01*
D12*
X102518000Y-61839000D02*
X91513000Y-61839000D01*
X102518000Y-59319000D02*
X91513000Y-59319000D01*
%TO.C,U3*%
X91494800Y-49351400D02*
G75*
G03*
X91494800Y-49351400I-1321000J0D01*
G01*
X174108300Y-49351400D02*
G75*
G03*
X174108300Y-49351400I-1321000J0D01*
G01*
%TD*%
M02*
