%TF.GenerationSoftware,KiCad,Pcbnew,(6.0.5-0)*%
%TF.CreationDate,2022-06-25T17:27:44+01:00*%
%TF.ProjectId,revised_minh_design,72657669-7365-4645-9f6d-696e685f6465,rev?*%
%TF.SameCoordinates,Original*%
%TF.FileFunction,Paste,Top*%
%TF.FilePolarity,Positive*%
%FSLAX46Y46*%
G04 Gerber Fmt 4.6, Leading zero omitted, Abs format (unit mm)*
G04 Created by KiCad (PCBNEW (6.0.5-0)) date 2022-06-25 17:27:44*
%MOMM*%
%LPD*%
G01*
G04 APERTURE LIST*
G04 Aperture macros list*
%AMRoundRect*
0 Rectangle with rounded corners*
0 $1 Rounding radius*
0 $2 $3 $4 $5 $6 $7 $8 $9 X,Y pos of 4 corners*
0 Add a 4 corners polygon primitive as box body*
4,1,4,$2,$3,$4,$5,$6,$7,$8,$9,$2,$3,0*
0 Add four circle primitives for the rounded corners*
1,1,$1+$1,$2,$3*
1,1,$1+$1,$4,$5*
1,1,$1+$1,$6,$7*
1,1,$1+$1,$8,$9*
0 Add four rect primitives between the rounded corners*
20,1,$1+$1,$2,$3,$4,$5,0*
20,1,$1+$1,$4,$5,$6,$7,0*
20,1,$1+$1,$6,$7,$8,$9,0*
20,1,$1+$1,$8,$9,$2,$3,0*%
G04 Aperture macros list end*
%ADD10RoundRect,0.100000X0.637500X0.100000X-0.637500X0.100000X-0.637500X-0.100000X0.637500X-0.100000X0*%
%ADD11RoundRect,0.250000X-0.475000X0.337500X-0.475000X-0.337500X0.475000X-0.337500X0.475000X0.337500X0*%
%ADD12RoundRect,0.250000X0.337500X0.475000X-0.337500X0.475000X-0.337500X-0.475000X0.337500X-0.475000X0*%
%ADD13RoundRect,0.100000X0.100000X-0.637500X0.100000X0.637500X-0.100000X0.637500X-0.100000X-0.637500X0*%
%ADD14RoundRect,0.250000X0.475000X-0.337500X0.475000X0.337500X-0.475000X0.337500X-0.475000X-0.337500X0*%
%ADD15R,1.500000X2.000000*%
%ADD16R,3.800000X2.000000*%
%ADD17RoundRect,0.250000X-0.350000X-0.450000X0.350000X-0.450000X0.350000X0.450000X-0.350000X0.450000X0*%
%ADD18RoundRect,0.150000X-0.150000X0.587500X-0.150000X-0.587500X0.150000X-0.587500X0.150000X0.587500X0*%
%ADD19RoundRect,0.250000X-0.337500X-0.475000X0.337500X-0.475000X0.337500X0.475000X-0.337500X0.475000X0*%
%ADD20RoundRect,0.150000X-0.150000X0.825000X-0.150000X-0.825000X0.150000X-0.825000X0.150000X0.825000X0*%
%ADD21R,0.882000X0.537000*%
%ADD22R,1.050000X0.450000*%
%ADD23RoundRect,0.250000X-0.450000X0.350000X-0.450000X-0.350000X0.450000X-0.350000X0.450000X0.350000X0*%
%ADD24RoundRect,0.200000X0.250000X-0.200000X0.250000X0.200000X-0.250000X0.200000X-0.250000X-0.200000X0*%
G04 APERTURE END LIST*
D10*
%TO.C,U6*%
X129862500Y-51820000D03*
X129862500Y-51170000D03*
X129862500Y-50520000D03*
X129862500Y-49870000D03*
X129862500Y-49220000D03*
X129862500Y-48570000D03*
X129862500Y-47920000D03*
X129862500Y-47270000D03*
X129862500Y-46620000D03*
X129862500Y-45970000D03*
X124137500Y-45970000D03*
X124137500Y-46620000D03*
X124137500Y-47270000D03*
X124137500Y-47920000D03*
X124137500Y-48570000D03*
X124137500Y-49220000D03*
X124137500Y-49870000D03*
X124137500Y-50520000D03*
X124137500Y-51170000D03*
X124137500Y-51820000D03*
%TD*%
D11*
%TO.C,C18*%
X120015000Y-60176500D03*
X120015000Y-62251500D03*
%TD*%
D12*
%TO.C,C13*%
X114448500Y-75185000D03*
X112373500Y-75185000D03*
%TD*%
D13*
%TO.C,U7*%
X125472000Y-60012500D03*
X126122000Y-60012500D03*
X126772000Y-60012500D03*
X127422000Y-60012500D03*
X128072000Y-60012500D03*
X128722000Y-60012500D03*
X129372000Y-60012500D03*
X130022000Y-60012500D03*
X130672000Y-60012500D03*
X131322000Y-60012500D03*
X131322000Y-54287500D03*
X130672000Y-54287500D03*
X130022000Y-54287500D03*
X129372000Y-54287500D03*
X128722000Y-54287500D03*
X128072000Y-54287500D03*
X127422000Y-54287500D03*
X126772000Y-54287500D03*
X126122000Y-54287500D03*
X125472000Y-54287500D03*
%TD*%
D14*
%TO.C,C11*%
X110236000Y-55901500D03*
X110236000Y-53826500D03*
%TD*%
D12*
%TO.C,C8*%
X114448500Y-60071000D03*
X112373500Y-60071000D03*
%TD*%
D15*
%TO.C,U4*%
X106495500Y-68224000D03*
D16*
X104195500Y-74524000D03*
D15*
X104195500Y-68224000D03*
X101895500Y-68224000D03*
%TD*%
D12*
%TO.C,C2*%
X103018500Y-44450000D03*
X100943500Y-44450000D03*
%TD*%
D17*
%TO.C,R2*%
X116156500Y-75185000D03*
X118156500Y-75185000D03*
%TD*%
D12*
%TO.C,C3*%
X106955500Y-63880000D03*
X104880500Y-63880000D03*
%TD*%
%TO.C,C14*%
X127932000Y-66929000D03*
X125857000Y-66929000D03*
%TD*%
D14*
%TO.C,C12*%
X120128500Y-75586500D03*
X120128500Y-73511500D03*
%TD*%
D12*
%TO.C,C17*%
X122830500Y-55499000D03*
X120755500Y-55499000D03*
%TD*%
D18*
%TO.C,U3*%
X118171000Y-62308500D03*
X116271000Y-62308500D03*
X117221000Y-64183500D03*
%TD*%
D19*
%TO.C,C7*%
X101118000Y-65880000D03*
X103193000Y-65880000D03*
%TD*%
D20*
%TO.C,U5*%
X117461500Y-68010000D03*
X116191500Y-68010000D03*
X114921500Y-68010000D03*
X113651500Y-68010000D03*
X113651500Y-72960000D03*
X114921500Y-72960000D03*
X116191500Y-72960000D03*
X117461500Y-72960000D03*
%TD*%
D19*
%TO.C,C1*%
X115929500Y-44450000D03*
X118004500Y-44450000D03*
%TD*%
%TO.C,C9*%
X101118000Y-63880000D03*
X103193000Y-63880000D03*
%TD*%
D12*
%TO.C,C5*%
X106955500Y-65880000D03*
X104880500Y-65880000D03*
%TD*%
D19*
%TO.C,C16*%
X132566500Y-52070000D03*
X134641500Y-52070000D03*
%TD*%
D17*
%TO.C,R1*%
X124857000Y-72771000D03*
X126857000Y-72771000D03*
%TD*%
D21*
%TO.C,U8*%
X132080000Y-71374000D03*
X132080000Y-69584000D03*
X130610000Y-70479000D03*
X130610000Y-71374000D03*
X132080000Y-72269000D03*
X130610000Y-72269000D03*
X130610000Y-69584000D03*
X132080000Y-70479000D03*
D22*
X134120000Y-68651500D03*
X134120000Y-69301500D03*
X134120000Y-69951500D03*
X134120000Y-70601500D03*
X134120000Y-71251500D03*
X134120000Y-71901500D03*
X134120000Y-72551500D03*
X134120000Y-73201500D03*
X128570000Y-73201500D03*
X128570000Y-72551500D03*
X128570000Y-71901500D03*
X128570000Y-71251500D03*
X128570000Y-70601500D03*
X128570000Y-69951500D03*
X128570000Y-69301500D03*
X128570000Y-68651500D03*
%TD*%
D12*
%TO.C,C6*%
X114448500Y-62230000D03*
X112373500Y-62230000D03*
%TD*%
D23*
%TO.C,R3*%
X116078000Y-52721000D03*
X116078000Y-54721000D03*
%TD*%
D12*
%TO.C,C10*%
X114597000Y-65785000D03*
X112522000Y-65785000D03*
%TD*%
%TO.C,C15*%
X122830500Y-53467000D03*
X120755500Y-53467000D03*
%TD*%
D11*
%TO.C,C4*%
X120015000Y-65510500D03*
X120015000Y-67585500D03*
%TD*%
D24*
%TO.C,X1*%
X112486000Y-54954000D03*
X114336000Y-54954000D03*
X114336000Y-53504000D03*
X112486000Y-53504000D03*
%TD*%
M02*
