%TF.GenerationSoftware,KiCad,Pcbnew,(6.0.5-0)*%
%TF.CreationDate,2022-06-29T07:05:30+01:00*%
%TF.ProjectId,revised_minh_design,72657669-7365-4645-9f6d-696e685f6465,rev?*%
%TF.SameCoordinates,Original*%
%TF.FileFunction,Copper,L1,Top*%
%TF.FilePolarity,Positive*%
%FSLAX46Y46*%
G04 Gerber Fmt 4.6, Leading zero omitted, Abs format (unit mm)*
G04 Created by KiCad (PCBNEW (6.0.5-0)) date 2022-06-29 07:05:30*
%MOMM*%
%LPD*%
G01*
G04 APERTURE LIST*
G04 Aperture macros list*
%AMRoundRect*
0 Rectangle with rounded corners*
0 $1 Rounding radius*
0 $2 $3 $4 $5 $6 $7 $8 $9 X,Y pos of 4 corners*
0 Add a 4 corners polygon primitive as box body*
4,1,4,$2,$3,$4,$5,$6,$7,$8,$9,$2,$3,0*
0 Add four circle primitives for the rounded corners*
1,1,$1+$1,$2,$3*
1,1,$1+$1,$4,$5*
1,1,$1+$1,$6,$7*
1,1,$1+$1,$8,$9*
0 Add four rect primitives between the rounded corners*
20,1,$1+$1,$2,$3,$4,$5,0*
20,1,$1+$1,$4,$5,$6,$7,0*
20,1,$1+$1,$6,$7,$8,$9,0*
20,1,$1+$1,$8,$9,$2,$3,0*%
G04 Aperture macros list end*
%TA.AperFunction,ComponentPad*%
%ADD10C,1.600000*%
%TD*%
%TA.AperFunction,ComponentPad*%
%ADD11O,1.600000X1.600000*%
%TD*%
%TA.AperFunction,ComponentPad*%
%ADD12R,1.600000X1.600000*%
%TD*%
%TA.AperFunction,ComponentPad*%
%ADD13C,5.600000*%
%TD*%
%TA.AperFunction,ComponentPad*%
%ADD14R,1.800000X1.800000*%
%TD*%
%TA.AperFunction,ComponentPad*%
%ADD15C,1.800000*%
%TD*%
%TA.AperFunction,ComponentPad*%
%ADD16C,1.524000*%
%TD*%
%TA.AperFunction,ComponentPad*%
%ADD17R,2.000000X1.905000*%
%TD*%
%TA.AperFunction,ComponentPad*%
%ADD18O,2.000000X1.905000*%
%TD*%
%TA.AperFunction,ComponentPad*%
%ADD19R,1.700000X1.700000*%
%TD*%
%TA.AperFunction,ComponentPad*%
%ADD20O,1.700000X1.700000*%
%TD*%
%TA.AperFunction,ComponentPad*%
%ADD21RoundRect,0.249999X1.025001X-1.025001X1.025001X1.025001X-1.025001X1.025001X-1.025001X-1.025001X0*%
%TD*%
%TA.AperFunction,Conductor*%
%ADD22C,1.500000*%
%TD*%
%TA.AperFunction,Conductor*%
%ADD23C,1.000000*%
%TD*%
%TA.AperFunction,Conductor*%
%ADD24C,0.500000*%
%TD*%
%TA.AperFunction,Conductor*%
%ADD25C,0.800000*%
%TD*%
G04 APERTURE END LIST*
D10*
%TO.P,R4,1*%
%TO.N,SGND*%
X188264800Y-41605200D03*
D11*
%TO.P,R4,2*%
%TO.N,Net-(D2-Pad1)*%
X188264800Y-33985200D03*
%TD*%
D10*
%TO.P,R1,1*%
%TO.N,Net-(R1-Pad1)*%
X181483000Y-49149000D03*
D11*
%TO.P,R1,2*%
%TO.N,SGND*%
X181483000Y-38989000D03*
%TD*%
D12*
%TO.P,D1,1,K*%
%TO.N,VMON*%
X155448000Y-31750000D03*
D11*
%TO.P,D1,2,A*%
%TO.N,SGND*%
X163068000Y-31750000D03*
%TD*%
D10*
%TO.P,C1,1*%
%TO.N,+12V*%
X178054000Y-76922000D03*
%TO.P,C1,2*%
%TO.N,SGND*%
X178054000Y-71922000D03*
%TD*%
%TO.P,R7,1*%
%TO.N,IMON_3V3*%
X180721000Y-56896000D03*
D11*
%TO.P,R7,2*%
%TO.N,IMON*%
X170561000Y-56896000D03*
%TD*%
D10*
%TO.P,R5,1*%
%TO.N,VMON_3V3*%
X171450000Y-36703000D03*
D11*
%TO.P,R5,2*%
%TO.N,VMON*%
X171450000Y-26543000D03*
%TD*%
D13*
%TO.P, ,1*%
%TO.N,SGND*%
X148463000Y-67310000D03*
%TD*%
D14*
%TO.P,D2,1,K*%
%TO.N,Net-(D2-Pad1)*%
X185267600Y-33939400D03*
D15*
%TO.P,D2,2,A*%
%TO.N,Net-(D2-Pad2)*%
X185267600Y-31399400D03*
%TD*%
D13*
%TO.P, ,1*%
%TO.N,SGND*%
X148463000Y-39370000D03*
%TD*%
D16*
%TO.P,U4,1,DC_INPUT_POWER_GROUND*%
%TO.N,SGND*%
X166243000Y-68584000D03*
%TO.P,U4,2,DC_INPUT_POWER*%
%TO.N,+12V*%
X166243000Y-63480000D03*
%TO.P,U4,2-1,HV_RTN*%
%TO.N,Net-(J2-Pad1)*%
X120523000Y-41910000D03*
%TO.P,U4,2-2,Vmon*%
%TO.N,VMON*%
X117983000Y-41910000D03*
%TO.P,U4,3,Imon*%
%TO.N,IMON*%
X166243000Y-58380000D03*
%TO.P,U4,4,HV_ENABLE*%
%TO.N,ENABLE*%
X166243000Y-53280000D03*
%TO.P,U4,5,SIGNAL_GROUND_RET*%
%TO.N,SGND*%
X166243000Y-48180000D03*
%TO.P,U4,6,Vprog*%
%TO.N,VPGM*%
X166243000Y-43080000D03*
%TO.P,U4,7,5VDC_REF*%
%TO.N,Net-(D2-Pad2)*%
X166243000Y-37980000D03*
%TD*%
D17*
%TO.P,U1,1,VI*%
%TO.N,+12V*%
X174935000Y-74168000D03*
D18*
%TO.P,U1,2,GND*%
%TO.N,SGND*%
X174935000Y-71628000D03*
%TO.P,U1,3,VO*%
%TO.N,+5V*%
X174935000Y-69088000D03*
%TD*%
D10*
%TO.P,C2,1*%
%TO.N,+5V*%
X175423200Y-64770000D03*
%TO.P,C2,2*%
%TO.N,SGND*%
X170423200Y-64770000D03*
%TD*%
%TO.P,C3,1*%
%TO.N,+5V*%
X171109000Y-50927000D03*
%TO.P,C3,2*%
%TO.N,SGND*%
X176109000Y-50927000D03*
%TD*%
%TO.P,R6,1*%
%TO.N,SGND*%
X174752000Y-26543000D03*
D11*
%TO.P,R6,2*%
%TO.N,VMON_3V3*%
X174752000Y-36703000D03*
%TD*%
D10*
%TO.P,R8,1*%
%TO.N,SGND*%
X180289200Y-69799200D03*
D11*
%TO.P,R8,2*%
%TO.N,IMON_3V3*%
X180289200Y-59639200D03*
%TD*%
D10*
%TO.P,R3,1*%
%TO.N,SGND*%
X170561000Y-53721000D03*
D11*
%TO.P,R3,2*%
%TO.N,VPGM*%
X180721000Y-53721000D03*
%TD*%
D19*
%TO.P,J3,1,Pin_1*%
%TO.N,+12V*%
X181711600Y-77927200D03*
D20*
%TO.P,J3,2,Pin_2*%
%TO.N,SGND*%
X184251600Y-77927200D03*
%TD*%
D10*
%TO.P,R2,1*%
%TO.N,Net-(R1-Pad1)*%
X184531000Y-43942000D03*
D11*
%TO.P,R2,2*%
%TO.N,VPGM*%
X184531000Y-51562000D03*
%TD*%
D12*
%TO.P,U2,1*%
%TO.N,VPGM*%
X178806000Y-48123000D03*
D11*
%TO.P,U2,2,-*%
%TO.N,Net-(R1-Pad1)*%
X178806000Y-45583000D03*
%TO.P,U2,3,+*%
%TO.N,DAC_SIG*%
X178806000Y-43043000D03*
%TO.P,U2,4,V-*%
%TO.N,SGND*%
X178806000Y-40503000D03*
%TO.P,U2,5,+*%
%TO.N,unconnected-(U2-Pad5)*%
X171186000Y-40503000D03*
%TO.P,U2,6,-*%
%TO.N,unconnected-(U2-Pad6)*%
X171186000Y-43043000D03*
%TO.P,U2,7*%
%TO.N,unconnected-(U2-Pad7)*%
X171186000Y-45583000D03*
%TO.P,U2,8,V+*%
%TO.N,+5V*%
X171186000Y-48123000D03*
%TD*%
D21*
%TO.P,J2,1,Pin_1*%
%TO.N,Net-(J2-Pad1)*%
X117704000Y-76200000D03*
%TD*%
D19*
%TO.P,J1,1,Pin_1*%
%TO.N,SGND*%
X188132400Y-64435200D03*
D20*
%TO.P,J1,2,Pin_2*%
%TO.N,ENABLE*%
X185592400Y-64435200D03*
%TO.P,J1,3,Pin_3*%
%TO.N,SGND*%
X188132400Y-61895200D03*
%TO.P,J1,4,Pin_4*%
%TO.N,VMON_3V3*%
X185592400Y-61895200D03*
%TO.P,J1,5,Pin_5*%
%TO.N,SGND*%
X188132400Y-59355200D03*
%TO.P,J1,6,Pin_6*%
%TO.N,IMON_3V3*%
X185592400Y-59355200D03*
%TO.P,J1,7,Pin_7*%
%TO.N,SGND*%
X188132400Y-56815200D03*
%TO.P,J1,8,Pin_8*%
%TO.N,VPGM*%
X185592400Y-56815200D03*
%TO.P,J1,9,Pin_9*%
%TO.N,SGND*%
X188132400Y-54275200D03*
%TO.P,J1,10,Pin_10*%
%TO.N,DAC_SIG*%
X185592400Y-54275200D03*
%TD*%
D22*
%TO.N,VMON*%
X171450000Y-26543000D02*
X171424600Y-26568400D01*
X171424600Y-26568400D02*
X160629600Y-26568400D01*
X160629600Y-26568400D02*
X155448000Y-31750000D01*
D23*
X171450000Y-26543000D02*
X171475400Y-26568400D01*
D22*
%TO.N,IMON*%
X170561000Y-56896000D02*
X169077000Y-58380000D01*
X169077000Y-58380000D02*
X166243000Y-58380000D01*
%TO.N,Net-(D2-Pad2)*%
X185267600Y-31399400D02*
X185171000Y-31496000D01*
X169570400Y-31496000D02*
X166243000Y-34823400D01*
X185171000Y-31496000D02*
X169570400Y-31496000D01*
X166243000Y-34823400D02*
X166243000Y-37980000D01*
D24*
%TO.N,VPGM*%
X178816000Y-48133000D02*
X177190400Y-46507400D01*
X171196000Y-34544000D02*
X168097200Y-37642800D01*
X168097200Y-37642800D02*
X168097200Y-40817800D01*
X168097200Y-40817800D02*
X166243000Y-42672000D01*
X177190400Y-46507400D02*
X177190400Y-36982400D01*
X177190400Y-36982400D02*
X174752000Y-34544000D01*
X174752000Y-34544000D02*
X171196000Y-34544000D01*
D23*
%TO.N,Net-(D2-Pad1)*%
X185267600Y-33939400D02*
X185313400Y-33985200D01*
X185313400Y-33985200D02*
X188264800Y-33985200D01*
D22*
%TO.N,+12V*%
X166243000Y-63480000D02*
X166243000Y-64008000D01*
X166243000Y-64008000D02*
X171577000Y-69342000D01*
X174935000Y-74168000D02*
X177754511Y-76987511D01*
X177754511Y-76987511D02*
X180771911Y-76987511D01*
X171577000Y-69342000D02*
X171577000Y-74168000D01*
X180771911Y-76987511D02*
X181711600Y-77927200D01*
X171577000Y-74168000D02*
X174935000Y-74168000D01*
%TO.N,+5V*%
X171196000Y-50840000D02*
X171109000Y-50927000D01*
X175463200Y-64770000D02*
X175463200Y-68559800D01*
X171109000Y-50927000D02*
X171109000Y-51678200D01*
X173101000Y-62407800D02*
X175463200Y-64770000D01*
X171109000Y-51678200D02*
X173101000Y-53670200D01*
X173101000Y-53670200D02*
X173101000Y-62407800D01*
X175463200Y-68559800D02*
X174935000Y-69088000D01*
X171196000Y-48133000D02*
X171196000Y-50840000D01*
X171186000Y-48123000D02*
X171196000Y-48133000D01*
D23*
%TO.N,VPGM*%
X180949600Y-53746400D02*
X184069200Y-56866000D01*
X184069200Y-56866000D02*
X185389200Y-56866000D01*
D25*
X180721000Y-53721000D02*
X182880000Y-51562000D01*
X180594000Y-53721000D02*
X180721000Y-53721000D01*
D23*
X180721800Y-53746400D02*
X180949600Y-53746400D01*
D25*
X178816000Y-49276000D02*
X178816000Y-48133000D01*
X180594000Y-53721000D02*
X180594000Y-51054000D01*
X180594000Y-51054000D02*
X178816000Y-49276000D01*
X182880000Y-51562000D02*
X184531000Y-51562000D01*
D23*
%TO.N,Net-(R1-Pad1)*%
X183271000Y-45202000D02*
X179187000Y-45202000D01*
X179187000Y-45202000D02*
X178806000Y-45583000D01*
X184531000Y-46101000D02*
X184531000Y-43942000D01*
X184531000Y-43942000D02*
X183271000Y-45202000D01*
X181483000Y-49149000D02*
X184531000Y-46101000D01*
D25*
%TO.N,DAC_SIG*%
X187096400Y-52222400D02*
X187096400Y-43205400D01*
X185592400Y-53726400D02*
X187096400Y-52222400D01*
X185592400Y-54275200D02*
X185592400Y-53726400D01*
X180187600Y-42062400D02*
X179207000Y-43043000D01*
X187096400Y-43205400D02*
X185953400Y-42062400D01*
X185953400Y-42062400D02*
X180187600Y-42062400D01*
D22*
%TO.N,VMON*%
X117983000Y-34417000D02*
X120650000Y-31750000D01*
X120650000Y-31750000D02*
X155448000Y-31750000D01*
X117983000Y-41910000D02*
X117983000Y-34417000D01*
D25*
%TO.N,VMON_3V3*%
X185389200Y-61946000D02*
X185541600Y-61946000D01*
X178308000Y-50546000D02*
X178308000Y-60401200D01*
X178308000Y-60401200D02*
X180390800Y-62484000D01*
X184851200Y-62484000D02*
X185389200Y-61946000D01*
X171450000Y-36703000D02*
X174752000Y-36703000D01*
X174752000Y-46990000D02*
X178308000Y-50546000D01*
X180390800Y-62484000D02*
X184851200Y-62484000D01*
X174752000Y-36703000D02*
X174752000Y-46990000D01*
D22*
%TO.N,IMON_3V3*%
X180721000Y-59207400D02*
X180573200Y-59355200D01*
X180573200Y-59355200D02*
X185541600Y-59355200D01*
X180721000Y-56896000D02*
X180721000Y-59207400D01*
D24*
%TO.N,ENABLE*%
X172110400Y-38760400D02*
X170332400Y-38760400D01*
X173228000Y-39878000D02*
X172110400Y-38760400D01*
X175768000Y-52679600D02*
X173228000Y-50139600D01*
X185541600Y-64486000D02*
X179167000Y-64486000D01*
X169291000Y-50232000D02*
X166243000Y-53280000D01*
X179167000Y-64486000D02*
X175768000Y-61087000D01*
X175768000Y-61087000D02*
X175768000Y-52679600D01*
X170332400Y-38760400D02*
X169291000Y-39801800D01*
X169291000Y-39801800D02*
X169291000Y-50232000D01*
X173228000Y-50139600D02*
X173228000Y-39878000D01*
%TD*%
%TA.AperFunction,Conductor*%
%TO.N,+12V*%
G36*
X167008488Y-61976393D02*
G01*
X167195824Y-61997501D01*
X167209464Y-62000614D01*
X167351557Y-62050334D01*
X167384079Y-62061714D01*
X167396688Y-62067787D01*
X167553320Y-62166206D01*
X167564262Y-62174932D01*
X167695068Y-62305738D01*
X167703794Y-62316680D01*
X167802213Y-62473312D01*
X167808285Y-62485920D01*
X167845866Y-62593317D01*
X167869386Y-62660534D01*
X167872500Y-62674179D01*
X167893607Y-62861512D01*
X167894000Y-62868510D01*
X167894000Y-63754000D01*
X169358958Y-65218958D01*
X169371523Y-65236985D01*
X169422569Y-65347714D01*
X169544605Y-65520391D01*
X169696065Y-65667937D01*
X169871877Y-65785411D01*
X169954704Y-65820996D01*
X169974226Y-65834226D01*
X172805933Y-68665933D01*
X172810052Y-68670477D01*
X172928566Y-68814886D01*
X172935373Y-68825074D01*
X173021977Y-68987099D01*
X173026666Y-68998418D01*
X173079999Y-69174234D01*
X173082389Y-69186251D01*
X173100699Y-69372158D01*
X173101000Y-69378284D01*
X173101000Y-73279000D01*
X173427000Y-73279000D01*
X173427000Y-73901569D01*
X173430641Y-73910359D01*
X173439431Y-73914000D01*
X176430568Y-73914000D01*
X176439358Y-73910359D01*
X176442999Y-73901569D01*
X176442999Y-73341500D01*
X176461305Y-73297306D01*
X176505499Y-73279000D01*
X181013330Y-73279000D01*
X181019456Y-73279301D01*
X181205366Y-73297612D01*
X181217375Y-73300000D01*
X181354183Y-73341500D01*
X181393195Y-73353334D01*
X181404514Y-73358023D01*
X181566539Y-73444627D01*
X181576726Y-73451434D01*
X181718748Y-73567988D01*
X181727412Y-73576652D01*
X181843966Y-73718674D01*
X181850773Y-73728861D01*
X181937377Y-73890886D01*
X181942066Y-73902205D01*
X181995399Y-74078021D01*
X181997789Y-74090038D01*
X182016099Y-74275944D01*
X182016400Y-74282070D01*
X182016400Y-76511546D01*
X181998094Y-76555740D01*
X181977819Y-76569288D01*
X181969241Y-76572841D01*
X181965600Y-76581631D01*
X181965600Y-79285199D01*
X181964866Y-79285199D01*
X181966307Y-79296881D01*
X181955480Y-79332573D01*
X181955480Y-79332574D01*
X181942066Y-79376795D01*
X181937377Y-79388114D01*
X181850771Y-79550142D01*
X181843964Y-79560329D01*
X181789537Y-79626649D01*
X181747350Y-79649199D01*
X181741224Y-79649500D01*
X170455176Y-79649500D01*
X170410982Y-79631194D01*
X170406863Y-79626649D01*
X170352436Y-79560329D01*
X170345629Y-79550142D01*
X170259023Y-79388114D01*
X170254334Y-79376795D01*
X170225444Y-79281558D01*
X170201000Y-79200975D01*
X170198611Y-79188962D01*
X170193449Y-79136544D01*
X170180301Y-79003056D01*
X170180000Y-78996930D01*
X170180000Y-78823596D01*
X180353601Y-78823596D01*
X180353783Y-78826966D01*
X180359925Y-78883510D01*
X180361724Y-78891078D01*
X180409864Y-79019491D01*
X180414099Y-79027226D01*
X180496028Y-79136544D01*
X180502256Y-79142772D01*
X180611574Y-79224701D01*
X180619309Y-79228936D01*
X180747725Y-79277077D01*
X180755289Y-79278875D01*
X180811830Y-79285017D01*
X180815198Y-79285200D01*
X181445169Y-79285199D01*
X181453959Y-79281558D01*
X181457600Y-79272768D01*
X181457600Y-78193631D01*
X181453959Y-78184841D01*
X181445169Y-78181200D01*
X180366032Y-78181200D01*
X180357242Y-78184841D01*
X180353601Y-78193631D01*
X180353601Y-78823596D01*
X170180000Y-78823596D01*
X170180000Y-78009099D01*
X177331260Y-78009099D01*
X177333364Y-78014178D01*
X177395270Y-78057525D01*
X177399973Y-78060240D01*
X177602456Y-78154660D01*
X177607566Y-78156520D01*
X177823365Y-78214343D01*
X177828719Y-78215287D01*
X178051280Y-78234758D01*
X178056720Y-78234758D01*
X178279281Y-78215287D01*
X178284635Y-78214343D01*
X178500434Y-78156520D01*
X178505544Y-78154660D01*
X178708027Y-78060240D01*
X178712730Y-78057525D01*
X178771706Y-78016229D01*
X178776818Y-78008205D01*
X178775629Y-78002839D01*
X178433559Y-77660769D01*
X180353600Y-77660769D01*
X180357241Y-77669559D01*
X180366031Y-77673200D01*
X181445169Y-77673200D01*
X181453959Y-77669559D01*
X181457600Y-77660769D01*
X181457600Y-76581631D01*
X181453959Y-76572841D01*
X181445169Y-76569200D01*
X180815204Y-76569201D01*
X180811834Y-76569383D01*
X180755290Y-76575525D01*
X180747722Y-76577324D01*
X180619309Y-76625464D01*
X180611574Y-76629699D01*
X180502256Y-76711628D01*
X180496028Y-76717856D01*
X180414099Y-76827174D01*
X180409864Y-76834909D01*
X180361723Y-76963325D01*
X180359925Y-76970889D01*
X180353783Y-77027430D01*
X180353600Y-77030798D01*
X180353600Y-77660769D01*
X178433559Y-77660769D01*
X178062790Y-77290000D01*
X178054000Y-77286359D01*
X178045210Y-77290000D01*
X177334901Y-78000309D01*
X177331260Y-78009099D01*
X170180000Y-78009099D01*
X170180000Y-76924720D01*
X176741242Y-76924720D01*
X176760713Y-77147281D01*
X176761657Y-77152635D01*
X176819480Y-77368434D01*
X176821340Y-77373544D01*
X176915760Y-77576027D01*
X176918475Y-77580730D01*
X176959771Y-77639706D01*
X176967795Y-77644818D01*
X176973161Y-77643629D01*
X177686000Y-76930790D01*
X177689641Y-76922000D01*
X178418359Y-76922000D01*
X178422000Y-76930790D01*
X179132309Y-77641099D01*
X179141099Y-77644740D01*
X179146178Y-77642636D01*
X179189525Y-77580730D01*
X179192240Y-77576027D01*
X179286660Y-77373544D01*
X179288520Y-77368434D01*
X179346343Y-77152635D01*
X179347287Y-77147281D01*
X179366758Y-76924720D01*
X179366758Y-76919280D01*
X179347287Y-76696719D01*
X179346343Y-76691365D01*
X179288520Y-76475566D01*
X179286660Y-76470456D01*
X179192240Y-76267973D01*
X179189525Y-76263270D01*
X179148229Y-76204294D01*
X179140205Y-76199182D01*
X179134839Y-76200371D01*
X178422000Y-76913210D01*
X178418359Y-76922000D01*
X177689641Y-76922000D01*
X177686000Y-76913210D01*
X176975691Y-76202901D01*
X176966901Y-76199260D01*
X176961822Y-76201364D01*
X176918475Y-76263270D01*
X176915760Y-76267973D01*
X176821340Y-76470456D01*
X176819480Y-76475566D01*
X176761657Y-76691365D01*
X176760713Y-76696719D01*
X176741242Y-76919280D01*
X176741242Y-76924720D01*
X170180000Y-76924720D01*
X170180000Y-75835795D01*
X177331182Y-75835795D01*
X177332371Y-75841161D01*
X178045210Y-76554000D01*
X178054000Y-76557641D01*
X178062790Y-76554000D01*
X178773099Y-75843691D01*
X178776740Y-75834901D01*
X178774636Y-75829822D01*
X178712730Y-75786475D01*
X178708027Y-75783760D01*
X178505544Y-75689340D01*
X178500434Y-75687480D01*
X178284635Y-75629657D01*
X178279281Y-75628713D01*
X178056720Y-75609242D01*
X178051280Y-75609242D01*
X177828719Y-75628713D01*
X177823365Y-75629657D01*
X177607566Y-75687480D01*
X177602456Y-75689340D01*
X177399973Y-75783760D01*
X177395270Y-75786475D01*
X177336294Y-75827771D01*
X177331182Y-75835795D01*
X170180000Y-75835795D01*
X170180000Y-75166896D01*
X173427001Y-75166896D01*
X173427183Y-75170266D01*
X173433325Y-75226810D01*
X173435124Y-75234378D01*
X173483264Y-75362791D01*
X173487499Y-75370526D01*
X173569428Y-75479844D01*
X173575656Y-75486072D01*
X173684974Y-75568001D01*
X173692709Y-75572236D01*
X173821125Y-75620377D01*
X173828689Y-75622175D01*
X173885230Y-75628317D01*
X173888598Y-75628500D01*
X174668569Y-75628500D01*
X174677359Y-75624859D01*
X174681000Y-75616069D01*
X174681000Y-75616068D01*
X175189000Y-75616068D01*
X175192641Y-75624858D01*
X175201431Y-75628499D01*
X175981396Y-75628499D01*
X175984766Y-75628317D01*
X176041310Y-75622175D01*
X176048878Y-75620376D01*
X176177291Y-75572236D01*
X176185026Y-75568001D01*
X176294344Y-75486072D01*
X176300572Y-75479844D01*
X176382501Y-75370526D01*
X176386736Y-75362791D01*
X176434877Y-75234375D01*
X176436675Y-75226811D01*
X176442817Y-75170270D01*
X176443000Y-75166902D01*
X176443000Y-74434431D01*
X176439359Y-74425641D01*
X176430569Y-74422000D01*
X175201431Y-74422000D01*
X175192641Y-74425641D01*
X175189000Y-74434431D01*
X175189000Y-75616068D01*
X174681000Y-75616068D01*
X174681000Y-74434431D01*
X174677359Y-74425641D01*
X174668569Y-74422000D01*
X173439432Y-74422000D01*
X173430642Y-74425641D01*
X173427001Y-74434431D01*
X173427001Y-75166896D01*
X170180000Y-75166896D01*
X170180000Y-70104000D01*
X164887067Y-64811067D01*
X164882948Y-64806523D01*
X164764434Y-64662114D01*
X164757627Y-64651926D01*
X164697703Y-64539815D01*
X165547544Y-64539815D01*
X165549648Y-64544893D01*
X165603337Y-64582486D01*
X165608048Y-64585207D01*
X165804502Y-64676815D01*
X165809612Y-64678675D01*
X166018988Y-64734777D01*
X166024342Y-64735721D01*
X166240280Y-64754613D01*
X166245720Y-64754613D01*
X166461658Y-64735721D01*
X166467012Y-64734777D01*
X166676388Y-64678675D01*
X166681498Y-64676815D01*
X166877952Y-64585207D01*
X166882663Y-64582486D01*
X166933421Y-64546946D01*
X166938533Y-64538921D01*
X166937343Y-64533553D01*
X166251790Y-63848000D01*
X166243000Y-63844359D01*
X166234210Y-63848000D01*
X165551185Y-64531025D01*
X165547544Y-64539815D01*
X164697703Y-64539815D01*
X164671023Y-64489901D01*
X164666334Y-64478582D01*
X164613001Y-64302766D01*
X164610611Y-64290749D01*
X164599264Y-64175533D01*
X164592301Y-64104842D01*
X164592000Y-64098716D01*
X164592000Y-63482720D01*
X164968387Y-63482720D01*
X164987279Y-63698658D01*
X164988223Y-63704012D01*
X165044325Y-63913388D01*
X165046185Y-63918497D01*
X165137793Y-64114951D01*
X165140514Y-64119662D01*
X165176053Y-64170420D01*
X165184079Y-64175533D01*
X165189447Y-64174343D01*
X165875000Y-63488790D01*
X165878641Y-63480000D01*
X166607359Y-63480000D01*
X166611000Y-63488790D01*
X167294025Y-64171815D01*
X167302815Y-64175456D01*
X167307893Y-64173352D01*
X167345486Y-64119662D01*
X167348207Y-64114951D01*
X167439815Y-63918497D01*
X167441675Y-63913388D01*
X167497777Y-63704012D01*
X167498721Y-63698658D01*
X167517613Y-63482720D01*
X167517613Y-63477280D01*
X167498721Y-63261342D01*
X167497777Y-63255988D01*
X167441675Y-63046612D01*
X167439815Y-63041503D01*
X167348207Y-62845049D01*
X167345486Y-62840338D01*
X167309947Y-62789580D01*
X167301921Y-62784467D01*
X167296553Y-62785657D01*
X166611000Y-63471210D01*
X166607359Y-63480000D01*
X165878641Y-63480000D01*
X165875000Y-63471210D01*
X165191975Y-62788185D01*
X165183185Y-62784544D01*
X165178107Y-62786648D01*
X165140514Y-62840338D01*
X165137793Y-62845049D01*
X165046185Y-63041503D01*
X165044325Y-63046612D01*
X164988223Y-63255988D01*
X164987279Y-63261342D01*
X164968387Y-63477280D01*
X164968387Y-63482720D01*
X164592000Y-63482720D01*
X164592000Y-62979070D01*
X164592301Y-62972944D01*
X164602587Y-62868510D01*
X164610612Y-62787034D01*
X164613001Y-62775021D01*
X164666334Y-62599205D01*
X164671023Y-62587886D01*
X164757627Y-62425861D01*
X164760822Y-62421079D01*
X165547467Y-62421079D01*
X165548657Y-62426447D01*
X166234210Y-63112000D01*
X166243000Y-63115641D01*
X166251790Y-63112000D01*
X166934815Y-62428975D01*
X166938456Y-62420185D01*
X166936352Y-62415107D01*
X166882663Y-62377514D01*
X166877952Y-62374793D01*
X166681498Y-62283185D01*
X166676388Y-62281325D01*
X166467012Y-62225223D01*
X166461658Y-62224279D01*
X166245720Y-62205387D01*
X166240280Y-62205387D01*
X166024342Y-62224279D01*
X166018988Y-62225223D01*
X165809612Y-62281325D01*
X165804503Y-62283185D01*
X165608049Y-62374793D01*
X165603338Y-62377514D01*
X165552580Y-62413053D01*
X165547467Y-62421079D01*
X164760822Y-62421079D01*
X164764434Y-62415674D01*
X164880988Y-62273652D01*
X164889652Y-62264988D01*
X165031674Y-62148434D01*
X165041861Y-62141627D01*
X165203886Y-62055023D01*
X165215205Y-62050334D01*
X165246260Y-62040913D01*
X165391025Y-61997000D01*
X165403034Y-61994612D01*
X165588944Y-61976301D01*
X165595070Y-61976000D01*
X167001490Y-61976000D01*
X167008488Y-61976393D01*
G37*
%TD.AperFunction*%
%TD*%
M02*
