M48
; DRILL file {KiCad (6.0.5-0)} date Wednesday, 29 June 2022 at 07:05:27
; FORMAT={-:-/ absolute / inch / decimal}
; #@! TF.CreationDate,2022-06-29T07:05:27+01:00
; #@! TF.GenerationSoftware,Kicad,Pcbnew,(6.0.5-0)
; #@! TF.FileFunction,Plated,1,2,PTH
FMAT,2
INCH
; #@! TA.AperFunction,Plated,PTH,ComponentDrill
T1C0.0300
; #@! TA.AperFunction,Plated,PTH,ComponentDrill
T2C0.0315
; #@! TA.AperFunction,Plated,PTH,ComponentDrill
T3C0.0354
; #@! TA.AperFunction,Plated,PTH,ComponentDrill
T4C0.0394
; #@! TA.AperFunction,Plated,PTH,ComponentDrill
T5C0.0433
; #@! TA.AperFunction,Plated,PTH,ComponentDrill
T6C0.0610
; #@! TA.AperFunction,Plated,PTH,ComponentDrill
T7C0.0984
%
G90
G05
T1
X4.645Y-1.65
X4.745Y-1.65
X6.545Y-1.4953
X6.545Y-1.6961
X6.545Y-1.8969
X6.545Y-2.0976
X6.545Y-2.2984
X6.545Y-2.4992
X6.545Y-2.7002
T2
X6.12Y-1.25
X6.42Y-1.25
X6.7096Y-2.55
X6.715Y-2.115
X6.715Y-2.24
X6.7366Y-2.005
X6.7396Y-1.5946
X6.7396Y-1.6946
X6.7396Y-1.7946
X6.7396Y-1.8946
X6.75Y-1.045
X6.75Y-1.445
X6.88Y-1.045
X6.88Y-1.445
X6.9064Y-2.55
X6.9334Y-2.005
X7.01Y-2.8316
X7.01Y-3.0284
X7.0396Y-1.5946
X7.0396Y-1.6946
X7.0396Y-1.7946
X7.0396Y-1.8946
X7.098Y-2.348
X7.098Y-2.748
X7.115Y-2.115
X7.115Y-2.24
X7.145Y-1.535
X7.145Y-1.935
X7.265Y-1.73
X7.265Y-2.03
X7.412Y-1.338
X7.412Y-1.638
T3
X7.294Y-1.2362
X7.294Y-1.3362
T4
X7.154Y-3.068
X7.254Y-3.068
X7.3068Y-2.1368
X7.3068Y-2.2368
X7.3068Y-2.3368
X7.3068Y-2.4368
X7.3068Y-2.5368
X7.4068Y-2.1368
X7.4068Y-2.2368
X7.4068Y-2.3368
X7.4068Y-2.4368
X7.4068Y-2.5368
T5
X6.8872Y-2.72
X6.8872Y-2.82
X6.8872Y-2.92
T6
X4.634Y-3.0
T7
X5.845Y-1.55
X5.845Y-2.65
T0
M30
