%TF.GenerationSoftware,KiCad,Pcbnew,(6.0.5-0)*%
%TF.CreationDate,2022-06-29T07:05:30+01:00*%
%TF.ProjectId,revised_minh_design,72657669-7365-4645-9f6d-696e685f6465,rev?*%
%TF.SameCoordinates,Original*%
%TF.FileFunction,Legend,Bot*%
%TF.FilePolarity,Positive*%
%FSLAX46Y46*%
G04 Gerber Fmt 4.6, Leading zero omitted, Abs format (unit mm)*
G04 Created by KiCad (PCBNEW (6.0.5-0)) date 2022-06-29 07:05:30*
%MOMM*%
%LPD*%
G01*
G04 APERTURE LIST*
%ADD10C,1.000000*%
%ADD11C,0.900000*%
%ADD12C,0.150000*%
%ADD13C,0.120000*%
G04 APERTURE END LIST*
D10*
X120660971Y-31822685D02*
X124089542Y-31822685D01*
X122375257Y-31822685D02*
X122375257Y-25822685D01*
X122946685Y-26679828D01*
X123518114Y-27251257D01*
X124089542Y-27536971D01*
X115232400Y-25822685D02*
X118089542Y-25822685D01*
X118375257Y-28679828D01*
X118089542Y-28394114D01*
X117518114Y-28108400D01*
X116089542Y-28108400D01*
X115518114Y-28394114D01*
X115232400Y-28679828D01*
X114946685Y-29251257D01*
X114946685Y-30679828D01*
X115232400Y-31251257D01*
X115518114Y-31536971D01*
X116089542Y-31822685D01*
X117518114Y-31822685D01*
X118089542Y-31536971D01*
X118375257Y-31251257D01*
X112660971Y-30108400D02*
X109803828Y-30108400D01*
X113232400Y-31822685D02*
X111232400Y-25822685D01*
X109232400Y-31822685D01*
X104089542Y-31822685D02*
X107518114Y-31822685D01*
X105803828Y-31822685D02*
X105803828Y-25822685D01*
X106375257Y-26679828D01*
X106946685Y-27251257D01*
X107518114Y-27536971D01*
X101803828Y-26394114D02*
X101518114Y-26108400D01*
X100946685Y-25822685D01*
X99518114Y-25822685D01*
X98946685Y-26108400D01*
X98660971Y-26394114D01*
X98375257Y-26965542D01*
X98375257Y-27536971D01*
X98660971Y-28394114D01*
X102089542Y-31822685D01*
X98375257Y-31822685D01*
D11*
X146512809Y-48061904D02*
X143655666Y-48061904D01*
X145084238Y-53061904D02*
X145084238Y-48061904D01*
X141989000Y-53061904D02*
X141989000Y-48061904D01*
X141989000Y-50442857D02*
X139131857Y-50442857D01*
X139131857Y-53061904D02*
X139131857Y-48061904D01*
X136750904Y-53061904D02*
X136750904Y-48061904D01*
X134608047Y-52823809D02*
X133893761Y-53061904D01*
X132703285Y-53061904D01*
X132227095Y-52823809D01*
X131989000Y-52585714D01*
X131750904Y-52109523D01*
X131750904Y-51633333D01*
X131989000Y-51157142D01*
X132227095Y-50919047D01*
X132703285Y-50680952D01*
X133655666Y-50442857D01*
X134131857Y-50204761D01*
X134369952Y-49966666D01*
X134608047Y-49490476D01*
X134608047Y-49014285D01*
X134369952Y-48538095D01*
X134131857Y-48300000D01*
X133655666Y-48061904D01*
X132465190Y-48061904D01*
X131750904Y-48300000D01*
X126274714Y-48061904D02*
X125084238Y-53061904D01*
X124131857Y-49490476D01*
X123179476Y-53061904D01*
X121989000Y-48061904D01*
X120322333Y-51633333D02*
X117941380Y-51633333D01*
X120798523Y-53061904D02*
X119131857Y-48061904D01*
X117465190Y-53061904D01*
X114846142Y-50680952D02*
X114846142Y-53061904D01*
X116512809Y-48061904D02*
X114846142Y-50680952D01*
X113179476Y-48061904D01*
X107703285Y-48061904D02*
X107703285Y-52109523D01*
X107465190Y-52585714D01*
X107227095Y-52823809D01*
X106750904Y-53061904D01*
X105798523Y-53061904D01*
X105322333Y-52823809D01*
X105084238Y-52585714D01*
X104846142Y-52109523D01*
X104846142Y-48061904D01*
X102465190Y-53061904D02*
X102465190Y-48061904D01*
X100560428Y-48061904D01*
X100084238Y-48300000D01*
X99846142Y-48538095D01*
X99608047Y-49014285D01*
X99608047Y-49728571D01*
X99846142Y-50204761D01*
X100084238Y-50442857D01*
X100560428Y-50680952D01*
X102465190Y-50680952D01*
D12*
%TO.C,J2*%
X119626380Y-75866666D02*
X120340666Y-75866666D01*
X120483523Y-75819047D01*
X120578761Y-75723809D01*
X120626380Y-75580952D01*
X120626380Y-75485714D01*
X119721619Y-76295238D02*
X119674000Y-76342857D01*
X119626380Y-76438095D01*
X119626380Y-76676190D01*
X119674000Y-76771428D01*
X119721619Y-76819047D01*
X119816857Y-76866666D01*
X119912095Y-76866666D01*
X120054952Y-76819047D01*
X120626380Y-76247619D01*
X120626380Y-76866666D01*
%TO.C,J1*%
X187195733Y-66657580D02*
X187195733Y-67371866D01*
X187243352Y-67514723D01*
X187338590Y-67609961D01*
X187481447Y-67657580D01*
X187576685Y-67657580D01*
X186195733Y-67657580D02*
X186767161Y-67657580D01*
X186481447Y-67657580D02*
X186481447Y-66657580D01*
X186576685Y-66800438D01*
X186671923Y-66895676D01*
X186767161Y-66943295D01*
D13*
%TO.C,J2*%
X116169000Y-77460000D02*
X105164000Y-77460000D01*
X116169000Y-74940000D02*
X105164000Y-74940000D01*
%TO.C,J1*%
X186862400Y-63165200D02*
X189462400Y-63165200D01*
X189462400Y-65765200D02*
X189462400Y-64435200D01*
X184262400Y-52945200D02*
X189462400Y-52945200D01*
X184262400Y-65765200D02*
X186862400Y-65765200D01*
X184262400Y-65765200D02*
X184262400Y-52945200D01*
X188132400Y-65765200D02*
X189462400Y-65765200D01*
X186862400Y-65765200D02*
X186862400Y-63165200D01*
X189462400Y-63165200D02*
X189462400Y-52945200D01*
%TD*%
M02*
