M48
; DRILL file {KiCad (6.0.5-0)} date Tuesday, 28 June 2022 at 22:52:01
; FORMAT={-:-/ absolute / inch / decimal}
; #@! TF.CreationDate,2022-06-28T22:52:01+01:00
; #@! TF.GenerationSoftware,Kicad,Pcbnew,(6.0.5-0)
; #@! TF.FileFunction,Plated,1,2,PTH
FMAT,2
INCH
; #@! TA.AperFunction,Plated,PTH,ComponentDrill
T1C0.0300
; #@! TA.AperFunction,Plated,PTH,ComponentDrill
T2C0.0315
; #@! TA.AperFunction,Plated,PTH,ComponentDrill
T3C0.0354
; #@! TA.AperFunction,Plated,PTH,ComponentDrill
T4C0.0394
; #@! TA.AperFunction,Plated,PTH,ComponentDrill
T5C0.0433
; #@! TA.AperFunction,Plated,PTH,ComponentDrill
T6C0.0610
; #@! TA.AperFunction,Plated,PTH,ComponentDrill
T7C0.0984
%
G90
G05
T1
X4.645Y-1.65
X4.745Y-1.65
X6.545Y-1.4953
X6.545Y-1.6961
X6.545Y-1.8969
X6.545Y-2.0976
X6.545Y-2.2984
X6.545Y-2.4992
X6.545Y-2.7002
T2
X6.12Y-1.25
X6.42Y-1.25
X6.7096Y-2.55
X6.715Y-2.115
X6.715Y-2.24
X6.7366Y-2.005
X6.7396Y-1.5946
X6.7396Y-1.6946
X6.7396Y-1.7946
X6.7396Y-1.8946
X6.75Y-1.045
X6.75Y-1.445
X6.88Y-1.045
X6.88Y-1.445
X6.9064Y-2.55
X6.9334Y-2.005
X7.01Y-2.8316
X7.01Y-3.0284
X7.0396Y-1.5946
X7.0396Y-1.6946
X7.0396Y-1.7946
X7.0396Y-1.8946
X7.085Y-2.345
X7.085Y-2.745
X7.115Y-2.115
X7.115Y-2.24
X7.145Y-1.535
X7.145Y-1.935
X7.265Y-1.73
X7.265Y-2.03
X7.275Y-1.15
X7.275Y-1.55
T3
X7.096Y-1.2762
X7.096Y-1.3762
T4
X7.264Y-2.145
X7.264Y-2.245
X7.264Y-2.345
X7.264Y-2.445
X7.264Y-2.545
X7.264Y-2.645
X7.264Y-2.745
T5
X6.8872Y-2.72
X6.8872Y-2.82
X6.8872Y-2.92
T6
X4.634Y-3.0
T7
X5.845Y-1.55
X5.845Y-2.65
T0
M30
