%TF.GenerationSoftware,KiCad,Pcbnew,(6.0.5-0)*%
%TF.CreationDate,2022-06-28T18:21:39+01:00*%
%TF.ProjectId,revised_minh_design,72657669-7365-4645-9f6d-696e685f6465,rev?*%
%TF.SameCoordinates,Original*%
%TF.FileFunction,Soldermask,Top*%
%TF.FilePolarity,Negative*%
%FSLAX46Y46*%
G04 Gerber Fmt 4.6, Leading zero omitted, Abs format (unit mm)*
G04 Created by KiCad (PCBNEW (6.0.5-0)) date 2022-06-28 18:21:39*
%MOMM*%
%LPD*%
G01*
G04 APERTURE LIST*
G04 Aperture macros list*
%AMRoundRect*
0 Rectangle with rounded corners*
0 $1 Rounding radius*
0 $2 $3 $4 $5 $6 $7 $8 $9 X,Y pos of 4 corners*
0 Add a 4 corners polygon primitive as box body*
4,1,4,$2,$3,$4,$5,$6,$7,$8,$9,$2,$3,0*
0 Add four circle primitives for the rounded corners*
1,1,$1+$1,$2,$3*
1,1,$1+$1,$4,$5*
1,1,$1+$1,$6,$7*
1,1,$1+$1,$8,$9*
0 Add four rect primitives between the rounded corners*
20,1,$1+$1,$2,$3,$4,$5,0*
20,1,$1+$1,$4,$5,$6,$7,0*
20,1,$1+$1,$6,$7,$8,$9,0*
20,1,$1+$1,$8,$9,$2,$3,0*%
G04 Aperture macros list end*
%ADD10C,3.200000*%
%ADD11C,1.600000*%
%ADD12O,1.600000X1.600000*%
%ADD13R,1.600000X1.600000*%
%ADD14C,5.600000*%
%ADD15R,1.800000X1.800000*%
%ADD16C,1.800000*%
%ADD17C,1.524000*%
%ADD18R,2.000000X1.905000*%
%ADD19O,2.000000X1.905000*%
%ADD20R,1.700000X1.700000*%
%ADD21O,1.700000X1.700000*%
%ADD22C,2.800000*%
%ADD23RoundRect,0.249999X1.025001X-1.025001X1.025001X1.025001X-1.025001X1.025001X-1.025001X-1.025001X0*%
G04 APERTURE END LIST*
D10*
%TO.C, *%
X167005000Y-76200000D03*
%TD*%
%TO.C, *%
X91000000Y-76200000D03*
%TD*%
%TO.C, *%
X167005000Y-29337000D03*
%TD*%
%TO.C, *%
X91000000Y-29337000D03*
%TD*%
D11*
%TO.C,R1*%
X181483000Y-49149000D03*
D12*
X181483000Y-38989000D03*
%TD*%
D13*
%TO.C,D1*%
X155448000Y-31750000D03*
D12*
X163068000Y-31750000D03*
%TD*%
D11*
%TO.C,C1*%
X178054000Y-76922000D03*
X178054000Y-71922000D03*
%TD*%
%TO.C,R7*%
X180721000Y-56896000D03*
D12*
X170561000Y-56896000D03*
%TD*%
D11*
%TO.C,R5*%
X171450000Y-37846000D03*
D12*
X171450000Y-27686000D03*
%TD*%
D14*
%TO.C, *%
X148463000Y-67310000D03*
%TD*%
D11*
%TO.C,R4*%
X184785000Y-39370000D03*
D12*
X184785000Y-29210000D03*
%TD*%
D15*
%TO.C,D2*%
X180340000Y-32507000D03*
D16*
X180340000Y-35047000D03*
%TD*%
D14*
%TO.C, *%
X148463000Y-39370000D03*
%TD*%
D17*
%TO.C,U4*%
X166243000Y-68584000D03*
X166243000Y-63480000D03*
X120523000Y-41910000D03*
X117983000Y-41910000D03*
X166243000Y-58380000D03*
X166243000Y-53280000D03*
X166243000Y-48180000D03*
X166243000Y-43080000D03*
X166243000Y-37980000D03*
%TD*%
D18*
%TO.C,U1*%
X174935000Y-74168000D03*
D19*
X174935000Y-71628000D03*
X174935000Y-69088000D03*
%TD*%
D11*
%TO.C,C2*%
X175728000Y-64770000D03*
X170728000Y-64770000D03*
%TD*%
%TO.C,C3*%
X171109000Y-50927000D03*
X176109000Y-50927000D03*
%TD*%
%TO.C,R6*%
X174752000Y-27686000D03*
D12*
X174752000Y-37846000D03*
%TD*%
D11*
%TO.C,R8*%
X179959000Y-69723000D03*
D12*
X179959000Y-59563000D03*
%TD*%
D20*
%TO.C,J1*%
X184506000Y-69723000D03*
D21*
X184506000Y-67183000D03*
X184506000Y-64643000D03*
X184506000Y-62103000D03*
X184506000Y-59563000D03*
X184506000Y-57023000D03*
X184506000Y-54483000D03*
%TD*%
D11*
%TO.C,R3*%
X170561000Y-53721000D03*
D12*
X180721000Y-53721000D03*
%TD*%
D11*
%TO.C,R2*%
X184531000Y-43942000D03*
D12*
X184531000Y-51562000D03*
%TD*%
D13*
%TO.C,U2*%
X178806000Y-48123000D03*
D12*
X178806000Y-45583000D03*
X178806000Y-43043000D03*
X178806000Y-40503000D03*
X171186000Y-40503000D03*
X171186000Y-43043000D03*
X171186000Y-45583000D03*
X171186000Y-48123000D03*
%TD*%
D22*
%TO.C,J2*%
X103904000Y-76200000D03*
D23*
X117704000Y-76200000D03*
%TD*%
M02*
