%TF.GenerationSoftware,KiCad,Pcbnew,(6.0.5-0)*%
%TF.CreationDate,2022-06-28T22:52:03+01:00*%
%TF.ProjectId,revised_minh_design,72657669-7365-4645-9f6d-696e685f6465,rev?*%
%TF.SameCoordinates,Original*%
%TF.FileFunction,Legend,Bot*%
%TF.FilePolarity,Positive*%
%FSLAX46Y46*%
G04 Gerber Fmt 4.6, Leading zero omitted, Abs format (unit mm)*
G04 Created by KiCad (PCBNEW (6.0.5-0)) date 2022-06-28 22:52:03*
%MOMM*%
%LPD*%
G01*
G04 APERTURE LIST*
%ADD10C,1.000000*%
%ADD11C,0.900000*%
%ADD12C,0.150000*%
%ADD13C,0.120000*%
G04 APERTURE END LIST*
D10*
X117079571Y-31797285D02*
X120508142Y-31797285D01*
X118793857Y-31797285D02*
X118793857Y-25797285D01*
X119365285Y-26654428D01*
X119936714Y-27225857D01*
X120508142Y-27511571D01*
X111651000Y-25797285D02*
X114508142Y-25797285D01*
X114793857Y-28654428D01*
X114508142Y-28368714D01*
X113936714Y-28083000D01*
X112508142Y-28083000D01*
X111936714Y-28368714D01*
X111651000Y-28654428D01*
X111365285Y-29225857D01*
X111365285Y-30654428D01*
X111651000Y-31225857D01*
X111936714Y-31511571D01*
X112508142Y-31797285D01*
X113936714Y-31797285D01*
X114508142Y-31511571D01*
X114793857Y-31225857D01*
X109079571Y-30083000D02*
X106222428Y-30083000D01*
X109651000Y-31797285D02*
X107651000Y-25797285D01*
X105651000Y-31797285D01*
X100508142Y-31797285D02*
X103936714Y-31797285D01*
X102222428Y-31797285D02*
X102222428Y-25797285D01*
X102793857Y-26654428D01*
X103365285Y-27225857D01*
X103936714Y-27511571D01*
X98222428Y-26368714D02*
X97936714Y-26083000D01*
X97365285Y-25797285D01*
X95936714Y-25797285D01*
X95365285Y-26083000D01*
X95079571Y-26368714D01*
X94793857Y-26940142D01*
X94793857Y-27511571D01*
X95079571Y-28368714D01*
X98508142Y-31797285D01*
X94793857Y-31797285D01*
D11*
X146512809Y-48061904D02*
X143655666Y-48061904D01*
X145084238Y-53061904D02*
X145084238Y-48061904D01*
X141989000Y-53061904D02*
X141989000Y-48061904D01*
X141989000Y-50442857D02*
X139131857Y-50442857D01*
X139131857Y-53061904D02*
X139131857Y-48061904D01*
X136750904Y-53061904D02*
X136750904Y-48061904D01*
X134608047Y-52823809D02*
X133893761Y-53061904D01*
X132703285Y-53061904D01*
X132227095Y-52823809D01*
X131989000Y-52585714D01*
X131750904Y-52109523D01*
X131750904Y-51633333D01*
X131989000Y-51157142D01*
X132227095Y-50919047D01*
X132703285Y-50680952D01*
X133655666Y-50442857D01*
X134131857Y-50204761D01*
X134369952Y-49966666D01*
X134608047Y-49490476D01*
X134608047Y-49014285D01*
X134369952Y-48538095D01*
X134131857Y-48300000D01*
X133655666Y-48061904D01*
X132465190Y-48061904D01*
X131750904Y-48300000D01*
X126274714Y-48061904D02*
X125084238Y-53061904D01*
X124131857Y-49490476D01*
X123179476Y-53061904D01*
X121989000Y-48061904D01*
X120322333Y-51633333D02*
X117941380Y-51633333D01*
X120798523Y-53061904D02*
X119131857Y-48061904D01*
X117465190Y-53061904D01*
X114846142Y-50680952D02*
X114846142Y-53061904D01*
X116512809Y-48061904D02*
X114846142Y-50680952D01*
X113179476Y-48061904D01*
X107703285Y-48061904D02*
X107703285Y-52109523D01*
X107465190Y-52585714D01*
X107227095Y-52823809D01*
X106750904Y-53061904D01*
X105798523Y-53061904D01*
X105322333Y-52823809D01*
X105084238Y-52585714D01*
X104846142Y-52109523D01*
X104846142Y-48061904D01*
X102465190Y-53061904D02*
X102465190Y-48061904D01*
X100560428Y-48061904D01*
X100084238Y-48300000D01*
X99846142Y-48538095D01*
X99608047Y-49014285D01*
X99608047Y-49728571D01*
X99846142Y-50204761D01*
X100084238Y-50442857D01*
X100560428Y-50680952D01*
X102465190Y-50680952D01*
D12*
%TO.C,U4*%
X158242095Y-73953619D02*
X158242095Y-73144095D01*
X158289714Y-73048857D01*
X158337333Y-73001238D01*
X158432571Y-72953619D01*
X158623047Y-72953619D01*
X158718285Y-73001238D01*
X158765904Y-73048857D01*
X158813523Y-73144095D01*
X158813523Y-73953619D01*
X159718285Y-73620285D02*
X159718285Y-72953619D01*
X159480190Y-74001238D02*
X159242095Y-73286952D01*
X159861142Y-73286952D01*
%TO.C,J2*%
X119626380Y-75866666D02*
X120340666Y-75866666D01*
X120483523Y-75819047D01*
X120578761Y-75723809D01*
X120626380Y-75580952D01*
X120626380Y-75485714D01*
X119721619Y-76295238D02*
X119674000Y-76342857D01*
X119626380Y-76438095D01*
X119626380Y-76676190D01*
X119674000Y-76771428D01*
X119721619Y-76819047D01*
X119816857Y-76866666D01*
X119912095Y-76866666D01*
X120054952Y-76819047D01*
X120626380Y-76247619D01*
X120626380Y-76866666D01*
D13*
%TO.C,U4*%
X169443000Y-33584000D02*
X50043000Y-33584000D01*
X50043000Y-33584000D02*
X50043000Y-72384000D01*
X50043000Y-72384000D02*
X169443000Y-72384000D01*
X169443000Y-72384000D02*
X169443000Y-33584000D01*
X150259051Y-39370000D02*
G75*
G03*
X150259051Y-39370000I-1796051J0D01*
G01*
X150259051Y-67310000D02*
G75*
G03*
X150259051Y-67310000I-1796051J0D01*
G01*
%TO.C,J2*%
X116169000Y-74940000D02*
X105164000Y-74940000D01*
X116169000Y-77460000D02*
X105164000Y-77460000D01*
%TD*%
M02*
