M48
; DRILL file {KiCad (6.0.5-0)} date Saturday, 25 June 2022 at 13:44:35
; FORMAT={-:-/ absolute / inch / decimal}
; #@! TF.CreationDate,2022-06-25T13:44:35+01:00
; #@! TF.GenerationSoftware,Kicad,Pcbnew,(6.0.5-0)
; #@! TF.FileFunction,Plated,1,4,PTH
FMAT,2
INCH
; #@! TA.AperFunction,Plated,PTH,ViaDrill
T1C0.0157
; #@! TA.AperFunction,Plated,PTH,ComponentDrill
T2C0.0394
; #@! TA.AperFunction,Plated,PTH,ComponentDrill
T3C0.0433
; #@! TA.AperFunction,Plated,PTH,ComponentDrill
T4C0.0472
%
G90
G05
T1
X2.685Y-2.905
X3.05Y-2.06
X3.93Y-1.735
X3.96Y-1.705
X3.995Y-2.925
X3.995Y-2.96
X4.025Y-2.16
X4.0278Y-2.52
X4.0278Y-2.575
X4.03Y-1.765
X4.14Y-2.735
X4.16Y-2.47
X4.1645Y-2.5649
X4.205Y-2.925
X4.205Y-2.96
X4.24Y-2.47
X4.3Y-2.1444
X4.4Y-2.365
X4.4Y-2.43
X4.4Y-2.605
X4.43Y-3.0
X4.45Y-2.7002
X4.46Y-2.9
X4.48Y-2.15
X4.515Y-2.8285
X4.57Y-2.625
X4.595Y-2.155
X4.61Y-2.365
X4.63Y-2.435
X4.645Y-1.72
X4.645Y-1.78
X4.655Y-2.87
X4.675Y-1.98
X4.695Y-2.66
X4.7Y-2.34
X4.72Y-2.16
X4.745Y-2.075
X4.755Y-2.9298
X4.76Y-2.455
X4.78Y-2.685
X4.78Y-2.8
X4.925Y-2.21
X4.935Y-2.935
X4.9367Y-2.0059
X4.9396Y-2.3209
X4.97Y-2.09
X4.9708Y-2.6535
X5.01Y-2.45
X5.015Y-2.4153
X5.015Y-2.7572
X5.04Y-2.285
X5.105Y-2.195
X5.135Y-2.055
X5.155Y-1.9919
X5.17Y-2.03
X5.26Y-1.97
X5.26Y-2.925
X5.3206Y-2.7504
X5.33Y-2.04
T2
X4.21Y-1.635
X4.31Y-1.635
X4.41Y-1.635
X4.8844Y-1.585
X4.8844Y-1.685
X4.885Y-3.025
X4.885Y-3.125
X4.9844Y-1.585
X4.9844Y-1.685
X4.985Y-3.025
X4.985Y-3.125
X5.0844Y-1.585
X5.0844Y-1.685
X5.085Y-3.025
X5.085Y-3.125
X5.1844Y-1.585
X5.1844Y-1.685
X5.185Y-3.025
X5.185Y-3.125
X5.2844Y-1.585
X5.2844Y-1.685
X5.285Y-3.025
X5.285Y-3.125
X5.3844Y-1.585
X5.3844Y-1.685
X5.385Y-3.025
X5.385Y-3.125
X5.4844Y-1.585
X5.4844Y-1.685
X5.485Y-3.025
X5.485Y-3.125
X5.5592Y-2.0994
X5.5592Y-2.1994
X5.5592Y-2.2994
X5.5592Y-2.3994
X5.5592Y-2.4994
X5.5592Y-2.5994
X5.5592Y-2.6994
X5.5592Y-2.7994
X5.5844Y-1.585
X5.5844Y-1.685
X5.585Y-3.025
X5.585Y-3.125
X5.6592Y-2.0994
X5.6592Y-2.1994
X5.6592Y-2.2994
X5.6592Y-2.3994
X5.6592Y-2.4994
X5.6592Y-2.5994
X5.6592Y-2.6994
X5.6592Y-2.7994
T3
X4.21Y-1.7678
X4.31Y-1.7678
X4.41Y-1.7678
T4
X2.0498Y-2.96
X2.0513Y-1.9602
X2.1496Y-1.9602
X2.1498Y-2.96
X2.2498Y-1.96
X2.2498Y-2.96
X2.3498Y-2.96
X2.3509Y-1.9602
X2.4498Y-2.96
X2.4508Y-1.9602
X2.5498Y-1.96
X2.5498Y-2.96
X2.6498Y-1.96
X2.6498Y-2.96
X2.7498Y-1.96
X2.7498Y-2.96
X2.8498Y-1.96
X2.8498Y-2.96
X2.9498Y-1.96
X2.9498Y-2.96
X3.0498Y-1.96
X3.0498Y-2.96
X3.1498Y-2.96
X3.15Y-1.9602
X3.2498Y-2.96
X3.2499Y-1.9602
X3.3498Y-1.96
X3.3498Y-2.96
X3.4498Y-1.96
X3.4498Y-2.96
X3.5498Y-1.96
X3.5498Y-2.96
X3.6498Y-1.96
X3.6498Y-2.96
X3.7498Y-1.96
X3.7498Y-2.96
X3.8498Y-1.96
X3.8498Y-2.96
T0
M30
