%TF.GenerationSoftware,KiCad,Pcbnew,(6.0.5-0)*%
%TF.CreationDate,2022-06-25T13:44:39+01:00*%
%TF.ProjectId,revised_minh_design,72657669-7365-4645-9f6d-696e685f6465,rev?*%
%TF.SameCoordinates,Original*%
%TF.FileFunction,Legend,Top*%
%TF.FilePolarity,Positive*%
%FSLAX46Y46*%
G04 Gerber Fmt 4.6, Leading zero omitted, Abs format (unit mm)*
G04 Created by KiCad (PCBNEW (6.0.5-0)) date 2022-06-25 13:44:39*
%MOMM*%
%LPD*%
G01*
G04 APERTURE LIST*
%ADD10C,0.150000*%
%ADD11C,0.800000*%
%ADD12C,0.200000*%
%ADD13C,0.300000*%
%ADD14C,0.400000*%
%ADD15C,0.250000*%
%ADD16C,0.120000*%
G04 APERTURE END LIST*
D10*
X143237000Y-80365523D02*
X143198904Y-80441714D01*
X143198904Y-80556000D01*
X143237000Y-80670285D01*
X143313190Y-80746476D01*
X143389380Y-80784571D01*
X143541761Y-80822666D01*
X143656047Y-80822666D01*
X143808428Y-80784571D01*
X143884619Y-80746476D01*
X143960809Y-80670285D01*
X143998904Y-80556000D01*
X143998904Y-80479809D01*
X143960809Y-80365523D01*
X143922714Y-80327428D01*
X143656047Y-80327428D01*
X143656047Y-80479809D01*
X143998904Y-79984571D02*
X143198904Y-79984571D01*
X143998904Y-79527428D01*
X143198904Y-79527428D01*
X143998904Y-79146476D02*
X143198904Y-79146476D01*
X143198904Y-78956000D01*
X143237000Y-78841714D01*
X143313190Y-78765523D01*
X143389380Y-78727428D01*
X143541761Y-78689333D01*
X143656047Y-78689333D01*
X143808428Y-78727428D01*
X143884619Y-78765523D01*
X143960809Y-78841714D01*
X143998904Y-78956000D01*
X143998904Y-79146476D01*
D11*
X51851142Y-58538809D02*
X52565428Y-58776904D01*
X53755904Y-58776904D01*
X54232095Y-58538809D01*
X54470190Y-58300714D01*
X54708285Y-57824523D01*
X54708285Y-57348333D01*
X54470190Y-56872142D01*
X54232095Y-56634047D01*
X53755904Y-56395952D01*
X52803523Y-56157857D01*
X52327333Y-55919761D01*
X52089238Y-55681666D01*
X51851142Y-55205476D01*
X51851142Y-54729285D01*
X52089238Y-54253095D01*
X52327333Y-54015000D01*
X52803523Y-53776904D01*
X53994000Y-53776904D01*
X54708285Y-54015000D01*
X56851142Y-58300714D02*
X57089238Y-58538809D01*
X56851142Y-58776904D01*
X56613047Y-58538809D01*
X56851142Y-58300714D01*
X56851142Y-58776904D01*
X59232095Y-58776904D02*
X59232095Y-53776904D01*
X59232095Y-56157857D02*
X62089238Y-56157857D01*
X62089238Y-58776904D02*
X62089238Y-53776904D01*
X64470190Y-58300714D02*
X64708285Y-58538809D01*
X64470190Y-58776904D01*
X64232095Y-58538809D01*
X64470190Y-58300714D01*
X64470190Y-58776904D01*
X66136857Y-53776904D02*
X67803523Y-58776904D01*
X69470190Y-53776904D01*
X71136857Y-58300714D02*
X71374952Y-58538809D01*
X71136857Y-58776904D01*
X70898761Y-58538809D01*
X71136857Y-58300714D01*
X71136857Y-58776904D01*
X76374952Y-58776904D02*
X74708285Y-56395952D01*
X73517809Y-58776904D02*
X73517809Y-53776904D01*
X75422571Y-53776904D01*
X75898761Y-54015000D01*
X76136857Y-54253095D01*
X76374952Y-54729285D01*
X76374952Y-55443571D01*
X76136857Y-55919761D01*
X75898761Y-56157857D01*
X75422571Y-56395952D01*
X73517809Y-56395952D01*
X78517809Y-58300714D02*
X78755904Y-58538809D01*
X78517809Y-58776904D01*
X78279714Y-58538809D01*
X78517809Y-58300714D01*
X78517809Y-58776904D01*
X80898761Y-58776904D02*
X80898761Y-53776904D01*
X83279714Y-58300714D02*
X83517809Y-58538809D01*
X83279714Y-58776904D01*
X83041619Y-58538809D01*
X83279714Y-58300714D01*
X83279714Y-58776904D01*
X85660666Y-58776904D02*
X85660666Y-53776904D01*
X87327333Y-57348333D01*
X88994000Y-53776904D01*
X88994000Y-58776904D01*
X91374952Y-58300714D02*
X91613047Y-58538809D01*
X91374952Y-58776904D01*
X91136857Y-58538809D01*
X91374952Y-58300714D01*
X91374952Y-58776904D01*
X93755904Y-58776904D02*
X93755904Y-53776904D01*
X95660666Y-53776904D01*
X96136857Y-54015000D01*
X96374952Y-54253095D01*
X96613047Y-54729285D01*
X96613047Y-55443571D01*
X96374952Y-55919761D01*
X96136857Y-56157857D01*
X95660666Y-56395952D01*
X93755904Y-56395952D01*
X98755904Y-58300714D02*
X98994000Y-58538809D01*
X98755904Y-58776904D01*
X98517809Y-58538809D01*
X98755904Y-58300714D01*
X98755904Y-58776904D01*
X100898761Y-58538809D02*
X101613047Y-58776904D01*
X102803523Y-58776904D01*
X103279714Y-58538809D01*
X103517809Y-58300714D01*
X103755904Y-57824523D01*
X103755904Y-57348333D01*
X103517809Y-56872142D01*
X103279714Y-56634047D01*
X102803523Y-56395952D01*
X101851142Y-56157857D01*
X101374952Y-55919761D01*
X101136857Y-55681666D01*
X100898761Y-55205476D01*
X100898761Y-54729285D01*
X101136857Y-54253095D01*
X101374952Y-54015000D01*
X101851142Y-53776904D01*
X103041619Y-53776904D01*
X103755904Y-54015000D01*
X105898761Y-58300714D02*
X106136857Y-58538809D01*
X105898761Y-58776904D01*
X105660666Y-58538809D01*
X105898761Y-58300714D01*
X105898761Y-58776904D01*
D10*
X143364000Y-40741523D02*
X143325904Y-40817714D01*
X143325904Y-40932000D01*
X143364000Y-41046285D01*
X143440190Y-41122476D01*
X143516380Y-41160571D01*
X143668761Y-41198666D01*
X143783047Y-41198666D01*
X143935428Y-41160571D01*
X144011619Y-41122476D01*
X144087809Y-41046285D01*
X144125904Y-40932000D01*
X144125904Y-40855809D01*
X144087809Y-40741523D01*
X144049714Y-40703428D01*
X143783047Y-40703428D01*
X143783047Y-40855809D01*
X144125904Y-40360571D02*
X143325904Y-40360571D01*
X144125904Y-39903428D01*
X143325904Y-39903428D01*
X144125904Y-39522476D02*
X143325904Y-39522476D01*
X143325904Y-39332000D01*
X143364000Y-39217714D01*
X143440190Y-39141523D01*
X143516380Y-39103428D01*
X143668761Y-39065333D01*
X143783047Y-39065333D01*
X143935428Y-39103428D01*
X144011619Y-39141523D01*
X144087809Y-39217714D01*
X144125904Y-39332000D01*
X144125904Y-39522476D01*
D12*
X144049714Y-43333142D02*
X143478285Y-43333142D01*
X143764000Y-43333142D02*
X143764000Y-42433142D01*
X143668761Y-42561714D01*
X143573523Y-42647428D01*
X143478285Y-42690285D01*
D10*
X121166000Y-41020904D02*
X121118380Y-41116142D01*
X121118380Y-41259000D01*
X121166000Y-41401857D01*
X121261238Y-41497095D01*
X121356476Y-41544714D01*
X121546952Y-41592333D01*
X121689809Y-41592333D01*
X121880285Y-41544714D01*
X121975523Y-41497095D01*
X122070761Y-41401857D01*
X122118380Y-41259000D01*
X122118380Y-41163761D01*
X122070761Y-41020904D01*
X122023142Y-40973285D01*
X121689809Y-40973285D01*
X121689809Y-41163761D01*
X122118380Y-40544714D02*
X121118380Y-40544714D01*
X122118380Y-39973285D01*
X121118380Y-39973285D01*
X122118380Y-39497095D02*
X121118380Y-39497095D01*
X121118380Y-39259000D01*
X121166000Y-39116142D01*
X121261238Y-39020904D01*
X121356476Y-38973285D01*
X121546952Y-38925666D01*
X121689809Y-38925666D01*
X121880285Y-38973285D01*
X121975523Y-39020904D01*
X122070761Y-39116142D01*
X122118380Y-39259000D01*
X122118380Y-39497095D01*
D12*
X121697761Y-42818857D02*
X121602523Y-42776000D01*
X121554904Y-42733142D01*
X121507285Y-42647428D01*
X121507285Y-42604571D01*
X121554904Y-42518857D01*
X121602523Y-42476000D01*
X121697761Y-42433142D01*
X121888238Y-42433142D01*
X121983476Y-42476000D01*
X122031095Y-42518857D01*
X122078714Y-42604571D01*
X122078714Y-42647428D01*
X122031095Y-42733142D01*
X121983476Y-42776000D01*
X121888238Y-42818857D01*
X121697761Y-42818857D01*
X121602523Y-42861714D01*
X121554904Y-42904571D01*
X121507285Y-42990285D01*
X121507285Y-43161714D01*
X121554904Y-43247428D01*
X121602523Y-43290285D01*
X121697761Y-43333142D01*
X121888238Y-43333142D01*
X121983476Y-43290285D01*
X122031095Y-43247428D01*
X122078714Y-43161714D01*
X122078714Y-42990285D01*
X122031095Y-42904571D01*
X121983476Y-42861714D01*
X121888238Y-42818857D01*
D10*
X144145000Y-79756000D02*
X145161000Y-79756000D01*
X144272000Y-76708000D02*
X145161000Y-76708000D01*
X145161000Y-79756000D02*
X145161000Y-79375000D01*
X145161000Y-76708000D02*
X145161000Y-77089000D01*
D12*
X144049714Y-77242142D02*
X143478285Y-77242142D01*
X143764000Y-77242142D02*
X143764000Y-76342142D01*
X143668761Y-76470714D01*
X143573523Y-76556428D01*
X143478285Y-76599285D01*
D10*
X145288000Y-43053000D02*
X145288000Y-42672000D01*
X144272000Y-43053000D02*
X145288000Y-43053000D01*
X145288000Y-40005000D02*
X145288000Y-40386000D01*
X144399000Y-40005000D02*
X145288000Y-40005000D01*
D13*
X138531619Y-53404523D02*
X138379238Y-53328333D01*
X138303047Y-53252142D01*
X138226857Y-53099761D01*
X138226857Y-53023571D01*
X138303047Y-52871190D01*
X138379238Y-52795000D01*
X138531619Y-52718809D01*
X138836380Y-52718809D01*
X138988761Y-52795000D01*
X139064952Y-52871190D01*
X139141142Y-53023571D01*
X139141142Y-53099761D01*
X139064952Y-53252142D01*
X138988761Y-53328333D01*
X138836380Y-53404523D01*
X138531619Y-53404523D01*
X138379238Y-53480714D01*
X138303047Y-53556904D01*
X138226857Y-53709285D01*
X138226857Y-54014047D01*
X138303047Y-54166428D01*
X138379238Y-54242619D01*
X138531619Y-54318809D01*
X138836380Y-54318809D01*
X138988761Y-54242619D01*
X139064952Y-54166428D01*
X139141142Y-54014047D01*
X139141142Y-53709285D01*
X139064952Y-53556904D01*
X138988761Y-53480714D01*
X138836380Y-53404523D01*
X138150666Y-55294809D02*
X139217333Y-55294809D01*
X138531619Y-56894809D01*
X138988761Y-57870809D02*
X138684000Y-57870809D01*
X138531619Y-57947000D01*
X138455428Y-58023190D01*
X138303047Y-58251761D01*
X138226857Y-58556523D01*
X138226857Y-59166047D01*
X138303047Y-59318428D01*
X138379238Y-59394619D01*
X138531619Y-59470809D01*
X138836380Y-59470809D01*
X138988761Y-59394619D01*
X139064952Y-59318428D01*
X139141142Y-59166047D01*
X139141142Y-58785095D01*
X139064952Y-58632714D01*
X138988761Y-58556523D01*
X138836380Y-58480333D01*
X138531619Y-58480333D01*
X138379238Y-58556523D01*
X138303047Y-58632714D01*
X138226857Y-58785095D01*
X139064952Y-60446809D02*
X138303047Y-60446809D01*
X138226857Y-61208714D01*
X138303047Y-61132523D01*
X138455428Y-61056333D01*
X138836380Y-61056333D01*
X138988761Y-61132523D01*
X139064952Y-61208714D01*
X139141142Y-61361095D01*
X139141142Y-61742047D01*
X139064952Y-61894428D01*
X138988761Y-61970619D01*
X138836380Y-62046809D01*
X138455428Y-62046809D01*
X138303047Y-61970619D01*
X138226857Y-61894428D01*
X138988761Y-63556142D02*
X138988761Y-64622809D01*
X138607809Y-62946619D02*
X138226857Y-64089476D01*
X139217333Y-64089476D01*
X138150666Y-65598809D02*
X139141142Y-65598809D01*
X138607809Y-66208333D01*
X138836380Y-66208333D01*
X138988761Y-66284523D01*
X139064952Y-66360714D01*
X139141142Y-66513095D01*
X139141142Y-66894047D01*
X139064952Y-67046428D01*
X138988761Y-67122619D01*
X138836380Y-67198809D01*
X138379238Y-67198809D01*
X138226857Y-67122619D01*
X138150666Y-67046428D01*
X138226857Y-68327190D02*
X138303047Y-68251000D01*
X138455428Y-68174809D01*
X138836380Y-68174809D01*
X138988761Y-68251000D01*
X139064952Y-68327190D01*
X139141142Y-68479571D01*
X139141142Y-68631952D01*
X139064952Y-68860523D01*
X138150666Y-69774809D01*
X139141142Y-69774809D01*
X139141142Y-72350809D02*
X138226857Y-72350809D01*
X138684000Y-72350809D02*
X138684000Y-70750809D01*
X138531619Y-70979380D01*
X138379238Y-71131761D01*
X138226857Y-71207952D01*
D14*
X126111523Y-63579333D02*
X127063904Y-63579333D01*
X125921047Y-64150761D02*
X126587714Y-62150761D01*
X127254380Y-64150761D01*
X127921047Y-64150761D02*
X127921047Y-62150761D01*
X128397238Y-62150761D01*
X128682952Y-62246000D01*
X128873428Y-62436476D01*
X128968666Y-62626952D01*
X129063904Y-63007904D01*
X129063904Y-63293619D01*
X128968666Y-63674571D01*
X128873428Y-63865047D01*
X128682952Y-64055523D01*
X128397238Y-64150761D01*
X127921047Y-64150761D01*
X131063904Y-63960285D02*
X130968666Y-64055523D01*
X130682952Y-64150761D01*
X130492476Y-64150761D01*
X130206761Y-64055523D01*
X130016285Y-63865047D01*
X129921047Y-63674571D01*
X129825809Y-63293619D01*
X129825809Y-63007904D01*
X129921047Y-62626952D01*
X130016285Y-62436476D01*
X130206761Y-62246000D01*
X130492476Y-62150761D01*
X130682952Y-62150761D01*
X130968666Y-62246000D01*
X131063904Y-62341238D01*
X133349619Y-62341238D02*
X133444857Y-62246000D01*
X133635333Y-62150761D01*
X134111523Y-62150761D01*
X134302000Y-62246000D01*
X134397238Y-62341238D01*
X134492476Y-62531714D01*
X134492476Y-62722190D01*
X134397238Y-63007904D01*
X133254380Y-64150761D01*
X134492476Y-64150761D01*
D12*
X123723523Y-75080000D02*
X124214000Y-75080000D01*
X123625428Y-75337142D02*
X123968761Y-74437142D01*
X124312095Y-75337142D01*
X126813523Y-75251428D02*
X126764476Y-75294285D01*
X126617333Y-75337142D01*
X126519238Y-75337142D01*
X126372095Y-75294285D01*
X126274000Y-75208571D01*
X126224952Y-75122857D01*
X126175904Y-74951428D01*
X126175904Y-74822857D01*
X126224952Y-74651428D01*
X126274000Y-74565714D01*
X126372095Y-74480000D01*
X126519238Y-74437142D01*
X126617333Y-74437142D01*
X126764476Y-74480000D01*
X126813523Y-74522857D01*
X128824476Y-74865714D02*
X129167809Y-74865714D01*
X129314952Y-75337142D02*
X128824476Y-75337142D01*
X128824476Y-74437142D01*
X129314952Y-74437142D01*
X131865428Y-74480000D02*
X131767333Y-74437142D01*
X131620190Y-74437142D01*
X131473047Y-74480000D01*
X131374952Y-74565714D01*
X131325904Y-74651428D01*
X131276857Y-74822857D01*
X131276857Y-74951428D01*
X131325904Y-75122857D01*
X131374952Y-75208571D01*
X131473047Y-75294285D01*
X131620190Y-75337142D01*
X131718285Y-75337142D01*
X131865428Y-75294285D01*
X131914476Y-75251428D01*
X131914476Y-74951428D01*
X131718285Y-74951428D01*
X133925428Y-75337142D02*
X133925428Y-74437142D01*
X133925428Y-74865714D02*
X134514000Y-74865714D01*
X134514000Y-75337142D02*
X134514000Y-74437142D01*
X136917333Y-74865714D02*
X136574000Y-74865714D01*
X136574000Y-75337142D02*
X136574000Y-74437142D01*
X137064476Y-74437142D01*
X139026380Y-75337142D02*
X139026380Y-74437142D01*
X139271619Y-74437142D01*
X139418761Y-74480000D01*
X139516857Y-74565714D01*
X139565904Y-74651428D01*
X139614952Y-74822857D01*
X139614952Y-74951428D01*
X139565904Y-75122857D01*
X139516857Y-75208571D01*
X139418761Y-75294285D01*
X139271619Y-75337142D01*
X139026380Y-75337142D01*
X141969238Y-74865714D02*
X142116380Y-74908571D01*
X142165428Y-74951428D01*
X142214476Y-75037142D01*
X142214476Y-75165714D01*
X142165428Y-75251428D01*
X142116380Y-75294285D01*
X142018285Y-75337142D01*
X141625904Y-75337142D01*
X141625904Y-74437142D01*
X141969238Y-74437142D01*
X142067333Y-74480000D01*
X142116380Y-74522857D01*
X142165428Y-74608571D01*
X142165428Y-74694285D01*
X142116380Y-74780000D01*
X142067333Y-74822857D01*
X141969238Y-74865714D01*
X141625904Y-74865714D01*
D14*
X129699047Y-67579761D02*
X129699047Y-65579761D01*
X130175238Y-65579761D01*
X130460952Y-65675000D01*
X130651428Y-65865476D01*
X130746666Y-66055952D01*
X130841904Y-66436904D01*
X130841904Y-66722619D01*
X130746666Y-67103571D01*
X130651428Y-67294047D01*
X130460952Y-67484523D01*
X130175238Y-67579761D01*
X129699047Y-67579761D01*
X131603809Y-67008333D02*
X132556190Y-67008333D01*
X131413333Y-67579761D02*
X132080000Y-65579761D01*
X132746666Y-67579761D01*
X134556190Y-67389285D02*
X134460952Y-67484523D01*
X134175238Y-67579761D01*
X133984761Y-67579761D01*
X133699047Y-67484523D01*
X133508571Y-67294047D01*
X133413333Y-67103571D01*
X133318095Y-66722619D01*
X133318095Y-66436904D01*
X133413333Y-66055952D01*
X133508571Y-65865476D01*
X133699047Y-65675000D01*
X133984761Y-65579761D01*
X134175238Y-65579761D01*
X134460952Y-65675000D01*
X134556190Y-65770238D01*
D10*
X107904595Y-50304571D02*
X108237928Y-50304571D01*
X108380785Y-50828380D02*
X107904595Y-50828380D01*
X107904595Y-49828380D01*
X108380785Y-49828380D01*
X108714119Y-50828380D02*
X109237928Y-50161714D01*
X108714119Y-50161714D02*
X109237928Y-50828380D01*
X109476023Y-50161714D02*
X109856976Y-50161714D01*
X109618880Y-49828380D02*
X109618880Y-50685523D01*
X109666500Y-50780761D01*
X109761738Y-50828380D01*
X109856976Y-50828380D01*
X110571261Y-50780761D02*
X110476023Y-50828380D01*
X110285547Y-50828380D01*
X110190309Y-50780761D01*
X110142690Y-50685523D01*
X110142690Y-50304571D01*
X110190309Y-50209333D01*
X110285547Y-50161714D01*
X110476023Y-50161714D01*
X110571261Y-50209333D01*
X110618880Y-50304571D01*
X110618880Y-50399809D01*
X110142690Y-50495047D01*
X111047452Y-50828380D02*
X111047452Y-50161714D01*
X111047452Y-50352190D02*
X111095071Y-50256952D01*
X111142690Y-50209333D01*
X111237928Y-50161714D01*
X111333166Y-50161714D01*
X111666500Y-50161714D02*
X111666500Y-50828380D01*
X111666500Y-50256952D02*
X111714119Y-50209333D01*
X111809357Y-50161714D01*
X111952214Y-50161714D01*
X112047452Y-50209333D01*
X112095071Y-50304571D01*
X112095071Y-50828380D01*
X112999833Y-50828380D02*
X112999833Y-50304571D01*
X112952214Y-50209333D01*
X112856976Y-50161714D01*
X112666500Y-50161714D01*
X112571261Y-50209333D01*
X112999833Y-50780761D02*
X112904595Y-50828380D01*
X112666500Y-50828380D01*
X112571261Y-50780761D01*
X112523642Y-50685523D01*
X112523642Y-50590285D01*
X112571261Y-50495047D01*
X112666500Y-50447428D01*
X112904595Y-50447428D01*
X112999833Y-50399809D01*
X113618880Y-50828380D02*
X113523642Y-50780761D01*
X113476023Y-50685523D01*
X113476023Y-49828380D01*
X108095071Y-51438380D02*
X108285547Y-51438380D01*
X108380785Y-51486000D01*
X108476023Y-51581238D01*
X108523642Y-51771714D01*
X108523642Y-52105047D01*
X108476023Y-52295523D01*
X108380785Y-52390761D01*
X108285547Y-52438380D01*
X108095071Y-52438380D01*
X107999833Y-52390761D01*
X107904595Y-52295523D01*
X107856976Y-52105047D01*
X107856976Y-51771714D01*
X107904595Y-51581238D01*
X107999833Y-51486000D01*
X108095071Y-51438380D01*
X108904595Y-52390761D02*
X108999833Y-52438380D01*
X109190309Y-52438380D01*
X109285547Y-52390761D01*
X109333166Y-52295523D01*
X109333166Y-52247904D01*
X109285547Y-52152666D01*
X109190309Y-52105047D01*
X109047452Y-52105047D01*
X108952214Y-52057428D01*
X108904595Y-51962190D01*
X108904595Y-51914571D01*
X108952214Y-51819333D01*
X109047452Y-51771714D01*
X109190309Y-51771714D01*
X109285547Y-51819333D01*
X110190309Y-52390761D02*
X110095071Y-52438380D01*
X109904595Y-52438380D01*
X109809357Y-52390761D01*
X109761738Y-52343142D01*
X109714119Y-52247904D01*
X109714119Y-51962190D01*
X109761738Y-51866952D01*
X109809357Y-51819333D01*
X109904595Y-51771714D01*
X110095071Y-51771714D01*
X110190309Y-51819333D01*
X110618880Y-52438380D02*
X110618880Y-51771714D01*
X110618880Y-51438380D02*
X110571261Y-51486000D01*
X110618880Y-51533619D01*
X110666500Y-51486000D01*
X110618880Y-51438380D01*
X110618880Y-51533619D01*
X111237928Y-52438380D02*
X111142690Y-52390761D01*
X111095071Y-52295523D01*
X111095071Y-51438380D01*
X111761738Y-52438380D02*
X111666500Y-52390761D01*
X111618880Y-52295523D01*
X111618880Y-51438380D01*
X112571261Y-52438380D02*
X112571261Y-51914571D01*
X112523642Y-51819333D01*
X112428404Y-51771714D01*
X112237928Y-51771714D01*
X112142690Y-51819333D01*
X112571261Y-52390761D02*
X112476023Y-52438380D01*
X112237928Y-52438380D01*
X112142690Y-52390761D01*
X112095071Y-52295523D01*
X112095071Y-52200285D01*
X112142690Y-52105047D01*
X112237928Y-52057428D01*
X112476023Y-52057428D01*
X112571261Y-52009809D01*
X112904595Y-51771714D02*
X113285547Y-51771714D01*
X113047452Y-51438380D02*
X113047452Y-52295523D01*
X113095071Y-52390761D01*
X113190309Y-52438380D01*
X113285547Y-52438380D01*
X113761738Y-52438380D02*
X113666500Y-52390761D01*
X113618880Y-52343142D01*
X113571261Y-52247904D01*
X113571261Y-51962190D01*
X113618880Y-51866952D01*
X113666500Y-51819333D01*
X113761738Y-51771714D01*
X113904595Y-51771714D01*
X113999833Y-51819333D01*
X114047452Y-51866952D01*
X114095071Y-51962190D01*
X114095071Y-52247904D01*
X114047452Y-52343142D01*
X113999833Y-52390761D01*
X113904595Y-52438380D01*
X113761738Y-52438380D01*
X114523642Y-52438380D02*
X114523642Y-51771714D01*
X114523642Y-51962190D02*
X114571261Y-51866952D01*
X114618880Y-51819333D01*
X114714119Y-51771714D01*
X114809357Y-51771714D01*
D13*
X58210142Y-78759857D02*
X58710142Y-78759857D01*
X58924428Y-79545571D02*
X58210142Y-79545571D01*
X58210142Y-78045571D01*
X58924428Y-78045571D01*
X59495857Y-79474142D02*
X59710142Y-79545571D01*
X60067285Y-79545571D01*
X60210142Y-79474142D01*
X60281571Y-79402714D01*
X60353000Y-79259857D01*
X60353000Y-79117000D01*
X60281571Y-78974142D01*
X60210142Y-78902714D01*
X60067285Y-78831285D01*
X59781571Y-78759857D01*
X59638714Y-78688428D01*
X59567285Y-78617000D01*
X59495857Y-78474142D01*
X59495857Y-78331285D01*
X59567285Y-78188428D01*
X59638714Y-78117000D01*
X59781571Y-78045571D01*
X60138714Y-78045571D01*
X60353000Y-78117000D01*
X60995857Y-79545571D02*
X60995857Y-78045571D01*
X61567285Y-78045571D01*
X61710142Y-78117000D01*
X61781571Y-78188428D01*
X61853000Y-78331285D01*
X61853000Y-78545571D01*
X61781571Y-78688428D01*
X61710142Y-78759857D01*
X61567285Y-78831285D01*
X60995857Y-78831285D01*
X62495857Y-78974142D02*
X63638714Y-78974142D01*
X64210142Y-78045571D02*
X65138714Y-78045571D01*
X64638714Y-78617000D01*
X64853000Y-78617000D01*
X64995857Y-78688428D01*
X65067285Y-78759857D01*
X65138714Y-78902714D01*
X65138714Y-79259857D01*
X65067285Y-79402714D01*
X64995857Y-79474142D01*
X64853000Y-79545571D01*
X64424428Y-79545571D01*
X64281571Y-79474142D01*
X64210142Y-79402714D01*
X65710142Y-78188428D02*
X65781571Y-78117000D01*
X65924428Y-78045571D01*
X66281571Y-78045571D01*
X66424428Y-78117000D01*
X66495857Y-78188428D01*
X66567285Y-78331285D01*
X66567285Y-78474142D01*
X66495857Y-78688428D01*
X65638714Y-79545571D01*
X66567285Y-79545571D01*
X69138714Y-79545571D02*
X68281571Y-79545571D01*
X68710142Y-79545571D02*
X68710142Y-78045571D01*
X68567285Y-78259857D01*
X68424428Y-78402714D01*
X68281571Y-78474142D01*
X70424428Y-78045571D02*
X70138714Y-78045571D01*
X69995857Y-78117000D01*
X69924428Y-78188428D01*
X69781571Y-78402714D01*
X69710142Y-78688428D01*
X69710142Y-79259857D01*
X69781571Y-79402714D01*
X69853000Y-79474142D01*
X69995857Y-79545571D01*
X70281571Y-79545571D01*
X70424428Y-79474142D01*
X70495857Y-79402714D01*
X70567285Y-79259857D01*
X70567285Y-78902714D01*
X70495857Y-78759857D01*
X70424428Y-78688428D01*
X70281571Y-78617000D01*
X69995857Y-78617000D01*
X69853000Y-78688428D01*
X69781571Y-78759857D01*
X69710142Y-78902714D01*
X71138714Y-79117000D02*
X71853000Y-79117000D01*
X70995857Y-79545571D02*
X71495857Y-78045571D01*
X71995857Y-79545571D01*
X72495857Y-79545571D02*
X72495857Y-78045571D01*
X72853000Y-78045571D01*
X73067285Y-78117000D01*
X73210142Y-78259857D01*
X73281571Y-78402714D01*
X73353000Y-78688428D01*
X73353000Y-78902714D01*
X73281571Y-79188428D01*
X73210142Y-79331285D01*
X73067285Y-79474142D01*
X72853000Y-79545571D01*
X72495857Y-79545571D01*
X74853000Y-79402714D02*
X74781571Y-79474142D01*
X74567285Y-79545571D01*
X74424428Y-79545571D01*
X74210142Y-79474142D01*
X74067285Y-79331285D01*
X73995857Y-79188428D01*
X73924428Y-78902714D01*
X73924428Y-78688428D01*
X73995857Y-78402714D01*
X74067285Y-78259857D01*
X74210142Y-78117000D01*
X74424428Y-78045571D01*
X74567285Y-78045571D01*
X74781571Y-78117000D01*
X74853000Y-78188428D01*
X75495857Y-78974142D02*
X76638714Y-78974142D01*
X76067285Y-79545571D02*
X76067285Y-78402714D01*
X77567285Y-78688428D02*
X77424428Y-78617000D01*
X77353000Y-78545571D01*
X77281571Y-78402714D01*
X77281571Y-78331285D01*
X77353000Y-78188428D01*
X77424428Y-78117000D01*
X77567285Y-78045571D01*
X77853000Y-78045571D01*
X77995857Y-78117000D01*
X78067285Y-78188428D01*
X78138714Y-78331285D01*
X78138714Y-78402714D01*
X78067285Y-78545571D01*
X77995857Y-78617000D01*
X77853000Y-78688428D01*
X77567285Y-78688428D01*
X77424428Y-78759857D01*
X77353000Y-78831285D01*
X77281571Y-78974142D01*
X77281571Y-79259857D01*
X77353000Y-79402714D01*
X77424428Y-79474142D01*
X77567285Y-79545571D01*
X77853000Y-79545571D01*
X77995857Y-79474142D01*
X78067285Y-79402714D01*
X78138714Y-79259857D01*
X78138714Y-78974142D01*
X78067285Y-78831285D01*
X77995857Y-78759857D01*
X77853000Y-78688428D01*
X78781571Y-79545571D02*
X78781571Y-78045571D01*
X79138714Y-78045571D01*
X79353000Y-78117000D01*
X79495857Y-78259857D01*
X79567285Y-78402714D01*
X79638714Y-78688428D01*
X79638714Y-78902714D01*
X79567285Y-79188428D01*
X79495857Y-79331285D01*
X79353000Y-79474142D01*
X79138714Y-79545571D01*
X78781571Y-79545571D01*
X80210142Y-79117000D02*
X80924428Y-79117000D01*
X80067285Y-79545571D02*
X80567285Y-78045571D01*
X81067285Y-79545571D01*
X82424428Y-79402714D02*
X82353000Y-79474142D01*
X82138714Y-79545571D01*
X81995857Y-79545571D01*
X81781571Y-79474142D01*
X81638714Y-79331285D01*
X81567285Y-79188428D01*
X81495857Y-78902714D01*
X81495857Y-78688428D01*
X81567285Y-78402714D01*
X81638714Y-78259857D01*
X81781571Y-78117000D01*
X81995857Y-78045571D01*
X82138714Y-78045571D01*
X82353000Y-78117000D01*
X82424428Y-78188428D01*
X85067285Y-79402714D02*
X84995857Y-79474142D01*
X84781571Y-79545571D01*
X84638714Y-79545571D01*
X84424428Y-79474142D01*
X84281571Y-79331285D01*
X84210142Y-79188428D01*
X84138714Y-78902714D01*
X84138714Y-78688428D01*
X84210142Y-78402714D01*
X84281571Y-78259857D01*
X84424428Y-78117000D01*
X84638714Y-78045571D01*
X84781571Y-78045571D01*
X84995857Y-78117000D01*
X85067285Y-78188428D01*
X85924428Y-79545571D02*
X85781571Y-79474142D01*
X85710142Y-79402714D01*
X85638714Y-79259857D01*
X85638714Y-78831285D01*
X85710142Y-78688428D01*
X85781571Y-78617000D01*
X85924428Y-78545571D01*
X86138714Y-78545571D01*
X86281571Y-78617000D01*
X86353000Y-78688428D01*
X86424428Y-78831285D01*
X86424428Y-79259857D01*
X86353000Y-79402714D01*
X86281571Y-79474142D01*
X86138714Y-79545571D01*
X85924428Y-79545571D01*
X87067285Y-78545571D02*
X87067285Y-79545571D01*
X87067285Y-78688428D02*
X87138714Y-78617000D01*
X87281571Y-78545571D01*
X87495857Y-78545571D01*
X87638714Y-78617000D01*
X87710142Y-78759857D01*
X87710142Y-79545571D01*
X88210142Y-78545571D02*
X88781571Y-78545571D01*
X88424428Y-78045571D02*
X88424428Y-79331285D01*
X88495857Y-79474142D01*
X88638714Y-79545571D01*
X88781571Y-79545571D01*
X89281571Y-79545571D02*
X89281571Y-78545571D01*
X89281571Y-78831285D02*
X89353000Y-78688428D01*
X89424428Y-78617000D01*
X89567285Y-78545571D01*
X89710142Y-78545571D01*
X90424428Y-79545571D02*
X90281571Y-79474142D01*
X90210142Y-79402714D01*
X90138714Y-79259857D01*
X90138714Y-78831285D01*
X90210142Y-78688428D01*
X90281571Y-78617000D01*
X90424428Y-78545571D01*
X90638714Y-78545571D01*
X90781571Y-78617000D01*
X90853000Y-78688428D01*
X90924428Y-78831285D01*
X90924428Y-79259857D01*
X90853000Y-79402714D01*
X90781571Y-79474142D01*
X90638714Y-79545571D01*
X90424428Y-79545571D01*
X91781571Y-79545571D02*
X91638714Y-79474142D01*
X91567285Y-79331285D01*
X91567285Y-78045571D01*
X95138714Y-78759857D02*
X95353000Y-78831285D01*
X95424428Y-78902714D01*
X95495857Y-79045571D01*
X95495857Y-79259857D01*
X95424428Y-79402714D01*
X95353000Y-79474142D01*
X95210142Y-79545571D01*
X94638714Y-79545571D01*
X94638714Y-78045571D01*
X95138714Y-78045571D01*
X95281571Y-78117000D01*
X95353000Y-78188428D01*
X95424428Y-78331285D01*
X95424428Y-78474142D01*
X95353000Y-78617000D01*
X95281571Y-78688428D01*
X95138714Y-78759857D01*
X94638714Y-78759857D01*
X96353000Y-79545571D02*
X96210142Y-79474142D01*
X96138714Y-79402714D01*
X96067285Y-79259857D01*
X96067285Y-78831285D01*
X96138714Y-78688428D01*
X96210142Y-78617000D01*
X96353000Y-78545571D01*
X96567285Y-78545571D01*
X96710142Y-78617000D01*
X96781571Y-78688428D01*
X96853000Y-78831285D01*
X96853000Y-79259857D01*
X96781571Y-79402714D01*
X96710142Y-79474142D01*
X96567285Y-79545571D01*
X96353000Y-79545571D01*
X98138714Y-79545571D02*
X98138714Y-78759857D01*
X98067285Y-78617000D01*
X97924428Y-78545571D01*
X97638714Y-78545571D01*
X97495857Y-78617000D01*
X98138714Y-79474142D02*
X97995857Y-79545571D01*
X97638714Y-79545571D01*
X97495857Y-79474142D01*
X97424428Y-79331285D01*
X97424428Y-79188428D01*
X97495857Y-79045571D01*
X97638714Y-78974142D01*
X97995857Y-78974142D01*
X98138714Y-78902714D01*
X98853000Y-79545571D02*
X98853000Y-78545571D01*
X98853000Y-78831285D02*
X98924428Y-78688428D01*
X98995857Y-78617000D01*
X99138714Y-78545571D01*
X99281571Y-78545571D01*
X100424428Y-79545571D02*
X100424428Y-78045571D01*
X100424428Y-79474142D02*
X100281571Y-79545571D01*
X99995857Y-79545571D01*
X99853000Y-79474142D01*
X99781571Y-79402714D01*
X99710142Y-79259857D01*
X99710142Y-78831285D01*
X99781571Y-78688428D01*
X99853000Y-78617000D01*
X99995857Y-78545571D01*
X100281571Y-78545571D01*
X100424428Y-78617000D01*
D14*
X131572523Y-48593333D02*
X132524904Y-48593333D01*
X131382047Y-49164761D02*
X132048714Y-47164761D01*
X132715380Y-49164761D01*
X133382047Y-49164761D02*
X133382047Y-47164761D01*
X133858238Y-47164761D01*
X134143952Y-47260000D01*
X134334428Y-47450476D01*
X134429666Y-47640952D01*
X134524904Y-48021904D01*
X134524904Y-48307619D01*
X134429666Y-48688571D01*
X134334428Y-48879047D01*
X134143952Y-49069523D01*
X133858238Y-49164761D01*
X133382047Y-49164761D01*
X136524904Y-48974285D02*
X136429666Y-49069523D01*
X136143952Y-49164761D01*
X135953476Y-49164761D01*
X135667761Y-49069523D01*
X135477285Y-48879047D01*
X135382047Y-48688571D01*
X135286809Y-48307619D01*
X135286809Y-48021904D01*
X135382047Y-47640952D01*
X135477285Y-47450476D01*
X135667761Y-47260000D01*
X135953476Y-47164761D01*
X136143952Y-47164761D01*
X136429666Y-47260000D01*
X136524904Y-47355238D01*
X139953476Y-49164761D02*
X138810619Y-49164761D01*
X139382047Y-49164761D02*
X139382047Y-47164761D01*
X139191571Y-47450476D01*
X139001095Y-47640952D01*
X138810619Y-47736190D01*
D15*
X114570000Y-42362380D02*
X113998571Y-42362380D01*
X114284285Y-42362380D02*
X114284285Y-41362380D01*
X114189047Y-41505238D01*
X114093809Y-41600476D01*
X113998571Y-41648095D01*
X114950952Y-41457619D02*
X114998571Y-41410000D01*
X115093809Y-41362380D01*
X115331904Y-41362380D01*
X115427142Y-41410000D01*
X115474761Y-41457619D01*
X115522380Y-41552857D01*
X115522380Y-41648095D01*
X115474761Y-41790952D01*
X114903333Y-42362380D01*
X115522380Y-42362380D01*
X116570000Y-41362380D02*
X116903333Y-42362380D01*
X117236666Y-41362380D01*
D10*
%TO.C,J4*%
X144573666Y-77811380D02*
X144573666Y-78525666D01*
X144526047Y-78668523D01*
X144430809Y-78763761D01*
X144287952Y-78811380D01*
X144192714Y-78811380D01*
X145478428Y-78144714D02*
X145478428Y-78811380D01*
X145240333Y-77763761D02*
X145002238Y-78478047D01*
X145621285Y-78478047D01*
%TO.C,J3*%
X142033666Y-49871380D02*
X142033666Y-50585666D01*
X141986047Y-50728523D01*
X141890809Y-50823761D01*
X141747952Y-50871380D01*
X141652714Y-50871380D01*
X142414619Y-49871380D02*
X143033666Y-49871380D01*
X142700333Y-50252333D01*
X142843190Y-50252333D01*
X142938428Y-50299952D01*
X142986047Y-50347571D01*
X143033666Y-50442809D01*
X143033666Y-50680904D01*
X142986047Y-50776142D01*
X142938428Y-50823761D01*
X142843190Y-50871380D01*
X142557476Y-50871380D01*
X142462238Y-50823761D01*
X142414619Y-50776142D01*
%TO.C,J2*%
X144613380Y-41862333D02*
X145327666Y-41862333D01*
X145470523Y-41909952D01*
X145565761Y-42005190D01*
X145613380Y-42148047D01*
X145613380Y-42243285D01*
X144708619Y-41433761D02*
X144661000Y-41386142D01*
X144613380Y-41290904D01*
X144613380Y-41052809D01*
X144661000Y-40957571D01*
X144708619Y-40909952D01*
X144803857Y-40862333D01*
X144899095Y-40862333D01*
X145041952Y-40909952D01*
X145613380Y-41481380D01*
X145613380Y-40862333D01*
%TO.C, *%
%TO.C,U6*%
X121158095Y-47077380D02*
X121158095Y-47886904D01*
X121205714Y-47982142D01*
X121253333Y-48029761D01*
X121348571Y-48077380D01*
X121539047Y-48077380D01*
X121634285Y-48029761D01*
X121681904Y-47982142D01*
X121729523Y-47886904D01*
X121729523Y-47077380D01*
X122634285Y-47077380D02*
X122443809Y-47077380D01*
X122348571Y-47125000D01*
X122300952Y-47172619D01*
X122205714Y-47315476D01*
X122158095Y-47505952D01*
X122158095Y-47886904D01*
X122205714Y-47982142D01*
X122253333Y-48029761D01*
X122348571Y-48077380D01*
X122539047Y-48077380D01*
X122634285Y-48029761D01*
X122681904Y-47982142D01*
X122729523Y-47886904D01*
X122729523Y-47648809D01*
X122681904Y-47553571D01*
X122634285Y-47505952D01*
X122539047Y-47458333D01*
X122348571Y-47458333D01*
X122253333Y-47505952D01*
X122205714Y-47553571D01*
X122158095Y-47648809D01*
%TO.C,C18*%
X121912142Y-61444142D02*
X121864523Y-61491761D01*
X121721666Y-61539380D01*
X121626428Y-61539380D01*
X121483571Y-61491761D01*
X121388333Y-61396523D01*
X121340714Y-61301285D01*
X121293095Y-61110809D01*
X121293095Y-60967952D01*
X121340714Y-60777476D01*
X121388333Y-60682238D01*
X121483571Y-60587000D01*
X121626428Y-60539380D01*
X121721666Y-60539380D01*
X121864523Y-60587000D01*
X121912142Y-60634619D01*
X122864523Y-61539380D02*
X122293095Y-61539380D01*
X122578809Y-61539380D02*
X122578809Y-60539380D01*
X122483571Y-60682238D01*
X122388333Y-60777476D01*
X122293095Y-60825095D01*
X123435952Y-60967952D02*
X123340714Y-60920333D01*
X123293095Y-60872714D01*
X123245476Y-60777476D01*
X123245476Y-60729857D01*
X123293095Y-60634619D01*
X123340714Y-60587000D01*
X123435952Y-60539380D01*
X123626428Y-60539380D01*
X123721666Y-60587000D01*
X123769285Y-60634619D01*
X123816904Y-60729857D01*
X123816904Y-60777476D01*
X123769285Y-60872714D01*
X123721666Y-60920333D01*
X123626428Y-60967952D01*
X123435952Y-60967952D01*
X123340714Y-61015571D01*
X123293095Y-61063190D01*
X123245476Y-61158428D01*
X123245476Y-61348904D01*
X123293095Y-61444142D01*
X123340714Y-61491761D01*
X123435952Y-61539380D01*
X123626428Y-61539380D01*
X123721666Y-61491761D01*
X123769285Y-61444142D01*
X123816904Y-61348904D01*
X123816904Y-61158428D01*
X123769285Y-61063190D01*
X123721666Y-61015571D01*
X123626428Y-60967952D01*
%TO.C,C13*%
X112568142Y-73327857D02*
X112615761Y-73375476D01*
X112663380Y-73518333D01*
X112663380Y-73613571D01*
X112615761Y-73756428D01*
X112520523Y-73851666D01*
X112425285Y-73899285D01*
X112234809Y-73946904D01*
X112091952Y-73946904D01*
X111901476Y-73899285D01*
X111806238Y-73851666D01*
X111711000Y-73756428D01*
X111663380Y-73613571D01*
X111663380Y-73518333D01*
X111711000Y-73375476D01*
X111758619Y-73327857D01*
X112663380Y-72375476D02*
X112663380Y-72946904D01*
X112663380Y-72661190D02*
X111663380Y-72661190D01*
X111806238Y-72756428D01*
X111901476Y-72851666D01*
X111949095Y-72946904D01*
X111663380Y-72042142D02*
X111663380Y-71423095D01*
X112044333Y-71756428D01*
X112044333Y-71613571D01*
X112091952Y-71518333D01*
X112139571Y-71470714D01*
X112234809Y-71423095D01*
X112472904Y-71423095D01*
X112568142Y-71470714D01*
X112615761Y-71518333D01*
X112663380Y-71613571D01*
X112663380Y-71899285D01*
X112615761Y-71994523D01*
X112568142Y-72042142D01*
%TO.C,U7*%
X123649380Y-57911904D02*
X124458904Y-57911904D01*
X124554142Y-57864285D01*
X124601761Y-57816666D01*
X124649380Y-57721428D01*
X124649380Y-57530952D01*
X124601761Y-57435714D01*
X124554142Y-57388095D01*
X124458904Y-57340476D01*
X123649380Y-57340476D01*
X123649380Y-56959523D02*
X123649380Y-56292857D01*
X124649380Y-56721428D01*
%TO.C,C11*%
X109466142Y-57888142D02*
X109418523Y-57935761D01*
X109275666Y-57983380D01*
X109180428Y-57983380D01*
X109037571Y-57935761D01*
X108942333Y-57840523D01*
X108894714Y-57745285D01*
X108847095Y-57554809D01*
X108847095Y-57411952D01*
X108894714Y-57221476D01*
X108942333Y-57126238D01*
X109037571Y-57031000D01*
X109180428Y-56983380D01*
X109275666Y-56983380D01*
X109418523Y-57031000D01*
X109466142Y-57078619D01*
X110418523Y-57983380D02*
X109847095Y-57983380D01*
X110132809Y-57983380D02*
X110132809Y-56983380D01*
X110037571Y-57126238D01*
X109942333Y-57221476D01*
X109847095Y-57269095D01*
X111370904Y-57983380D02*
X110799476Y-57983380D01*
X111085190Y-57983380D02*
X111085190Y-56983380D01*
X110989952Y-57126238D01*
X110894714Y-57221476D01*
X110799476Y-57269095D01*
%TO.C,C8*%
X109942333Y-60555142D02*
X109894714Y-60602761D01*
X109751857Y-60650380D01*
X109656619Y-60650380D01*
X109513761Y-60602761D01*
X109418523Y-60507523D01*
X109370904Y-60412285D01*
X109323285Y-60221809D01*
X109323285Y-60078952D01*
X109370904Y-59888476D01*
X109418523Y-59793238D01*
X109513761Y-59698000D01*
X109656619Y-59650380D01*
X109751857Y-59650380D01*
X109894714Y-59698000D01*
X109942333Y-59745619D01*
X110513761Y-60078952D02*
X110418523Y-60031333D01*
X110370904Y-59983714D01*
X110323285Y-59888476D01*
X110323285Y-59840857D01*
X110370904Y-59745619D01*
X110418523Y-59698000D01*
X110513761Y-59650380D01*
X110704238Y-59650380D01*
X110799476Y-59698000D01*
X110847095Y-59745619D01*
X110894714Y-59840857D01*
X110894714Y-59888476D01*
X110847095Y-59983714D01*
X110799476Y-60031333D01*
X110704238Y-60078952D01*
X110513761Y-60078952D01*
X110418523Y-60126571D01*
X110370904Y-60174190D01*
X110323285Y-60269428D01*
X110323285Y-60459904D01*
X110370904Y-60555142D01*
X110418523Y-60602761D01*
X110513761Y-60650380D01*
X110704238Y-60650380D01*
X110799476Y-60602761D01*
X110847095Y-60555142D01*
X110894714Y-60459904D01*
X110894714Y-60269428D01*
X110847095Y-60174190D01*
X110799476Y-60126571D01*
X110704238Y-60078952D01*
%TO.C,U4*%
X108204095Y-72223380D02*
X108204095Y-73032904D01*
X108251714Y-73128142D01*
X108299333Y-73175761D01*
X108394571Y-73223380D01*
X108585047Y-73223380D01*
X108680285Y-73175761D01*
X108727904Y-73128142D01*
X108775523Y-73032904D01*
X108775523Y-72223380D01*
X109680285Y-72556714D02*
X109680285Y-73223380D01*
X109442190Y-72175761D02*
X109204095Y-72890047D01*
X109823142Y-72890047D01*
%TO.C,C2*%
X98766333Y-45061142D02*
X98718714Y-45108761D01*
X98575857Y-45156380D01*
X98480619Y-45156380D01*
X98337761Y-45108761D01*
X98242523Y-45013523D01*
X98194904Y-44918285D01*
X98147285Y-44727809D01*
X98147285Y-44584952D01*
X98194904Y-44394476D01*
X98242523Y-44299238D01*
X98337761Y-44204000D01*
X98480619Y-44156380D01*
X98575857Y-44156380D01*
X98718714Y-44204000D01*
X98766333Y-44251619D01*
X99147285Y-44251619D02*
X99194904Y-44204000D01*
X99290142Y-44156380D01*
X99528238Y-44156380D01*
X99623476Y-44204000D01*
X99671095Y-44251619D01*
X99718714Y-44346857D01*
X99718714Y-44442095D01*
X99671095Y-44584952D01*
X99099666Y-45156380D01*
X99718714Y-45156380D01*
%TO.C,R2*%
X118070333Y-77414380D02*
X117737000Y-76938190D01*
X117498904Y-77414380D02*
X117498904Y-76414380D01*
X117879857Y-76414380D01*
X117975095Y-76462000D01*
X118022714Y-76509619D01*
X118070333Y-76604857D01*
X118070333Y-76747714D01*
X118022714Y-76842952D01*
X117975095Y-76890571D01*
X117879857Y-76938190D01*
X117498904Y-76938190D01*
X118451285Y-76509619D02*
X118498904Y-76462000D01*
X118594142Y-76414380D01*
X118832238Y-76414380D01*
X118927476Y-76462000D01*
X118975095Y-76509619D01*
X119022714Y-76604857D01*
X119022714Y-76700095D01*
X118975095Y-76842952D01*
X118403666Y-77414380D01*
X119022714Y-77414380D01*
%TO.C,C3*%
X108545333Y-64111142D02*
X108497714Y-64158761D01*
X108354857Y-64206380D01*
X108259619Y-64206380D01*
X108116761Y-64158761D01*
X108021523Y-64063523D01*
X107973904Y-63968285D01*
X107926285Y-63777809D01*
X107926285Y-63634952D01*
X107973904Y-63444476D01*
X108021523Y-63349238D01*
X108116761Y-63254000D01*
X108259619Y-63206380D01*
X108354857Y-63206380D01*
X108497714Y-63254000D01*
X108545333Y-63301619D01*
X108878666Y-63206380D02*
X109497714Y-63206380D01*
X109164380Y-63587333D01*
X109307238Y-63587333D01*
X109402476Y-63634952D01*
X109450095Y-63682571D01*
X109497714Y-63777809D01*
X109497714Y-64015904D01*
X109450095Y-64111142D01*
X109402476Y-64158761D01*
X109307238Y-64206380D01*
X109021523Y-64206380D01*
X108926285Y-64158761D01*
X108878666Y-64111142D01*
%TO.C,C14*%
X124346642Y-65762142D02*
X124299023Y-65809761D01*
X124156166Y-65857380D01*
X124060928Y-65857380D01*
X123918071Y-65809761D01*
X123822833Y-65714523D01*
X123775214Y-65619285D01*
X123727595Y-65428809D01*
X123727595Y-65285952D01*
X123775214Y-65095476D01*
X123822833Y-65000238D01*
X123918071Y-64905000D01*
X124060928Y-64857380D01*
X124156166Y-64857380D01*
X124299023Y-64905000D01*
X124346642Y-64952619D01*
X125299023Y-65857380D02*
X124727595Y-65857380D01*
X125013309Y-65857380D02*
X125013309Y-64857380D01*
X124918071Y-65000238D01*
X124822833Y-65095476D01*
X124727595Y-65143095D01*
X126156166Y-65190714D02*
X126156166Y-65857380D01*
X125918071Y-64809761D02*
X125679976Y-65524047D01*
X126299023Y-65524047D01*
%TO.C,C12*%
X122185642Y-74954357D02*
X122233261Y-75001976D01*
X122280880Y-75144833D01*
X122280880Y-75240071D01*
X122233261Y-75382928D01*
X122138023Y-75478166D01*
X122042785Y-75525785D01*
X121852309Y-75573404D01*
X121709452Y-75573404D01*
X121518976Y-75525785D01*
X121423738Y-75478166D01*
X121328500Y-75382928D01*
X121280880Y-75240071D01*
X121280880Y-75144833D01*
X121328500Y-75001976D01*
X121376119Y-74954357D01*
X122280880Y-74001976D02*
X122280880Y-74573404D01*
X122280880Y-74287690D02*
X121280880Y-74287690D01*
X121423738Y-74382928D01*
X121518976Y-74478166D01*
X121566595Y-74573404D01*
X121376119Y-73621023D02*
X121328500Y-73573404D01*
X121280880Y-73478166D01*
X121280880Y-73240071D01*
X121328500Y-73144833D01*
X121376119Y-73097214D01*
X121471357Y-73049595D01*
X121566595Y-73049595D01*
X121709452Y-73097214D01*
X122280880Y-73668642D01*
X122280880Y-73049595D01*
%TO.C,C17*%
X121150142Y-57536142D02*
X121102523Y-57583761D01*
X120959666Y-57631380D01*
X120864428Y-57631380D01*
X120721571Y-57583761D01*
X120626333Y-57488523D01*
X120578714Y-57393285D01*
X120531095Y-57202809D01*
X120531095Y-57059952D01*
X120578714Y-56869476D01*
X120626333Y-56774238D01*
X120721571Y-56679000D01*
X120864428Y-56631380D01*
X120959666Y-56631380D01*
X121102523Y-56679000D01*
X121150142Y-56726619D01*
X122102523Y-57631380D02*
X121531095Y-57631380D01*
X121816809Y-57631380D02*
X121816809Y-56631380D01*
X121721571Y-56774238D01*
X121626333Y-56869476D01*
X121531095Y-56917095D01*
X122435857Y-56631380D02*
X123102523Y-56631380D01*
X122673952Y-57631380D01*
%TO.C,U3*%
X116967095Y-60031380D02*
X116967095Y-60840904D01*
X117014714Y-60936142D01*
X117062333Y-60983761D01*
X117157571Y-61031380D01*
X117348047Y-61031380D01*
X117443285Y-60983761D01*
X117490904Y-60936142D01*
X117538523Y-60840904D01*
X117538523Y-60031380D01*
X117919476Y-60031380D02*
X118538523Y-60031380D01*
X118205190Y-60412333D01*
X118348047Y-60412333D01*
X118443285Y-60459952D01*
X118490904Y-60507571D01*
X118538523Y-60602809D01*
X118538523Y-60840904D01*
X118490904Y-60936142D01*
X118443285Y-60983761D01*
X118348047Y-61031380D01*
X118062333Y-61031380D01*
X117967095Y-60983761D01*
X117919476Y-60936142D01*
%TO.C,C7*%
X99912642Y-66046666D02*
X99960261Y-66094285D01*
X100007880Y-66237142D01*
X100007880Y-66332380D01*
X99960261Y-66475238D01*
X99865023Y-66570476D01*
X99769785Y-66618095D01*
X99579309Y-66665714D01*
X99436452Y-66665714D01*
X99245976Y-66618095D01*
X99150738Y-66570476D01*
X99055500Y-66475238D01*
X99007880Y-66332380D01*
X99007880Y-66237142D01*
X99055500Y-66094285D01*
X99103119Y-66046666D01*
X99007880Y-65713333D02*
X99007880Y-65046666D01*
X100007880Y-65475238D01*
%TO.C,U5*%
X118491095Y-70064380D02*
X118491095Y-70873904D01*
X118538714Y-70969142D01*
X118586333Y-71016761D01*
X118681571Y-71064380D01*
X118872047Y-71064380D01*
X118967285Y-71016761D01*
X119014904Y-70969142D01*
X119062523Y-70873904D01*
X119062523Y-70064380D01*
X120014904Y-70064380D02*
X119538714Y-70064380D01*
X119491095Y-70540571D01*
X119538714Y-70492952D01*
X119633952Y-70445333D01*
X119872047Y-70445333D01*
X119967285Y-70492952D01*
X120014904Y-70540571D01*
X120062523Y-70635809D01*
X120062523Y-70873904D01*
X120014904Y-70969142D01*
X119967285Y-71016761D01*
X119872047Y-71064380D01*
X119633952Y-71064380D01*
X119538714Y-71016761D01*
X119491095Y-70969142D01*
%TO.C,C1*%
X117181333Y-46458142D02*
X117133714Y-46505761D01*
X116990857Y-46553380D01*
X116895619Y-46553380D01*
X116752761Y-46505761D01*
X116657523Y-46410523D01*
X116609904Y-46315285D01*
X116562285Y-46124809D01*
X116562285Y-45981952D01*
X116609904Y-45791476D01*
X116657523Y-45696238D01*
X116752761Y-45601000D01*
X116895619Y-45553380D01*
X116990857Y-45553380D01*
X117133714Y-45601000D01*
X117181333Y-45648619D01*
X118133714Y-46553380D02*
X117562285Y-46553380D01*
X117848000Y-46553380D02*
X117848000Y-45553380D01*
X117752761Y-45696238D01*
X117657523Y-45791476D01*
X117562285Y-45839095D01*
%TO.C,U2*%
X102235095Y-46315380D02*
X102235095Y-47124904D01*
X102282714Y-47220142D01*
X102330333Y-47267761D01*
X102425571Y-47315380D01*
X102616047Y-47315380D01*
X102711285Y-47267761D01*
X102758904Y-47220142D01*
X102806523Y-47124904D01*
X102806523Y-46315380D01*
X103235095Y-46410619D02*
X103282714Y-46363000D01*
X103377952Y-46315380D01*
X103616047Y-46315380D01*
X103711285Y-46363000D01*
X103758904Y-46410619D01*
X103806523Y-46505857D01*
X103806523Y-46601095D01*
X103758904Y-46743952D01*
X103187476Y-47315380D01*
X103806523Y-47315380D01*
%TO.C,C9*%
X102957333Y-62587142D02*
X102909714Y-62634761D01*
X102766857Y-62682380D01*
X102671619Y-62682380D01*
X102528761Y-62634761D01*
X102433523Y-62539523D01*
X102385904Y-62444285D01*
X102338285Y-62253809D01*
X102338285Y-62110952D01*
X102385904Y-61920476D01*
X102433523Y-61825238D01*
X102528761Y-61730000D01*
X102671619Y-61682380D01*
X102766857Y-61682380D01*
X102909714Y-61730000D01*
X102957333Y-61777619D01*
X103433523Y-62682380D02*
X103624000Y-62682380D01*
X103719238Y-62634761D01*
X103766857Y-62587142D01*
X103862095Y-62444285D01*
X103909714Y-62253809D01*
X103909714Y-61872857D01*
X103862095Y-61777619D01*
X103814476Y-61730000D01*
X103719238Y-61682380D01*
X103528761Y-61682380D01*
X103433523Y-61730000D01*
X103385904Y-61777619D01*
X103338285Y-61872857D01*
X103338285Y-62110952D01*
X103385904Y-62206190D01*
X103433523Y-62253809D01*
X103528761Y-62301428D01*
X103719238Y-62301428D01*
X103814476Y-62253809D01*
X103862095Y-62206190D01*
X103909714Y-62110952D01*
%TO.C,C5*%
X108545333Y-66778142D02*
X108497714Y-66825761D01*
X108354857Y-66873380D01*
X108259619Y-66873380D01*
X108116761Y-66825761D01*
X108021523Y-66730523D01*
X107973904Y-66635285D01*
X107926285Y-66444809D01*
X107926285Y-66301952D01*
X107973904Y-66111476D01*
X108021523Y-66016238D01*
X108116761Y-65921000D01*
X108259619Y-65873380D01*
X108354857Y-65873380D01*
X108497714Y-65921000D01*
X108545333Y-65968619D01*
X109450095Y-65873380D02*
X108973904Y-65873380D01*
X108926285Y-66349571D01*
X108973904Y-66301952D01*
X109069142Y-66254333D01*
X109307238Y-66254333D01*
X109402476Y-66301952D01*
X109450095Y-66349571D01*
X109497714Y-66444809D01*
X109497714Y-66682904D01*
X109450095Y-66778142D01*
X109402476Y-66825761D01*
X109307238Y-66873380D01*
X109069142Y-66873380D01*
X108973904Y-66825761D01*
X108926285Y-66778142D01*
%TO.C,C16*%
X132707142Y-54332142D02*
X132659523Y-54379761D01*
X132516666Y-54427380D01*
X132421428Y-54427380D01*
X132278571Y-54379761D01*
X132183333Y-54284523D01*
X132135714Y-54189285D01*
X132088095Y-53998809D01*
X132088095Y-53855952D01*
X132135714Y-53665476D01*
X132183333Y-53570238D01*
X132278571Y-53475000D01*
X132421428Y-53427380D01*
X132516666Y-53427380D01*
X132659523Y-53475000D01*
X132707142Y-53522619D01*
X133659523Y-54427380D02*
X133088095Y-54427380D01*
X133373809Y-54427380D02*
X133373809Y-53427380D01*
X133278571Y-53570238D01*
X133183333Y-53665476D01*
X133088095Y-53713095D01*
X134516666Y-53427380D02*
X134326190Y-53427380D01*
X134230952Y-53475000D01*
X134183333Y-53522619D01*
X134088095Y-53665476D01*
X134040476Y-53855952D01*
X134040476Y-54236904D01*
X134088095Y-54332142D01*
X134135714Y-54379761D01*
X134230952Y-54427380D01*
X134421428Y-54427380D01*
X134516666Y-54379761D01*
X134564285Y-54332142D01*
X134611904Y-54236904D01*
X134611904Y-53998809D01*
X134564285Y-53903571D01*
X134516666Y-53855952D01*
X134421428Y-53808333D01*
X134230952Y-53808333D01*
X134135714Y-53855952D01*
X134088095Y-53903571D01*
X134040476Y-53998809D01*
%TO.C,R1*%
X125690333Y-71573380D02*
X125357000Y-71097190D01*
X125118904Y-71573380D02*
X125118904Y-70573380D01*
X125499857Y-70573380D01*
X125595095Y-70621000D01*
X125642714Y-70668619D01*
X125690333Y-70763857D01*
X125690333Y-70906714D01*
X125642714Y-71001952D01*
X125595095Y-71049571D01*
X125499857Y-71097190D01*
X125118904Y-71097190D01*
X126642714Y-71573380D02*
X126071285Y-71573380D01*
X126357000Y-71573380D02*
X126357000Y-70573380D01*
X126261761Y-70716238D01*
X126166523Y-70811476D01*
X126071285Y-70859095D01*
%TO.C,U8*%
X125984095Y-68286380D02*
X125984095Y-69095904D01*
X126031714Y-69191142D01*
X126079333Y-69238761D01*
X126174571Y-69286380D01*
X126365047Y-69286380D01*
X126460285Y-69238761D01*
X126507904Y-69191142D01*
X126555523Y-69095904D01*
X126555523Y-68286380D01*
X127174571Y-68714952D02*
X127079333Y-68667333D01*
X127031714Y-68619714D01*
X126984095Y-68524476D01*
X126984095Y-68476857D01*
X127031714Y-68381619D01*
X127079333Y-68334000D01*
X127174571Y-68286380D01*
X127365047Y-68286380D01*
X127460285Y-68334000D01*
X127507904Y-68381619D01*
X127555523Y-68476857D01*
X127555523Y-68524476D01*
X127507904Y-68619714D01*
X127460285Y-68667333D01*
X127365047Y-68714952D01*
X127174571Y-68714952D01*
X127079333Y-68762571D01*
X127031714Y-68810190D01*
X126984095Y-68905428D01*
X126984095Y-69095904D01*
X127031714Y-69191142D01*
X127079333Y-69238761D01*
X127174571Y-69286380D01*
X127365047Y-69286380D01*
X127460285Y-69238761D01*
X127507904Y-69191142D01*
X127555523Y-69095904D01*
X127555523Y-68905428D01*
X127507904Y-68810190D01*
X127460285Y-68762571D01*
X127365047Y-68714952D01*
%TO.C,J1*%
X103465380Y-41354333D02*
X104179666Y-41354333D01*
X104322523Y-41401952D01*
X104417761Y-41497190D01*
X104465380Y-41640047D01*
X104465380Y-41735285D01*
X104465380Y-40354333D02*
X104465380Y-40925761D01*
X104465380Y-40640047D02*
X103465380Y-40640047D01*
X103608238Y-40735285D01*
X103703476Y-40830523D01*
X103751095Y-40925761D01*
%TO.C,C6*%
X110450333Y-62333142D02*
X110402714Y-62380761D01*
X110259857Y-62428380D01*
X110164619Y-62428380D01*
X110021761Y-62380761D01*
X109926523Y-62285523D01*
X109878904Y-62190285D01*
X109831285Y-61999809D01*
X109831285Y-61856952D01*
X109878904Y-61666476D01*
X109926523Y-61571238D01*
X110021761Y-61476000D01*
X110164619Y-61428380D01*
X110259857Y-61428380D01*
X110402714Y-61476000D01*
X110450333Y-61523619D01*
X111307476Y-61428380D02*
X111117000Y-61428380D01*
X111021761Y-61476000D01*
X110974142Y-61523619D01*
X110878904Y-61666476D01*
X110831285Y-61856952D01*
X110831285Y-62237904D01*
X110878904Y-62333142D01*
X110926523Y-62380761D01*
X111021761Y-62428380D01*
X111212238Y-62428380D01*
X111307476Y-62380761D01*
X111355095Y-62333142D01*
X111402714Y-62237904D01*
X111402714Y-61999809D01*
X111355095Y-61904571D01*
X111307476Y-61856952D01*
X111212238Y-61809333D01*
X111021761Y-61809333D01*
X110926523Y-61856952D01*
X110878904Y-61904571D01*
X110831285Y-61999809D01*
%TO.C,R3*%
X116038333Y-56713380D02*
X115705000Y-56237190D01*
X115466904Y-56713380D02*
X115466904Y-55713380D01*
X115847857Y-55713380D01*
X115943095Y-55761000D01*
X115990714Y-55808619D01*
X116038333Y-55903857D01*
X116038333Y-56046714D01*
X115990714Y-56141952D01*
X115943095Y-56189571D01*
X115847857Y-56237190D01*
X115466904Y-56237190D01*
X116371666Y-55713380D02*
X116990714Y-55713380D01*
X116657380Y-56094333D01*
X116800238Y-56094333D01*
X116895476Y-56141952D01*
X116943095Y-56189571D01*
X116990714Y-56284809D01*
X116990714Y-56522904D01*
X116943095Y-56618142D01*
X116895476Y-56665761D01*
X116800238Y-56713380D01*
X116514523Y-56713380D01*
X116419285Y-56665761D01*
X116371666Y-56618142D01*
%TO.C,C10*%
X110736142Y-68048142D02*
X110688523Y-68095761D01*
X110545666Y-68143380D01*
X110450428Y-68143380D01*
X110307571Y-68095761D01*
X110212333Y-68000523D01*
X110164714Y-67905285D01*
X110117095Y-67714809D01*
X110117095Y-67571952D01*
X110164714Y-67381476D01*
X110212333Y-67286238D01*
X110307571Y-67191000D01*
X110450428Y-67143380D01*
X110545666Y-67143380D01*
X110688523Y-67191000D01*
X110736142Y-67238619D01*
X111688523Y-68143380D02*
X111117095Y-68143380D01*
X111402809Y-68143380D02*
X111402809Y-67143380D01*
X111307571Y-67286238D01*
X111212333Y-67381476D01*
X111117095Y-67429095D01*
X112307571Y-67143380D02*
X112402809Y-67143380D01*
X112498047Y-67191000D01*
X112545666Y-67238619D01*
X112593285Y-67333857D01*
X112640904Y-67524333D01*
X112640904Y-67762428D01*
X112593285Y-67952904D01*
X112545666Y-68048142D01*
X112498047Y-68095761D01*
X112402809Y-68143380D01*
X112307571Y-68143380D01*
X112212333Y-68095761D01*
X112164714Y-68048142D01*
X112117095Y-67952904D01*
X112069476Y-67762428D01*
X112069476Y-67524333D01*
X112117095Y-67333857D01*
X112164714Y-67238619D01*
X112212333Y-67191000D01*
X112307571Y-67143380D01*
%TO.C,C15*%
X117826642Y-53316142D02*
X117779023Y-53363761D01*
X117636166Y-53411380D01*
X117540928Y-53411380D01*
X117398071Y-53363761D01*
X117302833Y-53268523D01*
X117255214Y-53173285D01*
X117207595Y-52982809D01*
X117207595Y-52839952D01*
X117255214Y-52649476D01*
X117302833Y-52554238D01*
X117398071Y-52459000D01*
X117540928Y-52411380D01*
X117636166Y-52411380D01*
X117779023Y-52459000D01*
X117826642Y-52506619D01*
X118779023Y-53411380D02*
X118207595Y-53411380D01*
X118493309Y-53411380D02*
X118493309Y-52411380D01*
X118398071Y-52554238D01*
X118302833Y-52649476D01*
X118207595Y-52697095D01*
X119683785Y-52411380D02*
X119207595Y-52411380D01*
X119159976Y-52887571D01*
X119207595Y-52839952D01*
X119302833Y-52792333D01*
X119540928Y-52792333D01*
X119636166Y-52839952D01*
X119683785Y-52887571D01*
X119731404Y-52982809D01*
X119731404Y-53220904D01*
X119683785Y-53316142D01*
X119636166Y-53363761D01*
X119540928Y-53411380D01*
X119302833Y-53411380D01*
X119207595Y-53363761D01*
X119159976Y-53316142D01*
%TO.C,C4*%
X121880333Y-67159142D02*
X121832714Y-67206761D01*
X121689857Y-67254380D01*
X121594619Y-67254380D01*
X121451761Y-67206761D01*
X121356523Y-67111523D01*
X121308904Y-67016285D01*
X121261285Y-66825809D01*
X121261285Y-66682952D01*
X121308904Y-66492476D01*
X121356523Y-66397238D01*
X121451761Y-66302000D01*
X121594619Y-66254380D01*
X121689857Y-66254380D01*
X121832714Y-66302000D01*
X121880333Y-66349619D01*
X122737476Y-66587714D02*
X122737476Y-67254380D01*
X122499380Y-66206761D02*
X122261285Y-66921047D01*
X122880333Y-66921047D01*
%TO.C,X1*%
X112601476Y-55967380D02*
X113268142Y-56967380D01*
X113268142Y-55967380D02*
X112601476Y-56967380D01*
X114172904Y-56967380D02*
X113601476Y-56967380D01*
X113887190Y-56967380D02*
X113887190Y-55967380D01*
X113791952Y-56110238D01*
X113696714Y-56205476D01*
X113601476Y-56253095D01*
D16*
%TO.C,J3*%
X141204000Y-72435000D02*
X139874000Y-72435000D01*
X139874000Y-72435000D02*
X139874000Y-71105000D01*
X145074000Y-72435000D02*
X142474000Y-72435000D01*
X145074000Y-72435000D02*
X145074000Y-51995000D01*
X142474000Y-72435000D02*
X142474000Y-69835000D01*
X139874000Y-69835000D02*
X139874000Y-51995000D01*
X142474000Y-69835000D02*
X139874000Y-69835000D01*
X145074000Y-51995000D02*
X139874000Y-51995000D01*
%TO.C,J2*%
X143174000Y-42799000D02*
X143174000Y-44129000D01*
X143174000Y-44129000D02*
X141844000Y-44129000D01*
X143174000Y-38929000D02*
X143174000Y-41529000D01*
X143174000Y-38929000D02*
X122734000Y-38929000D01*
X143174000Y-41529000D02*
X140574000Y-41529000D01*
X140574000Y-44129000D02*
X122734000Y-44129000D01*
X140574000Y-41529000D02*
X140574000Y-44129000D01*
X122734000Y-38929000D02*
X122734000Y-44129000D01*
%TO.C,U6*%
X127000000Y-52280000D02*
X130600000Y-52280000D01*
X127000000Y-45510000D02*
X129200000Y-45510000D01*
X127000000Y-45510000D02*
X124800000Y-45510000D01*
X127000000Y-52280000D02*
X124800000Y-52280000D01*
%TO.C,C18*%
X120750000Y-60952748D02*
X120750000Y-61475252D01*
X119280000Y-60952748D02*
X119280000Y-61475252D01*
%TO.C,C13*%
X113672252Y-74450000D02*
X113149748Y-74450000D01*
X113672252Y-75920000D02*
X113149748Y-75920000D01*
%TO.C,U7*%
X131782000Y-57150000D02*
X131782000Y-59350000D01*
X131782000Y-57150000D02*
X131782000Y-54950000D01*
X125012000Y-57150000D02*
X125012000Y-54950000D01*
X125012000Y-57150000D02*
X125012000Y-60750000D01*
%TO.C,C11*%
X110971000Y-55125252D02*
X110971000Y-54602748D01*
X109501000Y-55125252D02*
X109501000Y-54602748D01*
%TO.C,C8*%
X113672252Y-59336000D02*
X113149748Y-59336000D01*
X113672252Y-60806000D02*
X113149748Y-60806000D01*
%TO.C,U4*%
X100785500Y-73284000D02*
X102045500Y-73284000D01*
X107605500Y-67274000D02*
X107605500Y-73284000D01*
X107605500Y-73284000D02*
X106345500Y-73284000D01*
X100785500Y-69524000D02*
X100785500Y-73284000D01*
%TO.C,C2*%
X102242252Y-43715000D02*
X101719748Y-43715000D01*
X102242252Y-45185000D02*
X101719748Y-45185000D01*
%TO.C,R2*%
X116929436Y-74450000D02*
X117383564Y-74450000D01*
X116929436Y-75920000D02*
X117383564Y-75920000D01*
%TO.C,C3*%
X106179252Y-63145000D02*
X105656748Y-63145000D01*
X106179252Y-64615000D02*
X105656748Y-64615000D01*
%TO.C,C14*%
X127155752Y-66194000D02*
X126633248Y-66194000D01*
X127155752Y-67664000D02*
X126633248Y-67664000D01*
%TO.C,C12*%
X119393500Y-74810252D02*
X119393500Y-74287748D01*
X120863500Y-74810252D02*
X120863500Y-74287748D01*
%TO.C,C17*%
X122054252Y-54764000D02*
X121531748Y-54764000D01*
X122054252Y-56234000D02*
X121531748Y-56234000D01*
%TO.C,U3*%
X118781000Y-63246000D02*
X118781000Y-61571000D01*
X118781000Y-63246000D02*
X118781000Y-63896000D01*
X115661000Y-63246000D02*
X115661000Y-63896000D01*
X115661000Y-63246000D02*
X115661000Y-62596000D01*
%TO.C,C7*%
X101894248Y-65145000D02*
X102416752Y-65145000D01*
X101894248Y-66615000D02*
X102416752Y-66615000D01*
%TO.C,U5*%
X118116500Y-70485000D02*
X118116500Y-72435000D01*
X118116500Y-70485000D02*
X118116500Y-67035000D01*
X112996500Y-70485000D02*
X112996500Y-68535000D01*
X112996500Y-70485000D02*
X112996500Y-72435000D01*
%TO.C,C1*%
X116705748Y-45185000D02*
X117228252Y-45185000D01*
X116705748Y-43715000D02*
X117228252Y-43715000D01*
%TO.C,U2*%
X104354000Y-48172000D02*
X104354000Y-43531000D01*
X114594000Y-48172000D02*
X104354000Y-48172000D01*
X114594000Y-46662000D02*
X104354000Y-46662000D01*
X114594000Y-43531000D02*
X104354000Y-43531000D01*
X114594000Y-48172000D02*
X114594000Y-43531000D01*
X111324000Y-48172000D02*
X111324000Y-46662000D01*
X107623000Y-48172000D02*
X107623000Y-46662000D01*
%TO.C,C9*%
X101894248Y-63145000D02*
X102416752Y-63145000D01*
X101894248Y-64615000D02*
X102416752Y-64615000D01*
%TO.C,C5*%
X106179252Y-66615000D02*
X105656748Y-66615000D01*
X106179252Y-65145000D02*
X105656748Y-65145000D01*
%TO.C,C16*%
X133342748Y-51335000D02*
X133865252Y-51335000D01*
X133342748Y-52805000D02*
X133865252Y-52805000D01*
%TO.C,R1*%
X125629936Y-73506000D02*
X126084064Y-73506000D01*
X125629936Y-72036000D02*
X126084064Y-72036000D01*
D10*
%TO.C,U8*%
X129095000Y-73651500D02*
X133595000Y-73651500D01*
X127970000Y-68101500D02*
X133595000Y-68101500D01*
D16*
%TO.C,J1*%
X113344000Y-41529000D02*
X113344000Y-42859000D01*
X110744000Y-40199000D02*
X110744000Y-42859000D01*
X110744000Y-40199000D02*
X105604000Y-40199000D01*
X110744000Y-42859000D02*
X105604000Y-42859000D01*
X105604000Y-40199000D02*
X105604000Y-42859000D01*
X113344000Y-42859000D02*
X112014000Y-42859000D01*
%TO.C,C6*%
X113672252Y-62965000D02*
X113149748Y-62965000D01*
X113672252Y-61495000D02*
X113149748Y-61495000D01*
%TO.C,R3*%
X116813000Y-53493936D02*
X116813000Y-53948064D01*
X115343000Y-53493936D02*
X115343000Y-53948064D01*
%TO.C,C10*%
X113820752Y-66520000D02*
X113298248Y-66520000D01*
X113820752Y-65050000D02*
X113298248Y-65050000D01*
%TO.C,C15*%
X122054252Y-54202000D02*
X121531748Y-54202000D01*
X122054252Y-52732000D02*
X121531748Y-52732000D01*
%TO.C,C4*%
X120750000Y-66286748D02*
X120750000Y-66809252D01*
X119280000Y-66286748D02*
X119280000Y-66809252D01*
%TO.C,X1*%
X111851000Y-54609000D02*
X111851000Y-55299000D01*
X113731000Y-55339000D02*
X113091000Y-55339000D01*
X114771000Y-54399000D02*
X114771000Y-54059000D01*
X113731000Y-53119000D02*
X113091000Y-53119000D01*
X112051000Y-54389000D02*
X112051000Y-54059000D01*
X112051000Y-54388999D02*
G75*
G03*
X111851000Y-54609000I120002J-310002D01*
G01*
%TD*%
M02*
