%TF.GenerationSoftware,KiCad,Pcbnew,(6.0.5-0)*%
%TF.CreationDate,2022-06-25T13:44:40+01:00*%
%TF.ProjectId,revised_minh_design,72657669-7365-4645-9f6d-696e685f6465,rev?*%
%TF.SameCoordinates,Original*%
%TF.FileFunction,Legend,Bot*%
%TF.FilePolarity,Positive*%
%FSLAX46Y46*%
G04 Gerber Fmt 4.6, Leading zero omitted, Abs format (unit mm)*
G04 Created by KiCad (PCBNEW (6.0.5-0)) date 2022-06-25 13:44:40*
%MOMM*%
%LPD*%
G01*
G04 APERTURE LIST*
%ADD10C,0.700000*%
%ADD11C,0.150000*%
%ADD12C,0.120000*%
G04 APERTURE END LIST*
D10*
X92231333Y-62452285D02*
X90898000Y-62452285D01*
X90326571Y-64547523D02*
X92231333Y-64547523D01*
X92231333Y-60547523D01*
X90326571Y-60547523D01*
X88802761Y-64357047D02*
X88231333Y-64547523D01*
X87278952Y-64547523D01*
X86898000Y-64357047D01*
X86707523Y-64166571D01*
X86517047Y-63785619D01*
X86517047Y-63404666D01*
X86707523Y-63023714D01*
X86898000Y-62833238D01*
X87278952Y-62642761D01*
X88040857Y-62452285D01*
X88421809Y-62261809D01*
X88612285Y-62071333D01*
X88802761Y-61690380D01*
X88802761Y-61309428D01*
X88612285Y-60928476D01*
X88421809Y-60738000D01*
X88040857Y-60547523D01*
X87088476Y-60547523D01*
X86517047Y-60738000D01*
X84802761Y-64547523D02*
X84802761Y-60547523D01*
X83278952Y-60547523D01*
X82898000Y-60738000D01*
X82707523Y-60928476D01*
X82517047Y-61309428D01*
X82517047Y-61880857D01*
X82707523Y-62261809D01*
X82898000Y-62452285D01*
X83278952Y-62642761D01*
X84802761Y-62642761D01*
X80802761Y-63023714D02*
X77755142Y-63023714D01*
X76231333Y-60547523D02*
X73755142Y-60547523D01*
X75088476Y-62071333D01*
X74517047Y-62071333D01*
X74136095Y-62261809D01*
X73945619Y-62452285D01*
X73755142Y-62833238D01*
X73755142Y-63785619D01*
X73945619Y-64166571D01*
X74136095Y-64357047D01*
X74517047Y-64547523D01*
X75659904Y-64547523D01*
X76040857Y-64357047D01*
X76231333Y-64166571D01*
X72231333Y-60928476D02*
X72040857Y-60738000D01*
X71659904Y-60547523D01*
X70707523Y-60547523D01*
X70326571Y-60738000D01*
X70136095Y-60928476D01*
X69945619Y-61309428D01*
X69945619Y-61690380D01*
X70136095Y-62261809D01*
X72421809Y-64547523D01*
X69945619Y-64547523D01*
X65183714Y-64547523D02*
X65183714Y-60547523D01*
X65183714Y-62452285D02*
X62898000Y-62452285D01*
X62898000Y-64547523D02*
X62898000Y-60547523D01*
X59469428Y-64357047D02*
X59850380Y-64547523D01*
X60612285Y-64547523D01*
X60993238Y-64357047D01*
X61183714Y-63976095D01*
X61183714Y-62452285D01*
X60993238Y-62071333D01*
X60612285Y-61880857D01*
X59850380Y-61880857D01*
X59469428Y-62071333D01*
X59278952Y-62452285D01*
X59278952Y-62833238D01*
X61183714Y-63214190D01*
X57564666Y-64547523D02*
X57564666Y-61880857D01*
X57564666Y-62642761D02*
X57374190Y-62261809D01*
X57183714Y-62071333D01*
X56802761Y-61880857D01*
X56421809Y-61880857D01*
X53564666Y-64357047D02*
X53945619Y-64547523D01*
X54707523Y-64547523D01*
X55088476Y-64357047D01*
X55278952Y-63976095D01*
X55278952Y-62452285D01*
X55088476Y-62071333D01*
X54707523Y-61880857D01*
X53945619Y-61880857D01*
X53564666Y-62071333D01*
X53374190Y-62452285D01*
X53374190Y-62833238D01*
X55278952Y-63214190D01*
D11*
X67062952Y-71032666D02*
X66586761Y-71032666D01*
X67158190Y-71318380D02*
X66824857Y-70318380D01*
X66491523Y-71318380D01*
X66158190Y-70651714D02*
X66158190Y-71318380D01*
X66158190Y-70746952D02*
X66110571Y-70699333D01*
X66015333Y-70651714D01*
X65872476Y-70651714D01*
X65777238Y-70699333D01*
X65729619Y-70794571D01*
X65729619Y-71318380D01*
X65396285Y-70651714D02*
X65015333Y-70651714D01*
X65253428Y-70318380D02*
X65253428Y-71175523D01*
X65205809Y-71270761D01*
X65110571Y-71318380D01*
X65015333Y-71318380D01*
X64301047Y-71270761D02*
X64396285Y-71318380D01*
X64586761Y-71318380D01*
X64682000Y-71270761D01*
X64729619Y-71175523D01*
X64729619Y-70794571D01*
X64682000Y-70699333D01*
X64586761Y-70651714D01*
X64396285Y-70651714D01*
X64301047Y-70699333D01*
X64253428Y-70794571D01*
X64253428Y-70889809D01*
X64729619Y-70985047D01*
X63824857Y-70651714D02*
X63824857Y-71318380D01*
X63824857Y-70746952D02*
X63777238Y-70699333D01*
X63682000Y-70651714D01*
X63539142Y-70651714D01*
X63443904Y-70699333D01*
X63396285Y-70794571D01*
X63396285Y-71318380D01*
X62920095Y-70651714D02*
X62920095Y-71318380D01*
X62920095Y-70746952D02*
X62872476Y-70699333D01*
X62777238Y-70651714D01*
X62634380Y-70651714D01*
X62539142Y-70699333D01*
X62491523Y-70794571D01*
X62491523Y-71318380D01*
X61586761Y-71318380D02*
X61586761Y-70794571D01*
X61634380Y-70699333D01*
X61729619Y-70651714D01*
X61920095Y-70651714D01*
X62015333Y-70699333D01*
X61586761Y-71270761D02*
X61682000Y-71318380D01*
X61920095Y-71318380D01*
X62015333Y-71270761D01*
X62062952Y-71175523D01*
X62062952Y-71080285D01*
X62015333Y-70985047D01*
X61920095Y-70937428D01*
X61682000Y-70937428D01*
X61586761Y-70889809D01*
X60491523Y-70651714D02*
X60110571Y-70651714D01*
X60348666Y-70318380D02*
X60348666Y-71175523D01*
X60301047Y-71270761D01*
X60205809Y-71318380D01*
X60110571Y-71318380D01*
X59777238Y-71318380D02*
X59777238Y-70318380D01*
X59348666Y-71318380D02*
X59348666Y-70794571D01*
X59396285Y-70699333D01*
X59491523Y-70651714D01*
X59634380Y-70651714D01*
X59729619Y-70699333D01*
X59777238Y-70746952D01*
X58872476Y-71318380D02*
X58872476Y-70651714D01*
X58872476Y-70318380D02*
X58920095Y-70366000D01*
X58872476Y-70413619D01*
X58824857Y-70366000D01*
X58872476Y-70318380D01*
X58872476Y-70413619D01*
X58443904Y-71270761D02*
X58348666Y-71318380D01*
X58158190Y-71318380D01*
X58062952Y-71270761D01*
X58015333Y-71175523D01*
X58015333Y-71127904D01*
X58062952Y-71032666D01*
X58158190Y-70985047D01*
X58301047Y-70985047D01*
X58396285Y-70937428D01*
X58443904Y-70842190D01*
X58443904Y-70794571D01*
X58396285Y-70699333D01*
X58301047Y-70651714D01*
X58158190Y-70651714D01*
X58062952Y-70699333D01*
X56920095Y-70651714D02*
X56729619Y-71318380D01*
X56539142Y-70842190D01*
X56348666Y-71318380D01*
X56158190Y-70651714D01*
X55348666Y-71318380D02*
X55348666Y-70794571D01*
X55396285Y-70699333D01*
X55491523Y-70651714D01*
X55682000Y-70651714D01*
X55777238Y-70699333D01*
X55348666Y-71270761D02*
X55443904Y-71318380D01*
X55682000Y-71318380D01*
X55777238Y-71270761D01*
X55824857Y-71175523D01*
X55824857Y-71080285D01*
X55777238Y-70985047D01*
X55682000Y-70937428D01*
X55443904Y-70937428D01*
X55348666Y-70889809D01*
X54967714Y-70651714D02*
X54729619Y-71318380D01*
X54491523Y-70651714D02*
X54729619Y-71318380D01*
X54824857Y-71556476D01*
X54872476Y-71604095D01*
X54967714Y-71651714D01*
X53348666Y-70937428D02*
X52586761Y-70937428D01*
X52110571Y-70651714D02*
X51348666Y-70937428D01*
X52110571Y-71223142D01*
%TO.C,U1*%
X89280904Y-46950380D02*
X89280904Y-47759904D01*
X89233285Y-47855142D01*
X89185666Y-47902761D01*
X89090428Y-47950380D01*
X88899952Y-47950380D01*
X88804714Y-47902761D01*
X88757095Y-47855142D01*
X88709476Y-47759904D01*
X88709476Y-46950380D01*
X87709476Y-47950380D02*
X88280904Y-47950380D01*
X87995190Y-47950380D02*
X87995190Y-46950380D01*
X88090428Y-47093238D01*
X88185666Y-47188476D01*
X88280904Y-47236095D01*
D12*
%TO.C,J4*%
X122749000Y-80705000D02*
X122749000Y-75505000D01*
X140589000Y-78105000D02*
X140589000Y-75505000D01*
X140589000Y-75505000D02*
X122749000Y-75505000D01*
X143189000Y-78105000D02*
X140589000Y-78105000D01*
X143189000Y-80705000D02*
X122749000Y-80705000D01*
X143189000Y-80705000D02*
X143189000Y-78105000D01*
X143189000Y-75505000D02*
X141859000Y-75505000D01*
X143189000Y-76835000D02*
X143189000Y-75505000D01*
%TO.C,U1*%
X99055000Y-48514000D02*
X99055000Y-76454000D01*
X44455000Y-48514000D02*
X44455000Y-76454000D01*
X99055000Y-76454000D02*
X44455000Y-76454000D01*
X99055000Y-48514000D02*
X44455000Y-48514000D01*
%TD*%
M02*
