M48
; DRILL file {KiCad (6.0.5-0)} date Wednesday, 29 June 2022 at 18:32:01
; FORMAT={-:-/ absolute / inch / decimal}
; #@! TF.CreationDate,2022-06-29T18:32:01+01:00
; #@! TF.GenerationSoftware,Kicad,Pcbnew,(6.0.5-0)
; #@! TF.FileFunction,Plated,1,4,PTH
FMAT,2
INCH
; #@! TA.AperFunction,Plated,PTH,ViaDrill
T1C0.0157
; #@! TA.AperFunction,Plated,PTH,ComponentDrill
T2C0.0394
; #@! TA.AperFunction,Plated,PTH,ComponentDrill
T3C0.0472
%
G90
G05
T1
X2.46Y-2.58
X2.51Y-2.53
X2.51Y-2.63
X2.56Y-1.76
X2.56Y-1.86
X2.56Y-2.58
X2.61Y-1.71
X2.61Y-1.81
X2.66Y-1.76
X2.66Y-1.86
X2.71Y-2.62
X2.84Y-1.375
X2.84Y-1.475
X2.89Y-1.325
X2.89Y-1.425
X2.89Y-1.525
X2.94Y-1.375
X2.94Y-1.475
X2.96Y-1.7
X3.02Y-1.76
X3.03Y-2.58
X3.08Y-1.7
X3.115Y-1.525
X3.165Y-1.475
X3.165Y-1.575
X3.17Y-2.58
X3.215Y-1.525
X3.31Y-2.58
X3.38Y-1.6
X3.44Y-1.6
X3.5Y-1.6
X3.985Y-2.855
X4.0Y-1.6
X4.02Y-1.99
X4.035Y-2.805
X4.035Y-2.905
X4.05Y-1.55
X4.05Y-1.65
X4.07Y-1.94
X4.085Y-2.855
X4.085Y-2.955
X4.1Y-1.6
X4.135Y-2.905
X4.135Y-3.005
X4.15Y-1.55
X4.15Y-1.65
X4.175Y-2.865
X4.185Y-2.955
X4.19Y-2.1
X4.2Y-1.6
X4.225Y-2.815
X4.225Y-2.915
X4.24Y-2.05
X4.24Y-2.15
X4.27Y-2.4
X4.27Y-2.5
X4.27Y-2.77
X4.275Y-2.865
X4.29Y-2.1
X4.32Y-2.45
X4.32Y-2.55
X4.32Y-2.72
X4.325Y-2.915
X4.37Y-1.98
X4.37Y-2.5
X4.37Y-2.77
X4.375Y-2.965
X4.42Y-1.93
X4.42Y-2.03
X4.42Y-2.82
X4.42Y-2.92
X4.44Y-2.24
X4.44Y-2.34
X4.46Y-2.78
X4.47Y-1.98
X4.47Y-2.87
X4.49Y-2.29
X4.49Y-2.39
X4.51Y-2.73
X4.52Y-2.92
X4.54Y-2.34
X4.54Y-2.44
X4.54Y-2.44
X4.55Y-2.13
X4.56Y-2.78
X4.57Y-2.97
X4.59Y-2.39
X4.59Y-2.49
X4.59Y-2.49
X4.6Y-2.18
X4.61Y-2.83
X4.61Y-2.93
X4.64Y-2.44
X4.64Y-2.44
X4.64Y-2.54
X4.65Y-2.13
X4.65Y-2.23
X4.7Y-2.18
X4.7Y-2.28
X4.7Y-2.28
X4.75Y-2.03
X4.75Y-2.23
X4.75Y-2.23
X4.75Y-2.33
X4.75Y-2.33
X4.8Y-1.98
X4.8Y-2.08
X4.8Y-2.28
X4.8Y-2.28
X4.83Y-2.76
X4.85Y-2.03
X4.85Y-2.13
X4.85Y-2.33
X4.88Y-2.71
X4.88Y-2.81
X4.89Y-1.99
X4.9Y-2.08
X4.9Y-2.18
X4.92Y-2.49
X4.93Y-2.76
X4.94Y-2.04
X4.95Y-2.13
X4.95Y-2.23
X4.97Y-2.44
X4.97Y-2.54
X4.99Y-1.99
X4.99Y-2.09
X5.02Y-2.49
X5.04Y-2.04
X5.04Y-2.14
X5.06Y-2.34
X5.12Y-2.28
X5.12Y-2.4
X5.38Y-1.22
X5.38Y-1.32
X5.4Y-2.06
X5.43Y-1.27
X5.43Y-1.37
X5.48Y-1.22
X5.48Y-1.32
X5.64Y-1.88
X5.7Y-1.82
X5.7Y-1.88
X5.72Y-1.44
X5.72Y-1.5
T2
X2.2Y-2.14
X2.2Y-2.74
X2.2238Y-1.2508
X2.2238Y-1.3508
X2.3Y-2.14
X2.3Y-2.74
X2.3238Y-1.2508
X2.3238Y-1.3508
X2.37Y-3.075
X2.37Y-3.175
X2.4Y-2.14
X2.4Y-2.74
X2.4238Y-1.2508
X2.4238Y-1.3508
X2.5Y-2.14
X2.5Y-2.74
X2.5238Y-1.2508
X2.5238Y-1.3508
X2.6Y-2.14
X2.6Y-2.74
X2.6238Y-1.2508
X2.6238Y-1.3508
X2.7Y-2.14
X2.7Y-2.74
X2.8Y-2.14
X2.8Y-2.74
X2.9Y-2.14
X2.9Y-2.74
X3.0Y-2.14
X3.0Y-2.74
X3.1Y-2.14
X3.1Y-2.74
X3.1738Y-1.2508
X3.1738Y-1.3508
X3.2Y-2.14
X3.2Y-2.74
X3.2738Y-1.2508
X3.2738Y-1.3508
X3.3Y-2.14
X3.3Y-2.74
X3.3738Y-1.2508
X3.3738Y-1.3508
X3.4Y-2.14
X3.4Y-2.74
X3.4738Y-1.2508
X3.4738Y-1.3508
X3.5Y-2.14
X3.5Y-2.74
X3.5738Y-1.2508
X3.5738Y-1.3508
X3.6Y-2.14
X3.6Y-2.74
X4.0238Y-1.2508
X4.0238Y-1.3508
X4.1238Y-1.2508
X4.1238Y-1.3508
X4.2238Y-1.2508
X4.2238Y-1.3508
X4.3238Y-1.2508
X4.3238Y-1.3508
X4.4238Y-1.2508
X4.4238Y-1.3508
X4.8738Y-1.25
X4.8738Y-1.35
X4.8844Y-1.585
X4.8844Y-1.685
X4.885Y-3.025
X4.885Y-3.125
X4.9738Y-1.25
X4.9738Y-1.35
X4.9844Y-1.585
X4.9844Y-1.685
X4.985Y-3.025
X4.985Y-3.125
X5.0738Y-1.25
X5.0738Y-1.35
X5.0844Y-1.585
X5.0844Y-1.685
X5.085Y-3.025
X5.085Y-3.125
X5.1738Y-1.25
X5.1738Y-1.35
X5.1844Y-1.585
X5.1844Y-1.685
X5.185Y-3.025
X5.185Y-3.125
X5.2738Y-1.25
X5.2738Y-1.35
X5.2844Y-1.585
X5.2844Y-1.685
X5.285Y-3.025
X5.285Y-3.125
X5.3844Y-1.585
X5.3844Y-1.685
X5.385Y-3.025
X5.385Y-3.125
X5.4844Y-1.585
X5.4844Y-1.685
X5.485Y-3.025
X5.485Y-3.125
X5.5592Y-2.0994
X5.5592Y-2.1994
X5.5592Y-2.2994
X5.5592Y-2.3994
X5.5592Y-2.4994
X5.5592Y-2.5994
X5.5592Y-2.6994
X5.5592Y-2.7994
X5.5738Y-1.2508
X5.5738Y-1.3508
X5.5844Y-1.585
X5.5844Y-1.685
X5.585Y-3.025
X5.585Y-3.125
X5.6592Y-2.0994
X5.6592Y-2.1994
X5.6592Y-2.2994
X5.6592Y-2.3994
X5.6592Y-2.4994
X5.6592Y-2.5994
X5.6592Y-2.6994
X5.6592Y-2.7994
X5.6738Y-1.2508
X5.6738Y-1.3508
X5.7738Y-1.2508
X5.7738Y-1.3508
X5.8738Y-1.2508
X5.8738Y-1.3508
X5.8742Y-2.1238
X5.8742Y-2.2238
X5.8742Y-2.3238
X5.8742Y-2.4238
X5.8742Y-2.5238
X5.8742Y-2.7488
X5.8742Y-2.8488
X5.8742Y-2.9488
X5.8742Y-3.0488
X5.8742Y-3.1488
X5.875Y-1.525
X5.875Y-1.625
X5.875Y-1.725
X5.875Y-1.825
X5.875Y-1.925
X5.9738Y-1.2508
X5.9738Y-1.3508
X5.9742Y-2.1238
X5.9742Y-2.2238
X5.9742Y-2.3238
X5.9742Y-2.4238
X5.9742Y-2.5238
X5.9742Y-2.7488
X5.9742Y-2.8488
X5.9742Y-2.9488
X5.9742Y-3.0488
X5.9742Y-3.1488
X5.975Y-1.525
X5.975Y-1.625
X5.975Y-1.725
X5.975Y-1.825
X5.975Y-1.925
T3
X2.0498Y-2.96
X2.0513Y-1.9602
X2.1496Y-1.9602
X2.1498Y-2.96
X2.2498Y-1.96
X2.2498Y-2.96
X2.3498Y-2.96
X2.3509Y-1.9602
X2.4498Y-2.96
X2.4508Y-1.9602
X2.5498Y-1.96
X2.5498Y-2.96
X2.6498Y-1.96
X2.6498Y-2.96
X2.7498Y-1.96
X2.7498Y-2.96
X2.8498Y-1.96
X2.8498Y-2.96
X2.9498Y-1.96
X2.9498Y-2.96
X3.0498Y-1.96
X3.0498Y-2.96
X3.1498Y-2.96
X3.15Y-1.9602
X3.2498Y-2.96
X3.2499Y-1.9602
X3.3498Y-1.96
X3.3498Y-2.96
X3.4498Y-1.96
X3.4498Y-2.96
X3.5498Y-1.96
X3.5498Y-2.96
X3.6498Y-1.96
X3.6498Y-2.96
X3.7498Y-1.96
X3.7498Y-2.96
X3.8498Y-1.96
X3.8498Y-2.96
T0
M30
