%TF.GenerationSoftware,KiCad,Pcbnew,(6.0.5-0)*%
%TF.CreationDate,2022-06-29T18:32:03+01:00*%
%TF.ProjectId,revised_minh_design,72657669-7365-4645-9f6d-696e685f6465,rev?*%
%TF.SameCoordinates,Original*%
%TF.FileFunction,Copper,L4,Bot*%
%TF.FilePolarity,Positive*%
%FSLAX46Y46*%
G04 Gerber Fmt 4.6, Leading zero omitted, Abs format (unit mm)*
G04 Created by KiCad (PCBNEW (6.0.5-0)) date 2022-06-29 18:32:03*
%MOMM*%
%LPD*%
G01*
G04 APERTURE LIST*
%TA.AperFunction,ComponentPad*%
%ADD10R,1.700000X1.700000*%
%TD*%
%TA.AperFunction,ComponentPad*%
%ADD11O,1.700000X1.700000*%
%TD*%
%TA.AperFunction,ComponentPad*%
%ADD12C,1.600000*%
%TD*%
%TA.AperFunction,ComponentPad*%
%ADD13R,1.600000X1.600000*%
%TD*%
%TA.AperFunction,ComponentPad*%
%ADD14O,1.600000X1.600000*%
%TD*%
%TA.AperFunction,ViaPad*%
%ADD15C,0.800000*%
%TD*%
%TA.AperFunction,Conductor*%
%ADD16C,0.250000*%
%TD*%
G04 APERTURE END LIST*
D10*
%TO.P,J5,1,Pin_1*%
%TO.N,RX*%
X60198000Y-78105000D03*
D11*
%TO.P,J5,2,Pin_2*%
%TO.N,TX*%
X60198000Y-80645000D03*
%TD*%
D10*
%TO.P,J9,1,Pin_1*%
%TO.N,VoutF*%
X149225000Y-48895000D03*
D11*
%TO.P,J9,2,Pin_2*%
%TO.N,Earth*%
X151765000Y-48895000D03*
%TO.P,J9,3,Pin_3*%
%TO.N,unconnected-(J9-Pad3)*%
X149225000Y-46355000D03*
%TO.P,J9,4,Pin_4*%
%TO.N,Earth*%
X151765000Y-46355000D03*
%TO.P,J9,5,Pin_5*%
%TO.N,ADC2_5*%
X149225000Y-43815000D03*
%TO.P,J9,6,Pin_6*%
%TO.N,Earth*%
X151765000Y-43815000D03*
%TO.P,J9,7,Pin_7*%
%TO.N,ADC2_6*%
X149225000Y-41275000D03*
%TO.P,J9,8,Pin_8*%
%TO.N,Earth*%
X151765000Y-41275000D03*
%TO.P,J9,9,Pin_9*%
%TO.N,ENA6*%
X149225000Y-38735000D03*
%TO.P,J9,10,Pin_10*%
%TO.N,Earth*%
X151765000Y-38735000D03*
%TD*%
D10*
%TO.P,J3,1,Pin_1*%
%TO.N,ADC2_1*%
X141204000Y-71105000D03*
D11*
%TO.P,J3,2,Pin_2*%
%TO.N,Earth*%
X143744000Y-71105000D03*
%TO.P,J3,3,Pin_3*%
%TO.N,ADC2_2*%
X141204000Y-68565000D03*
%TO.P,J3,4,Pin_4*%
%TO.N,Earth*%
X143744000Y-68565000D03*
%TO.P,J3,5,Pin_5*%
%TO.N,ADC2_3*%
X141204000Y-66025000D03*
%TO.P,J3,6,Pin_6*%
%TO.N,Earth*%
X143744000Y-66025000D03*
%TO.P,J3,7,Pin_7*%
%TO.N,ADC2_4*%
X141204000Y-63485000D03*
%TO.P,J3,8,Pin_8*%
%TO.N,Earth*%
X143744000Y-63485000D03*
%TO.P,J3,9,Pin_9*%
%TO.N,ADC2_5*%
X141204000Y-60945000D03*
%TO.P,J3,10,Pin_10*%
%TO.N,Earth*%
X143744000Y-60945000D03*
%TO.P,J3,11,Pin_11*%
%TO.N,ADC2_6*%
X141204000Y-58405000D03*
%TO.P,J3,12,Pin_12*%
%TO.N,Earth*%
X143744000Y-58405000D03*
%TO.P,J3,13,Pin_13*%
%TO.N,ADC2_7*%
X141204000Y-55865000D03*
%TO.P,J3,14,Pin_14*%
%TO.N,Earth*%
X143744000Y-55865000D03*
%TO.P,J3,15,Pin_15*%
%TO.N,ADC2_8*%
X141204000Y-53325000D03*
%TO.P,J3,16,Pin_16*%
%TO.N,Earth*%
X143744000Y-53325000D03*
%TD*%
D10*
%TO.P,J10,1,Pin_1*%
%TO.N,VoutA*%
X66645000Y-34310000D03*
D11*
%TO.P,J10,2,Pin_2*%
%TO.N,Earth*%
X66645000Y-31770000D03*
%TO.P,J10,3,Pin_3*%
%TO.N,unconnected-(J10-Pad3)*%
X64105000Y-34310000D03*
%TO.P,J10,4,Pin_4*%
%TO.N,Earth*%
X64105000Y-31770000D03*
%TO.P,J10,5,Pin_5*%
%TO.N,ADC1_5*%
X61565000Y-34310000D03*
%TO.P,J10,6,Pin_6*%
%TO.N,Earth*%
X61565000Y-31770000D03*
%TO.P,J10,7,Pin_7*%
%TO.N,ADC1_6*%
X59025000Y-34310000D03*
%TO.P,J10,8,Pin_8*%
%TO.N,Earth*%
X59025000Y-31770000D03*
%TO.P,J10,9,Pin_9*%
%TO.N,ENA1*%
X56485000Y-34310000D03*
%TO.P,J10,10,Pin_10*%
%TO.N,Earth*%
X56485000Y-31770000D03*
%TD*%
D10*
%TO.P,J6,1,Pin_1*%
%TO.N,VoutD*%
X149205000Y-64105000D03*
D11*
%TO.P,J6,2,Pin_2*%
%TO.N,Earth*%
X151745000Y-64105000D03*
%TO.P,J6,3,Pin_3*%
%TO.N,unconnected-(J6-Pad3)*%
X149205000Y-61565000D03*
%TO.P,J6,4,Pin_4*%
%TO.N,Earth*%
X151745000Y-61565000D03*
%TO.P,J6,5,Pin_5*%
%TO.N,ADC2_3*%
X149205000Y-59025000D03*
%TO.P,J6,6,Pin_6*%
%TO.N,Earth*%
X151745000Y-59025000D03*
%TO.P,J6,7,Pin_7*%
%TO.N,ADC2_4*%
X149205000Y-56485000D03*
%TO.P,J6,8,Pin_8*%
%TO.N,Earth*%
X151745000Y-56485000D03*
%TO.P,J6,9,Pin_9*%
%TO.N,ENA7*%
X149205000Y-53945000D03*
%TO.P,J6,10,Pin_10*%
%TO.N,Earth*%
X151745000Y-53945000D03*
%TD*%
D10*
%TO.P,J12,1,Pin_1*%
%TO.N,VoutC*%
X90775000Y-34310000D03*
D11*
%TO.P,J12,2,Pin_2*%
%TO.N,Earth*%
X90775000Y-31770000D03*
%TO.P,J12,3,Pin_3*%
%TO.N,unconnected-(J12-Pad3)*%
X88235000Y-34310000D03*
%TO.P,J12,4,Pin_4*%
%TO.N,Earth*%
X88235000Y-31770000D03*
%TO.P,J12,5,Pin_5*%
%TO.N,ADC1_7*%
X85695000Y-34310000D03*
%TO.P,J12,6,Pin_6*%
%TO.N,Earth*%
X85695000Y-31770000D03*
%TO.P,J12,7,Pin_7*%
%TO.N,ADC1_8*%
X83155000Y-34310000D03*
%TO.P,J12,8,Pin_8*%
%TO.N,Earth*%
X83155000Y-31770000D03*
%TO.P,J12,9,Pin_9*%
%TO.N,ENA2*%
X80615000Y-34310000D03*
%TO.P,J12,10,Pin_10*%
%TO.N,Earth*%
X80615000Y-31770000D03*
%TD*%
D10*
%TO.P,J1,1,Pin_1*%
%TO.N,VoutB*%
X149205000Y-79980000D03*
D11*
%TO.P,J1,2,Pin_2*%
%TO.N,Earth*%
X151745000Y-79980000D03*
%TO.P,J1,3,Pin_3*%
%TO.N,unconnected-(J1-Pad3)*%
X149205000Y-77440000D03*
%TO.P,J1,4,Pin_4*%
%TO.N,Earth*%
X151745000Y-77440000D03*
%TO.P,J1,5,Pin_5*%
%TO.N,ADC2_1*%
X149205000Y-74900000D03*
%TO.P,J1,6,Pin_6*%
%TO.N,Earth*%
X151745000Y-74900000D03*
%TO.P,J1,7,Pin_7*%
%TO.N,ADC2_2*%
X149205000Y-72360000D03*
%TO.P,J1,8,Pin_8*%
%TO.N,Earth*%
X151745000Y-72360000D03*
%TO.P,J1,9,Pin_9*%
%TO.N,ENA8*%
X149205000Y-69820000D03*
%TO.P,J1,10,Pin_10*%
%TO.N,Earth*%
X151745000Y-69820000D03*
%TD*%
D10*
%TO.P,J2,1,Pin_1*%
%TO.N,ADC1_1*%
X141844000Y-42799000D03*
D11*
%TO.P,J2,2,Pin_2*%
%TO.N,Earth*%
X141844000Y-40259000D03*
%TO.P,J2,3,Pin_3*%
%TO.N,ADC1_2*%
X139304000Y-42799000D03*
%TO.P,J2,4,Pin_4*%
%TO.N,Earth*%
X139304000Y-40259000D03*
%TO.P,J2,5,Pin_5*%
%TO.N,ADC1_3*%
X136764000Y-42799000D03*
%TO.P,J2,6,Pin_6*%
%TO.N,Earth*%
X136764000Y-40259000D03*
%TO.P,J2,7,Pin_7*%
%TO.N,ADC1_4*%
X134224000Y-42799000D03*
%TO.P,J2,8,Pin_8*%
%TO.N,Earth*%
X134224000Y-40259000D03*
%TO.P,J2,9,Pin_9*%
%TO.N,ADC1_5*%
X131684000Y-42799000D03*
%TO.P,J2,10,Pin_10*%
%TO.N,Earth*%
X131684000Y-40259000D03*
%TO.P,J2,11,Pin_11*%
%TO.N,ADC1_6*%
X129144000Y-42799000D03*
%TO.P,J2,12,Pin_12*%
%TO.N,Earth*%
X129144000Y-40259000D03*
%TO.P,J2,13,Pin_13*%
%TO.N,ADC1_7*%
X126604000Y-42799000D03*
%TO.P,J2,14,Pin_14*%
%TO.N,Earth*%
X126604000Y-40259000D03*
%TO.P,J2,15,Pin_15*%
%TO.N,ADC1_8*%
X124064000Y-42799000D03*
%TO.P,J2,16,Pin_16*%
%TO.N,Earth*%
X124064000Y-40259000D03*
%TD*%
D10*
%TO.P,J8,1,Pin_1*%
%TO.N,VoutE*%
X112365000Y-34310000D03*
D11*
%TO.P,J8,2,Pin_2*%
%TO.N,Earth*%
X112365000Y-31770000D03*
%TO.P,J8,3,Pin_3*%
%TO.N,unconnected-(J8-Pad3)*%
X109825000Y-34310000D03*
%TO.P,J8,4,Pin_4*%
%TO.N,Earth*%
X109825000Y-31770000D03*
%TO.P,J8,5,Pin_5*%
%TO.N,ADC1_3*%
X107285000Y-34310000D03*
%TO.P,J8,6,Pin_6*%
%TO.N,Earth*%
X107285000Y-31770000D03*
%TO.P,J8,7,Pin_7*%
%TO.N,ADC1_4*%
X104745000Y-34310000D03*
%TO.P,J8,8,Pin_8*%
%TO.N,Earth*%
X104745000Y-31770000D03*
%TO.P,J8,9,Pin_9*%
%TO.N,ENA3*%
X102205000Y-34310000D03*
%TO.P,J8,10,Pin_10*%
%TO.N,Earth*%
X102205000Y-31770000D03*
%TD*%
D10*
%TO.P,J11,1,Pin_1*%
%TO.N,VoutH*%
X151735000Y-34310000D03*
D11*
%TO.P,J11,2,Pin_2*%
%TO.N,Earth*%
X151735000Y-31770000D03*
%TO.P,J11,3,Pin_3*%
%TO.N,unconnected-(J11-Pad3)*%
X149195000Y-34310000D03*
%TO.P,J11,4,Pin_4*%
%TO.N,Earth*%
X149195000Y-31770000D03*
%TO.P,J11,5,Pin_5*%
%TO.N,ADC2_7*%
X146655000Y-34310000D03*
%TO.P,J11,6,Pin_6*%
%TO.N,Earth*%
X146655000Y-31770000D03*
%TO.P,J11,7,Pin_7*%
%TO.N,ADC2_8*%
X144115000Y-34310000D03*
%TO.P,J11,8,Pin_8*%
%TO.N,Earth*%
X144115000Y-31770000D03*
%TO.P,J11,9,Pin_9*%
%TO.N,ENA5*%
X141575000Y-34310000D03*
%TO.P,J11,10,Pin_10*%
%TO.N,Earth*%
X141575000Y-31770000D03*
%TD*%
D10*
%TO.P,J7,1,Pin_1*%
%TO.N,VoutG*%
X133955000Y-34290000D03*
D11*
%TO.P,J7,2,Pin_2*%
%TO.N,Earth*%
X133955000Y-31750000D03*
%TO.P,J7,3,Pin_3*%
%TO.N,unconnected-(J7-Pad3)*%
X131415000Y-34290000D03*
%TO.P,J7,4,Pin_4*%
%TO.N,Earth*%
X131415000Y-31750000D03*
%TO.P,J7,5,Pin_5*%
%TO.N,ADC1_1*%
X128875000Y-34290000D03*
%TO.P,J7,6,Pin_6*%
%TO.N,Earth*%
X128875000Y-31750000D03*
%TO.P,J7,7,Pin_7*%
%TO.N,ADC1_2*%
X126335000Y-34290000D03*
%TO.P,J7,8,Pin_8*%
%TO.N,Earth*%
X126335000Y-31750000D03*
%TO.P,J7,9,Pin_9*%
%TO.N,ENA4*%
X123795000Y-34290000D03*
%TO.P,J7,10,Pin_10*%
%TO.N,Earth*%
X123795000Y-31750000D03*
%TD*%
D12*
%TO.P,U1,1,CLK*%
%TO.N,unconnected-(U1-Pad1)*%
X97785000Y-75184000D03*
%TO.P,U1,2,D0*%
%TO.N,unconnected-(U1-Pad2)*%
X95245000Y-75184000D03*
%TO.P,U1,3,D1*%
%TO.N,unconnected-(U1-Pad3)*%
X92705000Y-75184000D03*
%TO.P,U1,4,15*%
%TO.N,ENA8*%
X90165000Y-75184000D03*
%TO.P,U1,5,2*%
%TO.N,ENA7*%
X87625000Y-75184000D03*
%TO.P,U1,6,0*%
%TO.N,unconnected-(U1-Pad6)*%
X85085000Y-75184000D03*
%TO.P,U1,7,4*%
%TO.N,unconnected-(U1-Pad7)*%
X82545000Y-75184000D03*
%TO.P,U1,8,16*%
%TO.N,unconnected-(U1-Pad8)*%
X80005000Y-75184000D03*
%TO.P,U1,9,17*%
%TO.N,unconnected-(U1-Pad9)*%
X77465000Y-75184000D03*
%TO.P,U1,10,5*%
%TO.N,unconnected-(U1-Pad10)*%
X74925000Y-75184000D03*
%TO.P,U1,11,18*%
%TO.N,unconnected-(U1-Pad11)*%
X72385000Y-75184000D03*
%TO.P,U1,12,19*%
%TO.N,unconnected-(U1-Pad12)*%
X69845000Y-75184000D03*
%TO.P,U1,13,GND*%
%TO.N,Earth*%
X67305000Y-75184000D03*
%TO.P,U1,14,21*%
%TO.N,unconnected-(U1-Pad14)*%
X64765000Y-75184000D03*
%TO.P,U1,15,RX*%
%TO.N,unconnected-(U1-Pad15)*%
X62225000Y-75184000D03*
%TO.P,U1,16,TX*%
%TO.N,unconnected-(U1-Pad16)*%
X59685000Y-75184000D03*
%TO.P,U1,17,22*%
%TO.N,unconnected-(U1-Pad17)*%
X57145000Y-75184000D03*
%TO.P,U1,18,23*%
%TO.N,unconnected-(U1-Pad18)*%
X54605000Y-75184000D03*
%TO.P,U1,19,GND*%
%TO.N,Earth*%
X52065000Y-75184000D03*
%TO.P,U1,20,3V3*%
%TO.N,unconnected-(U1-Pad20)*%
X52102143Y-49789715D03*
%TO.P,U1,21,EN*%
%TO.N,unconnected-(U1-Pad21)*%
X54599014Y-49789715D03*
%TO.P,U1,22,VP*%
%TO.N,unconnected-(U1-Pad22)*%
X57145000Y-49784000D03*
%TO.P,U1,23,VN*%
%TO.N,unconnected-(U1-Pad23)*%
X59713572Y-49789715D03*
%TO.P,U1,24,34*%
%TO.N,ENA1*%
X62250715Y-49789715D03*
%TO.P,U1,25,35*%
%TO.N,unconnected-(U1-Pad25)*%
X64765000Y-49784000D03*
%TO.P,U1,26,32*%
%TO.N,unconnected-(U1-Pad26)*%
X67305000Y-49784000D03*
%TO.P,U1,27,33*%
%TO.N,unconnected-(U1-Pad27)*%
X69845000Y-49784000D03*
%TO.P,U1,28,25*%
%TO.N,ENA2*%
X72385000Y-49784000D03*
%TO.P,U1,29,26*%
%TO.N,ENA3*%
X74925000Y-49784000D03*
%TO.P,U1,30,27*%
%TO.N,ENA4*%
X77465000Y-49784000D03*
%TO.P,U1,31,14*%
%TO.N,unconnected-(U1-Pad31)*%
X80010715Y-49789715D03*
%TO.P,U1,32,12*%
%TO.N,unconnected-(U1-Pad32)*%
X82547858Y-49789715D03*
%TO.P,U1,33,GND*%
%TO.N,Earth*%
X85085000Y-49784000D03*
%TO.P,U1,34,13*%
%TO.N,unconnected-(U1-Pad34)*%
X87625000Y-49784000D03*
%TO.P,U1,35,D2*%
%TO.N,unconnected-(U1-Pad35)*%
X90165000Y-49784000D03*
%TO.P,U1,36,D3*%
%TO.N,unconnected-(U1-Pad36)*%
X92705000Y-49784000D03*
%TO.P,U1,37,CMD*%
%TO.N,unconnected-(U1-Pad37)*%
X95245000Y-49784000D03*
%TO.P,U1,38,5V*%
%TO.N,unconnected-(U1-Pad38)*%
X97785000Y-49784000D03*
%TD*%
D10*
%TO.P,J4,1,Pin_1*%
%TO.N,VoutB*%
X141859000Y-76835000D03*
D11*
%TO.P,J4,2,Pin_2*%
%TO.N,Earth*%
X141859000Y-79375000D03*
%TO.P,J4,3,Pin_3*%
%TO.N,VoutD*%
X139319000Y-76835000D03*
%TO.P,J4,4,Pin_4*%
%TO.N,Earth*%
X139319000Y-79375000D03*
%TO.P,J4,5,Pin_5*%
%TO.N,VoutF*%
X136779000Y-76835000D03*
%TO.P,J4,6,Pin_6*%
%TO.N,Earth*%
X136779000Y-79375000D03*
%TO.P,J4,7,Pin_7*%
%TO.N,VoutH*%
X134239000Y-76835000D03*
%TO.P,J4,8,Pin_8*%
%TO.N,Earth*%
X134239000Y-79375000D03*
%TO.P,J4,9,Pin_9*%
%TO.N,VoutG*%
X131699000Y-76835000D03*
%TO.P,J4,10,Pin_10*%
%TO.N,Earth*%
X131699000Y-79375000D03*
%TO.P,J4,11,Pin_11*%
%TO.N,VoutE*%
X129159000Y-76835000D03*
%TO.P,J4,12,Pin_12*%
%TO.N,Earth*%
X129159000Y-79375000D03*
%TO.P,J4,13,Pin_13*%
%TO.N,VoutC*%
X126619000Y-76835000D03*
%TO.P,J4,14,Pin_14*%
%TO.N,Earth*%
X126619000Y-79375000D03*
%TO.P,J4,15,Pin_15*%
%TO.N,VoutA*%
X124079000Y-76835000D03*
%TO.P,J4,16,Pin_16*%
%TO.N,Earth*%
X124079000Y-79375000D03*
%TD*%
D13*
%TO.P,A1,1,D1/TX*%
%TO.N,unconnected-(A1-Pad1)*%
X91440000Y-69596000D03*
D14*
%TO.P,A1,2,D0/RX*%
%TO.N,unconnected-(A1-Pad2)*%
X88900000Y-69596000D03*
%TO.P,A1,3,~{RESET}*%
%TO.N,unconnected-(A1-Pad3)*%
X86360000Y-69596000D03*
%TO.P,A1,4,GND*%
%TO.N,Earth*%
X83820000Y-69596000D03*
%TO.P,A1,5,D2*%
%TO.N,unconnected-(A1-Pad5)*%
X81280000Y-69596000D03*
%TO.P,A1,6,D3*%
%TO.N,unconnected-(A1-Pad6)*%
X78740000Y-69596000D03*
%TO.P,A1,7,D4*%
%TO.N,unconnected-(A1-Pad7)*%
X76200000Y-69596000D03*
%TO.P,A1,8,D5*%
%TO.N,ENA8*%
X73660000Y-69596000D03*
%TO.P,A1,9,D6*%
%TO.N,ENA7*%
X71120000Y-69596000D03*
%TO.P,A1,10,D7*%
%TO.N,ENA6*%
X68580000Y-69596000D03*
%TO.P,A1,11,D8*%
%TO.N,ENA5*%
X66040000Y-69596000D03*
%TO.P,A1,12,D9*%
%TO.N,unconnected-(A1-Pad12)*%
X63500000Y-69596000D03*
%TO.P,A1,13,D10*%
%TO.N,unconnected-(A1-Pad13)*%
X60960000Y-69596000D03*
%TO.P,A1,14,D11*%
%TO.N,unconnected-(A1-Pad14)*%
X58420000Y-69596000D03*
%TO.P,A1,15,D12*%
%TO.N,unconnected-(A1-Pad15)*%
X55880000Y-69596000D03*
%TO.P,A1,16,D13*%
%TO.N,unconnected-(A1-Pad16)*%
X55880000Y-54356000D03*
%TO.P,A1,17,3V3*%
%TO.N,unconnected-(A1-Pad17)*%
X58420000Y-54356000D03*
%TO.P,A1,18,AREF*%
%TO.N,unconnected-(A1-Pad18)*%
X60960000Y-54356000D03*
%TO.P,A1,19,A0*%
%TO.N,unconnected-(A1-Pad19)*%
X63500000Y-54356000D03*
%TO.P,A1,20,A1*%
%TO.N,unconnected-(A1-Pad20)*%
X66040000Y-54356000D03*
%TO.P,A1,21,A2*%
%TO.N,unconnected-(A1-Pad21)*%
X68580000Y-54356000D03*
%TO.P,A1,22,A3*%
%TO.N,ENA1*%
X71120000Y-54356000D03*
%TO.P,A1,23,A4*%
%TO.N,ENA2*%
X73660000Y-54356000D03*
%TO.P,A1,24,A5*%
%TO.N,ENA3*%
X76200000Y-54356000D03*
%TO.P,A1,25,A6*%
%TO.N,ENA4*%
X78740000Y-54356000D03*
%TO.P,A1,26,A7*%
%TO.N,unconnected-(A1-Pad26)*%
X81280000Y-54356000D03*
%TO.P,A1,27,+5V*%
%TO.N,unconnected-(A1-Pad27)*%
X83820000Y-54356000D03*
%TO.P,A1,28,~{RESET}*%
%TO.N,unconnected-(A1-Pad28)*%
X86360000Y-54356000D03*
%TO.P,A1,29,GND*%
%TO.N,Earth*%
X88900000Y-54356000D03*
%TO.P,A1,30,VIN*%
%TO.N,unconnected-(A1-Pad30)*%
X91440000Y-54356000D03*
%TD*%
D15*
%TO.N,Earth*%
X125476000Y-51816000D03*
X117856000Y-61976000D03*
X65024000Y-65532000D03*
X109855000Y-74041000D03*
X107315000Y-71501000D03*
X73406000Y-38735000D03*
X118110000Y-56642000D03*
X130048000Y-57912000D03*
X117094000Y-71882000D03*
X126746000Y-53086000D03*
X114808000Y-74168000D03*
X85852000Y-40640000D03*
X120650000Y-59182000D03*
X110998000Y-70358000D03*
X121920000Y-52832000D03*
X102489000Y-71247000D03*
X117856000Y-64516000D03*
X144780000Y-46228000D03*
X84074000Y-65532000D03*
X124968000Y-63246000D03*
X139192000Y-30988000D03*
X128016000Y-54356000D03*
X103378000Y-49276000D03*
X102489000Y-73787000D03*
X68834000Y-66548000D03*
X72136000Y-37465000D03*
X76962000Y-65532000D03*
X136652000Y-33528000D03*
X124460000Y-55372000D03*
X116586000Y-63246000D03*
X105410000Y-39370000D03*
X130048000Y-60960000D03*
X114554000Y-69342000D03*
X118110000Y-54102000D03*
X63754000Y-64262000D03*
X143256000Y-47752000D03*
X136652000Y-30988000D03*
X106426000Y-53340000D03*
X103759000Y-72517000D03*
X113538000Y-72898000D03*
X112776000Y-59436000D03*
X87376000Y-40640000D03*
X67564000Y-44704000D03*
X137160000Y-52324000D03*
X115316000Y-61976000D03*
X127508000Y-63246000D03*
X116078000Y-75438000D03*
X102870000Y-39370000D03*
X124206000Y-50546000D03*
X137922000Y-34798000D03*
X105029000Y-73787000D03*
X139192000Y-33528000D03*
X109728000Y-69088000D03*
X105029000Y-76327000D03*
X116586000Y-63246000D03*
X108458000Y-60960000D03*
X103759000Y-75057000D03*
X78232000Y-43180000D03*
X102870000Y-41910000D03*
X73406000Y-36195000D03*
X115824000Y-70612000D03*
X63754000Y-66802000D03*
X79121000Y-38735000D03*
X112268000Y-49022000D03*
X108966000Y-53340000D03*
X145288000Y-36576000D03*
X128524000Y-59436000D03*
X115570000Y-54102000D03*
X111125000Y-75311000D03*
X112776000Y-56896000D03*
X104140000Y-40640000D03*
X80391000Y-37465000D03*
X106045000Y-72771000D03*
X73406000Y-33655000D03*
X80518000Y-65532000D03*
X72136000Y-34925000D03*
X88900000Y-40640000D03*
X122682000Y-70104000D03*
X121920000Y-50292000D03*
X107696000Y-52070000D03*
X126238000Y-61976000D03*
X112268000Y-51562000D03*
X108585000Y-72771000D03*
X113284000Y-70612000D03*
X126746000Y-50546000D03*
X120650000Y-59182000D03*
X65024000Y-44704000D03*
X67564000Y-47244000D03*
X117094000Y-74422000D03*
X102108000Y-50546000D03*
X80391000Y-40005000D03*
X66294000Y-43434000D03*
X115316000Y-61976000D03*
X108458000Y-70358000D03*
X107696000Y-54610000D03*
X110998000Y-63500000D03*
X125222000Y-70104000D03*
X106680000Y-40640000D03*
X66294000Y-45974000D03*
X116586000Y-60706000D03*
X109728000Y-62230000D03*
X120650000Y-56642000D03*
X119380000Y-57912000D03*
X121920000Y-57912000D03*
X115316000Y-59436000D03*
X144780000Y-47752000D03*
X121920000Y-57912000D03*
X108458000Y-63500000D03*
X114046000Y-60706000D03*
X113538000Y-50292000D03*
X123952000Y-68834000D03*
X126238000Y-64516000D03*
X125730000Y-54102000D03*
X114046000Y-58166000D03*
X119380000Y-55372000D03*
X116840000Y-55372000D03*
X123190000Y-51562000D03*
X65024000Y-47244000D03*
X120650000Y-56642000D03*
X110998000Y-50292000D03*
X101600000Y-40640000D03*
X125730000Y-56642000D03*
X117856000Y-61976000D03*
X74676000Y-34925000D03*
X112268000Y-74168000D03*
X106299000Y-75057000D03*
X123952000Y-71374000D03*
X120650000Y-51562000D03*
X112268000Y-71628000D03*
X75184000Y-43180000D03*
X145288000Y-38100000D03*
X105410000Y-41910000D03*
X101219000Y-72517000D03*
X107315000Y-74041000D03*
X74676000Y-37465000D03*
X119380000Y-57912000D03*
X109728000Y-64770000D03*
X76708000Y-44704000D03*
X137922000Y-32258000D03*
X81661000Y-38735000D03*
X123190000Y-54102000D03*
X123190000Y-59182000D03*
X62484000Y-65532000D03*
X124460000Y-52832000D03*
X128016000Y-51816000D03*
%TD*%
D16*
%TO.N,VoutH*%
X145415000Y-40000000D02*
X151105000Y-34310000D01*
X134239000Y-52753022D02*
X141907022Y-45085000D01*
X145415000Y-43815000D02*
X145415000Y-40000000D01*
X134239000Y-76835000D02*
X134239000Y-52753022D01*
X144145000Y-45085000D02*
X145415000Y-43815000D01*
X141907022Y-45085000D02*
X144145000Y-45085000D01*
X151105000Y-34310000D02*
X151735000Y-34310000D01*
%TO.N,VoutG*%
X131699000Y-48006000D02*
X132858511Y-46846489D01*
X131699000Y-76835000D02*
X131699000Y-48006000D01*
X132858511Y-46846489D02*
X132858511Y-35386489D01*
X132858511Y-35386489D02*
X133955000Y-34290000D01*
%TO.N,VoutF*%
X149225000Y-48895000D02*
X142875000Y-48895000D01*
X142875000Y-48895000D02*
X136779000Y-54991000D01*
X136779000Y-54991000D02*
X136779000Y-76835000D01*
%TO.N,VoutE*%
X129159000Y-76835000D02*
X129159000Y-62484000D01*
X112365000Y-45690000D02*
X112365000Y-34310000D01*
X129159000Y-62484000D02*
X112365000Y-45690000D01*
%TO.N,VoutD*%
X149205000Y-67330000D02*
X149205000Y-64105000D01*
X139700000Y-76835000D02*
X149205000Y-67330000D01*
X139319000Y-76835000D02*
X139700000Y-76835000D01*
%TO.N,VoutC*%
X126619000Y-68199000D02*
X92730000Y-34310000D01*
X92730000Y-34310000D02*
X90775000Y-34310000D01*
X126619000Y-76835000D02*
X126619000Y-68199000D01*
%TO.N,VoutA*%
X124079000Y-76835000D02*
X124079000Y-74295000D01*
X74245000Y-41910000D02*
X66645000Y-34310000D01*
X124079000Y-74295000D02*
X91694000Y-41910000D01*
X91694000Y-41910000D02*
X74245000Y-41910000D01*
%TD*%
M02*
