%TF.GenerationSoftware,KiCad,Pcbnew,(6.0.5-0)*%
%TF.CreationDate,2022-06-29T18:32:03+01:00*%
%TF.ProjectId,revised_minh_design,72657669-7365-4645-9f6d-696e685f6465,rev?*%
%TF.SameCoordinates,Original*%
%TF.FileFunction,Copper,L2,Inr*%
%TF.FilePolarity,Positive*%
%FSLAX46Y46*%
G04 Gerber Fmt 4.6, Leading zero omitted, Abs format (unit mm)*
G04 Created by KiCad (PCBNEW (6.0.5-0)) date 2022-06-29 18:32:03*
%MOMM*%
%LPD*%
G01*
G04 APERTURE LIST*
%TA.AperFunction,ComponentPad*%
%ADD10R,1.700000X1.700000*%
%TD*%
%TA.AperFunction,ComponentPad*%
%ADD11O,1.700000X1.700000*%
%TD*%
%TA.AperFunction,ComponentPad*%
%ADD12C,1.600000*%
%TD*%
%TA.AperFunction,ComponentPad*%
%ADD13R,1.600000X1.600000*%
%TD*%
%TA.AperFunction,ComponentPad*%
%ADD14O,1.600000X1.600000*%
%TD*%
%TA.AperFunction,ViaPad*%
%ADD15C,0.800000*%
%TD*%
%TA.AperFunction,Conductor*%
%ADD16C,0.250000*%
%TD*%
G04 APERTURE END LIST*
D10*
%TO.N,RX*%
%TO.C,J5*%
X60198000Y-78105000D03*
D11*
%TO.N,TX*%
X60198000Y-80645000D03*
%TD*%
D10*
%TO.N,VoutF*%
%TO.C,J9*%
X149225000Y-48895000D03*
D11*
%TO.N,Earth*%
X151765000Y-48895000D03*
%TO.N,unconnected-(J9-Pad3)*%
X149225000Y-46355000D03*
%TO.N,Earth*%
X151765000Y-46355000D03*
%TO.N,ADC2_5*%
X149225000Y-43815000D03*
%TO.N,Earth*%
X151765000Y-43815000D03*
%TO.N,ADC2_6*%
X149225000Y-41275000D03*
%TO.N,Earth*%
X151765000Y-41275000D03*
%TO.N,ENA6*%
X149225000Y-38735000D03*
%TO.N,Earth*%
X151765000Y-38735000D03*
%TD*%
D10*
%TO.N,ADC2_1*%
%TO.C,J3*%
X141204000Y-71105000D03*
D11*
%TO.N,Earth*%
X143744000Y-71105000D03*
%TO.N,ADC2_2*%
X141204000Y-68565000D03*
%TO.N,Earth*%
X143744000Y-68565000D03*
%TO.N,ADC2_3*%
X141204000Y-66025000D03*
%TO.N,Earth*%
X143744000Y-66025000D03*
%TO.N,ADC2_4*%
X141204000Y-63485000D03*
%TO.N,Earth*%
X143744000Y-63485000D03*
%TO.N,ADC2_5*%
X141204000Y-60945000D03*
%TO.N,Earth*%
X143744000Y-60945000D03*
%TO.N,ADC2_6*%
X141204000Y-58405000D03*
%TO.N,Earth*%
X143744000Y-58405000D03*
%TO.N,ADC2_7*%
X141204000Y-55865000D03*
%TO.N,Earth*%
X143744000Y-55865000D03*
%TO.N,ADC2_8*%
X141204000Y-53325000D03*
%TO.N,Earth*%
X143744000Y-53325000D03*
%TD*%
D10*
%TO.N,VoutA*%
%TO.C,J10*%
X66645000Y-34310000D03*
D11*
%TO.N,Earth*%
X66645000Y-31770000D03*
%TO.N,unconnected-(J10-Pad3)*%
X64105000Y-34310000D03*
%TO.N,Earth*%
X64105000Y-31770000D03*
%TO.N,ADC1_5*%
X61565000Y-34310000D03*
%TO.N,Earth*%
X61565000Y-31770000D03*
%TO.N,ADC1_6*%
X59025000Y-34310000D03*
%TO.N,Earth*%
X59025000Y-31770000D03*
%TO.N,ENA1*%
X56485000Y-34310000D03*
%TO.N,Earth*%
X56485000Y-31770000D03*
%TD*%
D10*
%TO.N,VoutD*%
%TO.C,J6*%
X149205000Y-64105000D03*
D11*
%TO.N,Earth*%
X151745000Y-64105000D03*
%TO.N,unconnected-(J6-Pad3)*%
X149205000Y-61565000D03*
%TO.N,Earth*%
X151745000Y-61565000D03*
%TO.N,ADC2_3*%
X149205000Y-59025000D03*
%TO.N,Earth*%
X151745000Y-59025000D03*
%TO.N,ADC2_4*%
X149205000Y-56485000D03*
%TO.N,Earth*%
X151745000Y-56485000D03*
%TO.N,ENA7*%
X149205000Y-53945000D03*
%TO.N,Earth*%
X151745000Y-53945000D03*
%TD*%
D10*
%TO.N,VoutC*%
%TO.C,J12*%
X90775000Y-34310000D03*
D11*
%TO.N,Earth*%
X90775000Y-31770000D03*
%TO.N,unconnected-(J12-Pad3)*%
X88235000Y-34310000D03*
%TO.N,Earth*%
X88235000Y-31770000D03*
%TO.N,ADC1_7*%
X85695000Y-34310000D03*
%TO.N,Earth*%
X85695000Y-31770000D03*
%TO.N,ADC1_8*%
X83155000Y-34310000D03*
%TO.N,Earth*%
X83155000Y-31770000D03*
%TO.N,ENA2*%
X80615000Y-34310000D03*
%TO.N,Earth*%
X80615000Y-31770000D03*
%TD*%
D10*
%TO.N,VoutB*%
%TO.C,J1*%
X149205000Y-79980000D03*
D11*
%TO.N,Earth*%
X151745000Y-79980000D03*
%TO.N,unconnected-(J1-Pad3)*%
X149205000Y-77440000D03*
%TO.N,Earth*%
X151745000Y-77440000D03*
%TO.N,ADC2_1*%
X149205000Y-74900000D03*
%TO.N,Earth*%
X151745000Y-74900000D03*
%TO.N,ADC2_2*%
X149205000Y-72360000D03*
%TO.N,Earth*%
X151745000Y-72360000D03*
%TO.N,ENA8*%
X149205000Y-69820000D03*
%TO.N,Earth*%
X151745000Y-69820000D03*
%TD*%
D10*
%TO.N,ADC1_1*%
%TO.C,J2*%
X141844000Y-42799000D03*
D11*
%TO.N,Earth*%
X141844000Y-40259000D03*
%TO.N,ADC1_2*%
X139304000Y-42799000D03*
%TO.N,Earth*%
X139304000Y-40259000D03*
%TO.N,ADC1_3*%
X136764000Y-42799000D03*
%TO.N,Earth*%
X136764000Y-40259000D03*
%TO.N,ADC1_4*%
X134224000Y-42799000D03*
%TO.N,Earth*%
X134224000Y-40259000D03*
%TO.N,ADC1_5*%
X131684000Y-42799000D03*
%TO.N,Earth*%
X131684000Y-40259000D03*
%TO.N,ADC1_6*%
X129144000Y-42799000D03*
%TO.N,Earth*%
X129144000Y-40259000D03*
%TO.N,ADC1_7*%
X126604000Y-42799000D03*
%TO.N,Earth*%
X126604000Y-40259000D03*
%TO.N,ADC1_8*%
X124064000Y-42799000D03*
%TO.N,Earth*%
X124064000Y-40259000D03*
%TD*%
D10*
%TO.N,VoutE*%
%TO.C,J8*%
X112365000Y-34310000D03*
D11*
%TO.N,Earth*%
X112365000Y-31770000D03*
%TO.N,unconnected-(J8-Pad3)*%
X109825000Y-34310000D03*
%TO.N,Earth*%
X109825000Y-31770000D03*
%TO.N,ADC1_3*%
X107285000Y-34310000D03*
%TO.N,Earth*%
X107285000Y-31770000D03*
%TO.N,ADC1_4*%
X104745000Y-34310000D03*
%TO.N,Earth*%
X104745000Y-31770000D03*
%TO.N,ENA3*%
X102205000Y-34310000D03*
%TO.N,Earth*%
X102205000Y-31770000D03*
%TD*%
D10*
%TO.N,VoutH*%
%TO.C,J11*%
X151735000Y-34310000D03*
D11*
%TO.N,Earth*%
X151735000Y-31770000D03*
%TO.N,unconnected-(J11-Pad3)*%
X149195000Y-34310000D03*
%TO.N,Earth*%
X149195000Y-31770000D03*
%TO.N,ADC2_7*%
X146655000Y-34310000D03*
%TO.N,Earth*%
X146655000Y-31770000D03*
%TO.N,ADC2_8*%
X144115000Y-34310000D03*
%TO.N,Earth*%
X144115000Y-31770000D03*
%TO.N,ENA5*%
X141575000Y-34310000D03*
%TO.N,Earth*%
X141575000Y-31770000D03*
%TD*%
D10*
%TO.N,VoutG*%
%TO.C,J7*%
X133955000Y-34290000D03*
D11*
%TO.N,Earth*%
X133955000Y-31750000D03*
%TO.N,unconnected-(J7-Pad3)*%
X131415000Y-34290000D03*
%TO.N,Earth*%
X131415000Y-31750000D03*
%TO.N,ADC1_1*%
X128875000Y-34290000D03*
%TO.N,Earth*%
X128875000Y-31750000D03*
%TO.N,ADC1_2*%
X126335000Y-34290000D03*
%TO.N,Earth*%
X126335000Y-31750000D03*
%TO.N,ENA4*%
X123795000Y-34290000D03*
%TO.N,Earth*%
X123795000Y-31750000D03*
%TD*%
D12*
%TO.N,unconnected-(U1-Pad1)*%
%TO.C,U1*%
X97785000Y-75184000D03*
%TO.N,unconnected-(U1-Pad2)*%
X95245000Y-75184000D03*
%TO.N,unconnected-(U1-Pad3)*%
X92705000Y-75184000D03*
%TO.N,ENA8*%
X90165000Y-75184000D03*
%TO.N,ENA7*%
X87625000Y-75184000D03*
%TO.N,unconnected-(U1-Pad6)*%
X85085000Y-75184000D03*
%TO.N,unconnected-(U1-Pad7)*%
X82545000Y-75184000D03*
%TO.N,unconnected-(U1-Pad8)*%
X80005000Y-75184000D03*
%TO.N,unconnected-(U1-Pad9)*%
X77465000Y-75184000D03*
%TO.N,unconnected-(U1-Pad10)*%
X74925000Y-75184000D03*
%TO.N,unconnected-(U1-Pad11)*%
X72385000Y-75184000D03*
%TO.N,unconnected-(U1-Pad12)*%
X69845000Y-75184000D03*
%TO.N,Earth*%
X67305000Y-75184000D03*
%TO.N,unconnected-(U1-Pad14)*%
X64765000Y-75184000D03*
%TO.N,unconnected-(U1-Pad15)*%
X62225000Y-75184000D03*
%TO.N,unconnected-(U1-Pad16)*%
X59685000Y-75184000D03*
%TO.N,unconnected-(U1-Pad17)*%
X57145000Y-75184000D03*
%TO.N,unconnected-(U1-Pad18)*%
X54605000Y-75184000D03*
%TO.N,Earth*%
X52065000Y-75184000D03*
%TO.N,unconnected-(U1-Pad20)*%
X52102143Y-49789715D03*
%TO.N,unconnected-(U1-Pad21)*%
X54599014Y-49789715D03*
%TO.N,unconnected-(U1-Pad22)*%
X57145000Y-49784000D03*
%TO.N,unconnected-(U1-Pad23)*%
X59713572Y-49789715D03*
%TO.N,ENA1*%
X62250715Y-49789715D03*
%TO.N,unconnected-(U1-Pad25)*%
X64765000Y-49784000D03*
%TO.N,unconnected-(U1-Pad26)*%
X67305000Y-49784000D03*
%TO.N,unconnected-(U1-Pad27)*%
X69845000Y-49784000D03*
%TO.N,ENA2*%
X72385000Y-49784000D03*
%TO.N,ENA3*%
X74925000Y-49784000D03*
%TO.N,ENA4*%
X77465000Y-49784000D03*
%TO.N,unconnected-(U1-Pad31)*%
X80010715Y-49789715D03*
%TO.N,unconnected-(U1-Pad32)*%
X82547858Y-49789715D03*
%TO.N,Earth*%
X85085000Y-49784000D03*
%TO.N,unconnected-(U1-Pad34)*%
X87625000Y-49784000D03*
%TO.N,unconnected-(U1-Pad35)*%
X90165000Y-49784000D03*
%TO.N,unconnected-(U1-Pad36)*%
X92705000Y-49784000D03*
%TO.N,unconnected-(U1-Pad37)*%
X95245000Y-49784000D03*
%TO.N,unconnected-(U1-Pad38)*%
X97785000Y-49784000D03*
%TD*%
D10*
%TO.N,VoutB*%
%TO.C,J4*%
X141859000Y-76835000D03*
D11*
%TO.N,Earth*%
X141859000Y-79375000D03*
%TO.N,VoutD*%
X139319000Y-76835000D03*
%TO.N,Earth*%
X139319000Y-79375000D03*
%TO.N,VoutF*%
X136779000Y-76835000D03*
%TO.N,Earth*%
X136779000Y-79375000D03*
%TO.N,VoutH*%
X134239000Y-76835000D03*
%TO.N,Earth*%
X134239000Y-79375000D03*
%TO.N,VoutG*%
X131699000Y-76835000D03*
%TO.N,Earth*%
X131699000Y-79375000D03*
%TO.N,VoutE*%
X129159000Y-76835000D03*
%TO.N,Earth*%
X129159000Y-79375000D03*
%TO.N,VoutC*%
X126619000Y-76835000D03*
%TO.N,Earth*%
X126619000Y-79375000D03*
%TO.N,VoutA*%
X124079000Y-76835000D03*
%TO.N,Earth*%
X124079000Y-79375000D03*
%TD*%
D13*
%TO.N,unconnected-(A1-Pad1)*%
%TO.C,A1*%
X91440000Y-69596000D03*
D14*
%TO.N,unconnected-(A1-Pad2)*%
X88900000Y-69596000D03*
%TO.N,unconnected-(A1-Pad3)*%
X86360000Y-69596000D03*
%TO.N,Earth*%
X83820000Y-69596000D03*
%TO.N,unconnected-(A1-Pad5)*%
X81280000Y-69596000D03*
%TO.N,unconnected-(A1-Pad6)*%
X78740000Y-69596000D03*
%TO.N,unconnected-(A1-Pad7)*%
X76200000Y-69596000D03*
%TO.N,ENA8*%
X73660000Y-69596000D03*
%TO.N,ENA7*%
X71120000Y-69596000D03*
%TO.N,ENA6*%
X68580000Y-69596000D03*
%TO.N,ENA5*%
X66040000Y-69596000D03*
%TO.N,unconnected-(A1-Pad12)*%
X63500000Y-69596000D03*
%TO.N,unconnected-(A1-Pad13)*%
X60960000Y-69596000D03*
%TO.N,unconnected-(A1-Pad14)*%
X58420000Y-69596000D03*
%TO.N,unconnected-(A1-Pad15)*%
X55880000Y-69596000D03*
%TO.N,unconnected-(A1-Pad16)*%
X55880000Y-54356000D03*
%TO.N,unconnected-(A1-Pad17)*%
X58420000Y-54356000D03*
%TO.N,unconnected-(A1-Pad18)*%
X60960000Y-54356000D03*
%TO.N,unconnected-(A1-Pad19)*%
X63500000Y-54356000D03*
%TO.N,unconnected-(A1-Pad20)*%
X66040000Y-54356000D03*
%TO.N,unconnected-(A1-Pad21)*%
X68580000Y-54356000D03*
%TO.N,ENA1*%
X71120000Y-54356000D03*
%TO.N,ENA2*%
X73660000Y-54356000D03*
%TO.N,ENA3*%
X76200000Y-54356000D03*
%TO.N,ENA4*%
X78740000Y-54356000D03*
%TO.N,unconnected-(A1-Pad26)*%
X81280000Y-54356000D03*
%TO.N,unconnected-(A1-Pad27)*%
X83820000Y-54356000D03*
%TO.N,unconnected-(A1-Pad28)*%
X86360000Y-54356000D03*
%TO.N,Earth*%
X88900000Y-54356000D03*
%TO.N,unconnected-(A1-Pad30)*%
X91440000Y-54356000D03*
%TD*%
D15*
%TO.N,Earth*%
X125476000Y-51816000D03*
X117856000Y-61976000D03*
X65024000Y-65532000D03*
X109855000Y-74041000D03*
X107315000Y-71501000D03*
X73406000Y-38735000D03*
X118110000Y-56642000D03*
X130048000Y-57912000D03*
X117094000Y-71882000D03*
X126746000Y-53086000D03*
X114808000Y-74168000D03*
X85852000Y-40640000D03*
X120650000Y-59182000D03*
X110998000Y-70358000D03*
X121920000Y-52832000D03*
X102489000Y-71247000D03*
X117856000Y-64516000D03*
X144780000Y-46228000D03*
X84074000Y-65532000D03*
X124968000Y-63246000D03*
X139192000Y-30988000D03*
X128016000Y-54356000D03*
X103378000Y-49276000D03*
X102489000Y-73787000D03*
X68834000Y-66548000D03*
X72136000Y-37465000D03*
X76962000Y-65532000D03*
X136652000Y-33528000D03*
X124460000Y-55372000D03*
X116586000Y-63246000D03*
X105410000Y-39370000D03*
X130048000Y-60960000D03*
X114554000Y-69342000D03*
X118110000Y-54102000D03*
X63754000Y-64262000D03*
X143256000Y-47752000D03*
X136652000Y-30988000D03*
X106426000Y-53340000D03*
X103759000Y-72517000D03*
X113538000Y-72898000D03*
X112776000Y-59436000D03*
X87376000Y-40640000D03*
X67564000Y-44704000D03*
X137160000Y-52324000D03*
X115316000Y-61976000D03*
X127508000Y-63246000D03*
X116078000Y-75438000D03*
X102870000Y-39370000D03*
X124206000Y-50546000D03*
X137922000Y-34798000D03*
X105029000Y-73787000D03*
X139192000Y-33528000D03*
X109728000Y-69088000D03*
X105029000Y-76327000D03*
X116586000Y-63246000D03*
X108458000Y-60960000D03*
X103759000Y-75057000D03*
X78232000Y-43180000D03*
X102870000Y-41910000D03*
X73406000Y-36195000D03*
X115824000Y-70612000D03*
X63754000Y-66802000D03*
X79121000Y-38735000D03*
X112268000Y-49022000D03*
X108966000Y-53340000D03*
X145288000Y-36576000D03*
X128524000Y-59436000D03*
X115570000Y-54102000D03*
X111125000Y-75311000D03*
X112776000Y-56896000D03*
X104140000Y-40640000D03*
X80391000Y-37465000D03*
X106045000Y-72771000D03*
X73406000Y-33655000D03*
X80518000Y-65532000D03*
X72136000Y-34925000D03*
X88900000Y-40640000D03*
X122682000Y-70104000D03*
X121920000Y-50292000D03*
X107696000Y-52070000D03*
X126238000Y-61976000D03*
X112268000Y-51562000D03*
X108585000Y-72771000D03*
X113284000Y-70612000D03*
X126746000Y-50546000D03*
X120650000Y-59182000D03*
X65024000Y-44704000D03*
X67564000Y-47244000D03*
X117094000Y-74422000D03*
X102108000Y-50546000D03*
X80391000Y-40005000D03*
X66294000Y-43434000D03*
X115316000Y-61976000D03*
X108458000Y-70358000D03*
X107696000Y-54610000D03*
X110998000Y-63500000D03*
X125222000Y-70104000D03*
X106680000Y-40640000D03*
X66294000Y-45974000D03*
X116586000Y-60706000D03*
X109728000Y-62230000D03*
X120650000Y-56642000D03*
X119380000Y-57912000D03*
X121920000Y-57912000D03*
X115316000Y-59436000D03*
X144780000Y-47752000D03*
X121920000Y-57912000D03*
X108458000Y-63500000D03*
X114046000Y-60706000D03*
X113538000Y-50292000D03*
X123952000Y-68834000D03*
X126238000Y-64516000D03*
X125730000Y-54102000D03*
X114046000Y-58166000D03*
X119380000Y-55372000D03*
X116840000Y-55372000D03*
X123190000Y-51562000D03*
X65024000Y-47244000D03*
X120650000Y-56642000D03*
X110998000Y-50292000D03*
X101600000Y-40640000D03*
X125730000Y-56642000D03*
X117856000Y-61976000D03*
X74676000Y-34925000D03*
X112268000Y-74168000D03*
X106299000Y-75057000D03*
X123952000Y-71374000D03*
X120650000Y-51562000D03*
X112268000Y-71628000D03*
X75184000Y-43180000D03*
X145288000Y-38100000D03*
X105410000Y-41910000D03*
X101219000Y-72517000D03*
X107315000Y-74041000D03*
X74676000Y-37465000D03*
X119380000Y-57912000D03*
X109728000Y-64770000D03*
X76708000Y-44704000D03*
X137922000Y-32258000D03*
X81661000Y-38735000D03*
X123190000Y-54102000D03*
X123190000Y-59182000D03*
X62484000Y-65532000D03*
X124460000Y-52832000D03*
X128016000Y-51816000D03*
%TD*%
D16*
%TO.N,VoutB*%
X146060000Y-76835000D02*
X149205000Y-79980000D01*
X141859000Y-76835000D02*
X146060000Y-76835000D01*
%TO.N,ADC2_1*%
X144999000Y-74900000D02*
X149205000Y-74900000D01*
X141204000Y-71105000D02*
X144999000Y-74900000D01*
%TO.N,ADC2_2*%
X142569489Y-69930489D02*
X146775489Y-69930489D01*
X141204000Y-68565000D02*
X142569489Y-69930489D01*
X146775489Y-69930489D02*
X149205000Y-72360000D01*
%TO.N,ADC2_3*%
X142459000Y-64770000D02*
X145796000Y-64770000D01*
X147066000Y-63500000D02*
X147066000Y-61595000D01*
X145796000Y-64770000D02*
X147066000Y-63500000D01*
X149205000Y-59456000D02*
X149205000Y-59025000D01*
X147066000Y-61595000D02*
X149205000Y-59456000D01*
X141204000Y-66025000D02*
X142459000Y-64770000D01*
%TO.N,ADC2_4*%
X148874000Y-56485000D02*
X149205000Y-56485000D01*
X141204000Y-63485000D02*
X142459000Y-62230000D01*
X146558000Y-58801000D02*
X148874000Y-56485000D01*
X142459000Y-62230000D02*
X144907000Y-62230000D01*
X144907000Y-62230000D02*
X146558000Y-60579000D01*
X146558000Y-60579000D02*
X146558000Y-58801000D01*
%TO.N,ADC2_5*%
X147320000Y-54829000D02*
X147320000Y-45720000D01*
X143257501Y-57230489D02*
X144918511Y-57230489D01*
X142569489Y-59579511D02*
X142569489Y-57918501D01*
X141204000Y-60945000D02*
X142569489Y-59579511D01*
X144918511Y-57230489D02*
X147320000Y-54829000D01*
X142569489Y-57918501D02*
X143257501Y-57230489D01*
X147320000Y-45720000D02*
X149225000Y-43815000D01*
%TO.N,ADC2_6*%
X141204000Y-58405000D02*
X142378511Y-57230489D01*
X146050000Y-53559000D02*
X146050000Y-44450000D01*
X142378511Y-55569479D02*
X143257501Y-54690489D01*
X146050000Y-44450000D02*
X149205000Y-41295000D01*
X142378511Y-57230489D02*
X142378511Y-55569479D01*
X144918511Y-54690489D02*
X146050000Y-53559000D01*
X143257501Y-54690489D02*
X144918511Y-54690489D01*
%TO.N,ADC2_7*%
X146655000Y-42515000D02*
X146655000Y-34310000D01*
X146685000Y-42545000D02*
X146655000Y-42515000D01*
X142378511Y-46851489D02*
X146685000Y-42545000D01*
X142378511Y-54690489D02*
X142378511Y-46851489D01*
X141204000Y-55865000D02*
X142378511Y-54690489D01*
%TO.N,ADC2_8*%
X144115000Y-43845000D02*
X144115000Y-34310000D01*
X141204000Y-46756000D02*
X144115000Y-43845000D01*
X141204000Y-53325000D02*
X141204000Y-46756000D01*
%TO.N,ADC1_1*%
X140478511Y-39513511D02*
X136429511Y-35464511D01*
X141844000Y-42799000D02*
X140478511Y-41433511D01*
X130049511Y-35464511D02*
X128875000Y-34290000D01*
X140478511Y-41433511D02*
X140478511Y-39513511D01*
X136429511Y-35464511D02*
X130049511Y-35464511D01*
%TO.N,ADC1_2*%
X135398511Y-40554521D02*
X135398511Y-39772501D01*
X136277501Y-41433511D02*
X135398511Y-40554521D01*
X139304000Y-42799000D02*
X137938511Y-41433511D01*
X137938511Y-41433511D02*
X136277501Y-41433511D01*
X128240000Y-36195000D02*
X126335000Y-34290000D01*
X135398511Y-39772501D02*
X131821010Y-36195000D01*
X131821010Y-36195000D02*
X128240000Y-36195000D01*
%TO.N,ADC1_3*%
X136764000Y-42799000D02*
X135398511Y-41433511D01*
X135398511Y-41433511D02*
X133546523Y-41433511D01*
X109805000Y-36830000D02*
X107285000Y-34310000D01*
X130175000Y-36830000D02*
X109805000Y-36830000D01*
X132858511Y-39513511D02*
X130175000Y-36830000D01*
X132858511Y-40745499D02*
X132858511Y-39513511D01*
X133546523Y-41433511D02*
X132858511Y-40745499D01*
%TO.N,ADC1_4*%
X129281010Y-38735000D02*
X128905000Y-38735000D01*
X108856479Y-38371479D02*
X108585000Y-38100000D01*
X134224000Y-42799000D02*
X132858511Y-41433511D01*
X128541479Y-38371479D02*
X108856479Y-38371479D01*
X108535000Y-38100000D02*
X104745000Y-34310000D01*
X130318511Y-39772501D02*
X129281010Y-38735000D01*
X131006523Y-41433511D02*
X130318511Y-40745499D01*
X132858511Y-41433511D02*
X131006523Y-41433511D01*
X108585000Y-38100000D02*
X108535000Y-38100000D01*
X130318511Y-40745499D02*
X130318511Y-39772501D01*
X128905000Y-38735000D02*
X128541479Y-38371479D01*
%TO.N,ADC1_5*%
X126858000Y-47625000D02*
X73406000Y-47625000D01*
X61565000Y-35784000D02*
X61565000Y-34310000D01*
X131684000Y-42799000D02*
X126858000Y-47625000D01*
X73406000Y-47625000D02*
X61565000Y-35784000D01*
%TO.N,ADC1_6*%
X65470489Y-35625489D02*
X65470489Y-34014479D01*
X75565000Y-45720000D02*
X65470489Y-35625489D01*
X60315000Y-33020000D02*
X59025000Y-34310000D01*
X126223000Y-45720000D02*
X75565000Y-45720000D01*
X129144000Y-42799000D02*
X126223000Y-45720000D01*
X65470489Y-34014479D02*
X64476010Y-33020000D01*
X64476010Y-33020000D02*
X60315000Y-33020000D01*
%TO.N,ADC1_7*%
X95358511Y-43973511D02*
X85695000Y-34310000D01*
X126604000Y-42799000D02*
X125429489Y-43973511D01*
X125429489Y-43973511D02*
X95358511Y-43973511D01*
%TO.N,ADC1_8*%
X89409511Y-34796499D02*
X89409511Y-33529511D01*
X124064000Y-42799000D02*
X96901000Y-42799000D01*
X89409511Y-33529511D02*
X89015489Y-33135489D01*
X96901000Y-42799000D02*
X89408000Y-35306000D01*
X89408000Y-35306000D02*
X89408000Y-34798010D01*
X89408000Y-34798010D02*
X89409511Y-34796499D01*
X84329511Y-33135489D02*
X83155000Y-34310000D01*
X89015489Y-33135489D02*
X84329511Y-33135489D01*
%TO.N,ENA1*%
X71120000Y-54356000D02*
X68580000Y-51816000D01*
X68580000Y-51816000D02*
X64277000Y-51816000D01*
X62250715Y-49789715D02*
X62250715Y-40075715D01*
X64277000Y-51816000D02*
X62250715Y-49789715D01*
X62250715Y-40075715D02*
X56485000Y-34310000D01*
%TO.N,ENA2*%
X72263000Y-49906000D02*
X72385000Y-49784000D01*
X73660000Y-54356000D02*
X72263000Y-52959000D01*
X72263000Y-52959000D02*
X72263000Y-49906000D01*
%TO.N,ENA3*%
X74930000Y-53086000D02*
X74930000Y-49789000D01*
X74930000Y-49789000D02*
X74925000Y-49784000D01*
X76200000Y-54356000D02*
X74930000Y-53086000D01*
%TO.N,ENA4*%
X78740000Y-51059000D02*
X77465000Y-49784000D01*
X78740000Y-54356000D02*
X78740000Y-51059000D01*
%TO.N,ENA8*%
X146775489Y-67390489D02*
X75865511Y-67390489D01*
X75865511Y-67390489D02*
X73660000Y-69596000D01*
X75565000Y-71501000D02*
X73660000Y-69596000D01*
X149205000Y-69820000D02*
X146775489Y-67390489D01*
X86482000Y-71501000D02*
X75565000Y-71501000D01*
X90165000Y-75184000D02*
X86482000Y-71501000D01*
%TO.N,ENA7*%
X85847000Y-73406000D02*
X73914000Y-73406000D01*
X73914000Y-73406000D02*
X71120000Y-70612000D01*
X71120000Y-70612000D02*
X71120000Y-69596000D01*
X87625000Y-75184000D02*
X85847000Y-73406000D01*
%TD*%
M02*
