<?xml version="1.0" standalone="no"?>
 <!DOCTYPE svg PUBLIC "-//W3C//DTD SVG 1.1//EN" 
 "http://www.w3.org/Graphics/SVG/1.1/DTD/svg11.dtd"> 
<svg
  xmlns:svg="http://www.w3.org/2000/svg"
  xmlns="http://www.w3.org/2000/svg"
  xmlns:xlink="http://www.w3.org/1999/xlink"
  version="1.1"
  width="0.025400cm" height="0.025400cm" viewBox="0 0 254000 254000">
<title>SVG Picture created as revised_minh_design-F_Paste.svg date 2022/06/30 14:48:44 </title>
  <desc>Picture generated by PCBNEW </desc>
<g style="fill:#000000; fill-opacity:1.000000;stroke:#000000; stroke-opacity:1.000000;
stroke-linecap:round; stroke-linejoin:round;"
 transform="translate(0 0) scale(1 1)">
</g>
<g style="fill:#000000; fill-opacity:0.0; 
stroke:#000000; stroke-width:0.000000; stroke-opacity:1; 
stroke-linecap:round; stroke-linejoin:round;">
<g >
</g>
<g style="fill:#000000; fill-opacity:0.0; 
stroke:#000000; stroke-width:1.000000; stroke-opacity:1; 
stroke-linecap:round; stroke-linejoin:round;">
</g>
<g style="fill:#000000; fill-opacity:1.0; 
stroke:#000000; stroke-width:1.000000; stroke-opacity:1; 
stroke-linecap:round; stroke-linejoin:round;">
<path style="fill:#000000; fill-opacity:1.0; 
stroke:#000000; stroke-width:1.000000; stroke-opacity:1; 
stroke-linecap:round; stroke-linejoin:round;fill-rule:evenodd;"
d="M 130600000.000000,51920000.000000
130592388.000000,51958268.000000
130570711.000000,51990711.000000
130538268.000000,52012388.000000
130500000.000000,52020000.000000
129225000.000000,52020000.000000
129186732.000000,52012388.000000
129154289.000000,51990711.000000
129132612.000000,51958268.000000
129125000.000000,51920000.000000
129125000.000000,51720000.000000
129132612.000000,51681732.000000
129154289.000000,51649289.000000
129186732.000000,51627612.000000
129225000.000000,51620000.000000
130500000.000000,51620000.000000
130538268.000000,51627612.000000
130570711.000000,51649289.000000
130592388.000000,51681732.000000
130600000.000000,51720000.000000
Z" /> 
<path style="fill:#000000; fill-opacity:1.0; 
stroke:#000000; stroke-width:1.000000; stroke-opacity:1; 
stroke-linecap:round; stroke-linejoin:round;fill-rule:evenodd;"
d="M 130600000.000000,51270000.000000
130592388.000000,51308268.000000
130570711.000000,51340711.000000
130538268.000000,51362388.000000
130500000.000000,51370000.000000
129225000.000000,51370000.000000
129186732.000000,51362388.000000
129154289.000000,51340711.000000
129132612.000000,51308268.000000
129125000.000000,51270000.000000
129125000.000000,51070000.000000
129132612.000000,51031732.000000
129154289.000000,50999289.000000
129186732.000000,50977612.000000
129225000.000000,50970000.000000
130500000.000000,50970000.000000
130538268.000000,50977612.000000
130570711.000000,50999289.000000
130592388.000000,51031732.000000
130600000.000000,51070000.000000
Z" /> 
<path style="fill:#000000; fill-opacity:1.0; 
stroke:#000000; stroke-width:1.000000; stroke-opacity:1; 
stroke-linecap:round; stroke-linejoin:round;fill-rule:evenodd;"
d="M 130600000.000000,50620000.000000
130592388.000000,50658268.000000
130570711.000000,50690711.000000
130538268.000000,50712388.000000
130500000.000000,50720000.000000
129225000.000000,50720000.000000
129186732.000000,50712388.000000
129154289.000000,50690711.000000
129132612.000000,50658268.000000
129125000.000000,50620000.000000
129125000.000000,50420000.000000
129132612.000000,50381732.000000
129154289.000000,50349289.000000
129186732.000000,50327612.000000
129225000.000000,50320000.000000
130500000.000000,50320000.000000
130538268.000000,50327612.000000
130570711.000000,50349289.000000
130592388.000000,50381732.000000
130600000.000000,50420000.000000
Z" /> 
<path style="fill:#000000; fill-opacity:1.0; 
stroke:#000000; stroke-width:1.000000; stroke-opacity:1; 
stroke-linecap:round; stroke-linejoin:round;fill-rule:evenodd;"
d="M 130600000.000000,49970000.000000
130592388.000000,50008268.000000
130570711.000000,50040711.000000
130538268.000000,50062388.000000
130500000.000000,50070000.000000
129225000.000000,50070000.000000
129186732.000000,50062388.000000
129154289.000000,50040711.000000
129132612.000000,50008268.000000
129125000.000000,49970000.000000
129125000.000000,49770000.000000
129132612.000000,49731732.000000
129154289.000000,49699289.000000
129186732.000000,49677612.000000
129225000.000000,49670000.000000
130500000.000000,49670000.000000
130538268.000000,49677612.000000
130570711.000000,49699289.000000
130592388.000000,49731732.000000
130600000.000000,49770000.000000
Z" /> 
<path style="fill:#000000; fill-opacity:1.0; 
stroke:#000000; stroke-width:1.000000; stroke-opacity:1; 
stroke-linecap:round; stroke-linejoin:round;fill-rule:evenodd;"
d="M 130600000.000000,49320000.000000
130592388.000000,49358268.000000
130570711.000000,49390711.000000
130538268.000000,49412388.000000
130500000.000000,49420000.000000
129225000.000000,49420000.000000
129186732.000000,49412388.000000
129154289.000000,49390711.000000
129132612.000000,49358268.000000
129125000.000000,49320000.000000
129125000.000000,49120000.000000
129132612.000000,49081732.000000
129154289.000000,49049289.000000
129186732.000000,49027612.000000
129225000.000000,49020000.000000
130500000.000000,49020000.000000
130538268.000000,49027612.000000
130570711.000000,49049289.000000
130592388.000000,49081732.000000
130600000.000000,49120000.000000
Z" /> 
<path style="fill:#000000; fill-opacity:1.0; 
stroke:#000000; stroke-width:1.000000; stroke-opacity:1; 
stroke-linecap:round; stroke-linejoin:round;fill-rule:evenodd;"
d="M 130600000.000000,48670000.000000
130592388.000000,48708268.000000
130570711.000000,48740711.000000
130538268.000000,48762388.000000
130500000.000000,48770000.000000
129225000.000000,48770000.000000
129186732.000000,48762388.000000
129154289.000000,48740711.000000
129132612.000000,48708268.000000
129125000.000000,48670000.000000
129125000.000000,48470000.000000
129132612.000000,48431732.000000
129154289.000000,48399289.000000
129186732.000000,48377612.000000
129225000.000000,48370000.000000
130500000.000000,48370000.000000
130538268.000000,48377612.000000
130570711.000000,48399289.000000
130592388.000000,48431732.000000
130600000.000000,48470000.000000
Z" /> 
<path style="fill:#000000; fill-opacity:1.0; 
stroke:#000000; stroke-width:1.000000; stroke-opacity:1; 
stroke-linecap:round; stroke-linejoin:round;fill-rule:evenodd;"
d="M 130600000.000000,48020000.000000
130592388.000000,48058268.000000
130570711.000000,48090711.000000
130538268.000000,48112388.000000
130500000.000000,48120000.000000
129225000.000000,48120000.000000
129186732.000000,48112388.000000
129154289.000000,48090711.000000
129132612.000000,48058268.000000
129125000.000000,48020000.000000
129125000.000000,47820000.000000
129132612.000000,47781732.000000
129154289.000000,47749289.000000
129186732.000000,47727612.000000
129225000.000000,47720000.000000
130500000.000000,47720000.000000
130538268.000000,47727612.000000
130570711.000000,47749289.000000
130592388.000000,47781732.000000
130600000.000000,47820000.000000
Z" /> 
<path style="fill:#000000; fill-opacity:1.0; 
stroke:#000000; stroke-width:1.000000; stroke-opacity:1; 
stroke-linecap:round; stroke-linejoin:round;fill-rule:evenodd;"
d="M 130600000.000000,47370000.000000
130592388.000000,47408268.000000
130570711.000000,47440711.000000
130538268.000000,47462388.000000
130500000.000000,47470000.000000
129225000.000000,47470000.000000
129186732.000000,47462388.000000
129154289.000000,47440711.000000
129132612.000000,47408268.000000
129125000.000000,47370000.000000
129125000.000000,47170000.000000
129132612.000000,47131732.000000
129154289.000000,47099289.000000
129186732.000000,47077612.000000
129225000.000000,47070000.000000
130500000.000000,47070000.000000
130538268.000000,47077612.000000
130570711.000000,47099289.000000
130592388.000000,47131732.000000
130600000.000000,47170000.000000
Z" /> 
<path style="fill:#000000; fill-opacity:1.0; 
stroke:#000000; stroke-width:1.000000; stroke-opacity:1; 
stroke-linecap:round; stroke-linejoin:round;fill-rule:evenodd;"
d="M 130600000.000000,46720000.000000
130592388.000000,46758268.000000
130570711.000000,46790711.000000
130538268.000000,46812388.000000
130500000.000000,46820000.000000
129225000.000000,46820000.000000
129186732.000000,46812388.000000
129154289.000000,46790711.000000
129132612.000000,46758268.000000
129125000.000000,46720000.000000
129125000.000000,46520000.000000
129132612.000000,46481732.000000
129154289.000000,46449289.000000
129186732.000000,46427612.000000
129225000.000000,46420000.000000
130500000.000000,46420000.000000
130538268.000000,46427612.000000
130570711.000000,46449289.000000
130592388.000000,46481732.000000
130600000.000000,46520000.000000
Z" /> 
<path style="fill:#000000; fill-opacity:1.0; 
stroke:#000000; stroke-width:1.000000; stroke-opacity:1; 
stroke-linecap:round; stroke-linejoin:round;fill-rule:evenodd;"
d="M 130600000.000000,46070000.000000
130592388.000000,46108268.000000
130570711.000000,46140711.000000
130538268.000000,46162388.000000
130500000.000000,46170000.000000
129225000.000000,46170000.000000
129186732.000000,46162388.000000
129154289.000000,46140711.000000
129132612.000000,46108268.000000
129125000.000000,46070000.000000
129125000.000000,45870000.000000
129132612.000000,45831732.000000
129154289.000000,45799289.000000
129186732.000000,45777612.000000
129225000.000000,45770000.000000
130500000.000000,45770000.000000
130538268.000000,45777612.000000
130570711.000000,45799289.000000
130592388.000000,45831732.000000
130600000.000000,45870000.000000
Z" /> 
<path style="fill:#000000; fill-opacity:1.0; 
stroke:#000000; stroke-width:1.000000; stroke-opacity:1; 
stroke-linecap:round; stroke-linejoin:round;fill-rule:evenodd;"
d="M 124875000.000000,46070000.000000
124867388.000000,46108268.000000
124845711.000000,46140711.000000
124813268.000000,46162388.000000
124775000.000000,46170000.000000
123500000.000000,46170000.000000
123461732.000000,46162388.000000
123429289.000000,46140711.000000
123407612.000000,46108268.000000
123400000.000000,46070000.000000
123400000.000000,45870000.000000
123407612.000000,45831732.000000
123429289.000000,45799289.000000
123461732.000000,45777612.000000
123500000.000000,45770000.000000
124775000.000000,45770000.000000
124813268.000000,45777612.000000
124845711.000000,45799289.000000
124867388.000000,45831732.000000
124875000.000000,45870000.000000
Z" /> 
<path style="fill:#000000; fill-opacity:1.0; 
stroke:#000000; stroke-width:1.000000; stroke-opacity:1; 
stroke-linecap:round; stroke-linejoin:round;fill-rule:evenodd;"
d="M 124875000.000000,46720000.000000
124867388.000000,46758268.000000
124845711.000000,46790711.000000
124813268.000000,46812388.000000
124775000.000000,46820000.000000
123500000.000000,46820000.000000
123461732.000000,46812388.000000
123429289.000000,46790711.000000
123407612.000000,46758268.000000
123400000.000000,46720000.000000
123400000.000000,46520000.000000
123407612.000000,46481732.000000
123429289.000000,46449289.000000
123461732.000000,46427612.000000
123500000.000000,46420000.000000
124775000.000000,46420000.000000
124813268.000000,46427612.000000
124845711.000000,46449289.000000
124867388.000000,46481732.000000
124875000.000000,46520000.000000
Z" /> 
<path style="fill:#000000; fill-opacity:1.0; 
stroke:#000000; stroke-width:1.000000; stroke-opacity:1; 
stroke-linecap:round; stroke-linejoin:round;fill-rule:evenodd;"
d="M 124875000.000000,47370000.000000
124867388.000000,47408268.000000
124845711.000000,47440711.000000
124813268.000000,47462388.000000
124775000.000000,47470000.000000
123500000.000000,47470000.000000
123461732.000000,47462388.000000
123429289.000000,47440711.000000
123407612.000000,47408268.000000
123400000.000000,47370000.000000
123400000.000000,47170000.000000
123407612.000000,47131732.000000
123429289.000000,47099289.000000
123461732.000000,47077612.000000
123500000.000000,47070000.000000
124775000.000000,47070000.000000
124813268.000000,47077612.000000
124845711.000000,47099289.000000
124867388.000000,47131732.000000
124875000.000000,47170000.000000
Z" /> 
<path style="fill:#000000; fill-opacity:1.0; 
stroke:#000000; stroke-width:1.000000; stroke-opacity:1; 
stroke-linecap:round; stroke-linejoin:round;fill-rule:evenodd;"
d="M 124875000.000000,48020000.000000
124867388.000000,48058268.000000
124845711.000000,48090711.000000
124813268.000000,48112388.000000
124775000.000000,48120000.000000
123500000.000000,48120000.000000
123461732.000000,48112388.000000
123429289.000000,48090711.000000
123407612.000000,48058268.000000
123400000.000000,48020000.000000
123400000.000000,47820000.000000
123407612.000000,47781732.000000
123429289.000000,47749289.000000
123461732.000000,47727612.000000
123500000.000000,47720000.000000
124775000.000000,47720000.000000
124813268.000000,47727612.000000
124845711.000000,47749289.000000
124867388.000000,47781732.000000
124875000.000000,47820000.000000
Z" /> 
<path style="fill:#000000; fill-opacity:1.0; 
stroke:#000000; stroke-width:1.000000; stroke-opacity:1; 
stroke-linecap:round; stroke-linejoin:round;fill-rule:evenodd;"
d="M 124875000.000000,48670000.000000
124867388.000000,48708268.000000
124845711.000000,48740711.000000
124813268.000000,48762388.000000
124775000.000000,48770000.000000
123500000.000000,48770000.000000
123461732.000000,48762388.000000
123429289.000000,48740711.000000
123407612.000000,48708268.000000
123400000.000000,48670000.000000
123400000.000000,48470000.000000
123407612.000000,48431732.000000
123429289.000000,48399289.000000
123461732.000000,48377612.000000
123500000.000000,48370000.000000
124775000.000000,48370000.000000
124813268.000000,48377612.000000
124845711.000000,48399289.000000
124867388.000000,48431732.000000
124875000.000000,48470000.000000
Z" /> 
<path style="fill:#000000; fill-opacity:1.0; 
stroke:#000000; stroke-width:1.000000; stroke-opacity:1; 
stroke-linecap:round; stroke-linejoin:round;fill-rule:evenodd;"
d="M 124875000.000000,49320000.000000
124867388.000000,49358268.000000
124845711.000000,49390711.000000
124813268.000000,49412388.000000
124775000.000000,49420000.000000
123500000.000000,49420000.000000
123461732.000000,49412388.000000
123429289.000000,49390711.000000
123407612.000000,49358268.000000
123400000.000000,49320000.000000
123400000.000000,49120000.000000
123407612.000000,49081732.000000
123429289.000000,49049289.000000
123461732.000000,49027612.000000
123500000.000000,49020000.000000
124775000.000000,49020000.000000
124813268.000000,49027612.000000
124845711.000000,49049289.000000
124867388.000000,49081732.000000
124875000.000000,49120000.000000
Z" /> 
<path style="fill:#000000; fill-opacity:1.0; 
stroke:#000000; stroke-width:1.000000; stroke-opacity:1; 
stroke-linecap:round; stroke-linejoin:round;fill-rule:evenodd;"
d="M 124875000.000000,49970000.000000
124867388.000000,50008268.000000
124845711.000000,50040711.000000
124813268.000000,50062388.000000
124775000.000000,50070000.000000
123500000.000000,50070000.000000
123461732.000000,50062388.000000
123429289.000000,50040711.000000
123407612.000000,50008268.000000
123400000.000000,49970000.000000
123400000.000000,49770000.000000
123407612.000000,49731732.000000
123429289.000000,49699289.000000
123461732.000000,49677612.000000
123500000.000000,49670000.000000
124775000.000000,49670000.000000
124813268.000000,49677612.000000
124845711.000000,49699289.000000
124867388.000000,49731732.000000
124875000.000000,49770000.000000
Z" /> 
<path style="fill:#000000; fill-opacity:1.0; 
stroke:#000000; stroke-width:1.000000; stroke-opacity:1; 
stroke-linecap:round; stroke-linejoin:round;fill-rule:evenodd;"
d="M 124875000.000000,50620000.000000
124867388.000000,50658268.000000
124845711.000000,50690711.000000
124813268.000000,50712388.000000
124775000.000000,50720000.000000
123500000.000000,50720000.000000
123461732.000000,50712388.000000
123429289.000000,50690711.000000
123407612.000000,50658268.000000
123400000.000000,50620000.000000
123400000.000000,50420000.000000
123407612.000000,50381732.000000
123429289.000000,50349289.000000
123461732.000000,50327612.000000
123500000.000000,50320000.000000
124775000.000000,50320000.000000
124813268.000000,50327612.000000
124845711.000000,50349289.000000
124867388.000000,50381732.000000
124875000.000000,50420000.000000
Z" /> 
<path style="fill:#000000; fill-opacity:1.0; 
stroke:#000000; stroke-width:1.000000; stroke-opacity:1; 
stroke-linecap:round; stroke-linejoin:round;fill-rule:evenodd;"
d="M 124875000.000000,51270000.000000
124867388.000000,51308268.000000
124845711.000000,51340711.000000
124813268.000000,51362388.000000
124775000.000000,51370000.000000
123500000.000000,51370000.000000
123461732.000000,51362388.000000
123429289.000000,51340711.000000
123407612.000000,51308268.000000
123400000.000000,51270000.000000
123400000.000000,51070000.000000
123407612.000000,51031732.000000
123429289.000000,50999289.000000
123461732.000000,50977612.000000
123500000.000000,50970000.000000
124775000.000000,50970000.000000
124813268.000000,50977612.000000
124845711.000000,50999289.000000
124867388.000000,51031732.000000
124875000.000000,51070000.000000
Z" /> 
<path style="fill:#000000; fill-opacity:1.0; 
stroke:#000000; stroke-width:1.000000; stroke-opacity:1; 
stroke-linecap:round; stroke-linejoin:round;fill-rule:evenodd;"
d="M 124875000.000000,51920000.000000
124867388.000000,51958268.000000
124845711.000000,51990711.000000
124813268.000000,52012388.000000
124775000.000000,52020000.000000
123500000.000000,52020000.000000
123461732.000000,52012388.000000
123429289.000000,51990711.000000
123407612.000000,51958268.000000
123400000.000000,51920000.000000
123400000.000000,51720000.000000
123407612.000000,51681732.000000
123429289.000000,51649289.000000
123461732.000000,51627612.000000
123500000.000000,51620000.000000
124775000.000000,51620000.000000
124813268.000000,51627612.000000
124845711.000000,51649289.000000
124867388.000000,51681732.000000
124875000.000000,51720000.000000
Z" /> 
</g>
<g >
</g>
<g >
</g>
<g style="fill:#000000; fill-opacity:1.0; 
stroke:#000000; stroke-width:1.000000; stroke-opacity:1; 
stroke-linecap:round; stroke-linejoin:round;">
<path style="fill:#000000; fill-opacity:1.0; 
stroke:#000000; stroke-width:1.000000; stroke-opacity:1; 
stroke-linecap:round; stroke-linejoin:round;fill-rule:evenodd;"
d="M 120490000.000000,59589000.000000
120585671.000000,59608030.000000
120666777.000000,59662223.000000
120720970.000000,59743329.000000
120740000.000000,59839000.000000
120740000.000000,60514000.000000
120720970.000000,60609671.000000
120666777.000000,60690777.000000
120585671.000000,60744970.000000
120490000.000000,60764000.000000
119540000.000000,60764000.000000
119444329.000000,60744970.000000
119363223.000000,60690777.000000
119309030.000000,60609671.000000
119290000.000000,60514000.000000
119290000.000000,59839000.000000
119309030.000000,59743329.000000
119363223.000000,59662223.000000
119444329.000000,59608030.000000
119540000.000000,59589000.000000
Z" /> 
<path style="fill:#000000; fill-opacity:1.0; 
stroke:#000000; stroke-width:1.000000; stroke-opacity:1; 
stroke-linecap:round; stroke-linejoin:round;fill-rule:evenodd;"
d="M 120490000.000000,61664000.000000
120585671.000000,61683030.000000
120666777.000000,61737223.000000
120720970.000000,61818329.000000
120740000.000000,61914000.000000
120740000.000000,62589000.000000
120720970.000000,62684671.000000
120666777.000000,62765777.000000
120585671.000000,62819970.000000
120490000.000000,62839000.000000
119540000.000000,62839000.000000
119444329.000000,62819970.000000
119363223.000000,62765777.000000
119309030.000000,62684671.000000
119290000.000000,62589000.000000
119290000.000000,61914000.000000
119309030.000000,61818329.000000
119363223.000000,61737223.000000
119444329.000000,61683030.000000
119540000.000000,61664000.000000
Z" /> 
</g>
<g >
</g>
<g style="fill:#000000; fill-opacity:1.0; 
stroke:#000000; stroke-width:1.000000; stroke-opacity:1; 
stroke-linecap:round; stroke-linejoin:round;">
<path style="fill:#000000; fill-opacity:1.0; 
stroke:#000000; stroke-width:1.000000; stroke-opacity:1; 
stroke-linecap:round; stroke-linejoin:round;fill-rule:evenodd;"
d="M 115036000.000000,75660000.000000
115016970.000000,75755671.000000
114962777.000000,75836777.000000
114881671.000000,75890970.000000
114786000.000000,75910000.000000
114111000.000000,75910000.000000
114015329.000000,75890970.000000
113934223.000000,75836777.000000
113880030.000000,75755671.000000
113861000.000000,75660000.000000
113861000.000000,74710000.000000
113880030.000000,74614329.000000
113934223.000000,74533223.000000
114015329.000000,74479030.000000
114111000.000000,74460000.000000
114786000.000000,74460000.000000
114881671.000000,74479030.000000
114962777.000000,74533223.000000
115016970.000000,74614329.000000
115036000.000000,74710000.000000
Z" /> 
<path style="fill:#000000; fill-opacity:1.0; 
stroke:#000000; stroke-width:1.000000; stroke-opacity:1; 
stroke-linecap:round; stroke-linejoin:round;fill-rule:evenodd;"
d="M 112961000.000000,75660000.000000
112941970.000000,75755671.000000
112887777.000000,75836777.000000
112806671.000000,75890970.000000
112711000.000000,75910000.000000
112036000.000000,75910000.000000
111940329.000000,75890970.000000
111859223.000000,75836777.000000
111805030.000000,75755671.000000
111786000.000000,75660000.000000
111786000.000000,74710000.000000
111805030.000000,74614329.000000
111859223.000000,74533223.000000
111940329.000000,74479030.000000
112036000.000000,74460000.000000
112711000.000000,74460000.000000
112806671.000000,74479030.000000
112887777.000000,74533223.000000
112941970.000000,74614329.000000
112961000.000000,74710000.000000
Z" /> 
</g>
<g >
</g>
<g >
</g>
<g style="fill:#000000; fill-opacity:1.0; 
stroke:#000000; stroke-width:1.000000; stroke-opacity:1; 
stroke-linecap:round; stroke-linejoin:round;">
<path style="fill:#000000; fill-opacity:1.0; 
stroke:#000000; stroke-width:1.000000; stroke-opacity:1; 
stroke-linecap:round; stroke-linejoin:round;fill-rule:evenodd;"
d="M 125372000.000000,60750000.000000
125333732.000000,60742388.000000
125301289.000000,60720711.000000
125279612.000000,60688268.000000
125272000.000000,60650000.000000
125272000.000000,59375000.000000
125279612.000000,59336732.000000
125301289.000000,59304289.000000
125333732.000000,59282612.000000
125372000.000000,59275000.000000
125572000.000000,59275000.000000
125610268.000000,59282612.000000
125642711.000000,59304289.000000
125664388.000000,59336732.000000
125672000.000000,59375000.000000
125672000.000000,60650000.000000
125664388.000000,60688268.000000
125642711.000000,60720711.000000
125610268.000000,60742388.000000
125572000.000000,60750000.000000
Z" /> 
<path style="fill:#000000; fill-opacity:1.0; 
stroke:#000000; stroke-width:1.000000; stroke-opacity:1; 
stroke-linecap:round; stroke-linejoin:round;fill-rule:evenodd;"
d="M 126022000.000000,60750000.000000
125983732.000000,60742388.000000
125951289.000000,60720711.000000
125929612.000000,60688268.000000
125922000.000000,60650000.000000
125922000.000000,59375000.000000
125929612.000000,59336732.000000
125951289.000000,59304289.000000
125983732.000000,59282612.000000
126022000.000000,59275000.000000
126222000.000000,59275000.000000
126260268.000000,59282612.000000
126292711.000000,59304289.000000
126314388.000000,59336732.000000
126322000.000000,59375000.000000
126322000.000000,60650000.000000
126314388.000000,60688268.000000
126292711.000000,60720711.000000
126260268.000000,60742388.000000
126222000.000000,60750000.000000
Z" /> 
<path style="fill:#000000; fill-opacity:1.0; 
stroke:#000000; stroke-width:1.000000; stroke-opacity:1; 
stroke-linecap:round; stroke-linejoin:round;fill-rule:evenodd;"
d="M 126672000.000000,60750000.000000
126633732.000000,60742388.000000
126601289.000000,60720711.000000
126579612.000000,60688268.000000
126572000.000000,60650000.000000
126572000.000000,59375000.000000
126579612.000000,59336732.000000
126601289.000000,59304289.000000
126633732.000000,59282612.000000
126672000.000000,59275000.000000
126872000.000000,59275000.000000
126910268.000000,59282612.000000
126942711.000000,59304289.000000
126964388.000000,59336732.000000
126972000.000000,59375000.000000
126972000.000000,60650000.000000
126964388.000000,60688268.000000
126942711.000000,60720711.000000
126910268.000000,60742388.000000
126872000.000000,60750000.000000
Z" /> 
<path style="fill:#000000; fill-opacity:1.0; 
stroke:#000000; stroke-width:1.000000; stroke-opacity:1; 
stroke-linecap:round; stroke-linejoin:round;fill-rule:evenodd;"
d="M 127322000.000000,60750000.000000
127283732.000000,60742388.000000
127251289.000000,60720711.000000
127229612.000000,60688268.000000
127222000.000000,60650000.000000
127222000.000000,59375000.000000
127229612.000000,59336732.000000
127251289.000000,59304289.000000
127283732.000000,59282612.000000
127322000.000000,59275000.000000
127522000.000000,59275000.000000
127560268.000000,59282612.000000
127592711.000000,59304289.000000
127614388.000000,59336732.000000
127622000.000000,59375000.000000
127622000.000000,60650000.000000
127614388.000000,60688268.000000
127592711.000000,60720711.000000
127560268.000000,60742388.000000
127522000.000000,60750000.000000
Z" /> 
<path style="fill:#000000; fill-opacity:1.0; 
stroke:#000000; stroke-width:1.000000; stroke-opacity:1; 
stroke-linecap:round; stroke-linejoin:round;fill-rule:evenodd;"
d="M 127972000.000000,60750000.000000
127933732.000000,60742388.000000
127901289.000000,60720711.000000
127879612.000000,60688268.000000
127872000.000000,60650000.000000
127872000.000000,59375000.000000
127879612.000000,59336732.000000
127901289.000000,59304289.000000
127933732.000000,59282612.000000
127972000.000000,59275000.000000
128172000.000000,59275000.000000
128210268.000000,59282612.000000
128242711.000000,59304289.000000
128264388.000000,59336732.000000
128272000.000000,59375000.000000
128272000.000000,60650000.000000
128264388.000000,60688268.000000
128242711.000000,60720711.000000
128210268.000000,60742388.000000
128172000.000000,60750000.000000
Z" /> 
<path style="fill:#000000; fill-opacity:1.0; 
stroke:#000000; stroke-width:1.000000; stroke-opacity:1; 
stroke-linecap:round; stroke-linejoin:round;fill-rule:evenodd;"
d="M 128622000.000000,60750000.000000
128583732.000000,60742388.000000
128551289.000000,60720711.000000
128529612.000000,60688268.000000
128522000.000000,60650000.000000
128522000.000000,59375000.000000
128529612.000000,59336732.000000
128551289.000000,59304289.000000
128583732.000000,59282612.000000
128622000.000000,59275000.000000
128822000.000000,59275000.000000
128860268.000000,59282612.000000
128892711.000000,59304289.000000
128914388.000000,59336732.000000
128922000.000000,59375000.000000
128922000.000000,60650000.000000
128914388.000000,60688268.000000
128892711.000000,60720711.000000
128860268.000000,60742388.000000
128822000.000000,60750000.000000
Z" /> 
<path style="fill:#000000; fill-opacity:1.0; 
stroke:#000000; stroke-width:1.000000; stroke-opacity:1; 
stroke-linecap:round; stroke-linejoin:round;fill-rule:evenodd;"
d="M 129272000.000000,60750000.000000
129233732.000000,60742388.000000
129201289.000000,60720711.000000
129179612.000000,60688268.000000
129172000.000000,60650000.000000
129172000.000000,59375000.000000
129179612.000000,59336732.000000
129201289.000000,59304289.000000
129233732.000000,59282612.000000
129272000.000000,59275000.000000
129472000.000000,59275000.000000
129510268.000000,59282612.000000
129542711.000000,59304289.000000
129564388.000000,59336732.000000
129572000.000000,59375000.000000
129572000.000000,60650000.000000
129564388.000000,60688268.000000
129542711.000000,60720711.000000
129510268.000000,60742388.000000
129472000.000000,60750000.000000
Z" /> 
<path style="fill:#000000; fill-opacity:1.0; 
stroke:#000000; stroke-width:1.000000; stroke-opacity:1; 
stroke-linecap:round; stroke-linejoin:round;fill-rule:evenodd;"
d="M 129922000.000000,60750000.000000
129883732.000000,60742388.000000
129851289.000000,60720711.000000
129829612.000000,60688268.000000
129822000.000000,60650000.000000
129822000.000000,59375000.000000
129829612.000000,59336732.000000
129851289.000000,59304289.000000
129883732.000000,59282612.000000
129922000.000000,59275000.000000
130122000.000000,59275000.000000
130160268.000000,59282612.000000
130192711.000000,59304289.000000
130214388.000000,59336732.000000
130222000.000000,59375000.000000
130222000.000000,60650000.000000
130214388.000000,60688268.000000
130192711.000000,60720711.000000
130160268.000000,60742388.000000
130122000.000000,60750000.000000
Z" /> 
<path style="fill:#000000; fill-opacity:1.0; 
stroke:#000000; stroke-width:1.000000; stroke-opacity:1; 
stroke-linecap:round; stroke-linejoin:round;fill-rule:evenodd;"
d="M 130572000.000000,60750000.000000
130533732.000000,60742388.000000
130501289.000000,60720711.000000
130479612.000000,60688268.000000
130472000.000000,60650000.000000
130472000.000000,59375000.000000
130479612.000000,59336732.000000
130501289.000000,59304289.000000
130533732.000000,59282612.000000
130572000.000000,59275000.000000
130772000.000000,59275000.000000
130810268.000000,59282612.000000
130842711.000000,59304289.000000
130864388.000000,59336732.000000
130872000.000000,59375000.000000
130872000.000000,60650000.000000
130864388.000000,60688268.000000
130842711.000000,60720711.000000
130810268.000000,60742388.000000
130772000.000000,60750000.000000
Z" /> 
<path style="fill:#000000; fill-opacity:1.0; 
stroke:#000000; stroke-width:1.000000; stroke-opacity:1; 
stroke-linecap:round; stroke-linejoin:round;fill-rule:evenodd;"
d="M 131222000.000000,60750000.000000
131183732.000000,60742388.000000
131151289.000000,60720711.000000
131129612.000000,60688268.000000
131122000.000000,60650000.000000
131122000.000000,59375000.000000
131129612.000000,59336732.000000
131151289.000000,59304289.000000
131183732.000000,59282612.000000
131222000.000000,59275000.000000
131422000.000000,59275000.000000
131460268.000000,59282612.000000
131492711.000000,59304289.000000
131514388.000000,59336732.000000
131522000.000000,59375000.000000
131522000.000000,60650000.000000
131514388.000000,60688268.000000
131492711.000000,60720711.000000
131460268.000000,60742388.000000
131422000.000000,60750000.000000
Z" /> 
<path style="fill:#000000; fill-opacity:1.0; 
stroke:#000000; stroke-width:1.000000; stroke-opacity:1; 
stroke-linecap:round; stroke-linejoin:round;fill-rule:evenodd;"
d="M 131222000.000000,55025000.000000
131183732.000000,55017388.000000
131151289.000000,54995711.000000
131129612.000000,54963268.000000
131122000.000000,54925000.000000
131122000.000000,53650000.000000
131129612.000000,53611732.000000
131151289.000000,53579289.000000
131183732.000000,53557612.000000
131222000.000000,53550000.000000
131422000.000000,53550000.000000
131460268.000000,53557612.000000
131492711.000000,53579289.000000
131514388.000000,53611732.000000
131522000.000000,53650000.000000
131522000.000000,54925000.000000
131514388.000000,54963268.000000
131492711.000000,54995711.000000
131460268.000000,55017388.000000
131422000.000000,55025000.000000
Z" /> 
<path style="fill:#000000; fill-opacity:1.0; 
stroke:#000000; stroke-width:1.000000; stroke-opacity:1; 
stroke-linecap:round; stroke-linejoin:round;fill-rule:evenodd;"
d="M 130572000.000000,55025000.000000
130533732.000000,55017388.000000
130501289.000000,54995711.000000
130479612.000000,54963268.000000
130472000.000000,54925000.000000
130472000.000000,53650000.000000
130479612.000000,53611732.000000
130501289.000000,53579289.000000
130533732.000000,53557612.000000
130572000.000000,53550000.000000
130772000.000000,53550000.000000
130810268.000000,53557612.000000
130842711.000000,53579289.000000
130864388.000000,53611732.000000
130872000.000000,53650000.000000
130872000.000000,54925000.000000
130864388.000000,54963268.000000
130842711.000000,54995711.000000
130810268.000000,55017388.000000
130772000.000000,55025000.000000
Z" /> 
<path style="fill:#000000; fill-opacity:1.0; 
stroke:#000000; stroke-width:1.000000; stroke-opacity:1; 
stroke-linecap:round; stroke-linejoin:round;fill-rule:evenodd;"
d="M 129922000.000000,55025000.000000
129883732.000000,55017388.000000
129851289.000000,54995711.000000
129829612.000000,54963268.000000
129822000.000000,54925000.000000
129822000.000000,53650000.000000
129829612.000000,53611732.000000
129851289.000000,53579289.000000
129883732.000000,53557612.000000
129922000.000000,53550000.000000
130122000.000000,53550000.000000
130160268.000000,53557612.000000
130192711.000000,53579289.000000
130214388.000000,53611732.000000
130222000.000000,53650000.000000
130222000.000000,54925000.000000
130214388.000000,54963268.000000
130192711.000000,54995711.000000
130160268.000000,55017388.000000
130122000.000000,55025000.000000
Z" /> 
<path style="fill:#000000; fill-opacity:1.0; 
stroke:#000000; stroke-width:1.000000; stroke-opacity:1; 
stroke-linecap:round; stroke-linejoin:round;fill-rule:evenodd;"
d="M 129272000.000000,55025000.000000
129233732.000000,55017388.000000
129201289.000000,54995711.000000
129179612.000000,54963268.000000
129172000.000000,54925000.000000
129172000.000000,53650000.000000
129179612.000000,53611732.000000
129201289.000000,53579289.000000
129233732.000000,53557612.000000
129272000.000000,53550000.000000
129472000.000000,53550000.000000
129510268.000000,53557612.000000
129542711.000000,53579289.000000
129564388.000000,53611732.000000
129572000.000000,53650000.000000
129572000.000000,54925000.000000
129564388.000000,54963268.000000
129542711.000000,54995711.000000
129510268.000000,55017388.000000
129472000.000000,55025000.000000
Z" /> 
<path style="fill:#000000; fill-opacity:1.0; 
stroke:#000000; stroke-width:1.000000; stroke-opacity:1; 
stroke-linecap:round; stroke-linejoin:round;fill-rule:evenodd;"
d="M 128622000.000000,55025000.000000
128583732.000000,55017388.000000
128551289.000000,54995711.000000
128529612.000000,54963268.000000
128522000.000000,54925000.000000
128522000.000000,53650000.000000
128529612.000000,53611732.000000
128551289.000000,53579289.000000
128583732.000000,53557612.000000
128622000.000000,53550000.000000
128822000.000000,53550000.000000
128860268.000000,53557612.000000
128892711.000000,53579289.000000
128914388.000000,53611732.000000
128922000.000000,53650000.000000
128922000.000000,54925000.000000
128914388.000000,54963268.000000
128892711.000000,54995711.000000
128860268.000000,55017388.000000
128822000.000000,55025000.000000
Z" /> 
<path style="fill:#000000; fill-opacity:1.0; 
stroke:#000000; stroke-width:1.000000; stroke-opacity:1; 
stroke-linecap:round; stroke-linejoin:round;fill-rule:evenodd;"
d="M 127972000.000000,55025000.000000
127933732.000000,55017388.000000
127901289.000000,54995711.000000
127879612.000000,54963268.000000
127872000.000000,54925000.000000
127872000.000000,53650000.000000
127879612.000000,53611732.000000
127901289.000000,53579289.000000
127933732.000000,53557612.000000
127972000.000000,53550000.000000
128172000.000000,53550000.000000
128210268.000000,53557612.000000
128242711.000000,53579289.000000
128264388.000000,53611732.000000
128272000.000000,53650000.000000
128272000.000000,54925000.000000
128264388.000000,54963268.000000
128242711.000000,54995711.000000
128210268.000000,55017388.000000
128172000.000000,55025000.000000
Z" /> 
<path style="fill:#000000; fill-opacity:1.0; 
stroke:#000000; stroke-width:1.000000; stroke-opacity:1; 
stroke-linecap:round; stroke-linejoin:round;fill-rule:evenodd;"
d="M 127322000.000000,55025000.000000
127283732.000000,55017388.000000
127251289.000000,54995711.000000
127229612.000000,54963268.000000
127222000.000000,54925000.000000
127222000.000000,53650000.000000
127229612.000000,53611732.000000
127251289.000000,53579289.000000
127283732.000000,53557612.000000
127322000.000000,53550000.000000
127522000.000000,53550000.000000
127560268.000000,53557612.000000
127592711.000000,53579289.000000
127614388.000000,53611732.000000
127622000.000000,53650000.000000
127622000.000000,54925000.000000
127614388.000000,54963268.000000
127592711.000000,54995711.000000
127560268.000000,55017388.000000
127522000.000000,55025000.000000
Z" /> 
<path style="fill:#000000; fill-opacity:1.0; 
stroke:#000000; stroke-width:1.000000; stroke-opacity:1; 
stroke-linecap:round; stroke-linejoin:round;fill-rule:evenodd;"
d="M 126672000.000000,55025000.000000
126633732.000000,55017388.000000
126601289.000000,54995711.000000
126579612.000000,54963268.000000
126572000.000000,54925000.000000
126572000.000000,53650000.000000
126579612.000000,53611732.000000
126601289.000000,53579289.000000
126633732.000000,53557612.000000
126672000.000000,53550000.000000
126872000.000000,53550000.000000
126910268.000000,53557612.000000
126942711.000000,53579289.000000
126964388.000000,53611732.000000
126972000.000000,53650000.000000
126972000.000000,54925000.000000
126964388.000000,54963268.000000
126942711.000000,54995711.000000
126910268.000000,55017388.000000
126872000.000000,55025000.000000
Z" /> 
<path style="fill:#000000; fill-opacity:1.0; 
stroke:#000000; stroke-width:1.000000; stroke-opacity:1; 
stroke-linecap:round; stroke-linejoin:round;fill-rule:evenodd;"
d="M 126022000.000000,55025000.000000
125983732.000000,55017388.000000
125951289.000000,54995711.000000
125929612.000000,54963268.000000
125922000.000000,54925000.000000
125922000.000000,53650000.000000
125929612.000000,53611732.000000
125951289.000000,53579289.000000
125983732.000000,53557612.000000
126022000.000000,53550000.000000
126222000.000000,53550000.000000
126260268.000000,53557612.000000
126292711.000000,53579289.000000
126314388.000000,53611732.000000
126322000.000000,53650000.000000
126322000.000000,54925000.000000
126314388.000000,54963268.000000
126292711.000000,54995711.000000
126260268.000000,55017388.000000
126222000.000000,55025000.000000
Z" /> 
<path style="fill:#000000; fill-opacity:1.0; 
stroke:#000000; stroke-width:1.000000; stroke-opacity:1; 
stroke-linecap:round; stroke-linejoin:round;fill-rule:evenodd;"
d="M 125372000.000000,55025000.000000
125333732.000000,55017388.000000
125301289.000000,54995711.000000
125279612.000000,54963268.000000
125272000.000000,54925000.000000
125272000.000000,53650000.000000
125279612.000000,53611732.000000
125301289.000000,53579289.000000
125333732.000000,53557612.000000
125372000.000000,53550000.000000
125572000.000000,53550000.000000
125610268.000000,53557612.000000
125642711.000000,53579289.000000
125664388.000000,53611732.000000
125672000.000000,53650000.000000
125672000.000000,54925000.000000
125664388.000000,54963268.000000
125642711.000000,54995711.000000
125610268.000000,55017388.000000
125572000.000000,55025000.000000
Z" /> 
</g>
<g >
</g>
<g style="fill:#000000; fill-opacity:1.0; 
stroke:#000000; stroke-width:1.000000; stroke-opacity:1; 
stroke-linecap:round; stroke-linejoin:round;">
<path style="fill:#000000; fill-opacity:1.0; 
stroke:#000000; stroke-width:1.000000; stroke-opacity:1; 
stroke-linecap:round; stroke-linejoin:round;fill-rule:evenodd;"
d="M 109761000.000000,56489000.000000
109665329.000000,56469970.000000
109584223.000000,56415777.000000
109530030.000000,56334671.000000
109511000.000000,56239000.000000
109511000.000000,55564000.000000
109530030.000000,55468329.000000
109584223.000000,55387223.000000
109665329.000000,55333030.000000
109761000.000000,55314000.000000
110711000.000000,55314000.000000
110806671.000000,55333030.000000
110887777.000000,55387223.000000
110941970.000000,55468329.000000
110961000.000000,55564000.000000
110961000.000000,56239000.000000
110941970.000000,56334671.000000
110887777.000000,56415777.000000
110806671.000000,56469970.000000
110711000.000000,56489000.000000
Z" /> 
<path style="fill:#000000; fill-opacity:1.0; 
stroke:#000000; stroke-width:1.000000; stroke-opacity:1; 
stroke-linecap:round; stroke-linejoin:round;fill-rule:evenodd;"
d="M 109761000.000000,54414000.000000
109665329.000000,54394970.000000
109584223.000000,54340777.000000
109530030.000000,54259671.000000
109511000.000000,54164000.000000
109511000.000000,53489000.000000
109530030.000000,53393329.000000
109584223.000000,53312223.000000
109665329.000000,53258030.000000
109761000.000000,53239000.000000
110711000.000000,53239000.000000
110806671.000000,53258030.000000
110887777.000000,53312223.000000
110941970.000000,53393329.000000
110961000.000000,53489000.000000
110961000.000000,54164000.000000
110941970.000000,54259671.000000
110887777.000000,54340777.000000
110806671.000000,54394970.000000
110711000.000000,54414000.000000
Z" /> 
</g>
<g >
</g>
<g style="fill:#000000; fill-opacity:1.0; 
stroke:#000000; stroke-width:1.000000; stroke-opacity:1; 
stroke-linecap:round; stroke-linejoin:round;">
<path style="fill:#000000; fill-opacity:1.0; 
stroke:#000000; stroke-width:1.000000; stroke-opacity:1; 
stroke-linecap:round; stroke-linejoin:round;fill-rule:evenodd;"
d="M 115036000.000000,60546000.000000
115016970.000000,60641671.000000
114962777.000000,60722777.000000
114881671.000000,60776970.000000
114786000.000000,60796000.000000
114111000.000000,60796000.000000
114015329.000000,60776970.000000
113934223.000000,60722777.000000
113880030.000000,60641671.000000
113861000.000000,60546000.000000
113861000.000000,59596000.000000
113880030.000000,59500329.000000
113934223.000000,59419223.000000
114015329.000000,59365030.000000
114111000.000000,59346000.000000
114786000.000000,59346000.000000
114881671.000000,59365030.000000
114962777.000000,59419223.000000
115016970.000000,59500329.000000
115036000.000000,59596000.000000
Z" /> 
<path style="fill:#000000; fill-opacity:1.0; 
stroke:#000000; stroke-width:1.000000; stroke-opacity:1; 
stroke-linecap:round; stroke-linejoin:round;fill-rule:evenodd;"
d="M 112961000.000000,60546000.000000
112941970.000000,60641671.000000
112887777.000000,60722777.000000
112806671.000000,60776970.000000
112711000.000000,60796000.000000
112036000.000000,60796000.000000
111940329.000000,60776970.000000
111859223.000000,60722777.000000
111805030.000000,60641671.000000
111786000.000000,60546000.000000
111786000.000000,59596000.000000
111805030.000000,59500329.000000
111859223.000000,59419223.000000
111940329.000000,59365030.000000
112036000.000000,59346000.000000
112711000.000000,59346000.000000
112806671.000000,59365030.000000
112887777.000000,59419223.000000
112941970.000000,59500329.000000
112961000.000000,59596000.000000
Z" /> 
</g>
<g >
</g>
<g >
</g>
<g >
</g>
<g style="fill:#000000; fill-opacity:1.0; 
stroke:#000000; stroke-width:1.000000; stroke-opacity:1; 
stroke-linecap:round; stroke-linejoin:round;">
<path style="fill:#000000; fill-opacity:1.0; 
stroke:#000000; stroke-width:1.000000; stroke-opacity:1; 
stroke-linecap:round; stroke-linejoin:round;fill-rule:evenodd;"
d="M 105745501.000000,67224001.000000
107245499.000000,67224001.000000
107245499.000000,69223999.000000
105745501.000000,69223999.000000
Z" /> 
<path style="fill:#000000; fill-opacity:1.0; 
stroke:#000000; stroke-width:1.000000; stroke-opacity:1; 
stroke-linecap:round; stroke-linejoin:round;fill-rule:evenodd;"
d="M 102295501.000000,73524001.000000
106095499.000000,73524001.000000
106095499.000000,75523999.000000
102295501.000000,75523999.000000
Z" /> 
<path style="fill:#000000; fill-opacity:1.0; 
stroke:#000000; stroke-width:1.000000; stroke-opacity:1; 
stroke-linecap:round; stroke-linejoin:round;fill-rule:evenodd;"
d="M 103445501.000000,67224001.000000
104945499.000000,67224001.000000
104945499.000000,69223999.000000
103445501.000000,69223999.000000
Z" /> 
<path style="fill:#000000; fill-opacity:1.0; 
stroke:#000000; stroke-width:1.000000; stroke-opacity:1; 
stroke-linecap:round; stroke-linejoin:round;fill-rule:evenodd;"
d="M 101145501.000000,67224001.000000
102645499.000000,67224001.000000
102645499.000000,69223999.000000
101145501.000000,69223999.000000
Z" /> 
</g>
<g >
</g>
<g style="fill:#000000; fill-opacity:1.0; 
stroke:#000000; stroke-width:1.000000; stroke-opacity:1; 
stroke-linecap:round; stroke-linejoin:round;">
<path style="fill:#000000; fill-opacity:1.0; 
stroke:#000000; stroke-width:1.000000; stroke-opacity:1; 
stroke-linecap:round; stroke-linejoin:round;fill-rule:evenodd;"
d="M 103606000.000000,44925000.000000
103586970.000000,45020671.000000
103532777.000000,45101777.000000
103451671.000000,45155970.000000
103356000.000000,45175000.000000
102681000.000000,45175000.000000
102585329.000000,45155970.000000
102504223.000000,45101777.000000
102450030.000000,45020671.000000
102431000.000000,44925000.000000
102431000.000000,43975000.000000
102450030.000000,43879329.000000
102504223.000000,43798223.000000
102585329.000000,43744030.000000
102681000.000000,43725000.000000
103356000.000000,43725000.000000
103451671.000000,43744030.000000
103532777.000000,43798223.000000
103586970.000000,43879329.000000
103606000.000000,43975000.000000
Z" /> 
<path style="fill:#000000; fill-opacity:1.0; 
stroke:#000000; stroke-width:1.000000; stroke-opacity:1; 
stroke-linecap:round; stroke-linejoin:round;fill-rule:evenodd;"
d="M 101531000.000000,44925000.000000
101511970.000000,45020671.000000
101457777.000000,45101777.000000
101376671.000000,45155970.000000
101281000.000000,45175000.000000
100606000.000000,45175000.000000
100510329.000000,45155970.000000
100429223.000000,45101777.000000
100375030.000000,45020671.000000
100356000.000000,44925000.000000
100356000.000000,43975000.000000
100375030.000000,43879329.000000
100429223.000000,43798223.000000
100510329.000000,43744030.000000
100606000.000000,43725000.000000
101281000.000000,43725000.000000
101376671.000000,43744030.000000
101457777.000000,43798223.000000
101511970.000000,43879329.000000
101531000.000000,43975000.000000
Z" /> 
</g>
<g >
</g>
<g style="fill:#000000; fill-opacity:1.0; 
stroke:#000000; stroke-width:1.000000; stroke-opacity:1; 
stroke-linecap:round; stroke-linejoin:round;">
<path style="fill:#000000; fill-opacity:1.0; 
stroke:#000000; stroke-width:1.000000; stroke-opacity:1; 
stroke-linecap:round; stroke-linejoin:round;fill-rule:evenodd;"
d="M 115556500.000000,74735000.000000
115575530.000000,74639329.000000
115629723.000000,74558223.000000
115710829.000000,74504030.000000
115806500.000000,74485000.000000
116506500.000000,74485000.000000
116602171.000000,74504030.000000
116683277.000000,74558223.000000
116737470.000000,74639329.000000
116756500.000000,74735000.000000
116756500.000000,75635000.000000
116737470.000000,75730671.000000
116683277.000000,75811777.000000
116602171.000000,75865970.000000
116506500.000000,75885000.000000
115806500.000000,75885000.000000
115710829.000000,75865970.000000
115629723.000000,75811777.000000
115575530.000000,75730671.000000
115556500.000000,75635000.000000
Z" /> 
<path style="fill:#000000; fill-opacity:1.0; 
stroke:#000000; stroke-width:1.000000; stroke-opacity:1; 
stroke-linecap:round; stroke-linejoin:round;fill-rule:evenodd;"
d="M 117556500.000000,74735000.000000
117575530.000000,74639329.000000
117629723.000000,74558223.000000
117710829.000000,74504030.000000
117806500.000000,74485000.000000
118506500.000000,74485000.000000
118602171.000000,74504030.000000
118683277.000000,74558223.000000
118737470.000000,74639329.000000
118756500.000000,74735000.000000
118756500.000000,75635000.000000
118737470.000000,75730671.000000
118683277.000000,75811777.000000
118602171.000000,75865970.000000
118506500.000000,75885000.000000
117806500.000000,75885000.000000
117710829.000000,75865970.000000
117629723.000000,75811777.000000
117575530.000000,75730671.000000
117556500.000000,75635000.000000
Z" /> 
</g>
<g >
</g>
<g style="fill:#000000; fill-opacity:1.0; 
stroke:#000000; stroke-width:1.000000; stroke-opacity:1; 
stroke-linecap:round; stroke-linejoin:round;">
<path style="fill:#000000; fill-opacity:1.0; 
stroke:#000000; stroke-width:1.000000; stroke-opacity:1; 
stroke-linecap:round; stroke-linejoin:round;fill-rule:evenodd;"
d="M 107543000.000000,64355000.000000
107523970.000000,64450671.000000
107469777.000000,64531777.000000
107388671.000000,64585970.000000
107293000.000000,64605000.000000
106618000.000000,64605000.000000
106522329.000000,64585970.000000
106441223.000000,64531777.000000
106387030.000000,64450671.000000
106368000.000000,64355000.000000
106368000.000000,63405000.000000
106387030.000000,63309329.000000
106441223.000000,63228223.000000
106522329.000000,63174030.000000
106618000.000000,63155000.000000
107293000.000000,63155000.000000
107388671.000000,63174030.000000
107469777.000000,63228223.000000
107523970.000000,63309329.000000
107543000.000000,63405000.000000
Z" /> 
<path style="fill:#000000; fill-opacity:1.0; 
stroke:#000000; stroke-width:1.000000; stroke-opacity:1; 
stroke-linecap:round; stroke-linejoin:round;fill-rule:evenodd;"
d="M 105468000.000000,64355000.000000
105448970.000000,64450671.000000
105394777.000000,64531777.000000
105313671.000000,64585970.000000
105218000.000000,64605000.000000
104543000.000000,64605000.000000
104447329.000000,64585970.000000
104366223.000000,64531777.000000
104312030.000000,64450671.000000
104293000.000000,64355000.000000
104293000.000000,63405000.000000
104312030.000000,63309329.000000
104366223.000000,63228223.000000
104447329.000000,63174030.000000
104543000.000000,63155000.000000
105218000.000000,63155000.000000
105313671.000000,63174030.000000
105394777.000000,63228223.000000
105448970.000000,63309329.000000
105468000.000000,63405000.000000
Z" /> 
</g>
<g >
</g>
<g style="fill:#000000; fill-opacity:1.0; 
stroke:#000000; stroke-width:1.000000; stroke-opacity:1; 
stroke-linecap:round; stroke-linejoin:round;">
<path style="fill:#000000; fill-opacity:1.0; 
stroke:#000000; stroke-width:1.000000; stroke-opacity:1; 
stroke-linecap:round; stroke-linejoin:round;fill-rule:evenodd;"
d="M 128519500.000000,67404000.000000
128500470.000000,67499671.000000
128446277.000000,67580777.000000
128365171.000000,67634970.000000
128269500.000000,67654000.000000
127594500.000000,67654000.000000
127498829.000000,67634970.000000
127417723.000000,67580777.000000
127363530.000000,67499671.000000
127344500.000000,67404000.000000
127344500.000000,66454000.000000
127363530.000000,66358329.000000
127417723.000000,66277223.000000
127498829.000000,66223030.000000
127594500.000000,66204000.000000
128269500.000000,66204000.000000
128365171.000000,66223030.000000
128446277.000000,66277223.000000
128500470.000000,66358329.000000
128519500.000000,66454000.000000
Z" /> 
<path style="fill:#000000; fill-opacity:1.0; 
stroke:#000000; stroke-width:1.000000; stroke-opacity:1; 
stroke-linecap:round; stroke-linejoin:round;fill-rule:evenodd;"
d="M 126444500.000000,67404000.000000
126425470.000000,67499671.000000
126371277.000000,67580777.000000
126290171.000000,67634970.000000
126194500.000000,67654000.000000
125519500.000000,67654000.000000
125423829.000000,67634970.000000
125342723.000000,67580777.000000
125288530.000000,67499671.000000
125269500.000000,67404000.000000
125269500.000000,66454000.000000
125288530.000000,66358329.000000
125342723.000000,66277223.000000
125423829.000000,66223030.000000
125519500.000000,66204000.000000
126194500.000000,66204000.000000
126290171.000000,66223030.000000
126371277.000000,66277223.000000
126425470.000000,66358329.000000
126444500.000000,66454000.000000
Z" /> 
</g>
<g >
</g>
<g style="fill:#000000; fill-opacity:1.0; 
stroke:#000000; stroke-width:1.000000; stroke-opacity:1; 
stroke-linecap:round; stroke-linejoin:round;">
<path style="fill:#000000; fill-opacity:1.0; 
stroke:#000000; stroke-width:1.000000; stroke-opacity:1; 
stroke-linecap:round; stroke-linejoin:round;fill-rule:evenodd;"
d="M 119653500.000000,76174000.000000
119557829.000000,76154970.000000
119476723.000000,76100777.000000
119422530.000000,76019671.000000
119403500.000000,75924000.000000
119403500.000000,75249000.000000
119422530.000000,75153329.000000
119476723.000000,75072223.000000
119557829.000000,75018030.000000
119653500.000000,74999000.000000
120603500.000000,74999000.000000
120699171.000000,75018030.000000
120780277.000000,75072223.000000
120834470.000000,75153329.000000
120853500.000000,75249000.000000
120853500.000000,75924000.000000
120834470.000000,76019671.000000
120780277.000000,76100777.000000
120699171.000000,76154970.000000
120603500.000000,76174000.000000
Z" /> 
<path style="fill:#000000; fill-opacity:1.0; 
stroke:#000000; stroke-width:1.000000; stroke-opacity:1; 
stroke-linecap:round; stroke-linejoin:round;fill-rule:evenodd;"
d="M 119653500.000000,74099000.000000
119557829.000000,74079970.000000
119476723.000000,74025777.000000
119422530.000000,73944671.000000
119403500.000000,73849000.000000
119403500.000000,73174000.000000
119422530.000000,73078329.000000
119476723.000000,72997223.000000
119557829.000000,72943030.000000
119653500.000000,72924000.000000
120603500.000000,72924000.000000
120699171.000000,72943030.000000
120780277.000000,72997223.000000
120834470.000000,73078329.000000
120853500.000000,73174000.000000
120853500.000000,73849000.000000
120834470.000000,73944671.000000
120780277.000000,74025777.000000
120699171.000000,74079970.000000
120603500.000000,74099000.000000
Z" /> 
</g>
<g >
</g>
<g >
</g>
<g style="fill:#000000; fill-opacity:1.0; 
stroke:#000000; stroke-width:1.000000; stroke-opacity:1; 
stroke-linecap:round; stroke-linejoin:round;">
<path style="fill:#000000; fill-opacity:1.0; 
stroke:#000000; stroke-width:1.000000; stroke-opacity:1; 
stroke-linecap:round; stroke-linejoin:round;fill-rule:evenodd;"
d="M 123418000.000000,55974000.000000
123398970.000000,56069671.000000
123344777.000000,56150777.000000
123263671.000000,56204970.000000
123168000.000000,56224000.000000
122493000.000000,56224000.000000
122397329.000000,56204970.000000
122316223.000000,56150777.000000
122262030.000000,56069671.000000
122243000.000000,55974000.000000
122243000.000000,55024000.000000
122262030.000000,54928329.000000
122316223.000000,54847223.000000
122397329.000000,54793030.000000
122493000.000000,54774000.000000
123168000.000000,54774000.000000
123263671.000000,54793030.000000
123344777.000000,54847223.000000
123398970.000000,54928329.000000
123418000.000000,55024000.000000
Z" /> 
<path style="fill:#000000; fill-opacity:1.0; 
stroke:#000000; stroke-width:1.000000; stroke-opacity:1; 
stroke-linecap:round; stroke-linejoin:round;fill-rule:evenodd;"
d="M 121343000.000000,55974000.000000
121323970.000000,56069671.000000
121269777.000000,56150777.000000
121188671.000000,56204970.000000
121093000.000000,56224000.000000
120418000.000000,56224000.000000
120322329.000000,56204970.000000
120241223.000000,56150777.000000
120187030.000000,56069671.000000
120168000.000000,55974000.000000
120168000.000000,55024000.000000
120187030.000000,54928329.000000
120241223.000000,54847223.000000
120322329.000000,54793030.000000
120418000.000000,54774000.000000
121093000.000000,54774000.000000
121188671.000000,54793030.000000
121269777.000000,54847223.000000
121323970.000000,54928329.000000
121343000.000000,55024000.000000
Z" /> 
</g>
<g >
</g>
<g style="fill:#000000; fill-opacity:1.0; 
stroke:#000000; stroke-width:1.000000; stroke-opacity:1; 
stroke-linecap:round; stroke-linejoin:round;">
<path style="fill:#000000; fill-opacity:1.0; 
stroke:#000000; stroke-width:1.000000; stroke-opacity:1; 
stroke-linecap:round; stroke-linejoin:round;fill-rule:evenodd;"
d="M 118321000.000000,61571000.000000
118378403.000000,61582418.000000
118427066.000000,61614934.000000
118459582.000000,61663597.000000
118471000.000000,61721000.000000
118471000.000000,62896000.000000
118459582.000000,62953403.000000
118427066.000000,63002066.000000
118378403.000000,63034582.000000
118321000.000000,63046000.000000
118021000.000000,63046000.000000
117963597.000000,63034582.000000
117914934.000000,63002066.000000
117882418.000000,62953403.000000
117871000.000000,62896000.000000
117871000.000000,61721000.000000
117882418.000000,61663597.000000
117914934.000000,61614934.000000
117963597.000000,61582418.000000
118021000.000000,61571000.000000
Z" /> 
<path style="fill:#000000; fill-opacity:1.0; 
stroke:#000000; stroke-width:1.000000; stroke-opacity:1; 
stroke-linecap:round; stroke-linejoin:round;fill-rule:evenodd;"
d="M 116421000.000000,61571000.000000
116478403.000000,61582418.000000
116527066.000000,61614934.000000
116559582.000000,61663597.000000
116571000.000000,61721000.000000
116571000.000000,62896000.000000
116559582.000000,62953403.000000
116527066.000000,63002066.000000
116478403.000000,63034582.000000
116421000.000000,63046000.000000
116121000.000000,63046000.000000
116063597.000000,63034582.000000
116014934.000000,63002066.000000
115982418.000000,62953403.000000
115971000.000000,62896000.000000
115971000.000000,61721000.000000
115982418.000000,61663597.000000
116014934.000000,61614934.000000
116063597.000000,61582418.000000
116121000.000000,61571000.000000
Z" /> 
<path style="fill:#000000; fill-opacity:1.0; 
stroke:#000000; stroke-width:1.000000; stroke-opacity:1; 
stroke-linecap:round; stroke-linejoin:round;fill-rule:evenodd;"
d="M 117371000.000000,63446000.000000
117428403.000000,63457418.000000
117477066.000000,63489934.000000
117509582.000000,63538597.000000
117521000.000000,63596000.000000
117521000.000000,64771000.000000
117509582.000000,64828403.000000
117477066.000000,64877066.000000
117428403.000000,64909582.000000
117371000.000000,64921000.000000
117071000.000000,64921000.000000
117013597.000000,64909582.000000
116964934.000000,64877066.000000
116932418.000000,64828403.000000
116921000.000000,64771000.000000
116921000.000000,63596000.000000
116932418.000000,63538597.000000
116964934.000000,63489934.000000
117013597.000000,63457418.000000
117071000.000000,63446000.000000
Z" /> 
</g>
<g >
</g>
<g style="fill:#000000; fill-opacity:1.0; 
stroke:#000000; stroke-width:1.000000; stroke-opacity:1; 
stroke-linecap:round; stroke-linejoin:round;">
<path style="fill:#000000; fill-opacity:1.0; 
stroke:#000000; stroke-width:1.000000; stroke-opacity:1; 
stroke-linecap:round; stroke-linejoin:round;fill-rule:evenodd;"
d="M 100530500.000000,65405000.000000
100549530.000000,65309329.000000
100603723.000000,65228223.000000
100684829.000000,65174030.000000
100780500.000000,65155000.000000
101455500.000000,65155000.000000
101551171.000000,65174030.000000
101632277.000000,65228223.000000
101686470.000000,65309329.000000
101705500.000000,65405000.000000
101705500.000000,66355000.000000
101686470.000000,66450671.000000
101632277.000000,66531777.000000
101551171.000000,66585970.000000
101455500.000000,66605000.000000
100780500.000000,66605000.000000
100684829.000000,66585970.000000
100603723.000000,66531777.000000
100549530.000000,66450671.000000
100530500.000000,66355000.000000
Z" /> 
<path style="fill:#000000; fill-opacity:1.0; 
stroke:#000000; stroke-width:1.000000; stroke-opacity:1; 
stroke-linecap:round; stroke-linejoin:round;fill-rule:evenodd;"
d="M 102605500.000000,65405000.000000
102624530.000000,65309329.000000
102678723.000000,65228223.000000
102759829.000000,65174030.000000
102855500.000000,65155000.000000
103530500.000000,65155000.000000
103626171.000000,65174030.000000
103707277.000000,65228223.000000
103761470.000000,65309329.000000
103780500.000000,65405000.000000
103780500.000000,66355000.000000
103761470.000000,66450671.000000
103707277.000000,66531777.000000
103626171.000000,66585970.000000
103530500.000000,66605000.000000
102855500.000000,66605000.000000
102759829.000000,66585970.000000
102678723.000000,66531777.000000
102624530.000000,66450671.000000
102605500.000000,66355000.000000
Z" /> 
</g>
<g >
</g>
<g style="fill:#000000; fill-opacity:1.0; 
stroke:#000000; stroke-width:1.000000; stroke-opacity:1; 
stroke-linecap:round; stroke-linejoin:round;">
<path style="fill:#000000; fill-opacity:1.0; 
stroke:#000000; stroke-width:1.000000; stroke-opacity:1; 
stroke-linecap:round; stroke-linejoin:round;fill-rule:evenodd;"
d="M 117611500.000000,67035000.000000
117668903.000000,67046418.000000
117717566.000000,67078934.000000
117750082.000000,67127597.000000
117761500.000000,67185000.000000
117761500.000000,68835000.000000
117750082.000000,68892403.000000
117717566.000000,68941066.000000
117668903.000000,68973582.000000
117611500.000000,68985000.000000
117311500.000000,68985000.000000
117254097.000000,68973582.000000
117205434.000000,68941066.000000
117172918.000000,68892403.000000
117161500.000000,68835000.000000
117161500.000000,67185000.000000
117172918.000000,67127597.000000
117205434.000000,67078934.000000
117254097.000000,67046418.000000
117311500.000000,67035000.000000
Z" /> 
<path style="fill:#000000; fill-opacity:1.0; 
stroke:#000000; stroke-width:1.000000; stroke-opacity:1; 
stroke-linecap:round; stroke-linejoin:round;fill-rule:evenodd;"
d="M 116341500.000000,67035000.000000
116398903.000000,67046418.000000
116447566.000000,67078934.000000
116480082.000000,67127597.000000
116491500.000000,67185000.000000
116491500.000000,68835000.000000
116480082.000000,68892403.000000
116447566.000000,68941066.000000
116398903.000000,68973582.000000
116341500.000000,68985000.000000
116041500.000000,68985000.000000
115984097.000000,68973582.000000
115935434.000000,68941066.000000
115902918.000000,68892403.000000
115891500.000000,68835000.000000
115891500.000000,67185000.000000
115902918.000000,67127597.000000
115935434.000000,67078934.000000
115984097.000000,67046418.000000
116041500.000000,67035000.000000
Z" /> 
<path style="fill:#000000; fill-opacity:1.0; 
stroke:#000000; stroke-width:1.000000; stroke-opacity:1; 
stroke-linecap:round; stroke-linejoin:round;fill-rule:evenodd;"
d="M 115071500.000000,67035000.000000
115128903.000000,67046418.000000
115177566.000000,67078934.000000
115210082.000000,67127597.000000
115221500.000000,67185000.000000
115221500.000000,68835000.000000
115210082.000000,68892403.000000
115177566.000000,68941066.000000
115128903.000000,68973582.000000
115071500.000000,68985000.000000
114771500.000000,68985000.000000
114714097.000000,68973582.000000
114665434.000000,68941066.000000
114632918.000000,68892403.000000
114621500.000000,68835000.000000
114621500.000000,67185000.000000
114632918.000000,67127597.000000
114665434.000000,67078934.000000
114714097.000000,67046418.000000
114771500.000000,67035000.000000
Z" /> 
<path style="fill:#000000; fill-opacity:1.0; 
stroke:#000000; stroke-width:1.000000; stroke-opacity:1; 
stroke-linecap:round; stroke-linejoin:round;fill-rule:evenodd;"
d="M 113801500.000000,67035000.000000
113858903.000000,67046418.000000
113907566.000000,67078934.000000
113940082.000000,67127597.000000
113951500.000000,67185000.000000
113951500.000000,68835000.000000
113940082.000000,68892403.000000
113907566.000000,68941066.000000
113858903.000000,68973582.000000
113801500.000000,68985000.000000
113501500.000000,68985000.000000
113444097.000000,68973582.000000
113395434.000000,68941066.000000
113362918.000000,68892403.000000
113351500.000000,68835000.000000
113351500.000000,67185000.000000
113362918.000000,67127597.000000
113395434.000000,67078934.000000
113444097.000000,67046418.000000
113501500.000000,67035000.000000
Z" /> 
<path style="fill:#000000; fill-opacity:1.0; 
stroke:#000000; stroke-width:1.000000; stroke-opacity:1; 
stroke-linecap:round; stroke-linejoin:round;fill-rule:evenodd;"
d="M 113801500.000000,71985000.000000
113858903.000000,71996418.000000
113907566.000000,72028934.000000
113940082.000000,72077597.000000
113951500.000000,72135000.000000
113951500.000000,73785000.000000
113940082.000000,73842403.000000
113907566.000000,73891066.000000
113858903.000000,73923582.000000
113801500.000000,73935000.000000
113501500.000000,73935000.000000
113444097.000000,73923582.000000
113395434.000000,73891066.000000
113362918.000000,73842403.000000
113351500.000000,73785000.000000
113351500.000000,72135000.000000
113362918.000000,72077597.000000
113395434.000000,72028934.000000
113444097.000000,71996418.000000
113501500.000000,71985000.000000
Z" /> 
<path style="fill:#000000; fill-opacity:1.0; 
stroke:#000000; stroke-width:1.000000; stroke-opacity:1; 
stroke-linecap:round; stroke-linejoin:round;fill-rule:evenodd;"
d="M 115071500.000000,71985000.000000
115128903.000000,71996418.000000
115177566.000000,72028934.000000
115210082.000000,72077597.000000
115221500.000000,72135000.000000
115221500.000000,73785000.000000
115210082.000000,73842403.000000
115177566.000000,73891066.000000
115128903.000000,73923582.000000
115071500.000000,73935000.000000
114771500.000000,73935000.000000
114714097.000000,73923582.000000
114665434.000000,73891066.000000
114632918.000000,73842403.000000
114621500.000000,73785000.000000
114621500.000000,72135000.000000
114632918.000000,72077597.000000
114665434.000000,72028934.000000
114714097.000000,71996418.000000
114771500.000000,71985000.000000
Z" /> 
<path style="fill:#000000; fill-opacity:1.0; 
stroke:#000000; stroke-width:1.000000; stroke-opacity:1; 
stroke-linecap:round; stroke-linejoin:round;fill-rule:evenodd;"
d="M 116341500.000000,71985000.000000
116398903.000000,71996418.000000
116447566.000000,72028934.000000
116480082.000000,72077597.000000
116491500.000000,72135000.000000
116491500.000000,73785000.000000
116480082.000000,73842403.000000
116447566.000000,73891066.000000
116398903.000000,73923582.000000
116341500.000000,73935000.000000
116041500.000000,73935000.000000
115984097.000000,73923582.000000
115935434.000000,73891066.000000
115902918.000000,73842403.000000
115891500.000000,73785000.000000
115891500.000000,72135000.000000
115902918.000000,72077597.000000
115935434.000000,72028934.000000
115984097.000000,71996418.000000
116041500.000000,71985000.000000
Z" /> 
<path style="fill:#000000; fill-opacity:1.0; 
stroke:#000000; stroke-width:1.000000; stroke-opacity:1; 
stroke-linecap:round; stroke-linejoin:round;fill-rule:evenodd;"
d="M 117611500.000000,71985000.000000
117668903.000000,71996418.000000
117717566.000000,72028934.000000
117750082.000000,72077597.000000
117761500.000000,72135000.000000
117761500.000000,73785000.000000
117750082.000000,73842403.000000
117717566.000000,73891066.000000
117668903.000000,73923582.000000
117611500.000000,73935000.000000
117311500.000000,73935000.000000
117254097.000000,73923582.000000
117205434.000000,73891066.000000
117172918.000000,73842403.000000
117161500.000000,73785000.000000
117161500.000000,72135000.000000
117172918.000000,72077597.000000
117205434.000000,72028934.000000
117254097.000000,71996418.000000
117311500.000000,71985000.000000
Z" /> 
</g>
<g >
</g>
<g style="fill:#000000; fill-opacity:1.0; 
stroke:#000000; stroke-width:1.000000; stroke-opacity:1; 
stroke-linecap:round; stroke-linejoin:round;">
<path style="fill:#000000; fill-opacity:1.0; 
stroke:#000000; stroke-width:1.000000; stroke-opacity:1; 
stroke-linecap:round; stroke-linejoin:round;fill-rule:evenodd;"
d="M 115342000.000000,43975000.000000
115361030.000000,43879329.000000
115415223.000000,43798223.000000
115496329.000000,43744030.000000
115592000.000000,43725000.000000
116267000.000000,43725000.000000
116362671.000000,43744030.000000
116443777.000000,43798223.000000
116497970.000000,43879329.000000
116517000.000000,43975000.000000
116517000.000000,44925000.000000
116497970.000000,45020671.000000
116443777.000000,45101777.000000
116362671.000000,45155970.000000
116267000.000000,45175000.000000
115592000.000000,45175000.000000
115496329.000000,45155970.000000
115415223.000000,45101777.000000
115361030.000000,45020671.000000
115342000.000000,44925000.000000
Z" /> 
<path style="fill:#000000; fill-opacity:1.0; 
stroke:#000000; stroke-width:1.000000; stroke-opacity:1; 
stroke-linecap:round; stroke-linejoin:round;fill-rule:evenodd;"
d="M 117417000.000000,43975000.000000
117436030.000000,43879329.000000
117490223.000000,43798223.000000
117571329.000000,43744030.000000
117667000.000000,43725000.000000
118342000.000000,43725000.000000
118437671.000000,43744030.000000
118518777.000000,43798223.000000
118572970.000000,43879329.000000
118592000.000000,43975000.000000
118592000.000000,44925000.000000
118572970.000000,45020671.000000
118518777.000000,45101777.000000
118437671.000000,45155970.000000
118342000.000000,45175000.000000
117667000.000000,45175000.000000
117571329.000000,45155970.000000
117490223.000000,45101777.000000
117436030.000000,45020671.000000
117417000.000000,44925000.000000
Z" /> 
</g>
<g >
</g>
<g >
</g>
<g style="fill:#000000; fill-opacity:1.0; 
stroke:#000000; stroke-width:1.000000; stroke-opacity:1; 
stroke-linecap:round; stroke-linejoin:round;">
<path style="fill:#000000; fill-opacity:1.0; 
stroke:#000000; stroke-width:1.000000; stroke-opacity:1; 
stroke-linecap:round; stroke-linejoin:round;fill-rule:evenodd;"
d="M 100530500.000000,63405000.000000
100549530.000000,63309329.000000
100603723.000000,63228223.000000
100684829.000000,63174030.000000
100780500.000000,63155000.000000
101455500.000000,63155000.000000
101551171.000000,63174030.000000
101632277.000000,63228223.000000
101686470.000000,63309329.000000
101705500.000000,63405000.000000
101705500.000000,64355000.000000
101686470.000000,64450671.000000
101632277.000000,64531777.000000
101551171.000000,64585970.000000
101455500.000000,64605000.000000
100780500.000000,64605000.000000
100684829.000000,64585970.000000
100603723.000000,64531777.000000
100549530.000000,64450671.000000
100530500.000000,64355000.000000
Z" /> 
<path style="fill:#000000; fill-opacity:1.0; 
stroke:#000000; stroke-width:1.000000; stroke-opacity:1; 
stroke-linecap:round; stroke-linejoin:round;fill-rule:evenodd;"
d="M 102605500.000000,63405000.000000
102624530.000000,63309329.000000
102678723.000000,63228223.000000
102759829.000000,63174030.000000
102855500.000000,63155000.000000
103530500.000000,63155000.000000
103626171.000000,63174030.000000
103707277.000000,63228223.000000
103761470.000000,63309329.000000
103780500.000000,63405000.000000
103780500.000000,64355000.000000
103761470.000000,64450671.000000
103707277.000000,64531777.000000
103626171.000000,64585970.000000
103530500.000000,64605000.000000
102855500.000000,64605000.000000
102759829.000000,64585970.000000
102678723.000000,64531777.000000
102624530.000000,64450671.000000
102605500.000000,64355000.000000
Z" /> 
</g>
<g >
</g>
<g style="fill:#000000; fill-opacity:1.0; 
stroke:#000000; stroke-width:1.000000; stroke-opacity:1; 
stroke-linecap:round; stroke-linejoin:round;">
<path style="fill:#000000; fill-opacity:1.0; 
stroke:#000000; stroke-width:1.000000; stroke-opacity:1; 
stroke-linecap:round; stroke-linejoin:round;fill-rule:evenodd;"
d="M 107543000.000000,66355000.000000
107523970.000000,66450671.000000
107469777.000000,66531777.000000
107388671.000000,66585970.000000
107293000.000000,66605000.000000
106618000.000000,66605000.000000
106522329.000000,66585970.000000
106441223.000000,66531777.000000
106387030.000000,66450671.000000
106368000.000000,66355000.000000
106368000.000000,65405000.000000
106387030.000000,65309329.000000
106441223.000000,65228223.000000
106522329.000000,65174030.000000
106618000.000000,65155000.000000
107293000.000000,65155000.000000
107388671.000000,65174030.000000
107469777.000000,65228223.000000
107523970.000000,65309329.000000
107543000.000000,65405000.000000
Z" /> 
<path style="fill:#000000; fill-opacity:1.0; 
stroke:#000000; stroke-width:1.000000; stroke-opacity:1; 
stroke-linecap:round; stroke-linejoin:round;fill-rule:evenodd;"
d="M 105468000.000000,66355000.000000
105448970.000000,66450671.000000
105394777.000000,66531777.000000
105313671.000000,66585970.000000
105218000.000000,66605000.000000
104543000.000000,66605000.000000
104447329.000000,66585970.000000
104366223.000000,66531777.000000
104312030.000000,66450671.000000
104293000.000000,66355000.000000
104293000.000000,65405000.000000
104312030.000000,65309329.000000
104366223.000000,65228223.000000
104447329.000000,65174030.000000
104543000.000000,65155000.000000
105218000.000000,65155000.000000
105313671.000000,65174030.000000
105394777.000000,65228223.000000
105448970.000000,65309329.000000
105468000.000000,65405000.000000
Z" /> 
</g>
<g >
</g>
<g style="fill:#000000; fill-opacity:1.0; 
stroke:#000000; stroke-width:1.000000; stroke-opacity:1; 
stroke-linecap:round; stroke-linejoin:round;">
<path style="fill:#000000; fill-opacity:1.0; 
stroke:#000000; stroke-width:1.000000; stroke-opacity:1; 
stroke-linecap:round; stroke-linejoin:round;fill-rule:evenodd;"
d="M 131979000.000000,51595000.000000
131998030.000000,51499329.000000
132052223.000000,51418223.000000
132133329.000000,51364030.000000
132229000.000000,51345000.000000
132904000.000000,51345000.000000
132999671.000000,51364030.000000
133080777.000000,51418223.000000
133134970.000000,51499329.000000
133154000.000000,51595000.000000
133154000.000000,52545000.000000
133134970.000000,52640671.000000
133080777.000000,52721777.000000
132999671.000000,52775970.000000
132904000.000000,52795000.000000
132229000.000000,52795000.000000
132133329.000000,52775970.000000
132052223.000000,52721777.000000
131998030.000000,52640671.000000
131979000.000000,52545000.000000
Z" /> 
<path style="fill:#000000; fill-opacity:1.0; 
stroke:#000000; stroke-width:1.000000; stroke-opacity:1; 
stroke-linecap:round; stroke-linejoin:round;fill-rule:evenodd;"
d="M 134054000.000000,51595000.000000
134073030.000000,51499329.000000
134127223.000000,51418223.000000
134208329.000000,51364030.000000
134304000.000000,51345000.000000
134979000.000000,51345000.000000
135074671.000000,51364030.000000
135155777.000000,51418223.000000
135209970.000000,51499329.000000
135229000.000000,51595000.000000
135229000.000000,52545000.000000
135209970.000000,52640671.000000
135155777.000000,52721777.000000
135074671.000000,52775970.000000
134979000.000000,52795000.000000
134304000.000000,52795000.000000
134208329.000000,52775970.000000
134127223.000000,52721777.000000
134073030.000000,52640671.000000
134054000.000000,52545000.000000
Z" /> 
</g>
<g >
</g>
<g style="fill:#000000; fill-opacity:1.0; 
stroke:#000000; stroke-width:1.000000; stroke-opacity:1; 
stroke-linecap:round; stroke-linejoin:round;">
<path style="fill:#000000; fill-opacity:1.0; 
stroke:#000000; stroke-width:1.000000; stroke-opacity:1; 
stroke-linecap:round; stroke-linejoin:round;fill-rule:evenodd;"
d="M 124257000.000000,72321000.000000
124276030.000000,72225329.000000
124330223.000000,72144223.000000
124411329.000000,72090030.000000
124507000.000000,72071000.000000
125207000.000000,72071000.000000
125302671.000000,72090030.000000
125383777.000000,72144223.000000
125437970.000000,72225329.000000
125457000.000000,72321000.000000
125457000.000000,73221000.000000
125437970.000000,73316671.000000
125383777.000000,73397777.000000
125302671.000000,73451970.000000
125207000.000000,73471000.000000
124507000.000000,73471000.000000
124411329.000000,73451970.000000
124330223.000000,73397777.000000
124276030.000000,73316671.000000
124257000.000000,73221000.000000
Z" /> 
<path style="fill:#000000; fill-opacity:1.0; 
stroke:#000000; stroke-width:1.000000; stroke-opacity:1; 
stroke-linecap:round; stroke-linejoin:round;fill-rule:evenodd;"
d="M 126257000.000000,72321000.000000
126276030.000000,72225329.000000
126330223.000000,72144223.000000
126411329.000000,72090030.000000
126507000.000000,72071000.000000
127207000.000000,72071000.000000
127302671.000000,72090030.000000
127383777.000000,72144223.000000
127437970.000000,72225329.000000
127457000.000000,72321000.000000
127457000.000000,73221000.000000
127437970.000000,73316671.000000
127383777.000000,73397777.000000
127302671.000000,73451970.000000
127207000.000000,73471000.000000
126507000.000000,73471000.000000
126411329.000000,73451970.000000
126330223.000000,73397777.000000
126276030.000000,73316671.000000
126257000.000000,73221000.000000
Z" /> 
</g>
<g >
</g>
<g style="fill:#000000; fill-opacity:1.0; 
stroke:#000000; stroke-width:1.000000; stroke-opacity:1; 
stroke-linecap:round; stroke-linejoin:round;">
<path style="fill:#000000; fill-opacity:1.0; 
stroke:#000000; stroke-width:1.000000; stroke-opacity:1; 
stroke-linecap:round; stroke-linejoin:round;fill-rule:evenodd;"
d="M 128045001.000000,68876499.000000
128045001.000000,68426501.000000
129094999.000000,68426501.000000
129094999.000000,68876499.000000
Z" /> 
<path style="fill:#000000; fill-opacity:1.0; 
stroke:#000000; stroke-width:1.000000; stroke-opacity:1; 
stroke-linecap:round; stroke-linejoin:round;fill-rule:evenodd;"
d="M 128045001.000000,69526499.000000
128045001.000000,69076501.000000
129094999.000000,69076501.000000
129094999.000000,69526499.000000
Z" /> 
<path style="fill:#000000; fill-opacity:1.0; 
stroke:#000000; stroke-width:1.000000; stroke-opacity:1; 
stroke-linecap:round; stroke-linejoin:round;fill-rule:evenodd;"
d="M 128045001.000000,70176499.000000
128045001.000000,69726501.000000
129094999.000000,69726501.000000
129094999.000000,70176499.000000
Z" /> 
<path style="fill:#000000; fill-opacity:1.0; 
stroke:#000000; stroke-width:1.000000; stroke-opacity:1; 
stroke-linecap:round; stroke-linejoin:round;fill-rule:evenodd;"
d="M 128045001.000000,70826499.000000
128045001.000000,70376501.000000
129094999.000000,70376501.000000
129094999.000000,70826499.000000
Z" /> 
<path style="fill:#000000; fill-opacity:1.0; 
stroke:#000000; stroke-width:1.000000; stroke-opacity:1; 
stroke-linecap:round; stroke-linejoin:round;fill-rule:evenodd;"
d="M 128045001.000000,71476499.000000
128045001.000000,71026501.000000
129094999.000000,71026501.000000
129094999.000000,71476499.000000
Z" /> 
<path style="fill:#000000; fill-opacity:1.0; 
stroke:#000000; stroke-width:1.000000; stroke-opacity:1; 
stroke-linecap:round; stroke-linejoin:round;fill-rule:evenodd;"
d="M 128045001.000000,72126499.000000
128045001.000000,71676501.000000
129094999.000000,71676501.000000
129094999.000000,72126499.000000
Z" /> 
<path style="fill:#000000; fill-opacity:1.0; 
stroke:#000000; stroke-width:1.000000; stroke-opacity:1; 
stroke-linecap:round; stroke-linejoin:round;fill-rule:evenodd;"
d="M 128045001.000000,72776499.000000
128045001.000000,72326501.000000
129094999.000000,72326501.000000
129094999.000000,72776499.000000
Z" /> 
<path style="fill:#000000; fill-opacity:1.0; 
stroke:#000000; stroke-width:1.000000; stroke-opacity:1; 
stroke-linecap:round; stroke-linejoin:round;fill-rule:evenodd;"
d="M 128045001.000000,73426499.000000
128045001.000000,72976501.000000
129094999.000000,72976501.000000
129094999.000000,73426499.000000
Z" /> 
<path style="fill:#000000; fill-opacity:1.0; 
stroke:#000000; stroke-width:1.000000; stroke-opacity:1; 
stroke-linecap:round; stroke-linejoin:round;fill-rule:evenodd;"
d="M 133595001.000000,73426499.000000
133595001.000000,72976501.000000
134644999.000000,72976501.000000
134644999.000000,73426499.000000
Z" /> 
<path style="fill:#000000; fill-opacity:1.0; 
stroke:#000000; stroke-width:1.000000; stroke-opacity:1; 
stroke-linecap:round; stroke-linejoin:round;fill-rule:evenodd;"
d="M 133595001.000000,72776499.000000
133595001.000000,72326501.000000
134644999.000000,72326501.000000
134644999.000000,72776499.000000
Z" /> 
<path style="fill:#000000; fill-opacity:1.0; 
stroke:#000000; stroke-width:1.000000; stroke-opacity:1; 
stroke-linecap:round; stroke-linejoin:round;fill-rule:evenodd;"
d="M 133595001.000000,72126499.000000
133595001.000000,71676501.000000
134644999.000000,71676501.000000
134644999.000000,72126499.000000
Z" /> 
<path style="fill:#000000; fill-opacity:1.0; 
stroke:#000000; stroke-width:1.000000; stroke-opacity:1; 
stroke-linecap:round; stroke-linejoin:round;fill-rule:evenodd;"
d="M 133595001.000000,71476499.000000
133595001.000000,71026501.000000
134644999.000000,71026501.000000
134644999.000000,71476499.000000
Z" /> 
<path style="fill:#000000; fill-opacity:1.0; 
stroke:#000000; stroke-width:1.000000; stroke-opacity:1; 
stroke-linecap:round; stroke-linejoin:round;fill-rule:evenodd;"
d="M 133595001.000000,70826499.000000
133595001.000000,70376501.000000
134644999.000000,70376501.000000
134644999.000000,70826499.000000
Z" /> 
<path style="fill:#000000; fill-opacity:1.0; 
stroke:#000000; stroke-width:1.000000; stroke-opacity:1; 
stroke-linecap:round; stroke-linejoin:round;fill-rule:evenodd;"
d="M 133595001.000000,70176499.000000
133595001.000000,69726501.000000
134644999.000000,69726501.000000
134644999.000000,70176499.000000
Z" /> 
<path style="fill:#000000; fill-opacity:1.0; 
stroke:#000000; stroke-width:1.000000; stroke-opacity:1; 
stroke-linecap:round; stroke-linejoin:round;fill-rule:evenodd;"
d="M 133595001.000000,69526499.000000
133595001.000000,69076501.000000
134644999.000000,69076501.000000
134644999.000000,69526499.000000
Z" /> 
<path style="fill:#000000; fill-opacity:1.0; 
stroke:#000000; stroke-width:1.000000; stroke-opacity:1; 
stroke-linecap:round; stroke-linejoin:round;fill-rule:evenodd;"
d="M 133595001.000000,68876499.000000
133595001.000000,68426501.000000
134644999.000000,68426501.000000
134644999.000000,68876499.000000
Z" /> 
<path style="fill:#000000; fill-opacity:1.0; 
stroke:#000000; stroke-width:1.000000; stroke-opacity:1; 
stroke-linecap:round; stroke-linejoin:round;fill-rule:evenodd;"
d="M 131639001.000000,70747499.000000
131639001.000000,70210501.000000
132520999.000000,70210501.000000
132520999.000000,70747499.000000
Z" /> 
<path style="fill:#000000; fill-opacity:1.0; 
stroke:#000000; stroke-width:1.000000; stroke-opacity:1; 
stroke-linecap:round; stroke-linejoin:round;fill-rule:evenodd;"
d="M 130169001.000000,69852499.000000
130169001.000000,69315501.000000
131050999.000000,69315501.000000
131050999.000000,69852499.000000
Z" /> 
<path style="fill:#000000; fill-opacity:1.0; 
stroke:#000000; stroke-width:1.000000; stroke-opacity:1; 
stroke-linecap:round; stroke-linejoin:round;fill-rule:evenodd;"
d="M 130169001.000000,72537499.000000
130169001.000000,72000501.000000
131050999.000000,72000501.000000
131050999.000000,72537499.000000
Z" /> 
<path style="fill:#000000; fill-opacity:1.0; 
stroke:#000000; stroke-width:1.000000; stroke-opacity:1; 
stroke-linecap:round; stroke-linejoin:round;fill-rule:evenodd;"
d="M 131639001.000000,72537499.000000
131639001.000000,72000501.000000
132520999.000000,72000501.000000
132520999.000000,72537499.000000
Z" /> 
<path style="fill:#000000; fill-opacity:1.0; 
stroke:#000000; stroke-width:1.000000; stroke-opacity:1; 
stroke-linecap:round; stroke-linejoin:round;fill-rule:evenodd;"
d="M 130169001.000000,71642499.000000
130169001.000000,71105501.000000
131050999.000000,71105501.000000
131050999.000000,71642499.000000
Z" /> 
<path style="fill:#000000; fill-opacity:1.0; 
stroke:#000000; stroke-width:1.000000; stroke-opacity:1; 
stroke-linecap:round; stroke-linejoin:round;fill-rule:evenodd;"
d="M 130169001.000000,70747499.000000
130169001.000000,70210501.000000
131050999.000000,70210501.000000
131050999.000000,70747499.000000
Z" /> 
<path style="fill:#000000; fill-opacity:1.0; 
stroke:#000000; stroke-width:1.000000; stroke-opacity:1; 
stroke-linecap:round; stroke-linejoin:round;fill-rule:evenodd;"
d="M 131639001.000000,69852499.000000
131639001.000000,69315501.000000
132520999.000000,69315501.000000
132520999.000000,69852499.000000
Z" /> 
<path style="fill:#000000; fill-opacity:1.0; 
stroke:#000000; stroke-width:1.000000; stroke-opacity:1; 
stroke-linecap:round; stroke-linejoin:round;fill-rule:evenodd;"
d="M 131639001.000000,71642499.000000
131639001.000000,71105501.000000
132520999.000000,71105501.000000
132520999.000000,71642499.000000
Z" /> 
</g>
<g >
</g>
<g >
</g>
<g >
</g>
<g style="fill:#000000; fill-opacity:1.0; 
stroke:#000000; stroke-width:1.000000; stroke-opacity:1; 
stroke-linecap:round; stroke-linejoin:round;">
<path style="fill:#000000; fill-opacity:1.0; 
stroke:#000000; stroke-width:1.000000; stroke-opacity:1; 
stroke-linecap:round; stroke-linejoin:round;fill-rule:evenodd;"
d="M 115036000.000000,62705000.000000
115016970.000000,62800671.000000
114962777.000000,62881777.000000
114881671.000000,62935970.000000
114786000.000000,62955000.000000
114111000.000000,62955000.000000
114015329.000000,62935970.000000
113934223.000000,62881777.000000
113880030.000000,62800671.000000
113861000.000000,62705000.000000
113861000.000000,61755000.000000
113880030.000000,61659329.000000
113934223.000000,61578223.000000
114015329.000000,61524030.000000
114111000.000000,61505000.000000
114786000.000000,61505000.000000
114881671.000000,61524030.000000
114962777.000000,61578223.000000
115016970.000000,61659329.000000
115036000.000000,61755000.000000
Z" /> 
<path style="fill:#000000; fill-opacity:1.0; 
stroke:#000000; stroke-width:1.000000; stroke-opacity:1; 
stroke-linecap:round; stroke-linejoin:round;fill-rule:evenodd;"
d="M 112961000.000000,62705000.000000
112941970.000000,62800671.000000
112887777.000000,62881777.000000
112806671.000000,62935970.000000
112711000.000000,62955000.000000
112036000.000000,62955000.000000
111940329.000000,62935970.000000
111859223.000000,62881777.000000
111805030.000000,62800671.000000
111786000.000000,62705000.000000
111786000.000000,61755000.000000
111805030.000000,61659329.000000
111859223.000000,61578223.000000
111940329.000000,61524030.000000
112036000.000000,61505000.000000
112711000.000000,61505000.000000
112806671.000000,61524030.000000
112887777.000000,61578223.000000
112941970.000000,61659329.000000
112961000.000000,61755000.000000
Z" /> 
</g>
<g >
</g>
<g style="fill:#000000; fill-opacity:1.0; 
stroke:#000000; stroke-width:1.000000; stroke-opacity:1; 
stroke-linecap:round; stroke-linejoin:round;">
<path style="fill:#000000; fill-opacity:1.0; 
stroke:#000000; stroke-width:1.000000; stroke-opacity:1; 
stroke-linecap:round; stroke-linejoin:round;fill-rule:evenodd;"
d="M 116528000.000000,52121000.000000
116623671.000000,52140030.000000
116704777.000000,52194223.000000
116758970.000000,52275329.000000
116778000.000000,52371000.000000
116778000.000000,53071000.000000
116758970.000000,53166671.000000
116704777.000000,53247777.000000
116623671.000000,53301970.000000
116528000.000000,53321000.000000
115628000.000000,53321000.000000
115532329.000000,53301970.000000
115451223.000000,53247777.000000
115397030.000000,53166671.000000
115378000.000000,53071000.000000
115378000.000000,52371000.000000
115397030.000000,52275329.000000
115451223.000000,52194223.000000
115532329.000000,52140030.000000
115628000.000000,52121000.000000
Z" /> 
<path style="fill:#000000; fill-opacity:1.0; 
stroke:#000000; stroke-width:1.000000; stroke-opacity:1; 
stroke-linecap:round; stroke-linejoin:round;fill-rule:evenodd;"
d="M 116528000.000000,54121000.000000
116623671.000000,54140030.000000
116704777.000000,54194223.000000
116758970.000000,54275329.000000
116778000.000000,54371000.000000
116778000.000000,55071000.000000
116758970.000000,55166671.000000
116704777.000000,55247777.000000
116623671.000000,55301970.000000
116528000.000000,55321000.000000
115628000.000000,55321000.000000
115532329.000000,55301970.000000
115451223.000000,55247777.000000
115397030.000000,55166671.000000
115378000.000000,55071000.000000
115378000.000000,54371000.000000
115397030.000000,54275329.000000
115451223.000000,54194223.000000
115532329.000000,54140030.000000
115628000.000000,54121000.000000
Z" /> 
</g>
<g >
</g>
<g style="fill:#000000; fill-opacity:1.0; 
stroke:#000000; stroke-width:1.000000; stroke-opacity:1; 
stroke-linecap:round; stroke-linejoin:round;">
<path style="fill:#000000; fill-opacity:1.0; 
stroke:#000000; stroke-width:1.000000; stroke-opacity:1; 
stroke-linecap:round; stroke-linejoin:round;fill-rule:evenodd;"
d="M 115184500.000000,66260000.000000
115165470.000000,66355671.000000
115111277.000000,66436777.000000
115030171.000000,66490970.000000
114934500.000000,66510000.000000
114259500.000000,66510000.000000
114163829.000000,66490970.000000
114082723.000000,66436777.000000
114028530.000000,66355671.000000
114009500.000000,66260000.000000
114009500.000000,65310000.000000
114028530.000000,65214329.000000
114082723.000000,65133223.000000
114163829.000000,65079030.000000
114259500.000000,65060000.000000
114934500.000000,65060000.000000
115030171.000000,65079030.000000
115111277.000000,65133223.000000
115165470.000000,65214329.000000
115184500.000000,65310000.000000
Z" /> 
<path style="fill:#000000; fill-opacity:1.0; 
stroke:#000000; stroke-width:1.000000; stroke-opacity:1; 
stroke-linecap:round; stroke-linejoin:round;fill-rule:evenodd;"
d="M 113109500.000000,66260000.000000
113090470.000000,66355671.000000
113036277.000000,66436777.000000
112955171.000000,66490970.000000
112859500.000000,66510000.000000
112184500.000000,66510000.000000
112088829.000000,66490970.000000
112007723.000000,66436777.000000
111953530.000000,66355671.000000
111934500.000000,66260000.000000
111934500.000000,65310000.000000
111953530.000000,65214329.000000
112007723.000000,65133223.000000
112088829.000000,65079030.000000
112184500.000000,65060000.000000
112859500.000000,65060000.000000
112955171.000000,65079030.000000
113036277.000000,65133223.000000
113090470.000000,65214329.000000
113109500.000000,65310000.000000
Z" /> 
</g>
<g >
</g>
<g style="fill:#000000; fill-opacity:1.0; 
stroke:#000000; stroke-width:1.000000; stroke-opacity:1; 
stroke-linecap:round; stroke-linejoin:round;">
<path style="fill:#000000; fill-opacity:1.0; 
stroke:#000000; stroke-width:1.000000; stroke-opacity:1; 
stroke-linecap:round; stroke-linejoin:round;fill-rule:evenodd;"
d="M 123418000.000000,53942000.000000
123398970.000000,54037671.000000
123344777.000000,54118777.000000
123263671.000000,54172970.000000
123168000.000000,54192000.000000
122493000.000000,54192000.000000
122397329.000000,54172970.000000
122316223.000000,54118777.000000
122262030.000000,54037671.000000
122243000.000000,53942000.000000
122243000.000000,52992000.000000
122262030.000000,52896329.000000
122316223.000000,52815223.000000
122397329.000000,52761030.000000
122493000.000000,52742000.000000
123168000.000000,52742000.000000
123263671.000000,52761030.000000
123344777.000000,52815223.000000
123398970.000000,52896329.000000
123418000.000000,52992000.000000
Z" /> 
<path style="fill:#000000; fill-opacity:1.0; 
stroke:#000000; stroke-width:1.000000; stroke-opacity:1; 
stroke-linecap:round; stroke-linejoin:round;fill-rule:evenodd;"
d="M 121343000.000000,53942000.000000
121323970.000000,54037671.000000
121269777.000000,54118777.000000
121188671.000000,54172970.000000
121093000.000000,54192000.000000
120418000.000000,54192000.000000
120322329.000000,54172970.000000
120241223.000000,54118777.000000
120187030.000000,54037671.000000
120168000.000000,53942000.000000
120168000.000000,52992000.000000
120187030.000000,52896329.000000
120241223.000000,52815223.000000
120322329.000000,52761030.000000
120418000.000000,52742000.000000
121093000.000000,52742000.000000
121188671.000000,52761030.000000
121269777.000000,52815223.000000
121323970.000000,52896329.000000
121343000.000000,52992000.000000
Z" /> 
</g>
<g >
</g>
<g style="fill:#000000; fill-opacity:1.0; 
stroke:#000000; stroke-width:1.000000; stroke-opacity:1; 
stroke-linecap:round; stroke-linejoin:round;">
<path style="fill:#000000; fill-opacity:1.0; 
stroke:#000000; stroke-width:1.000000; stroke-opacity:1; 
stroke-linecap:round; stroke-linejoin:round;fill-rule:evenodd;"
d="M 120490000.000000,64923000.000000
120585671.000000,64942030.000000
120666777.000000,64996223.000000
120720970.000000,65077329.000000
120740000.000000,65173000.000000
120740000.000000,65848000.000000
120720970.000000,65943671.000000
120666777.000000,66024777.000000
120585671.000000,66078970.000000
120490000.000000,66098000.000000
119540000.000000,66098000.000000
119444329.000000,66078970.000000
119363223.000000,66024777.000000
119309030.000000,65943671.000000
119290000.000000,65848000.000000
119290000.000000,65173000.000000
119309030.000000,65077329.000000
119363223.000000,64996223.000000
119444329.000000,64942030.000000
119540000.000000,64923000.000000
Z" /> 
<path style="fill:#000000; fill-opacity:1.0; 
stroke:#000000; stroke-width:1.000000; stroke-opacity:1; 
stroke-linecap:round; stroke-linejoin:round;fill-rule:evenodd;"
d="M 120490000.000000,66998000.000000
120585671.000000,67017030.000000
120666777.000000,67071223.000000
120720970.000000,67152329.000000
120740000.000000,67248000.000000
120740000.000000,67923000.000000
120720970.000000,68018671.000000
120666777.000000,68099777.000000
120585671.000000,68153970.000000
120490000.000000,68173000.000000
119540000.000000,68173000.000000
119444329.000000,68153970.000000
119363223.000000,68099777.000000
119309030.000000,68018671.000000
119290000.000000,67923000.000000
119290000.000000,67248000.000000
119309030.000000,67152329.000000
119363223.000000,67071223.000000
119444329.000000,67017030.000000
119540000.000000,66998000.000000
Z" /> 
</g>
<g >
</g>
<g >
</g>
<g style="fill:#000000; fill-opacity:1.0; 
stroke:#000000; stroke-width:1.000000; stroke-opacity:1; 
stroke-linecap:round; stroke-linejoin:round;">
<path style="fill:#000000; fill-opacity:1.0; 
stroke:#000000; stroke-width:1.000000; stroke-opacity:1; 
stroke-linecap:round; stroke-linejoin:round;fill-rule:evenodd;"
d="M 112236000.000000,55354000.000000
112159463.000000,55338776.000000
112094579.000000,55295421.000000
112051224.000000,55230537.000000
112036000.000000,55154000.000000
112036000.000000,54754000.000000
112051224.000000,54677463.000000
112094579.000000,54612579.000000
112159463.000000,54569224.000000
112236000.000000,54554000.000000
112736000.000000,54554000.000000
112812537.000000,54569224.000000
112877421.000000,54612579.000000
112920776.000000,54677463.000000
112936000.000000,54754000.000000
112936000.000000,55154000.000000
112920776.000000,55230537.000000
112877421.000000,55295421.000000
112812537.000000,55338776.000000
112736000.000000,55354000.000000
Z" /> 
<path style="fill:#000000; fill-opacity:1.0; 
stroke:#000000; stroke-width:1.000000; stroke-opacity:1; 
stroke-linecap:round; stroke-linejoin:round;fill-rule:evenodd;"
d="M 114086000.000000,55354000.000000
114009463.000000,55338776.000000
113944579.000000,55295421.000000
113901224.000000,55230537.000000
113886000.000000,55154000.000000
113886000.000000,54754000.000000
113901224.000000,54677463.000000
113944579.000000,54612579.000000
114009463.000000,54569224.000000
114086000.000000,54554000.000000
114586000.000000,54554000.000000
114662537.000000,54569224.000000
114727421.000000,54612579.000000
114770776.000000,54677463.000000
114786000.000000,54754000.000000
114786000.000000,55154000.000000
114770776.000000,55230537.000000
114727421.000000,55295421.000000
114662537.000000,55338776.000000
114586000.000000,55354000.000000
Z" /> 
<path style="fill:#000000; fill-opacity:1.0; 
stroke:#000000; stroke-width:1.000000; stroke-opacity:1; 
stroke-linecap:round; stroke-linejoin:round;fill-rule:evenodd;"
d="M 114086000.000000,53904000.000000
114009463.000000,53888776.000000
113944579.000000,53845421.000000
113901224.000000,53780537.000000
113886000.000000,53704000.000000
113886000.000000,53304000.000000
113901224.000000,53227463.000000
113944579.000000,53162579.000000
114009463.000000,53119224.000000
114086000.000000,53104000.000000
114586000.000000,53104000.000000
114662537.000000,53119224.000000
114727421.000000,53162579.000000
114770776.000000,53227463.000000
114786000.000000,53304000.000000
114786000.000000,53704000.000000
114770776.000000,53780537.000000
114727421.000000,53845421.000000
114662537.000000,53888776.000000
114586000.000000,53904000.000000
Z" /> 
<path style="fill:#000000; fill-opacity:1.0; 
stroke:#000000; stroke-width:1.000000; stroke-opacity:1; 
stroke-linecap:round; stroke-linejoin:round;fill-rule:evenodd;"
d="M 112236000.000000,53904000.000000
112159463.000000,53888776.000000
112094579.000000,53845421.000000
112051224.000000,53780537.000000
112036000.000000,53704000.000000
112036000.000000,53304000.000000
112051224.000000,53227463.000000
112094579.000000,53162579.000000
112159463.000000,53119224.000000
112236000.000000,53104000.000000
112736000.000000,53104000.000000
112812537.000000,53119224.000000
112877421.000000,53162579.000000
112920776.000000,53227463.000000
112936000.000000,53304000.000000
112936000.000000,53704000.000000
112920776.000000,53780537.000000
112877421.000000,53845421.000000
112812537.000000,53888776.000000
112736000.000000,53904000.000000
Z" /> 
</g>
<g >
</g>
<g >
</g>
<g >
</g>
<g >
</g>
<g >
</g>
<g >
</g>
</g>
<g style="fill:#000000; fill-opacity:1.0; 
stroke:#000000; stroke-width:1.000000; stroke-opacity:1; 
stroke-linecap:round; stroke-linejoin:round;">
</g>
<g style="fill:#000000; fill-opacity:0.0; 
stroke:#000000; stroke-width:100000.000000; stroke-opacity:1; 
stroke-linecap:round; stroke-linejoin:round;">
<path d="M50038000.000000 80010000.000000 A2032000.000000 2032000.000000 0.0 0 0 52070000.000000 82042000.000000" />
<path d="M146050000 80010000
L146050000 40132000
" />
<path d="M144018000 38100000
L52070000 38100000
" />
<path d="M50038000 40132000
L50038000 80010000
" />
<path d="M52070000 82042000
L144018000 82042000
" />
<path d="M144018000.000000 82042000.000000 A2032000.000000 2032000.000000 0.0 0 0 146050000.000000 80010000.000000" />
<path d="M146050000.000000 40132000.000000 A2032000.000000 2032000.000000 0.0 0 0 144018000.000000 38100000.000000" />
<path d="M52070000.000000 38100000.000000 A2032000.000000 2032000.000000 0.0 0 0 50038000.000000 40132000.000000" />
<g >
</g>
<g >
</g>
<g >
</g>
<g >
</g>
<g >
</g>
<g >
</g>
<g >
</g>
<g >
</g>
<g >
</g>
<g >
</g>
<g >
</g>
<g >
</g>
<g >
</g>
<g >
</g>
<g >
</g>
<g >
</g>
<g >
</g>
<g >
</g>
<g >
</g>
<g >
</g>
<g >
</g>
<g >
</g>
<g >
</g>
<g >
</g>
<g >
</g>
<g >
</g>
<g >
</g>
<g >
</g>
<g >
</g>
<g >
</g>
<g >
</g>
<g >
</g>
<g >
</g>
<g >
</g>
<g >
</g>
<g >
</g>
<g >
</g>
<g >
</g>
<g >
</g>
<g >
</g>
<g >
</g>
<g >
</g>
<g >
</g>
</g> 
</svg>
