%TF.GenerationSoftware,KiCad,Pcbnew,(6.0.5-0)*%
%TF.CreationDate,2022-06-25T13:44:40+01:00*%
%TF.ProjectId,revised_minh_design,72657669-7365-4645-9f6d-696e685f6465,rev?*%
%TF.SameCoordinates,Original*%
%TF.FileFunction,Soldermask,Top*%
%TF.FilePolarity,Negative*%
%FSLAX46Y46*%
G04 Gerber Fmt 4.6, Leading zero omitted, Abs format (unit mm)*
G04 Created by KiCad (PCBNEW (6.0.5-0)) date 2022-06-25 13:44:40*
%MOMM*%
%LPD*%
G01*
G04 APERTURE LIST*
G04 Aperture macros list*
%AMRoundRect*
0 Rectangle with rounded corners*
0 $1 Rounding radius*
0 $2 $3 $4 $5 $6 $7 $8 $9 X,Y pos of 4 corners*
0 Add a 4 corners polygon primitive as box body*
4,1,4,$2,$3,$4,$5,$6,$7,$8,$9,$2,$3,0*
0 Add four circle primitives for the rounded corners*
1,1,$1+$1,$2,$3*
1,1,$1+$1,$4,$5*
1,1,$1+$1,$6,$7*
1,1,$1+$1,$8,$9*
0 Add four rect primitives between the rounded corners*
20,1,$1+$1,$2,$3,$4,$5,0*
20,1,$1+$1,$4,$5,$6,$7,0*
20,1,$1+$1,$6,$7,$8,$9,0*
20,1,$1+$1,$8,$9,$2,$3,0*%
G04 Aperture macros list end*
%ADD10O,1.700000X1.700000*%
%ADD11R,1.700000X1.700000*%
%ADD12C,2.500000*%
%ADD13RoundRect,0.100000X0.637500X0.100000X-0.637500X0.100000X-0.637500X-0.100000X0.637500X-0.100000X0*%
%ADD14RoundRect,0.250000X-0.475000X0.337500X-0.475000X-0.337500X0.475000X-0.337500X0.475000X0.337500X0*%
%ADD15RoundRect,0.250000X0.337500X0.475000X-0.337500X0.475000X-0.337500X-0.475000X0.337500X-0.475000X0*%
%ADD16RoundRect,0.100000X0.100000X-0.637500X0.100000X0.637500X-0.100000X0.637500X-0.100000X-0.637500X0*%
%ADD17RoundRect,0.250000X0.475000X-0.337500X0.475000X0.337500X-0.475000X0.337500X-0.475000X-0.337500X0*%
%ADD18R,1.500000X2.000000*%
%ADD19R,3.800000X2.000000*%
%ADD20RoundRect,0.250000X-0.350000X-0.450000X0.350000X-0.450000X0.350000X0.450000X-0.350000X0.450000X0*%
%ADD21RoundRect,0.150000X-0.150000X0.587500X-0.150000X-0.587500X0.150000X-0.587500X0.150000X0.587500X0*%
%ADD22RoundRect,0.250000X-0.337500X-0.475000X0.337500X-0.475000X0.337500X0.475000X-0.337500X0.475000X0*%
%ADD23RoundRect,0.150000X-0.150000X0.825000X-0.150000X-0.825000X0.150000X-0.825000X0.150000X0.825000X0*%
%ADD24R,1.905000X2.000000*%
%ADD25O,1.905000X2.000000*%
%ADD26R,1.050000X0.450000*%
%ADD27R,1.470000X0.895000*%
%ADD28RoundRect,0.250000X-0.450000X0.350000X-0.450000X-0.350000X0.450000X-0.350000X0.450000X0.350000X0*%
%ADD29RoundRect,0.200000X0.250000X-0.200000X0.250000X0.200000X-0.250000X0.200000X-0.250000X-0.200000X0*%
%ADD30C,1.600000*%
G04 APERTURE END LIST*
D10*
%TO.C,J4*%
X124079000Y-79375000D03*
X124079000Y-76835000D03*
X126619000Y-79375000D03*
X126619000Y-76835000D03*
X129159000Y-79375000D03*
X129159000Y-76835000D03*
X131699000Y-79375000D03*
X131699000Y-76835000D03*
X134239000Y-79375000D03*
X134239000Y-76835000D03*
X136779000Y-79375000D03*
X136779000Y-76835000D03*
X139319000Y-79375000D03*
X139319000Y-76835000D03*
X141859000Y-79375000D03*
D11*
X141859000Y-76835000D03*
%TD*%
%TO.C,J3*%
X141204000Y-71105000D03*
D10*
X143744000Y-71105000D03*
X141204000Y-68565000D03*
X143744000Y-68565000D03*
X141204000Y-66025000D03*
X143744000Y-66025000D03*
X141204000Y-63485000D03*
X143744000Y-63485000D03*
X141204000Y-60945000D03*
X143744000Y-60945000D03*
X141204000Y-58405000D03*
X143744000Y-58405000D03*
X141204000Y-55865000D03*
X143744000Y-55865000D03*
X141204000Y-53325000D03*
X143744000Y-53325000D03*
%TD*%
D11*
%TO.C,J2*%
X141844000Y-42799000D03*
D10*
X141844000Y-40259000D03*
X139304000Y-42799000D03*
X139304000Y-40259000D03*
X136764000Y-42799000D03*
X136764000Y-40259000D03*
X134224000Y-42799000D03*
X134224000Y-40259000D03*
X131684000Y-42799000D03*
X131684000Y-40259000D03*
X129144000Y-42799000D03*
X129144000Y-40259000D03*
X126604000Y-42799000D03*
X126604000Y-40259000D03*
X124064000Y-42799000D03*
X124064000Y-40259000D03*
%TD*%
D12*
%TO.C, *%
X54000000Y-40500000D03*
%TD*%
%TO.C, *%
X54000000Y-80000000D03*
%TD*%
%TO.C, *%
X119000000Y-80000000D03*
%TD*%
%TO.C, *%
X119000000Y-40500000D03*
%TD*%
D13*
%TO.C,U6*%
X129862500Y-51820000D03*
X129862500Y-51170000D03*
X129862500Y-50520000D03*
X129862500Y-49870000D03*
X129862500Y-49220000D03*
X129862500Y-48570000D03*
X129862500Y-47920000D03*
X129862500Y-47270000D03*
X129862500Y-46620000D03*
X129862500Y-45970000D03*
X124137500Y-45970000D03*
X124137500Y-46620000D03*
X124137500Y-47270000D03*
X124137500Y-47920000D03*
X124137500Y-48570000D03*
X124137500Y-49220000D03*
X124137500Y-49870000D03*
X124137500Y-50520000D03*
X124137500Y-51170000D03*
X124137500Y-51820000D03*
%TD*%
D14*
%TO.C,C18*%
X120015000Y-60176500D03*
X120015000Y-62251500D03*
%TD*%
D15*
%TO.C,C13*%
X114448500Y-75185000D03*
X112373500Y-75185000D03*
%TD*%
D16*
%TO.C,U7*%
X125472000Y-60012500D03*
X126122000Y-60012500D03*
X126772000Y-60012500D03*
X127422000Y-60012500D03*
X128072000Y-60012500D03*
X128722000Y-60012500D03*
X129372000Y-60012500D03*
X130022000Y-60012500D03*
X130672000Y-60012500D03*
X131322000Y-60012500D03*
X131322000Y-54287500D03*
X130672000Y-54287500D03*
X130022000Y-54287500D03*
X129372000Y-54287500D03*
X128722000Y-54287500D03*
X128072000Y-54287500D03*
X127422000Y-54287500D03*
X126772000Y-54287500D03*
X126122000Y-54287500D03*
X125472000Y-54287500D03*
%TD*%
D17*
%TO.C,C11*%
X110236000Y-55901500D03*
X110236000Y-53826500D03*
%TD*%
D15*
%TO.C,C8*%
X114448500Y-60071000D03*
X112373500Y-60071000D03*
%TD*%
D18*
%TO.C,U4*%
X106495500Y-68224000D03*
D19*
X104195500Y-74524000D03*
D18*
X104195500Y-68224000D03*
X101895500Y-68224000D03*
%TD*%
D15*
%TO.C,C2*%
X103018500Y-44450000D03*
X100943500Y-44450000D03*
%TD*%
D20*
%TO.C,R2*%
X116156500Y-75185000D03*
X118156500Y-75185000D03*
%TD*%
D15*
%TO.C,C3*%
X106955500Y-63880000D03*
X104880500Y-63880000D03*
%TD*%
%TO.C,C14*%
X127932000Y-66929000D03*
X125857000Y-66929000D03*
%TD*%
D17*
%TO.C,C12*%
X120128500Y-75586500D03*
X120128500Y-73511500D03*
%TD*%
D15*
%TO.C,C17*%
X122830500Y-55499000D03*
X120755500Y-55499000D03*
%TD*%
D21*
%TO.C,U3*%
X118171000Y-62308500D03*
X116271000Y-62308500D03*
X117221000Y-64183500D03*
%TD*%
D22*
%TO.C,C7*%
X101118000Y-65880000D03*
X103193000Y-65880000D03*
%TD*%
D23*
%TO.C,U5*%
X117461500Y-68010000D03*
X116191500Y-68010000D03*
X114921500Y-68010000D03*
X113651500Y-68010000D03*
X113651500Y-72960000D03*
X114921500Y-72960000D03*
X116191500Y-72960000D03*
X117461500Y-72960000D03*
%TD*%
D22*
%TO.C,C1*%
X115929500Y-44450000D03*
X118004500Y-44450000D03*
%TD*%
D24*
%TO.C,U2*%
X112014000Y-44902000D03*
D25*
X109474000Y-44902000D03*
X106934000Y-44902000D03*
%TD*%
D22*
%TO.C,C9*%
X101118000Y-63880000D03*
X103193000Y-63880000D03*
%TD*%
D15*
%TO.C,C5*%
X106955500Y-65880000D03*
X104880500Y-65880000D03*
%TD*%
D22*
%TO.C,C16*%
X132566500Y-52070000D03*
X134641500Y-52070000D03*
%TD*%
D20*
%TO.C,R1*%
X124857000Y-72771000D03*
X126857000Y-72771000D03*
%TD*%
D26*
%TO.C,U8*%
X128570000Y-68651500D03*
X128570000Y-69301500D03*
X128570000Y-69951500D03*
X128570000Y-70601500D03*
X128570000Y-71251500D03*
X128570000Y-71901500D03*
X128570000Y-72551500D03*
X128570000Y-73201500D03*
X134120000Y-73201500D03*
X134120000Y-72551500D03*
X134120000Y-71901500D03*
X134120000Y-71251500D03*
X134120000Y-70601500D03*
X134120000Y-69951500D03*
X134120000Y-69301500D03*
X134120000Y-68651500D03*
D27*
X132080000Y-70479000D03*
X130610000Y-69584000D03*
X130610000Y-72269000D03*
X132080000Y-72269000D03*
X130610000Y-71374000D03*
X130610000Y-70479000D03*
X132080000Y-69584000D03*
X132080000Y-71374000D03*
%TD*%
D11*
%TO.C,J1*%
X112014000Y-41529000D03*
D10*
X109474000Y-41529000D03*
X106934000Y-41529000D03*
%TD*%
D15*
%TO.C,C6*%
X114448500Y-62230000D03*
X112373500Y-62230000D03*
%TD*%
D28*
%TO.C,R3*%
X116078000Y-52721000D03*
X116078000Y-54721000D03*
%TD*%
D15*
%TO.C,C10*%
X114597000Y-65785000D03*
X112522000Y-65785000D03*
%TD*%
%TO.C,C15*%
X122830500Y-53467000D03*
X120755500Y-53467000D03*
%TD*%
D14*
%TO.C,C4*%
X120015000Y-65510500D03*
X120015000Y-67585500D03*
%TD*%
D29*
%TO.C,X1*%
X112486000Y-54954000D03*
X114336000Y-54954000D03*
X114336000Y-53504000D03*
X112486000Y-53504000D03*
%TD*%
D30*
%TO.C,U1*%
X97785000Y-75184000D03*
X95245000Y-75184000D03*
X92705000Y-75184000D03*
X90165000Y-75184000D03*
X87625000Y-75184000D03*
X85085000Y-75184000D03*
X82545000Y-75184000D03*
X80005000Y-75184000D03*
X77465000Y-75184000D03*
X74925000Y-75184000D03*
X72385000Y-75184000D03*
X69845000Y-75184000D03*
X67305000Y-75184000D03*
X64765000Y-75184000D03*
X62225000Y-75184000D03*
X59685000Y-75184000D03*
X57145000Y-75184000D03*
X54605000Y-75184000D03*
X52065000Y-75184000D03*
X52102143Y-49789715D03*
X54599014Y-49789715D03*
X57145000Y-49784000D03*
X59713572Y-49789715D03*
X62250715Y-49789715D03*
X64765000Y-49784000D03*
X67305000Y-49784000D03*
X69845000Y-49784000D03*
X72385000Y-49784000D03*
X74925000Y-49784000D03*
X77465000Y-49784000D03*
X80010715Y-49789715D03*
X82547858Y-49789715D03*
X85085000Y-49784000D03*
X87625000Y-49784000D03*
X90165000Y-49784000D03*
X92705000Y-49784000D03*
X95245000Y-49784000D03*
X97785000Y-49784000D03*
%TD*%
M02*
