%TF.GenerationSoftware,KiCad,Pcbnew,(6.0.5-0)*%
%TF.CreationDate,2022-06-25T14:04:27+01:00*%
%TF.ProjectId,revised_minh_design,72657669-7365-4645-9f6d-696e685f6465,rev?*%
%TF.SameCoordinates,Original*%
%TF.FileFunction,Legend,Top*%
%TF.FilePolarity,Positive*%
%FSLAX46Y46*%
G04 Gerber Fmt 4.6, Leading zero omitted, Abs format (unit mm)*
G04 Created by KiCad (PCBNEW (6.0.5-0)) date 2022-06-25 14:04:27*
%MOMM*%
%LPD*%
G01*
G04 APERTURE LIST*
%ADD10C,0.600000*%
%ADD11C,0.150000*%
%ADD12C,0.400000*%
%ADD13C,0.800000*%
%ADD14C,0.120000*%
G04 APERTURE END LIST*
D10*
X95227857Y-32844428D02*
X95227857Y-30144428D01*
X95227857Y-31430142D02*
X96770714Y-31430142D01*
X96770714Y-32844428D02*
X96770714Y-30144428D01*
X97670714Y-30144428D02*
X98570714Y-32844428D01*
X99470714Y-30144428D01*
X102299285Y-32073000D02*
X103585000Y-32073000D01*
X102042142Y-32844428D02*
X102942142Y-30144428D01*
X103842142Y-32844428D01*
X104485000Y-30144428D02*
X105127857Y-32844428D01*
X105642142Y-30915857D01*
X106156428Y-32844428D01*
X106799285Y-30144428D01*
X109242142Y-30273000D02*
X108985000Y-30144428D01*
X108599285Y-30144428D01*
X108213571Y-30273000D01*
X107956428Y-30530142D01*
X107827857Y-30787285D01*
X107699285Y-31301571D01*
X107699285Y-31687285D01*
X107827857Y-32201571D01*
X107956428Y-32458714D01*
X108213571Y-32715857D01*
X108599285Y-32844428D01*
X108856428Y-32844428D01*
X109242142Y-32715857D01*
X109370714Y-32587285D01*
X109370714Y-31687285D01*
X108856428Y-31687285D01*
D11*
X186355000Y-38663000D02*
X186383571Y-38605857D01*
X186383571Y-38520142D01*
X186355000Y-38434428D01*
X186297857Y-38377285D01*
X186240714Y-38348714D01*
X186126428Y-38320142D01*
X186040714Y-38320142D01*
X185926428Y-38348714D01*
X185869285Y-38377285D01*
X185812142Y-38434428D01*
X185783571Y-38520142D01*
X185783571Y-38577285D01*
X185812142Y-38663000D01*
X185840714Y-38691571D01*
X186040714Y-38691571D01*
X186040714Y-38577285D01*
X185783571Y-38948714D02*
X186383571Y-38948714D01*
X185783571Y-39291571D01*
X186383571Y-39291571D01*
X185783571Y-39577285D02*
X186383571Y-39577285D01*
X186383571Y-39720142D01*
X186355000Y-39805857D01*
X186297857Y-39863000D01*
X186240714Y-39891571D01*
X186126428Y-39920142D01*
X186040714Y-39920142D01*
X185926428Y-39891571D01*
X185869285Y-39863000D01*
X185812142Y-39805857D01*
X185783571Y-39720142D01*
X185783571Y-39577285D01*
X186383571Y-40548714D02*
X185783571Y-40748714D01*
X186383571Y-40948714D01*
X185783571Y-41148714D02*
X186383571Y-41148714D01*
X186383571Y-41377285D01*
X186355000Y-41434428D01*
X186326428Y-41463000D01*
X186269285Y-41491571D01*
X186183571Y-41491571D01*
X186126428Y-41463000D01*
X186097857Y-41434428D01*
X186069285Y-41377285D01*
X186069285Y-41148714D01*
X186355000Y-42063000D02*
X186383571Y-42005857D01*
X186383571Y-41920142D01*
X186355000Y-41834428D01*
X186297857Y-41777285D01*
X186240714Y-41748714D01*
X186126428Y-41720142D01*
X186040714Y-41720142D01*
X185926428Y-41748714D01*
X185869285Y-41777285D01*
X185812142Y-41834428D01*
X185783571Y-41920142D01*
X185783571Y-41977285D01*
X185812142Y-42063000D01*
X185840714Y-42091571D01*
X186040714Y-42091571D01*
X186040714Y-41977285D01*
X185783571Y-42348714D02*
X186383571Y-42348714D01*
X185955000Y-42548714D01*
X186383571Y-42748714D01*
X185783571Y-42748714D01*
X185783571Y-43491571D02*
X186383571Y-43491571D01*
X185783571Y-43777285D02*
X186383571Y-43777285D01*
X185955000Y-43977285D01*
X186383571Y-44177285D01*
X185783571Y-44177285D01*
X186383571Y-44577285D02*
X186383571Y-44691571D01*
X186355000Y-44748714D01*
X186297857Y-44805857D01*
X186183571Y-44834428D01*
X185983571Y-44834428D01*
X185869285Y-44805857D01*
X185812142Y-44748714D01*
X185783571Y-44691571D01*
X185783571Y-44577285D01*
X185812142Y-44520142D01*
X185869285Y-44463000D01*
X185983571Y-44434428D01*
X186183571Y-44434428D01*
X186297857Y-44463000D01*
X186355000Y-44520142D01*
X186383571Y-44577285D01*
X185783571Y-45091571D02*
X186383571Y-45091571D01*
X185783571Y-45434428D01*
X186383571Y-45434428D01*
X186383571Y-46091571D02*
X185783571Y-46291571D01*
X186383571Y-46491571D01*
X185783571Y-46691571D02*
X186383571Y-46691571D01*
X185955000Y-46891571D01*
X186383571Y-47091571D01*
X185783571Y-47091571D01*
X186383571Y-47491571D02*
X186383571Y-47605857D01*
X186355000Y-47663000D01*
X186297857Y-47720142D01*
X186183571Y-47748714D01*
X185983571Y-47748714D01*
X185869285Y-47720142D01*
X185812142Y-47663000D01*
X185783571Y-47605857D01*
X185783571Y-47491571D01*
X185812142Y-47434428D01*
X185869285Y-47377285D01*
X185983571Y-47348714D01*
X186183571Y-47348714D01*
X186297857Y-47377285D01*
X186355000Y-47434428D01*
X186383571Y-47491571D01*
X185783571Y-48005857D02*
X186383571Y-48005857D01*
X185783571Y-48348714D01*
X186383571Y-48348714D01*
X185783571Y-49091571D02*
X186383571Y-49091571D01*
X186383571Y-49234428D01*
X186355000Y-49320142D01*
X186297857Y-49377285D01*
X186240714Y-49405857D01*
X186126428Y-49434428D01*
X186040714Y-49434428D01*
X185926428Y-49405857D01*
X185869285Y-49377285D01*
X185812142Y-49320142D01*
X185783571Y-49234428D01*
X185783571Y-49091571D01*
X185955000Y-49663000D02*
X185955000Y-49948714D01*
X185783571Y-49605857D02*
X186383571Y-49805857D01*
X185783571Y-50005857D01*
X185840714Y-50548714D02*
X185812142Y-50520142D01*
X185783571Y-50434428D01*
X185783571Y-50377285D01*
X185812142Y-50291571D01*
X185869285Y-50234428D01*
X185926428Y-50205857D01*
X186040714Y-50177285D01*
X186126428Y-50177285D01*
X186240714Y-50205857D01*
X186297857Y-50234428D01*
X186355000Y-50291571D01*
X186383571Y-50377285D01*
X186383571Y-50434428D01*
X186355000Y-50520142D01*
X186326428Y-50548714D01*
X186355000Y-51577285D02*
X186383571Y-51520142D01*
X186383571Y-51434428D01*
X186355000Y-51348714D01*
X186297857Y-51291571D01*
X186240714Y-51263000D01*
X186126428Y-51234428D01*
X186040714Y-51234428D01*
X185926428Y-51263000D01*
X185869285Y-51291571D01*
X185812142Y-51348714D01*
X185783571Y-51434428D01*
X185783571Y-51491571D01*
X185812142Y-51577285D01*
X185840714Y-51605857D01*
X186040714Y-51605857D01*
X186040714Y-51491571D01*
X185783571Y-51863000D02*
X186383571Y-51863000D01*
X185783571Y-52205857D01*
X186383571Y-52205857D01*
X185783571Y-52491571D02*
X186383571Y-52491571D01*
X186383571Y-52634428D01*
X186355000Y-52720142D01*
X186297857Y-52777285D01*
X186240714Y-52805857D01*
X186126428Y-52834428D01*
X186040714Y-52834428D01*
X185926428Y-52805857D01*
X185869285Y-52777285D01*
X185812142Y-52720142D01*
X185783571Y-52634428D01*
X185783571Y-52491571D01*
X185783571Y-54320142D02*
X185783571Y-53977285D01*
X185783571Y-54148714D02*
X186383571Y-54148714D01*
X186297857Y-54091571D01*
X186240714Y-54034428D01*
X186212142Y-53977285D01*
X186326428Y-54548714D02*
X186355000Y-54577285D01*
X186383571Y-54634428D01*
X186383571Y-54777285D01*
X186355000Y-54834428D01*
X186326428Y-54863000D01*
X186269285Y-54891571D01*
X186212142Y-54891571D01*
X186126428Y-54863000D01*
X185783571Y-54520142D01*
X185783571Y-54891571D01*
X186383571Y-55063000D02*
X185783571Y-55263000D01*
X186383571Y-55463000D01*
D12*
X135592714Y-29591285D02*
X134735571Y-29591285D01*
X134735571Y-27791285D01*
X136192714Y-29591285D02*
X136192714Y-28391285D01*
X136192714Y-27791285D02*
X136107000Y-27877000D01*
X136192714Y-27962714D01*
X136278428Y-27877000D01*
X136192714Y-27791285D01*
X136192714Y-27962714D01*
X136792714Y-28391285D02*
X137478428Y-28391285D01*
X137049857Y-27791285D02*
X137049857Y-29334142D01*
X137135571Y-29505571D01*
X137307000Y-29591285D01*
X137478428Y-29591285D01*
X138078428Y-28905571D02*
X139449857Y-28905571D01*
X140307000Y-28391285D02*
X141678428Y-28905571D01*
X140307000Y-29419857D01*
X127621285Y-32489285D02*
X127621285Y-31289285D01*
X127621285Y-31460714D02*
X127707000Y-31375000D01*
X127878428Y-31289285D01*
X128135571Y-31289285D01*
X128307000Y-31375000D01*
X128392714Y-31546428D01*
X128392714Y-32489285D01*
X128392714Y-31546428D02*
X128478428Y-31375000D01*
X128649857Y-31289285D01*
X128907000Y-31289285D01*
X129078428Y-31375000D01*
X129164142Y-31546428D01*
X129164142Y-32489285D01*
X130278428Y-32489285D02*
X130107000Y-32403571D01*
X130021285Y-32317857D01*
X129935571Y-32146428D01*
X129935571Y-31632142D01*
X130021285Y-31460714D01*
X130107000Y-31375000D01*
X130278428Y-31289285D01*
X130535571Y-31289285D01*
X130707000Y-31375000D01*
X130792714Y-31460714D01*
X130878428Y-31632142D01*
X130878428Y-32146428D01*
X130792714Y-32317857D01*
X130707000Y-32403571D01*
X130535571Y-32489285D01*
X130278428Y-32489285D01*
X132421285Y-32489285D02*
X132421285Y-30689285D01*
X132421285Y-32403571D02*
X132249857Y-32489285D01*
X131907000Y-32489285D01*
X131735571Y-32403571D01*
X131649857Y-32317857D01*
X131564142Y-32146428D01*
X131564142Y-31632142D01*
X131649857Y-31460714D01*
X131735571Y-31375000D01*
X131907000Y-31289285D01*
X132249857Y-31289285D01*
X132421285Y-31375000D01*
X134049857Y-31289285D02*
X134049857Y-32489285D01*
X133278428Y-31289285D02*
X133278428Y-32232142D01*
X133364142Y-32403571D01*
X133535571Y-32489285D01*
X133792714Y-32489285D01*
X133964142Y-32403571D01*
X134049857Y-32317857D01*
X135164142Y-32489285D02*
X134992714Y-32403571D01*
X134907000Y-32232142D01*
X134907000Y-30689285D01*
X136535571Y-32403571D02*
X136364142Y-32489285D01*
X136021285Y-32489285D01*
X135849857Y-32403571D01*
X135764142Y-32232142D01*
X135764142Y-31546428D01*
X135849857Y-31375000D01*
X136021285Y-31289285D01*
X136364142Y-31289285D01*
X136535571Y-31375000D01*
X136621285Y-31546428D01*
X136621285Y-31717857D01*
X135764142Y-31889285D01*
X139107000Y-30689285D02*
X139449857Y-30689285D01*
X139621285Y-30775000D01*
X139792714Y-30946428D01*
X139878428Y-31289285D01*
X139878428Y-31889285D01*
X139792714Y-32232142D01*
X139621285Y-32403571D01*
X139449857Y-32489285D01*
X139107000Y-32489285D01*
X138935571Y-32403571D01*
X138764142Y-32232142D01*
X138678428Y-31889285D01*
X138678428Y-31289285D01*
X138764142Y-30946428D01*
X138935571Y-30775000D01*
X139107000Y-30689285D01*
X140649857Y-32489285D02*
X140649857Y-30689285D01*
X141678428Y-32489285D01*
X141678428Y-30689285D01*
D13*
X98039619Y-28533714D02*
X97801523Y-28771809D01*
X97087238Y-29009904D01*
X96611047Y-29009904D01*
X95896761Y-28771809D01*
X95420571Y-28295619D01*
X95182476Y-27819428D01*
X94944380Y-26867047D01*
X94944380Y-26152761D01*
X95182476Y-25200380D01*
X95420571Y-24724190D01*
X95896761Y-24248000D01*
X96611047Y-24009904D01*
X97087238Y-24009904D01*
X97801523Y-24248000D01*
X98039619Y-24486095D01*
X101849142Y-26390857D02*
X102563428Y-26628952D01*
X102801523Y-26867047D01*
X103039619Y-27343238D01*
X103039619Y-28057523D01*
X102801523Y-28533714D01*
X102563428Y-28771809D01*
X102087238Y-29009904D01*
X100182476Y-29009904D01*
X100182476Y-24009904D01*
X101849142Y-24009904D01*
X102325333Y-24248000D01*
X102563428Y-24486095D01*
X102801523Y-24962285D01*
X102801523Y-25438476D01*
X102563428Y-25914666D01*
X102325333Y-26152761D01*
X101849142Y-26390857D01*
X100182476Y-26390857D01*
X107801523Y-29009904D02*
X104944380Y-29009904D01*
X106372952Y-29009904D02*
X106372952Y-24009904D01*
X105896761Y-24724190D01*
X105420571Y-25200380D01*
X104944380Y-25438476D01*
X110896761Y-24009904D02*
X111372952Y-24009904D01*
X111849142Y-24248000D01*
X112087238Y-24486095D01*
X112325333Y-24962285D01*
X112563428Y-25914666D01*
X112563428Y-27105142D01*
X112325333Y-28057523D01*
X112087238Y-28533714D01*
X111849142Y-28771809D01*
X111372952Y-29009904D01*
X110896761Y-29009904D01*
X110420571Y-28771809D01*
X110182476Y-28533714D01*
X109944380Y-28057523D01*
X109706285Y-27105142D01*
X109706285Y-25914666D01*
X109944380Y-24962285D01*
X110182476Y-24486095D01*
X110420571Y-24248000D01*
X110896761Y-24009904D01*
X117325333Y-29009904D02*
X114468190Y-29009904D01*
X115896761Y-29009904D02*
X115896761Y-24009904D01*
X115420571Y-24724190D01*
X114944380Y-25200380D01*
X114468190Y-25438476D01*
X95182476Y-45109904D02*
X95182476Y-40109904D01*
X95182476Y-42490857D02*
X98039619Y-42490857D01*
X98039619Y-45109904D02*
X98039619Y-40109904D01*
X102325333Y-44871809D02*
X101849142Y-45109904D01*
X100896761Y-45109904D01*
X100420571Y-44871809D01*
X100182476Y-44395619D01*
X100182476Y-42490857D01*
X100420571Y-42014666D01*
X100896761Y-41776571D01*
X101849142Y-41776571D01*
X102325333Y-42014666D01*
X102563428Y-42490857D01*
X102563428Y-42967047D01*
X100182476Y-43443238D01*
X104706285Y-45109904D02*
X104706285Y-41776571D01*
X104706285Y-42728952D02*
X104944380Y-42252761D01*
X105182476Y-42014666D01*
X105658666Y-41776571D01*
X106134857Y-41776571D01*
X109706285Y-44871809D02*
X109230095Y-45109904D01*
X108277714Y-45109904D01*
X107801523Y-44871809D01*
X107563428Y-44395619D01*
X107563428Y-42490857D01*
X107801523Y-42014666D01*
X108277714Y-41776571D01*
X109230095Y-41776571D01*
X109706285Y-42014666D01*
X109944380Y-42490857D01*
X109944380Y-42967047D01*
X107563428Y-43443238D01*
D11*
%TO.C,R1*%
X183459380Y-24677666D02*
X182983190Y-25011000D01*
X183459380Y-25249095D02*
X182459380Y-25249095D01*
X182459380Y-24868142D01*
X182507000Y-24772904D01*
X182554619Y-24725285D01*
X182649857Y-24677666D01*
X182792714Y-24677666D01*
X182887952Y-24725285D01*
X182935571Y-24772904D01*
X182983190Y-24868142D01*
X182983190Y-25249095D01*
X183459380Y-23725285D02*
X183459380Y-24296714D01*
X183459380Y-24011000D02*
X182459380Y-24011000D01*
X182602238Y-24106238D01*
X182697476Y-24201476D01*
X182745095Y-24296714D01*
%TO.C,D1*%
X157376904Y-29154380D02*
X157376904Y-28154380D01*
X157615000Y-28154380D01*
X157757857Y-28202000D01*
X157853095Y-28297238D01*
X157900714Y-28392476D01*
X157948333Y-28582952D01*
X157948333Y-28725809D01*
X157900714Y-28916285D01*
X157853095Y-29011523D01*
X157757857Y-29106761D01*
X157615000Y-29154380D01*
X157376904Y-29154380D01*
X158900714Y-29154380D02*
X158329285Y-29154380D01*
X158615000Y-29154380D02*
X158615000Y-28154380D01*
X158519761Y-28297238D01*
X158424523Y-28392476D01*
X158329285Y-28440095D01*
X146550095Y-28265380D02*
X146550095Y-27265380D01*
X147121523Y-28265380D02*
X146692952Y-27693952D01*
X147121523Y-27265380D02*
X146550095Y-27836809D01*
%TO.C,C1*%
X184364333Y-63222142D02*
X184316714Y-63269761D01*
X184173857Y-63317380D01*
X184078619Y-63317380D01*
X183935761Y-63269761D01*
X183840523Y-63174523D01*
X183792904Y-63079285D01*
X183745285Y-62888809D01*
X183745285Y-62745952D01*
X183792904Y-62555476D01*
X183840523Y-62460238D01*
X183935761Y-62365000D01*
X184078619Y-62317380D01*
X184173857Y-62317380D01*
X184316714Y-62365000D01*
X184364333Y-62412619D01*
X185316714Y-63317380D02*
X184745285Y-63317380D01*
X185031000Y-63317380D02*
X185031000Y-62317380D01*
X184935761Y-62460238D01*
X184840523Y-62555476D01*
X184745285Y-62603095D01*
%TO.C,R7*%
X176490333Y-43251380D02*
X176157000Y-42775190D01*
X175918904Y-43251380D02*
X175918904Y-42251380D01*
X176299857Y-42251380D01*
X176395095Y-42299000D01*
X176442714Y-42346619D01*
X176490333Y-42441857D01*
X176490333Y-42584714D01*
X176442714Y-42679952D01*
X176395095Y-42727571D01*
X176299857Y-42775190D01*
X175918904Y-42775190D01*
X176823666Y-42251380D02*
X177490333Y-42251380D01*
X177061761Y-43251380D01*
%TO.C,R5*%
X160234333Y-33091380D02*
X159901000Y-32615190D01*
X159662904Y-33091380D02*
X159662904Y-32091380D01*
X160043857Y-32091380D01*
X160139095Y-32139000D01*
X160186714Y-32186619D01*
X160234333Y-32281857D01*
X160234333Y-32424714D01*
X160186714Y-32519952D01*
X160139095Y-32567571D01*
X160043857Y-32615190D01*
X159662904Y-32615190D01*
X161139095Y-32091380D02*
X160662904Y-32091380D01*
X160615285Y-32567571D01*
X160662904Y-32519952D01*
X160758142Y-32472333D01*
X160996238Y-32472333D01*
X161091476Y-32519952D01*
X161139095Y-32567571D01*
X161186714Y-32662809D01*
X161186714Y-32900904D01*
X161139095Y-32996142D01*
X161091476Y-33043761D01*
X160996238Y-33091380D01*
X160758142Y-33091380D01*
X160662904Y-33043761D01*
X160615285Y-32996142D01*
%TO.C, *%
%TO.C,R4*%
X139279333Y-26233380D02*
X138946000Y-25757190D01*
X138707904Y-26233380D02*
X138707904Y-25233380D01*
X139088857Y-25233380D01*
X139184095Y-25281000D01*
X139231714Y-25328619D01*
X139279333Y-25423857D01*
X139279333Y-25566714D01*
X139231714Y-25661952D01*
X139184095Y-25709571D01*
X139088857Y-25757190D01*
X138707904Y-25757190D01*
X140136476Y-25566714D02*
X140136476Y-26233380D01*
X139898380Y-25185761D02*
X139660285Y-25900047D01*
X140279333Y-25900047D01*
%TO.C,D2*%
X145311904Y-33218380D02*
X145311904Y-32218380D01*
X145550000Y-32218380D01*
X145692857Y-32266000D01*
X145788095Y-32361238D01*
X145835714Y-32456476D01*
X145883333Y-32646952D01*
X145883333Y-32789809D01*
X145835714Y-32980285D01*
X145788095Y-33075523D01*
X145692857Y-33170761D01*
X145550000Y-33218380D01*
X145311904Y-33218380D01*
X146264285Y-32313619D02*
X146311904Y-32266000D01*
X146407142Y-32218380D01*
X146645238Y-32218380D01*
X146740476Y-32266000D01*
X146788095Y-32313619D01*
X146835714Y-32408857D01*
X146835714Y-32504095D01*
X146788095Y-32646952D01*
X146216666Y-33218380D01*
X146835714Y-33218380D01*
%TO.C,U1*%
X168212380Y-61086904D02*
X169021904Y-61086904D01*
X169117142Y-61039285D01*
X169164761Y-60991666D01*
X169212380Y-60896428D01*
X169212380Y-60705952D01*
X169164761Y-60610714D01*
X169117142Y-60563095D01*
X169021904Y-60515476D01*
X168212380Y-60515476D01*
X169212380Y-59515476D02*
X169212380Y-60086904D01*
X169212380Y-59801190D02*
X168212380Y-59801190D01*
X168355238Y-59896428D01*
X168450476Y-59991666D01*
X168498095Y-60086904D01*
%TO.C,C2*%
X179046142Y-56681666D02*
X179093761Y-56729285D01*
X179141380Y-56872142D01*
X179141380Y-56967380D01*
X179093761Y-57110238D01*
X178998523Y-57205476D01*
X178903285Y-57253095D01*
X178712809Y-57300714D01*
X178569952Y-57300714D01*
X178379476Y-57253095D01*
X178284238Y-57205476D01*
X178189000Y-57110238D01*
X178141380Y-56967380D01*
X178141380Y-56872142D01*
X178189000Y-56729285D01*
X178236619Y-56681666D01*
X178236619Y-56300714D02*
X178189000Y-56253095D01*
X178141380Y-56157857D01*
X178141380Y-55919761D01*
X178189000Y-55824523D01*
X178236619Y-55776904D01*
X178331857Y-55729285D01*
X178427095Y-55729285D01*
X178569952Y-55776904D01*
X179141380Y-56348333D01*
X179141380Y-55729285D01*
%TO.C,C3*%
X178792142Y-46648666D02*
X178839761Y-46696285D01*
X178887380Y-46839142D01*
X178887380Y-46934380D01*
X178839761Y-47077238D01*
X178744523Y-47172476D01*
X178649285Y-47220095D01*
X178458809Y-47267714D01*
X178315952Y-47267714D01*
X178125476Y-47220095D01*
X178030238Y-47172476D01*
X177935000Y-47077238D01*
X177887380Y-46934380D01*
X177887380Y-46839142D01*
X177935000Y-46696285D01*
X177982619Y-46648666D01*
X177887380Y-46315333D02*
X177887380Y-45696285D01*
X178268333Y-46029619D01*
X178268333Y-45886761D01*
X178315952Y-45791523D01*
X178363571Y-45743904D01*
X178458809Y-45696285D01*
X178696904Y-45696285D01*
X178792142Y-45743904D01*
X178839761Y-45791523D01*
X178887380Y-45886761D01*
X178887380Y-46172476D01*
X178839761Y-46267714D01*
X178792142Y-46315333D01*
%TO.C,R6*%
X159726333Y-28265380D02*
X159393000Y-27789190D01*
X159154904Y-28265380D02*
X159154904Y-27265380D01*
X159535857Y-27265380D01*
X159631095Y-27313000D01*
X159678714Y-27360619D01*
X159726333Y-27455857D01*
X159726333Y-27598714D01*
X159678714Y-27693952D01*
X159631095Y-27741571D01*
X159535857Y-27789190D01*
X159154904Y-27789190D01*
X160583476Y-27265380D02*
X160393000Y-27265380D01*
X160297761Y-27313000D01*
X160250142Y-27360619D01*
X160154904Y-27503476D01*
X160107285Y-27693952D01*
X160107285Y-28074904D01*
X160154904Y-28170142D01*
X160202523Y-28217761D01*
X160297761Y-28265380D01*
X160488238Y-28265380D01*
X160583476Y-28217761D01*
X160631095Y-28170142D01*
X160678714Y-28074904D01*
X160678714Y-27836809D01*
X160631095Y-27741571D01*
X160583476Y-27693952D01*
X160488238Y-27646333D01*
X160297761Y-27646333D01*
X160202523Y-27693952D01*
X160154904Y-27741571D01*
X160107285Y-27836809D01*
%TO.C,R8*%
X182316380Y-56173666D02*
X181840190Y-56507000D01*
X182316380Y-56745095D02*
X181316380Y-56745095D01*
X181316380Y-56364142D01*
X181364000Y-56268904D01*
X181411619Y-56221285D01*
X181506857Y-56173666D01*
X181649714Y-56173666D01*
X181744952Y-56221285D01*
X181792571Y-56268904D01*
X181840190Y-56364142D01*
X181840190Y-56745095D01*
X181744952Y-55602238D02*
X181697333Y-55697476D01*
X181649714Y-55745095D01*
X181554476Y-55792714D01*
X181506857Y-55792714D01*
X181411619Y-55745095D01*
X181364000Y-55697476D01*
X181316380Y-55602238D01*
X181316380Y-55411761D01*
X181364000Y-55316523D01*
X181411619Y-55268904D01*
X181506857Y-55221285D01*
X181554476Y-55221285D01*
X181649714Y-55268904D01*
X181697333Y-55316523D01*
X181744952Y-55411761D01*
X181744952Y-55602238D01*
X181792571Y-55697476D01*
X181840190Y-55745095D01*
X181935428Y-55792714D01*
X182125904Y-55792714D01*
X182221142Y-55745095D01*
X182268761Y-55697476D01*
X182316380Y-55602238D01*
X182316380Y-55411761D01*
X182268761Y-55316523D01*
X182221142Y-55268904D01*
X182125904Y-55221285D01*
X181935428Y-55221285D01*
X181840190Y-55268904D01*
X181792571Y-55316523D01*
X181744952Y-55411761D01*
%TO.C,J1*%
X185340666Y-56475380D02*
X185340666Y-57189666D01*
X185293047Y-57332523D01*
X185197809Y-57427761D01*
X185054952Y-57475380D01*
X184959714Y-57475380D01*
X186340666Y-57475380D02*
X185769238Y-57475380D01*
X186054952Y-57475380D02*
X186054952Y-56475380D01*
X185959714Y-56618238D01*
X185864476Y-56713476D01*
X185769238Y-56761095D01*
%TO.C,R3*%
X170775333Y-35758380D02*
X170442000Y-35282190D01*
X170203904Y-35758380D02*
X170203904Y-34758380D01*
X170584857Y-34758380D01*
X170680095Y-34806000D01*
X170727714Y-34853619D01*
X170775333Y-34948857D01*
X170775333Y-35091714D01*
X170727714Y-35186952D01*
X170680095Y-35234571D01*
X170584857Y-35282190D01*
X170203904Y-35282190D01*
X171108666Y-34758380D02*
X171727714Y-34758380D01*
X171394380Y-35139333D01*
X171537238Y-35139333D01*
X171632476Y-35186952D01*
X171680095Y-35234571D01*
X171727714Y-35329809D01*
X171727714Y-35567904D01*
X171680095Y-35663142D01*
X171632476Y-35710761D01*
X171537238Y-35758380D01*
X171251523Y-35758380D01*
X171156285Y-35710761D01*
X171108666Y-35663142D01*
%TO.C, *%
%TO.C,R2*%
X184745333Y-27376380D02*
X184412000Y-26900190D01*
X184173904Y-27376380D02*
X184173904Y-26376380D01*
X184554857Y-26376380D01*
X184650095Y-26424000D01*
X184697714Y-26471619D01*
X184745333Y-26566857D01*
X184745333Y-26709714D01*
X184697714Y-26804952D01*
X184650095Y-26852571D01*
X184554857Y-26900190D01*
X184173904Y-26900190D01*
X185126285Y-26471619D02*
X185173904Y-26424000D01*
X185269142Y-26376380D01*
X185507238Y-26376380D01*
X185602476Y-26424000D01*
X185650095Y-26471619D01*
X185697714Y-26566857D01*
X185697714Y-26662095D01*
X185650095Y-26804952D01*
X185078666Y-27376380D01*
X185697714Y-27376380D01*
%TO.C,U2*%
X177800095Y-34631380D02*
X177800095Y-35440904D01*
X177847714Y-35536142D01*
X177895333Y-35583761D01*
X177990571Y-35631380D01*
X178181047Y-35631380D01*
X178276285Y-35583761D01*
X178323904Y-35536142D01*
X178371523Y-35440904D01*
X178371523Y-34631380D01*
X178800095Y-34726619D02*
X178847714Y-34679000D01*
X178942952Y-34631380D01*
X179181047Y-34631380D01*
X179276285Y-34679000D01*
X179323904Y-34726619D01*
X179371523Y-34821857D01*
X179371523Y-34917095D01*
X179323904Y-35059952D01*
X178752476Y-35631380D01*
X179371523Y-35631380D01*
%TO.C,U3*%
X92709904Y-42203619D02*
X92709904Y-41394095D01*
X92662285Y-41298857D01*
X92614666Y-41251238D01*
X92519428Y-41203619D01*
X92328952Y-41203619D01*
X92233714Y-41251238D01*
X92186095Y-41298857D01*
X92138476Y-41394095D01*
X92138476Y-42203619D01*
X91757523Y-42203619D02*
X91138476Y-42203619D01*
X91471809Y-41822666D01*
X91328952Y-41822666D01*
X91233714Y-41775047D01*
X91186095Y-41727428D01*
X91138476Y-41632190D01*
X91138476Y-41394095D01*
X91186095Y-41298857D01*
X91233714Y-41251238D01*
X91328952Y-41203619D01*
X91614666Y-41203619D01*
X91709904Y-41251238D01*
X91757523Y-41298857D01*
D14*
%TO.C,R1*%
X179859000Y-26194000D02*
X179859000Y-32734000D01*
X181229000Y-25424000D02*
X181229000Y-26194000D01*
X182599000Y-26194000D02*
X179859000Y-26194000D01*
X179859000Y-32734000D02*
X182599000Y-32734000D01*
X182599000Y-32734000D02*
X182599000Y-26194000D01*
X181229000Y-33504000D02*
X181229000Y-32734000D01*
%TO.C,D1*%
X150026000Y-29822000D02*
X154266000Y-29822000D01*
X154266000Y-29822000D02*
X154266000Y-27582000D01*
X150026000Y-27582000D02*
X150026000Y-29822000D01*
X149376000Y-28702000D02*
X150026000Y-28702000D01*
X150746000Y-27582000D02*
X150746000Y-29822000D01*
X150626000Y-27582000D02*
X150626000Y-29822000D01*
X150866000Y-27582000D02*
X150866000Y-29822000D01*
X154266000Y-27582000D02*
X150026000Y-27582000D01*
X154916000Y-28702000D02*
X154266000Y-28702000D01*
%TO.C,C1*%
X179125000Y-59654000D02*
X179125000Y-59209000D01*
X179125000Y-61949000D02*
X179125000Y-61504000D01*
X185365000Y-61949000D02*
X179125000Y-61949000D01*
X185365000Y-61949000D02*
X185365000Y-61504000D01*
X185365000Y-59654000D02*
X185365000Y-59209000D01*
X185365000Y-59209000D02*
X179125000Y-59209000D01*
%TO.C,R7*%
X179165000Y-42010000D02*
X179165000Y-39270000D01*
X179165000Y-39270000D02*
X172625000Y-39270000D01*
X172625000Y-39270000D02*
X172625000Y-42010000D01*
X179935000Y-40640000D02*
X179165000Y-40640000D01*
X172625000Y-42010000D02*
X179165000Y-42010000D01*
X171855000Y-40640000D02*
X172625000Y-40640000D01*
%TO.C,R5*%
X158972000Y-30507000D02*
X152432000Y-30507000D01*
X152432000Y-33247000D02*
X158972000Y-33247000D01*
X158972000Y-33247000D02*
X158972000Y-30507000D01*
X162282000Y-31877000D02*
X158972000Y-31877000D01*
X152432000Y-30507000D02*
X152432000Y-33247000D01*
X149122000Y-31877000D02*
X152432000Y-31877000D01*
%TO.C,R4*%
X143415000Y-24284000D02*
X143415000Y-27024000D01*
X142645000Y-25654000D02*
X143415000Y-25654000D01*
X149955000Y-27024000D02*
X149955000Y-24284000D01*
X150725000Y-25654000D02*
X149955000Y-25654000D01*
X143415000Y-27024000D02*
X149955000Y-27024000D01*
X149955000Y-24284000D02*
X143415000Y-24284000D01*
%TO.C,D2*%
X143446000Y-28407000D02*
X143290000Y-28407000D01*
X145762000Y-28407000D02*
X145606000Y-28407000D01*
X143290484Y-28407000D02*
G75*
G03*
X143447392Y-31639335I1235516J-1560000D01*
G01*
X143446000Y-28926039D02*
G75*
G03*
X143446163Y-31008130I1080000J-1040961D01*
G01*
X145605837Y-31008130D02*
G75*
G03*
X145606000Y-28926039I-1079837J1041130D01*
G01*
X145604608Y-31639335D02*
G75*
G03*
X145761516Y-28407000I-1078608J1672335D01*
G01*
%TO.C,U1*%
X169760000Y-55205000D02*
X174401000Y-55205000D01*
X169760000Y-58474000D02*
X171270000Y-58474000D01*
X174401000Y-65445000D02*
X174401000Y-55205000D01*
X169760000Y-65445000D02*
X169760000Y-55205000D01*
X171270000Y-65445000D02*
X171270000Y-55205000D01*
X169760000Y-65445000D02*
X174401000Y-65445000D01*
X169760000Y-62175000D02*
X171270000Y-62175000D01*
%TO.C,C2*%
X177900000Y-61754000D02*
X177455000Y-61754000D01*
X175160000Y-55514000D02*
X175160000Y-61754000D01*
X175605000Y-55514000D02*
X175160000Y-55514000D01*
X177900000Y-55514000D02*
X177900000Y-61754000D01*
X175605000Y-61754000D02*
X175160000Y-61754000D01*
X177900000Y-55514000D02*
X177455000Y-55514000D01*
%TO.C,C3*%
X178471000Y-54214000D02*
X178916000Y-54214000D01*
X176176000Y-54214000D02*
X176621000Y-54214000D01*
X176176000Y-47974000D02*
X176621000Y-47974000D01*
X176176000Y-54214000D02*
X176176000Y-47974000D01*
X178916000Y-54214000D02*
X178916000Y-47974000D01*
X178471000Y-47974000D02*
X178916000Y-47974000D01*
%TO.C,R6*%
X163044000Y-25654000D02*
X162274000Y-25654000D01*
X162274000Y-27024000D02*
X162274000Y-24284000D01*
X155734000Y-27024000D02*
X162274000Y-27024000D01*
X155734000Y-24284000D02*
X155734000Y-27024000D01*
X154964000Y-25654000D02*
X155734000Y-25654000D01*
X162274000Y-24284000D02*
X155734000Y-24284000D01*
%TO.C,R8*%
X180975000Y-45109000D02*
X180975000Y-45879000D01*
X182345000Y-52419000D02*
X182345000Y-45879000D01*
X179605000Y-45879000D02*
X179605000Y-52419000D01*
X179605000Y-52419000D02*
X182345000Y-52419000D01*
X182345000Y-45879000D02*
X179605000Y-45879000D01*
X180975000Y-53189000D02*
X180975000Y-52419000D01*
%TO.C,J1*%
X184252000Y-56194000D02*
X182922000Y-56194000D01*
X185582000Y-53594000D02*
X182922000Y-53594000D01*
X185582000Y-38294000D02*
X182922000Y-38294000D01*
X182922000Y-56194000D02*
X182922000Y-54864000D01*
X182922000Y-53594000D02*
X182922000Y-38294000D01*
X185582000Y-53594000D02*
X185582000Y-38294000D01*
%TO.C,R3*%
X179165000Y-38581000D02*
X179165000Y-35841000D01*
X179935000Y-37211000D02*
X179165000Y-37211000D01*
X172625000Y-35841000D02*
X172625000Y-38581000D01*
X179165000Y-35841000D02*
X172625000Y-35841000D01*
X171855000Y-37211000D02*
X172625000Y-37211000D01*
X172625000Y-38581000D02*
X179165000Y-38581000D01*
%TO.C,R2*%
X182907000Y-35909000D02*
X183237000Y-35909000D01*
X185647000Y-29369000D02*
X185647000Y-35909000D01*
X182907000Y-29369000D02*
X182907000Y-35909000D01*
X183237000Y-29369000D02*
X182907000Y-29369000D01*
X185647000Y-35909000D02*
X185317000Y-35909000D01*
X185317000Y-29369000D02*
X185647000Y-29369000D01*
%TO.C,U2*%
X172092000Y-34848000D02*
X173742000Y-34848000D01*
X177392000Y-34848000D02*
X177392000Y-24568000D01*
X177392000Y-24568000D02*
X172092000Y-24568000D01*
X175742000Y-34848000D02*
X177392000Y-34848000D01*
X172092000Y-24568000D02*
X172092000Y-34848000D01*
X175742000Y-34848000D02*
G75*
G03*
X173742000Y-34848000I-1000000J0D01*
G01*
%TO.C,U3*%
X176025800Y-55104400D02*
X169548800Y-55104400D01*
X86998800Y-55104400D02*
X93348800Y-55104400D01*
X169548800Y-55104400D02*
X169548800Y-65264400D01*
X176025800Y-55104400D02*
X176025800Y-49364400D01*
X93348800Y-43598400D02*
X93348800Y-33464400D01*
X176025800Y-43598400D02*
X169548800Y-43598400D01*
X86998800Y-43598400D02*
X86998800Y-49338400D01*
X169548800Y-65264400D02*
X93348800Y-65264400D01*
X86998800Y-49364400D02*
X86998800Y-55104400D01*
X86998800Y-43598400D02*
X93348800Y-43598400D01*
X169548800Y-43598400D02*
X169548800Y-33464400D01*
X93348800Y-65264400D02*
X93348800Y-55104400D01*
X169548800Y-65264400D02*
X169548800Y-59464400D01*
X176025800Y-49338400D02*
X176025800Y-43598400D01*
X169548800Y-33464400D02*
X93348800Y-33464400D01*
%TD*%
M02*
